<svg xmlns="http://www.w3.org/2000/svg" width="30" height="30" viewBox="0 0 20 20" fill="none">
  <path d="M13.3324 17.5C12.874 17.5 12.499 17.125 12.499 16.6667V12.425C12.499 11.6083 13.0907 10.925 13.8907 10.7833C14.4938 10.6813 15.0571 10.4153 15.519 10.0144C15.981 9.61358 16.3237 9.09333 16.5096 8.51066C16.6956 7.928 16.7176 7.3054 16.5732 6.71106C16.4289 6.11672 16.1238 5.57356 15.6913 5.14109C15.2588 4.70861 14.7157 4.40349 14.1213 4.25915C13.527 4.11481 12.9044 4.13682 12.3217 4.32276C11.739 4.5087 11.2188 4.85141 10.8179 5.31334C10.4171 5.77528 10.1511 6.33862 10.049 6.94167C9.90738 7.74167 9.22404 8.33333 8.40738 8.33333H4.85738L5.59071 9.06667C5.66786 9.14382 5.72906 9.23541 5.77081 9.33621C5.81257 9.43702 5.83406 9.54506 5.83406 9.65417C5.83406 9.76328 5.81257 9.87132 5.77081 9.97212C5.72906 10.0729 5.66786 10.1645 5.59071 10.2417C5.51356 10.3188 5.42196 10.38 5.32116 10.4218C5.22036 10.4635 5.11232 10.485 5.00321 10.485C4.8941 10.485 4.78606 10.4635 4.68526 10.4218C4.58445 10.38 4.49286 10.3188 4.41571 10.2417L2.25738 8.09167C2.18012 8.01457 2.11883 7.923 2.07701 7.82219C2.0352 7.72138 2.01367 7.61331 2.01367 7.50417C2.01367 7.39503 2.0352 7.28696 2.07701 7.18615C2.11883 7.08534 2.18012 6.99376 2.25738 6.91667L4.41571 4.75833C4.49286 4.68118 4.58445 4.61998 4.68526 4.57823C4.78606 4.53647 4.8941 4.51498 5.00321 4.51498C5.11232 4.51498 5.22036 4.53647 5.32116 4.57823C5.42196 4.61998 5.51356 4.68118 5.59071 4.75833C5.66786 4.83549 5.72906 4.92708 5.77081 5.02788C5.81257 5.12868 5.83406 5.23673 5.83406 5.34583C5.83406 5.45494 5.81257 5.56298 5.77081 5.66379C5.72906 5.76459 5.66786 5.85618 5.59071 5.93333L4.85738 6.66667H8.39904C8.59607 5.50104 9.19973 4.44292 10.1029 3.68013C11.006 2.91734 12.1502 2.49923 13.3324 2.5C16.0907 2.5 18.3324 4.74167 18.3324 7.5C18.3324 9.975 16.5324 12.0333 14.1657 12.4333V16.6667C14.1657 17.125 13.7907 17.5 13.3324 17.5Z" fill="#072ACB"/>
</svg>