<svg width="24" height="31" viewBox="0 0 24 31" fill="none" xmlns="http://www.w3.org/2000/svg">
<path fill-rule="evenodd" clip-rule="evenodd" d="M14.7521 2.90248C14.1918 3.86638 13.852 5.00277 13.7692 6.18973C13.6864 7.3767 13.8636 8.56945 14.282 9.64005C14.7003 10.7107 15.3439 11.6187 16.1437 12.2668C16.9436 12.9148 17.8695 13.2785 18.8221 13.3187V13.3325C18.8371 13.58 18.8521 13.8337 18.8721 14.0787C19.1091 16.8875 19.6491 18.8162 20.1681 20.0825C20.5131 20.9262 20.8521 21.4862 21.0921 21.825C21.1974 21.9743 21.311 22.1143 21.4321 22.2437L21.4421 22.2512C21.5704 22.3676 21.6659 22.5319 21.7149 22.7204C21.7639 22.9088 21.7638 23.1119 21.7147 23.3003C21.6656 23.4888 21.57 23.6529 21.4416 23.7692C21.3132 23.8855 21.1586 23.9479 21.0001 23.9475H3.00009C2.84189 23.9472 2.6878 23.8845 2.55986 23.7682C2.43192 23.6519 2.33667 23.488 2.28775 23.2999C2.23882 23.1119 2.23872 22.9093 2.28745 22.7212C2.33619 22.533 2.43127 22.369 2.55909 22.2525L2.56709 22.2437L2.63109 22.1762C2.69109 22.1087 2.78809 21.995 2.90809 21.825C3.14809 21.4875 3.48709 20.9275 3.83209 20.0837C4.52209 18.3975 5.25009 15.5475 5.25009 11.01C5.25009 8.65873 5.95009 6.39248 7.21009 4.71248C8.47209 3.02998 10.1941 2.07248 12.0001 2.07248C12.3828 2.07248 12.7604 2.11456 13.1331 2.19873C13.3711 2.25248 14.1511 2.55623 14.7521 2.90248Z" fill="#111111"/>
<path fill-rule="evenodd" clip-rule="evenodd" d="M15.25 6.75998C15.25 5.51678 15.6451 4.32449 16.3484 3.44542C17.0516 2.56634 18.0055 2.07248 19 2.07248C19.9946 2.07248 20.9484 2.56634 21.6517 3.44542C22.3549 4.32449 22.75 5.51678 22.75 6.75998C22.75 8.00318 22.3549 9.19547 21.6517 10.0745C20.9484 10.9536 19.9946 11.4475 19 11.4475C18.0055 11.4475 17.0516 10.9536 16.3484 10.0745C15.6451 9.19547 15.25 8.00318 15.25 6.75998ZM9.89404 25.9487C9.97926 25.887 10.0734 25.8469 10.171 25.8306C10.2687 25.8143 10.3679 25.8223 10.4631 25.854C10.5583 25.8857 10.6475 25.9405 10.7258 26.0153C10.804 26.0901 10.8697 26.1834 10.919 26.29C11.0289 26.5266 11.1867 26.723 11.3764 26.8595C11.5661 26.9961 11.7811 27.0679 12 27.0679C12.2189 27.0679 12.434 26.9961 12.6237 26.8595C12.8134 26.723 12.9711 26.5266 13.081 26.29C13.1305 26.1834 13.1962 26.0901 13.2745 26.0154C13.3528 25.9406 13.4421 25.8858 13.5373 25.8542C13.6326 25.8226 13.7319 25.8147 13.8295 25.831C13.9272 25.8473 14.0213 25.8876 14.1065 25.9494C14.1918 26.0112 14.2664 26.0933 14.3262 26.1912C14.3861 26.2891 14.4299 26.4007 14.4552 26.5197C14.4805 26.6388 14.4868 26.7629 14.4737 26.885C14.4607 27.007 14.4285 27.1247 14.379 27.2312C14.1373 27.7523 13.7903 28.1848 13.3728 28.4855C12.9553 28.7862 12.4819 28.9444 12 28.9444C11.5182 28.9444 11.0448 28.7862 10.6273 28.4855C10.2097 28.1848 9.86274 27.7523 9.62104 27.2312C9.5715 27.1246 9.53926 27.0069 9.52617 26.8847C9.51308 26.7625 9.51939 26.6383 9.54475 26.5192C9.57011 26.4001 9.61401 26.2884 9.67394 26.1905C9.73388 26.0926 9.80867 26.0104 9.89404 25.9487Z" fill="#EF233C"/>
</svg>
