<svg width="300" height="285" viewBox="0 0 300 285" fill="none" xmlns="http://www.w3.org/2000/svg">
<path d="M149.118 284.873C231.474 284.873 298.236 271.556 298.236 255.13C298.236 238.703 231.474 225.386 149.118 225.386C66.7625 225.386 0 238.703 0 255.13C0 271.556 66.7625 284.873 149.118 284.873Z" fill="#92E3A9"/>
<path opacity="0.5" d="M149.118 284.873C231.474 284.873 298.236 271.556 298.236 255.13C298.236 238.703 231.474 225.386 149.118 225.386C66.7625 225.386 0 238.703 0 255.13C0 271.556 66.7625 284.873 149.118 284.873Z" fill="white"/>
<path d="M210.764 3.63171H213.597C224.26 3.63171 234.485 7.8673 242.025 15.4067C249.564 22.9461 253.8 33.1717 253.8 43.834V194.917H170.562V43.834C170.562 33.1717 174.797 22.9461 182.337 15.4067C189.876 7.8673 200.102 3.63171 210.764 3.63171Z" stroke="#263238" stroke-linecap="round" stroke-linejoin="round"/>
<path d="M179.958 194.489V46.5897C179.958 38.0444 183.352 29.8491 189.395 23.8066C195.437 17.7641 203.632 14.3695 212.178 14.3695C216.411 14.3661 220.604 15.197 224.516 16.8147C228.428 18.4324 231.983 20.8052 234.978 23.7974C237.972 26.7897 240.348 30.3428 241.969 34.2536C243.59 38.1644 244.424 42.3563 244.424 46.5897V194.489" stroke="#263238" stroke-linecap="round" stroke-linejoin="round"/>
<path d="M212.178 3.63159V194.709" stroke="#263238" stroke-linecap="round" stroke-linejoin="round"/>
<path d="M171.009 40.4362H253.236" stroke="#263238" stroke-linecap="round" stroke-linejoin="round"/>
<path d="M171.009 66.3926H253.236" stroke="#263238" stroke-linecap="round" stroke-linejoin="round"/>
<path d="M171.009 92.349H253.236" stroke="#263238" stroke-linecap="round" stroke-linejoin="round"/>
<path d="M171.009 118.299H253.236" stroke="#263238" stroke-linecap="round" stroke-linejoin="round"/>
<path d="M171.009 144.255H253.236" stroke="#263238" stroke-linecap="round" stroke-linejoin="round"/>
<path d="M171.009 170.212H253.236" stroke="#263238" stroke-linecap="round" stroke-linejoin="round"/>
<path d="M182 16.6195L189.457 23.4085" stroke="#263238" stroke-linecap="round" stroke-linejoin="round"/>
<path d="M242.037 16.6195L234.581 23.4085" stroke="#263238" stroke-linecap="round" stroke-linejoin="round"/>
<path d="M274.511 228.175C274.511 228.175 289.379 201.926 292.842 189.82C296.304 177.714 283.278 187.227 283.278 187.227C283.278 187.227 298.742 161.672 299.942 144.858C301.142 128.045 283.401 148.879 283.401 148.879C283.401 148.879 289.496 127.215 290.825 108.456C292.154 89.697 283.693 98.8462 283.693 98.8462C283.693 98.8462 282.986 63.0467 278.181 66.6001C273.376 70.1534 271.256 81.7148 271.256 81.7148C271.256 81.7148 268.565 46.4146 264.642 55.8881C260.719 65.3616 266.924 115.206 266.924 115.206C266.924 115.206 257.723 89.1977 255.467 102.691C253.21 116.185 270.03 153.781 270.03 153.781C270.03 153.781 261.484 155.123 260.427 160.913C259.37 166.704 272.955 195.559 272.955 195.559C272.955 195.559 261.679 180.457 259.649 190.709C257.619 200.96 269.038 232.331 269.038 232.331L274.511 228.175Z" fill="#92E3A9"/>
<path d="M291.214 176.054C289.139 168.759 283.595 173.564 283.595 173.564C283.595 173.564 295.364 136.046 290.371 133.09C285.378 130.133 281.183 143.464 281.183 143.464C281.183 143.464 287.22 86.0399 283.777 89.0421C280.334 92.0443 278.337 110.758 278.337 110.758C278.337 110.758 274.251 58.4884 269.712 67.268C265.174 76.0477 270.517 129.082 270.517 129.082C270.517 129.082 262.009 102.497 261.186 114.117C260.362 125.737 269.33 164.097 269.33 164.097C269.33 164.097 259.163 160.777 259.396 166.639C259.629 172.501 265.504 199.579 265.504 199.579C265.504 199.579 259.221 196.532 260.745 202.491C262.269 208.45 269.44 226.482 269.44 226.482L277.066 228.972C277.066 228.972 288.089 210.907 283.55 211.231C282.249 211.297 280.977 211.636 279.815 212.224C278.654 212.813 277.629 213.639 276.806 214.649C276.806 214.649 293.296 183.336 291.214 176.054Z" stroke="#263238" stroke-linecap="round" stroke-linejoin="round"/>
<path d="M273.233 225.782C273.233 225.782 276.579 165.939 275.179 128.064" stroke="#263238" stroke-linecap="round" stroke-linejoin="round"/>
<path d="M279.497 253.366H265.316L263.649 222.89H281.157L279.497 253.366Z" fill="#263238" stroke="#263238" stroke-linecap="round" stroke-linejoin="round"/>
<path d="M159.396 33.764H120.348V87.272H159.396V33.764Z" stroke="#263238" stroke-linecap="round" stroke-linejoin="round"/>
<path d="M153.592 41.7139H126.151V79.316H153.592V41.7139Z" stroke="#263238" stroke-linecap="round" stroke-linejoin="round"/>
<path d="M61.9766 89.3469C63.9334 89.74 65.7851 90.5421 67.4104 91.7007C69.6799 93.4514 77.9602 106.932 81.0273 109.857C84.0943 112.781 87.732 116.38 86.4676 119.278C85.2031 122.177 83.2254 127.254 77.7657 125.114C72.306 122.974 70.8405 120.205 69.3881 117.67C67.9356 115.135 63.228 111.329 63.228 111.329" fill="#92E3A9"/>
<path d="M61.9766 89.3469C63.9334 89.74 65.7851 90.5421 67.4104 91.7007C69.6799 93.4514 77.9602 106.932 81.0273 109.857C84.0943 112.781 87.732 116.38 86.4676 119.278C85.2031 122.177 83.2254 127.254 77.7657 125.114C72.306 122.974 70.8405 120.205 69.3881 117.67C67.9356 115.135 63.228 111.329 63.228 111.329" stroke="#263238" stroke-linecap="round" stroke-linejoin="round"/>
<path d="M84.4511 117.119C80.606 112.956 77.2082 116.069 74.9387 119.648C72.4164 123.636 70.1728 127.799 67.9422 131.968C67.9422 131.968 64.5834 135.158 64.4148 136.669C64.2462 138.18 66.9307 142.207 68.3054 142.044C69.68 141.882 72.3386 141.033 72.5071 140.196C72.6757 139.36 71.3335 139.548 71.3335 139.548L72.3386 138.037L71.6901 134.451C76.1059 130.69 82.9403 124.835 84.8532 122.916C86.6104 121.12 85.9879 118.785 84.4511 117.119Z" fill="white" stroke="#263238" stroke-linecap="round" stroke-linejoin="round"/>
<path d="M37.8095 141.435C37.8095 141.435 36.0328 149.041 36.7915 151.33C37.5502 153.619 40.3124 159.26 40.3124 159.26L46.0575 232.35L52.2694 232.195L55.0836 155.266L56.3415 155.117L58.5786 232.195L64.9785 232.448L69.2906 157.924C69.2906 157.924 69.939 148.289 69.939 147.271C69.939 146.253 68.2596 136.896 68.2596 136.896L37.8095 141.435Z" fill="#263238" stroke="#263238" stroke-linecap="round" stroke-linejoin="round"/>
<path d="M46.0575 232.35C46.0575 232.35 38.6849 238.452 38.5293 240.527C38.3737 242.602 44.4559 241.649 47.0172 238.582C49.5785 235.515 52.0295 236.338 52.1462 234.257L52.2694 232.175L46.0575 232.35Z" fill="white" stroke="#263238" stroke-linecap="round" stroke-linejoin="round"/>
<path d="M64.7646 232.35C64.7646 232.35 72.1372 238.446 72.2993 240.527C72.4614 242.609 66.3663 241.649 63.805 238.582C61.2437 235.515 58.7991 236.338 58.6759 234.257L58.5527 232.175L64.7646 232.35Z" fill="white" stroke="#263238" stroke-linecap="round" stroke-linejoin="round"/>
<path d="M64.5118 98.587L63.7856 90.0731C59.0715 88.076 50.7004 87.8037 48.2234 88.7763C48.2234 88.7763 33.9126 96.0257 32.4602 97.4782C31.0077 98.9306 26.0991 120.692 26.0991 124.329C26.0991 127.967 28.0963 130.489 31.7145 131.216C35.3327 131.942 37.6994 127.409 37.6994 127.409C37.6994 127.409 35.7023 138.433 36.0654 139.73C36.4285 141.026 37.1029 142.874 38.5489 143.056C39.9949 143.237 66.5025 142.083 67.5918 141.539C68.6812 140.994 69.4009 139.911 69.4009 137.376C69.4009 134.84 65.7762 109.111 65.7762 109.111" fill="#92E3A9"/>
<path d="M64.5118 98.587L63.7856 90.0731C59.0715 88.076 50.7004 87.8037 48.2234 88.7763C48.2234 88.7763 33.9126 96.0257 32.4602 97.4782C31.0077 98.9306 26.0991 120.692 26.0991 124.329C26.0991 127.967 28.0963 130.489 31.7145 131.216C35.3327 131.942 37.6994 127.409 37.6994 127.409C37.6994 127.409 35.7023 138.433 36.0654 139.73C36.4285 141.026 37.1029 142.874 38.5489 143.056C39.9949 143.237 66.5025 142.083 67.5918 141.539C68.6812 140.994 69.4009 139.911 69.4009 137.376C69.4009 134.84 65.7762 109.111 65.7762 109.111" stroke="#263238" stroke-linecap="round" stroke-linejoin="round"/>
<path d="M38.3869 113.533L38.2378 106.744" stroke="#263238" stroke-linecap="round" stroke-linejoin="round"/>
<path d="M51.3747 103.12C55.0274 103.12 57.9886 99.8738 57.9886 95.8701C57.9886 91.8664 55.0274 88.6207 51.3747 88.6207C47.7219 88.6207 44.7607 91.8664 44.7607 95.8701C44.7607 99.8738 47.7219 103.12 51.3747 103.12Z" fill="white" stroke="#263238" stroke-linecap="round" stroke-linejoin="round"/>
<path d="M47.1147 83.1869C47.1147 83.1869 47.1147 96.2332 48.4116 98.587C49.7084 100.941 54.3901 101.667 54.7532 98.587C55.1163 95.507 54.9347 84.2762 54.9347 84.2762L47.1147 83.1869Z" fill="white" stroke="#263238" stroke-linecap="round" stroke-linejoin="round"/>
<path d="M54.9539 89.4832C54.9539 86.6301 54.9085 84.2958 54.9085 84.2958L47.1274 83.2064C47.1274 83.2064 47.1274 85.2814 47.2117 87.927C48.2883 88.7781 49.5508 89.3627 50.8963 89.6331C52.2418 89.9036 53.6321 89.8522 54.9539 89.4832Z" fill="#263238" stroke="#263238" stroke-linecap="round" stroke-linejoin="round"/>
<path d="M60.161 58.7283C60.161 58.7283 61.4578 71.9562 61.795 75.7624C62.1322 79.5687 60.7057 84.2762 55.8165 86.0853C50.9274 87.8944 46.9396 85.3656 44.3978 81.9224C41.856 78.4793 41.1557 78.2977 41.1557 78.2977C40.7515 78.3958 40.3319 78.4124 39.9212 78.3469C39.5105 78.2813 39.1169 78.1347 38.7634 77.9157C38.4098 77.6967 38.1034 77.4096 37.8617 77.0711C37.6201 76.7326 37.4482 76.3495 37.3559 75.944C36.4481 72.864 38.9834 71.593 40.9741 71.0484C40.9741 71.0484 37.732 63.6239 37.732 61.6267C37.732 59.6296 41.1686 55.4667 48.418 53.6576C55.6674 51.8485 60.161 58.7283 60.161 58.7283Z" fill="white" stroke="#263238" stroke-linecap="round" stroke-linejoin="round"/>
<path d="M54.3639 66.5223L54.5454 69.4208C54.5454 69.4208 58.7148 69.7839 57.2623 71.0483C56.1339 71.9121 54.8374 72.5305 53.4561 72.8639" stroke="#263238" stroke-linecap="round" stroke-linejoin="round"/>
<path d="M47.6592 76.6637C48.3437 77.3272 49.1841 77.8079 50.103 78.0617C51.0219 78.3155 51.9899 78.3342 52.9179 78.1162" stroke="#263238" stroke-linecap="round" stroke-linejoin="round"/>
<path d="M49.8381 68.8761C49.8381 69.7256 49.4295 70.4129 48.9303 70.4129C48.431 70.4129 48.0225 69.7256 48.0225 68.8761C48.0225 68.0267 48.431 67.3329 48.9303 67.3329C49.4295 67.3329 49.8381 68.0267 49.8381 68.8761Z" fill="#263238"/>
<path d="M56.7178 68.7854C57.2192 68.7854 57.6256 68.0944 57.6256 67.2421C57.6256 66.3898 57.2192 65.6989 56.7178 65.6989C56.2165 65.6989 55.8101 66.3898 55.8101 67.2421C55.8101 68.0944 56.2165 68.7854 56.7178 68.7854Z" fill="#263238"/>
<path d="M45.4868 66.1593C45.4868 66.1593 47.1144 63.9806 50.7391 64.1621" stroke="#263238" stroke-linecap="round" stroke-linejoin="round"/>
<path d="M53.8193 62.1714C54.0297 61.3651 54.5425 60.6707 55.2512 60.2325C55.9599 59.7942 56.8102 59.6456 57.6256 59.8176" stroke="#263238" stroke-linecap="round" stroke-linejoin="round"/>
<path d="M39.1455 71.0484C39.1455 71.0484 41.8624 73.9468 42.7702 72.5008C43.678 71.0549 42.7702 68.513 42.9518 66.5224C43.1333 64.5317 45.3055 64.7068 44.5793 63.0792C43.8531 61.4517 41.3372 63.2608 41.3372 61.4452C41.3372 59.6296 46.2328 56.7376 50.9403 56.7376C55.6479 56.7376 60.7251 61.2766 64.8944 59.273C69.0638 57.2693 67.4298 52.9314 65.076 50.9407C62.7222 48.9501 58.0082 49.1251 58.0082 49.1251C58.0082 49.1251 63.8051 47.316 61.8144 45.5004C59.8238 43.6848 54.7466 43.5098 52.0297 44.5991C49.3128 45.6885 46.3949 47.1669 46.3949 47.1669C46.3949 47.1669 48.7487 43.3606 45.4871 44.9947C44.2078 45.5946 43.0654 46.4509 42.1307 47.5105C41.196 48.5702 40.4889 49.8105 40.0533 51.1547C39.1455 53.5085 38.4193 55.136 38.4193 55.136C38.4193 55.136 36.247 53.5085 34.6195 54.2347C32.992 54.961 35.9163 55.5316 35.9163 55.5316C35.9163 55.5316 32.1101 57.7103 32.6742 60.6087C33.2384 63.5072 36.662 67.6701 37.5698 68.2148C38.4776 68.7594 39.1455 71.0484 39.1455 71.0484Z" fill="#263238" stroke="#263238" stroke-linecap="round" stroke-linejoin="round"/>
<path d="M57.6258 101.304V93.6979C57.6258 92.9716 62.3399 92.6085 62.3399 92.6085L62.5149 93.6979L60.5243 94.7807L61.873 97.7894C61.873 97.7894 68.675 93.3348 69.4012 94.2426C69.6899 94.6798 69.8283 95.1992 69.7955 95.7222C69.7627 96.2451 69.5606 96.7432 69.2197 97.141C68.8602 97.5536 68.6124 98.0514 68.4999 98.587C68.4999 98.587 68.675 103.483 67.4105 104.021C66.1461 104.559 59.4349 106.381 59.4349 106.381C54.1243 112.671 48.7554 119.025 42.3684 124.271C39.7747 126.411 36.6687 130.023 33.3488 127.993C30.1585 126.048 30.2364 121.152 32.2594 118.52C35.8841 113.806 40.689 112.898 45.5003 110.226C49.8464 107.69 53.911 104.699 57.6258 101.304Z" fill="white" stroke="#263238" stroke-linecap="round" stroke-linejoin="round"/>
<path d="M61.8726 97.7895L63.1694 85.9233C63.1966 85.5762 63.3515 85.2514 63.6042 85.0119C63.8569 84.7723 64.1895 84.635 64.5376 84.6264L68.8691 84.3152C69.0591 84.3108 69.248 84.3448 69.4245 84.4151C69.6011 84.4854 69.7617 84.5906 69.8966 84.7244C70.0316 84.8581 70.1383 85.0177 70.2101 85.1937C70.282 85.3696 70.3177 85.5582 70.3151 85.7482L69.4073 94.2685L61.8726 97.7895Z" fill="#263238" stroke="#263238" stroke-linecap="round" stroke-linejoin="round"/>
<path d="M241.376 194.509C241.376 194.509 245.007 185.431 242.673 166.626C241.655 158.365 242.381 141.396 231.085 140.845C219.031 140.261 214.11 141.454 202.03 141.591C158.455 142.09 126.41 146.434 99.8443 143.873C78.4916 141.811 60.0699 138.426 52.5093 146.019C44.9486 153.612 45.5776 169.784 46.239 172.922C46.9004 176.061 51.8414 197.504 51.8414 197.504L240.222 196.655L241.376 194.509Z" fill="#999999" stroke="#263238" stroke-linecap="round" stroke-linejoin="round"/>
<path d="M54.3185 189.088C54.3185 189.088 50.6874 174.563 44.7413 170.601C38.7953 166.639 31.0466 170.932 24.6401 177.202C18.2337 183.472 16.3857 190.903 19.0313 203.282C21.6768 215.66 29.4061 233.978 31.7404 242.233C34.0747 250.487 34.0488 254.78 41.8039 257.419C49.5591 260.058 56.9901 260.226 61.7754 253.619C66.5608 247.011 65.2445 216.659 61.4447 205.259C57.645 193.86 54.3185 189.088 54.3185 189.088Z" fill="#B2B2B2" stroke="#263238" stroke-linecap="round" stroke-linejoin="round"/>
<path d="M53.6571 253.126C50.3566 246.882 40.4552 202.14 40.6173 196.019C40.7794 189.898 35.8319 179.679 29.7237 178.849C24.692 178.201 20.6458 182.986 19.4073 184.685C17.462 189.529 17.3194 195.397 18.9988 203.269C21.6379 215.647 21.3072 234.348 23.6156 242.602C25.924 250.857 25.9045 255.162 33.6856 257.801C38.7887 259.539 51.8415 259.818 55.9979 258.19C55.335 256.45 54.5529 254.758 53.6571 253.126Z" fill="#8A8A8A" stroke="#263238" stroke-linecap="round" stroke-linejoin="round"/>
<path d="M231.455 188.809C231.455 188.809 235.294 174.284 241.564 170.322C247.834 166.36 256.037 170.653 262.832 176.923C269.628 183.193 271.554 190.624 268.765 203.003C265.977 215.381 257.781 233.699 255.336 241.954C252.892 250.208 252.898 254.501 244.702 257.14C236.506 259.779 228.667 259.948 223.609 253.347C218.551 246.746 219.952 216.386 223.959 204.981C227.967 193.575 231.455 188.809 231.455 188.809Z" fill="#B2B2B2" stroke="#263238" stroke-linecap="round" stroke-linejoin="round"/>
<path d="M232.143 253.768C235.625 247.413 246.084 202.134 245.915 195.955C245.747 189.775 250.966 179.446 257.392 178.577C262.709 177.883 266.956 182.759 268.286 184.49C270.367 189.392 270.497 195.332 268.727 203.295C265.932 215.829 261.672 234.374 259.227 242.732C256.783 251.09 256.789 255.428 248.593 258.106C243.205 259.863 234.036 260.538 229.64 258.884C230.355 257.123 231.191 255.413 232.143 253.768Z" fill="#8A8A8A" stroke="#263238" stroke-linecap="round" stroke-linejoin="round"/>
<path d="M245.999 216.957C245.999 216.957 241.875 242.583 239.23 251.168C236.584 259.753 237.414 259.753 232.959 260.084C228.505 260.414 59.4346 259.941 54.1499 259.118C48.8652 258.294 46.0641 254.326 44.5792 248.743C43.0943 243.16 41.6094 217.664 41.6094 217.664L238.899 217.015L245.999 216.957Z" fill="#999999" stroke="#263238" stroke-linecap="round" stroke-linejoin="round"/>
<path d="M41.6157 221.697C41.9917 222.611 42.5977 223.412 43.3749 224.022C44.1521 224.632 45.074 225.031 46.0509 225.179C49.5395 225.828 138.912 226.768 141.758 226.768C144.605 226.768 217.501 226.768 229.231 225.815C240.961 224.861 246.926 223.312 245.999 216.957C245.072 210.603 245.39 215.66 245.39 215.66L39.7158 218.209L41.6157 221.697Z" fill="#263238"/>
<path d="M54.811 188.258C54.811 188.258 42.1149 196.843 38.4707 200.805C34.8266 204.767 36.8237 207.898 37.1739 210.875C37.524 213.851 38.9895 220.445 43.2756 222.754C47.5616 225.062 100.882 224.051 131.915 225.069C162.949 226.087 229.659 224.881 237.939 222.89C246.219 220.899 248.152 210.674 248.645 204.896C249.137 199.119 243.217 191.033 239.917 190.047C236.616 189.062 209.162 188.913 178.628 189.574C148.093 190.235 134.1 192.894 99.2735 192.233C64.4466 191.571 62.7348 186.773 54.811 188.258Z" fill="#B2B2B2"/>
<mask id="mask0_31_1909" style="mask-type:luminance" maskUnits="userSpaceOnUse" x="36" y="187" width="213" height="39">
<path d="M54.811 188.258C54.811 188.258 42.1149 196.843 38.4707 200.805C34.8266 204.767 36.8237 207.898 37.1739 210.875C37.524 213.851 38.9895 220.445 43.2756 222.754C47.5616 225.062 100.882 224.051 131.915 225.069C162.949 226.087 229.659 224.881 237.939 222.89C246.219 220.899 248.152 210.674 248.645 204.896C249.137 199.119 243.217 191.033 239.917 190.047C236.616 189.062 209.162 188.913 178.628 189.574C148.093 190.235 134.1 192.894 99.2735 192.233C64.4466 191.571 62.7348 186.773 54.811 188.258Z" fill="white"/>
</mask>
<g mask="url(#mask0_31_1909)">
<path d="M37.1549 210.875C37.4791 213.845 38.9704 220.446 43.2565 222.754C47.5426 225.062 100.863 224.051 131.896 225.069C162.93 226.087 229.659 224.881 237.94 222.89C246.22 220.899 251.141 212.989 251.634 207.211C251.691 206.337 251.595 205.459 251.349 204.617C250.182 205.778 247.945 204.52 245.293 204.144C239.411 203.295 177.532 207.146 131.222 207.146C80.93 207.146 64.5443 207.146 39.6578 202.361C35.9553 201.648 38.4971 200.785 38.4971 200.785C34.84 204.767 36.8242 207.898 37.1549 210.875Z" fill="#999999"/>
</g>
<path d="M54.811 188.258C54.811 188.258 42.1149 196.843 38.4707 200.805C34.8266 204.767 36.8237 207.898 37.1739 210.875C37.524 213.851 38.9895 220.445 43.2756 222.754C47.5616 225.062 100.882 224.051 131.915 225.069C162.949 226.087 229.659 224.881 237.939 222.89C246.219 220.899 248.152 210.674 248.645 204.896C249.137 199.119 243.217 191.033 239.917 190.047C236.616 189.062 209.162 188.913 178.628 189.574C148.093 190.235 134.1 192.894 99.2735 192.233C64.4466 191.571 62.7348 186.773 54.811 188.258Z" stroke="#263238" stroke-linecap="round" stroke-linejoin="round"/>
<path d="M144.657 144.521L144.398 191.292C144.398 191.292 142.355 204.086 142.621 205.856C142.887 207.626 142.874 225.023 142.874 225.023" stroke="#263238" stroke-linecap="round" stroke-linejoin="round"/>
<path d="M227.565 156.44C229.556 156.133 231.592 156.489 233.362 157.451C235.956 159.046 240.177 164.266 240.177 164.266L244.67 151.797C244.67 151.797 242.641 148.03 242.641 146.726C242.641 145.423 242.498 144.133 242.498 143.536C242.498 142.939 243.795 142.375 243.795 142.959C243.886 143.74 244.031 144.513 244.229 145.274L245.721 147.025L246.59 139.782C246.59 139.782 247.309 138.913 247.601 139.632C247.893 140.352 247.77 144.087 247.77 144.087H248.49L249.177 138.219C249.177 138.219 249.384 137.94 250.078 138.011C250.162 138.009 250.244 138.026 250.319 138.064C250.393 138.101 250.457 138.156 250.505 138.225C250.553 138.293 250.583 138.372 250.592 138.455C250.601 138.538 250.59 138.622 250.558 138.699L250.078 144.23L250.493 144.295L251.647 139.192C251.647 139.192 252.134 138.712 252.477 138.984C252.704 139.229 252.827 139.552 252.821 139.885L252.082 145.196L253.722 142.161C253.722 142.161 254.41 141.889 254.41 142.44C253.911 144.272 253.294 146.07 252.562 147.822C252.426 148.03 249.799 152.86 249.799 152.86C249.799 152.86 247.66 165.641 246.693 168.423C245.727 171.204 243.652 173.668 240.683 173.811C237.713 173.954 234.328 170.569 234.328 170.569L227.565 156.44Z" fill="white" stroke="#263238" stroke-linecap="round" stroke-linejoin="round"/>
<path d="M247.329 151.129C247.329 151.129 247.834 148.879 248.45 148.166C249.011 147.63 249.672 147.211 250.396 146.934" stroke="#263238" stroke-linecap="round" stroke-linejoin="round"/>
<path d="M217.839 151.505C217.839 151.505 217.553 155.564 217.261 156.693C216.97 157.821 215.232 157.561 213.637 157.561C212.042 157.561 211.465 160.155 211.173 162.489C210.881 164.824 207.405 190.612 207.983 194.262C208.56 197.913 214.655 201.803 221.321 202.238C227.986 202.672 237.408 201.654 241.182 198.756C244.956 195.857 245.384 193.568 244.515 190.638C243.646 187.707 241.325 184.698 240.164 183.395C239.003 182.091 237.842 180.496 237.842 180.496C237.842 180.496 231.319 158.897 229.724 157.302C228.129 155.707 224.945 156.433 224.945 156.433L223.927 151.064L217.839 151.505Z" fill="#92E3A9" stroke="#263238" stroke-linecap="round" stroke-linejoin="round"/>
<path d="M211.782 191.766C211.782 191.766 218.636 176.677 236.137 181.391" stroke="#263238" stroke-linecap="round" stroke-linejoin="round"/>
<path d="M216.224 183.544C216.224 183.544 221.171 179.485 226.495 179.614" stroke="#263238" stroke-linecap="round" stroke-linejoin="round"/>
<path d="M226.223 156.284C225.798 156.301 225.375 156.353 224.958 156.44L223.94 151.071L217.851 151.505C217.851 151.505 217.566 155.564 217.274 156.693C217.132 157.27 216.626 157.484 215.978 157.561C216.464 158.858 218.247 162.833 222.352 163.073C225.989 163.319 226.307 158.696 226.223 156.284Z" fill="white" stroke="#263238" stroke-linecap="round" stroke-linejoin="round"/>
<path d="M217.56 154.806C218.656 155.053 219.775 155.188 220.899 155.208C222.164 155.236 223.424 155.041 224.621 154.631L223.972 151.051L217.884 151.486C217.884 151.486 217.728 153.282 217.56 154.806Z" fill="#263238" stroke="#263238" stroke-linecap="round" stroke-linejoin="round"/>
<path d="M233.219 127.157C233.219 127.157 238.004 123.675 243.801 124.563C249.598 125.451 249.164 134.568 246.991 137.032C244.819 139.496 239.599 137.901 239.599 136.74C239.599 135.58 240.468 131.67 238.302 129.608C237.727 129.028 237.006 128.614 236.215 128.41C235.424 128.205 234.593 128.218 233.809 128.447L233.219 127.157Z" fill="#263238" stroke="#263238" stroke-linecap="round" stroke-linejoin="round"/>
<path d="M210.057 137.739C209.902 139.03 209.854 140.331 209.914 141.63C210.057 143.082 208.027 144.094 209.331 146.558C210.634 149.022 213.682 153.23 220.931 153.372C228.181 153.515 232.959 146.707 232.959 140.326C232.959 133.946 224.971 129.037 220.75 129.037C216.528 129.037 211.912 132.662 211.023 134.114C210.466 135.247 210.138 136.479 210.057 137.739Z" fill="white" stroke="#263238" stroke-linecap="round" stroke-linejoin="round"/>
<path d="M218.435 143.134C218.483 143.387 218.452 143.648 218.346 143.883C218.24 144.118 218.064 144.314 217.842 144.445C217.621 144.576 217.364 144.635 217.108 144.615C216.851 144.595 216.607 144.496 216.408 144.332C216.21 144.168 216.067 143.947 215.999 143.699C215.931 143.451 215.941 143.187 216.028 142.945C216.114 142.703 216.274 142.493 216.484 142.345C216.695 142.196 216.946 142.116 217.203 142.116C217.501 142.091 217.797 142.183 218.027 142.373C218.257 142.564 218.404 142.837 218.435 143.134Z" stroke="#263238" stroke-linecap="round" stroke-linejoin="round"/>
<path d="M214.953 145.423C214.953 145.423 216.697 147.452 220.173 145.566" stroke="#263238" stroke-linecap="round" stroke-linejoin="round"/>
<path d="M214.084 141.656C214.564 141.656 214.953 141.005 214.953 140.203C214.953 139.401 214.564 138.751 214.084 138.751C213.604 138.751 213.215 139.401 213.215 140.203C213.215 141.005 213.604 141.656 214.084 141.656Z" fill="#263238"/>
<path d="M221.191 140.346C221.191 141.15 220.795 141.798 220.315 141.798C219.835 141.798 219.446 141.15 219.446 140.346C219.446 139.542 219.835 138.9 220.315 138.9C220.795 138.9 221.191 139.548 221.191 140.346Z" fill="#263238"/>
<path d="M212.651 137.739C213.018 137.356 213.477 137.075 213.986 136.922C214.494 136.77 215.032 136.752 215.549 136.87" stroke="#263238" stroke-linecap="round" stroke-linejoin="round"/>
<path d="M219.135 136.721C219.135 136.721 221.885 136.144 222.753 138.608" stroke="#263238" stroke-linecap="round" stroke-linejoin="round"/>
<path d="M219.012 129.913C219.012 129.913 223.071 138.9 226.696 141.215C230.321 143.529 233.796 141.941 234.38 140.637C235.914 137.629 236.225 134.144 235.249 130.911C233.796 125.983 230.755 122.793 225.97 123.085C221.184 123.376 215.679 127.286 215.679 127.286L219.012 129.913Z" fill="#263238" stroke="#263238" stroke-linecap="round" stroke-linejoin="round"/>
<path d="M220.75 130.347C220.75 130.347 211.354 137.447 209.59 138.9C207.827 140.352 205.531 139.477 203.936 134.257C202.341 129.037 205.68 124.693 210.174 124.693C214.668 124.693 219.738 127.572 219.738 127.572" fill="#263238"/>
<path d="M220.75 130.347C220.75 130.347 211.354 137.447 209.59 138.9C207.827 140.352 205.531 139.477 203.936 134.257C202.341 129.037 205.68 124.693 210.174 124.693C214.668 124.693 219.738 127.572 219.738 127.572" stroke="#263238" stroke-linecap="round" stroke-linejoin="round"/>
<path d="M228.784 142.933C228.784 142.933 231.099 139.042 233.277 139.308C235.456 139.574 234.289 144.962 233.128 146.266C231.967 147.569 229.795 146.123 229.795 146.123" fill="white"/>
<path d="M228.784 142.933C228.784 142.933 231.099 139.042 233.277 139.308C235.456 139.574 234.289 144.962 233.128 146.266C231.967 147.569 229.795 146.123 229.795 146.123" stroke="#263238" stroke-linecap="round" stroke-linejoin="round"/>
<path d="M215.679 159.915C215.584 159.542 215.41 159.192 215.171 158.89C214.931 158.588 214.63 158.34 214.288 158.162C213.946 157.984 213.571 157.88 213.186 157.857C212.801 157.834 212.415 157.892 212.054 158.028C209.156 158.904 208.164 165.278 207.418 169.337C206.672 173.396 202.056 196.447 202.056 196.447C202.056 196.447 197.27 197.167 195.241 197.744C193.211 198.321 194.806 198.613 197.705 198.905C200.603 199.197 202.341 199.482 202.341 199.482C202.341 199.482 199.157 201.077 202.056 201.077C204.954 201.077 206.692 199.19 206.984 198.484C207.276 197.777 215.102 168.474 215.679 165.142C216.256 161.809 215.679 159.915 215.679 159.915Z" fill="white" stroke="#263238" stroke-linecap="round" stroke-linejoin="round"/>
<path d="M243.237 185.93C243.237 185.93 239.055 183.135 234.743 186.053C230.43 188.971 233.724 196.96 234.613 199.754C235.501 202.549 238.925 210.531 240.578 214.59C242.232 218.649 243.619 224.965 244.002 226.132C244.385 227.299 247.426 228.039 248.69 227.786C251.679 226.839 254.569 225.606 257.321 224.103C258.838 223.091 259.221 221.314 258.332 220.932C257.444 220.549 248.69 220.679 248.69 220.679C248.69 220.679 247.043 215.492 246.79 211.549C246.537 207.607 245.014 196.201 244.89 192.395C244.767 188.588 243.775 186.714 243.237 185.93Z" fill="white" stroke="#263238" stroke-linecap="round" stroke-linejoin="round"/>
<path d="M247.809 221.846C247.797 222.29 247.709 222.729 247.549 223.143C246.146 223.387 244.726 223.528 243.302 223.565C243.633 224.861 243.873 225.808 244.003 226.158C244.379 227.299 247.426 228.065 248.691 227.812C251.68 226.865 254.57 225.632 257.321 224.129C258.839 223.117 259.221 221.34 258.333 220.958C257.444 220.575 248.691 220.705 248.691 220.705C248.691 220.705 247.809 221.217 247.809 221.846Z" fill="#263238" stroke="#263238" stroke-linecap="round" stroke-linejoin="round"/>
<path d="M236.519 225.782C236.519 225.782 235.475 225.782 233.154 209.87C232.136 202.906 232.901 191.532 230.236 187.726C227.571 183.92 219.213 185.067 219.213 193.244C219.213 201.421 226.819 219.311 228.939 224.446C231.06 229.582 231.604 232.817 233.478 233.2C235.352 233.583 242.803 231.676 245.656 229.776C248.509 227.876 249.079 225.237 247.179 225.237C245.28 225.237 236.519 225.782 236.519 225.782Z" fill="white" stroke="#263238" stroke-linecap="round" stroke-linejoin="round"/>
<path d="M235.223 226.573C235.093 226.897 235.043 227.248 235.077 227.595C235.111 227.943 235.228 228.277 235.417 228.57C235.774 228.959 234.522 229.154 230.703 229.219C231.578 231.553 232.253 232.973 233.472 233.219C235.378 233.602 242.796 231.696 245.649 229.796C248.502 227.896 249.073 225.257 247.173 225.257C245.273 225.257 236.519 225.827 236.519 225.827C236.265 225.86 236.019 225.943 235.797 226.071C235.574 226.199 235.379 226.369 235.223 226.573Z" fill="#263238" stroke="#263238" stroke-linecap="round" stroke-linejoin="round"/>
<path d="M172.643 103.58C172.52 100.632 171.294 97.8387 169.207 95.7535C165.77 92.5113 158.138 91.7462 154.513 96.7066C150.889 101.667 150.889 105.681 152.224 106.634L153.56 107.587C153.56 107.587 151.842 110.829 153.748 112.36C155.654 113.89 157.185 115.414 157.567 113.695C157.95 111.977 155.084 108.352 159.474 105.486C163.864 102.62 172.643 103.58 172.643 103.58Z" fill="#263238" stroke="#263238" stroke-linecap="round" stroke-linejoin="round"/>
<path d="M170.542 99.5597C170.542 99.5597 176.268 94.7873 179.51 98.7946C182.752 102.802 176.08 107.957 175.127 108.521C174.174 109.085 170.354 101.272 170.354 101.272C170.354 101.272 169.401 100.513 170.542 99.5597Z" fill="#263238" stroke="#263238" stroke-linecap="round" stroke-linejoin="round"/>
<path d="M175.762 109.487C175.762 109.487 177.921 106.31 179.063 108.975C180.204 111.64 177.766 115.329 176.651 116.108C175.535 116.886 175.762 109.487 175.762 109.487Z" fill="white" stroke="#263238" stroke-linecap="round" stroke-linejoin="round"/>
<path d="M156.329 112.658C156.329 112.658 154.293 107.963 152.898 109.993C151.504 112.022 153.028 117.359 155.693 117.359C156.039 116.811 156.295 116.211 156.452 115.582" fill="white"/>
<path d="M156.329 112.658C156.329 112.658 154.293 107.963 152.898 109.993C151.504 112.022 153.028 117.359 155.693 117.359C156.039 116.811 156.295 116.211 156.452 115.582" stroke="#263238" stroke-linecap="round" stroke-linejoin="round"/>
<path d="M187.265 158.696C185.041 152.821 188.283 137.434 183.219 135.003C178.155 132.571 171.074 131.76 171.074 131.76L165.199 131.974L159.324 131.76C159.324 131.76 152.237 132.571 147.173 135.003C142.109 137.434 145.351 152.821 143.127 158.696C140.903 164.571 139.074 172.255 139.885 177.118C140.695 181.981 143.529 183.797 145.759 184.406C147.29 184.821 158.41 184.665 165.212 184.529C171.995 184.665 183.115 184.821 184.665 184.406C186.889 183.797 189.723 181.975 190.533 177.118C191.344 172.261 189.496 164.532 187.265 158.696Z" fill="#92E3A9" stroke="#263238" stroke-linecap="round" stroke-linejoin="round"/>
<path d="M152.211 160.719C152.211 160.719 166.367 153.742 177.61 158.774" stroke="#263238" stroke-linecap="round" stroke-linejoin="round"/>
<path d="M161.328 153.937C161.328 153.937 168.111 152.964 172.766 155.486" stroke="#263238" stroke-linecap="round" stroke-linejoin="round"/>
<path d="M162.074 128.026C162.074 128.026 158.138 129.322 157.503 131.08C156.867 132.837 155.596 137.681 155.726 139.84C155.856 141.999 157.12 143.14 157.756 142.129C158.391 141.117 164.486 138.446 165.251 138.063C166.017 137.681 170.711 139.081 171.599 140.093C172.488 141.104 175.03 143.905 175.412 142.887C175.795 141.869 175.412 137.298 174.115 133.239C172.819 129.18 171.703 128.538 169.414 127.902C167.125 127.267 162.074 128.026 162.074 128.026Z" fill="white" stroke="#263238" stroke-linecap="round" stroke-linejoin="round"/>
<path d="M160.647 127.773C160.647 127.773 160.9 134.127 161.944 137.428C162.988 140.728 165.751 145.176 167.021 144.56C168.292 143.944 169.693 138.076 170.322 135.671C170.816 133.281 171.156 130.861 171.34 128.428C171.34 128.428 162.294 129.044 160.647 127.773Z" fill="white" stroke="#263238" stroke-linecap="round" stroke-linejoin="round"/>
<path d="M171.314 128.408C171.314 128.408 162.294 129.056 160.647 127.76C160.647 127.76 160.719 129.491 160.926 131.618C163.948 132.592 167.158 132.828 170.29 132.305C170.51 132.26 170.711 132.201 170.938 132.149C171.152 130.211 171.314 128.408 171.314 128.408Z" fill="#263238" stroke="#263238" stroke-linecap="round" stroke-linejoin="round"/>
<path d="M156.167 106.362C156.167 106.362 154.007 123.435 156.167 126.379C158.326 129.322 165.776 130.917 170.289 129.906C174.802 128.894 176.962 126.015 177.163 120.29C177.364 114.564 175.788 105.182 173.823 103.813C171.859 102.445 166.956 100.668 162.638 102.043C158.319 103.418 156.75 104.792 156.167 106.362Z" fill="white" stroke="#263238" stroke-linecap="round" stroke-linejoin="round"/>
<path d="M162.644 100.986C162.644 100.986 161.348 105.901 158.248 107.471C155.149 109.04 155.92 104.877 156.698 102.556" fill="#263238"/>
<path d="M162.644 100.986C162.644 100.986 161.348 105.901 158.248 107.471C155.149 109.04 155.92 104.877 156.698 102.556" stroke="#263238" stroke-linecap="round" stroke-linejoin="round"/>
<path d="M160.842 112.476C160.842 112.476 163.053 110.531 164.732 112.217" stroke="#263238" stroke-linecap="round" stroke-linejoin="round"/>
<path d="M169.317 112.081C169.317 112.081 171.139 109.604 173.097 112.217" stroke="#263238" stroke-linecap="round" stroke-linejoin="round"/>
<path d="M168.014 108.852L168.772 117.236C168.772 117.236 166.49 118.377 165.472 116.218" fill="white"/>
<path d="M168.014 108.852L168.772 117.236C168.772 117.236 166.49 118.377 165.472 116.218" stroke="#263238" stroke-linecap="round" stroke-linejoin="round"/>
<path d="M160.518 108.852C161.849 107.953 163.469 107.59 165.057 107.834" stroke="#263238" stroke-linecap="round" stroke-linejoin="round"/>
<path d="M168.266 107.963C168.903 107.543 169.644 107.308 170.407 107.285C171.17 107.263 171.924 107.452 172.585 107.834" stroke="#263238" stroke-linecap="round" stroke-linejoin="round"/>
<path d="M166.237 117.106C166.237 117.106 160.978 118.105 161.361 118.993C161.743 119.881 163.358 120.938 164.882 120.822C166.405 120.705 167.508 118.876 167.508 118.876C167.508 118.876 169.965 122.507 173.227 119.376C174.271 118.377 168.772 117.229 168.772 117.229C168.772 117.229 166.996 117.994 166.237 117.106Z" fill="#263238"/>
<path d="M186.915 179.4C186.915 179.4 186.526 175.983 174.316 173.169C162.106 170.355 153.184 172.961 149.105 175.983C145.027 179.005 142.511 181.008 140.961 186.436C139.412 191.863 139.016 202.51 151.239 205.324C163.462 208.138 182.837 207.717 188.458 202.205C197.53 193.322 188.659 181.391 186.915 179.4Z" fill="#263238" stroke="#263238" stroke-linecap="round" stroke-linejoin="round"/>
<path d="M173.609 177.332C173.609 177.332 169.836 176.982 168.753 176.742C167.67 176.502 163.935 178.551 161.886 179.634C160.328 180.577 159.137 182.022 158.508 183.732C158.508 184.095 158.151 185.897 158.754 186.144C159.357 186.39 162.366 185.657 163.209 185.657C164.052 185.657 168.753 184.211 169.959 184.361C171.165 184.51 175.516 182.039 175.516 182.039L173.609 177.332Z" fill="white" stroke="#263238" stroke-linecap="round" stroke-linejoin="round"/>
<path d="M168.636 182.526C168.636 182.526 165.257 182.889 164.414 183.609C163.499 184.287 162.532 184.891 161.522 185.418" stroke="#263238" stroke-linecap="round" stroke-linejoin="round"/>
<path d="M167.19 180.742C165.729 181.159 164.315 181.724 162.969 182.428C161.705 183.398 160.535 184.483 159.474 185.67" stroke="#263238" stroke-linecap="round" stroke-linejoin="round"/>
<path d="M166.463 179.154C166.463 179.154 161.762 180.84 160.919 181.443C160.064 182.15 159.259 182.915 158.507 183.732" stroke="#263238" stroke-linecap="round" stroke-linejoin="round"/>
<path d="M183.07 134.192C183.07 134.192 188.945 135.204 191.778 138.238C194.612 141.273 198.055 156.66 199.676 162.535C201.297 168.409 202.108 177.228 201.297 179.05C200.487 180.872 196.862 182.039 193.847 182.039C190.832 182.039 174.991 182.383 174.991 182.383L172.767 177.52L188.659 170.121L184.665 146.947" fill="#92E3A9"/>
<path d="M183.07 134.192C183.07 134.192 188.945 135.204 191.778 138.238C194.612 141.273 198.055 156.66 199.676 162.535C201.297 168.409 202.108 177.228 201.297 179.05C200.487 180.872 196.862 182.039 193.847 182.039C190.832 182.039 174.991 182.383 174.991 182.383L172.767 177.52L188.659 170.121L184.665 146.947" stroke="#263238" stroke-linecap="round" stroke-linejoin="round"/>
<path d="M149.605 134.192C149.605 134.192 143.73 135.204 140.896 138.238C138.063 141.273 134.62 156.66 133.005 162.535C131.39 168.409 130.457 175.879 131.267 177.701C132.078 179.523 136.331 182.357 139.366 182.357C142.401 182.357 157.198 182.013 157.198 182.013L159.104 177.332L144.229 169.2L147.984 146.947" fill="#92E3A9"/>
<path d="M149.605 134.192C149.605 134.192 143.73 135.204 140.896 138.238C138.063 141.273 134.62 156.66 133.005 162.535C131.39 168.409 130.457 175.879 131.267 177.701C132.078 179.523 136.331 182.357 139.366 182.357C142.401 182.357 157.198 182.013 157.198 182.013L159.104 177.332L144.229 169.2L147.984 146.947" stroke="#263238" stroke-linecap="round" stroke-linejoin="round"/>
<path d="M159.104 177.332C159.104 177.332 162.871 176.982 163.954 176.742C165.037 176.502 168.779 178.551 170.828 179.634C172.385 180.577 173.574 182.022 174.199 183.732C174.199 184.095 174.563 185.897 173.96 186.144C173.356 186.39 170.341 185.657 169.498 185.657C168.655 185.657 163.954 184.211 162.748 184.361C161.542 184.51 157.198 182.039 157.198 182.039L159.104 177.332Z" fill="white" stroke="#263238" stroke-linecap="round" stroke-linejoin="round"/>
<path d="M164.078 182.526C164.078 182.526 167.449 182.889 168.292 183.609C169.208 184.285 170.175 184.89 171.184 185.418" stroke="#263238" stroke-linecap="round" stroke-linejoin="round"/>
<path d="M165.523 180.742C166.982 181.158 168.395 181.723 169.738 182.428C171.003 183.396 172.173 184.482 173.233 185.67" stroke="#263238" stroke-linecap="round" stroke-linejoin="round"/>
<path d="M166.243 179.154C166.243 179.154 170.944 180.84 171.787 181.443C172.642 182.15 173.448 182.915 174.199 183.732" stroke="#263238" stroke-linecap="round" stroke-linejoin="round"/>
<path d="M161.711 189.412C161.711 189.412 152.017 180.496 143.879 180.302C135.741 180.107 130.91 185.923 131.274 194.839C131.637 203.755 140.76 263.449 140.76 263.449L150.065 263.255L152.406 195.423" fill="#263238"/>
<path d="M161.711 189.412C161.711 189.412 152.017 180.496 143.879 180.302C135.741 180.107 130.91 185.923 131.274 194.839C131.637 203.755 140.76 263.449 140.76 263.449L150.065 263.255L152.406 195.423" stroke="#263238" stroke-linecap="round" stroke-linejoin="round"/>
<path d="M140.76 263.449C140.76 263.449 135.715 266.937 134.36 271.01C133.005 275.082 140.76 273.921 144.086 270.627C146.295 268.344 148.306 265.878 150.097 263.254L140.76 263.449Z" fill="white" stroke="#263238" stroke-linecap="round" stroke-linejoin="round"/>
<path d="M169.641 189.412C169.641 189.412 179.335 180.496 187.479 180.302C195.623 180.107 200.448 185.923 200.078 194.839C199.709 203.755 187.071 263.449 187.071 263.449L177.766 263.255L178.933 195.423" fill="#263238"/>
<path d="M169.641 189.412C169.641 189.412 179.335 180.496 187.479 180.302C195.623 180.107 200.448 185.923 200.078 194.839C199.709 203.755 187.071 263.449 187.071 263.449L177.766 263.255L178.933 195.423" stroke="#263238" stroke-linecap="round" stroke-linejoin="round"/>
<path d="M187.071 263.449C187.071 263.449 192.115 266.937 193.47 271.01C194.826 275.082 187.071 273.921 183.777 270.627C181.567 268.344 179.557 265.878 177.766 263.254L187.071 263.449Z" fill="white" stroke="#263238" stroke-linecap="round" stroke-linejoin="round"/>
<path d="M114.881 112.963C114.881 112.963 119.997 111.257 120.782 108.242C121.567 105.227 118.688 95.118 110.025 91.5711C101.362 88.0242 87.1871 90.5207 82.3304 96.0388C77.4737 101.557 82.5963 106.666 82.726 107.847C82.8557 109.027 78.9197 109.792 78.2648 114.804C77.6099 119.816 84.0423 124.907 90.9934 126.476C97.9445 128.045 101.368 126.08 101.368 123.454C101.368 120.828 99.7925 118.468 102.814 116.503C105.836 114.538 109.24 110.862 110.686 110.991C112.132 111.121 114.881 112.963 114.881 112.963Z" fill="#263238"/>
<mask id="mask1_31_1909" style="mask-type:luminance" maskUnits="userSpaceOnUse" x="78" y="89" width="43" height="39">
<path d="M114.881 112.963C114.881 112.963 119.997 111.257 120.782 108.242C121.567 105.227 118.688 95.118 110.025 91.5711C101.362 88.0242 87.1871 90.5207 82.3304 96.0388C77.4737 101.557 82.5963 106.666 82.726 107.847C82.8557 109.027 78.9197 109.792 78.2648 114.804C77.6099 119.816 84.0423 124.907 90.9934 126.476C97.9445 128.045 101.368 126.08 101.368 123.454C101.368 120.828 99.7925 118.468 102.814 116.503C105.836 114.538 109.24 110.862 110.686 110.991C112.132 111.121 114.881 112.963 114.881 112.963Z" fill="white"/>
</mask>
<g mask="url(#mask1_31_1909)">
<path d="M103.839 96.7068C100.369 102.293 95.1135 106.543 88.9252 108.767C78.7644 112.262 75.2759 109.721 75.2759 109.721" stroke="#636363" stroke-linecap="round" stroke-linejoin="round"/>
<path d="M99.0735 94.5022C99.0735 94.5022 89.5546 107.198 77.8052 106.881" stroke="#636363" stroke-linecap="round" stroke-linejoin="round"/>
<path d="M107.645 96.7068C107.645 96.7068 91.4348 121.152 72.0923 121.152" stroke="#636363" stroke-linecap="round" stroke-linejoin="round"/>
<path d="M100.979 92.5569C100.979 92.5569 117.099 101.019 120.782 108.216" stroke="#636363" stroke-linecap="round" stroke-linejoin="round"/>
</g>
<path d="M114.881 112.963C114.881 112.963 119.997 111.257 120.782 108.242C121.567 105.227 118.688 95.118 110.025 91.5711C101.362 88.0242 87.1871 90.5207 82.3304 96.0388C77.4737 101.557 82.5963 106.666 82.726 107.847C82.8557 109.027 78.9197 109.792 78.2648 114.804C77.6099 119.816 84.0423 124.907 90.9934 126.476C97.9445 128.045 101.368 126.08 101.368 123.454C101.368 120.828 99.7925 118.468 102.814 116.503C105.836 114.538 109.24 110.862 110.686 110.991C112.132 111.121 114.881 112.963 114.881 112.963Z" stroke="#263238" stroke-linecap="round" stroke-linejoin="round"/>
<path d="M111.86 138.29C111.86 138.29 119.472 140.391 123.013 145.377C126.553 150.364 129.575 162.308 130.794 167.424C132.013 172.54 130.424 178.155 126.903 179.99C123.382 181.825 117.553 174.803 116.113 172.151C114.674 169.499 114.667 159.947 113.52 153.515C112.372 147.083 109.979 139.081 109.979 139.081C109.979 139.081 108.845 137.765 111.86 138.29Z" fill="white" stroke="#263238" stroke-linecap="round" stroke-linejoin="round"/>
<path d="M96.6347 121.736C96.6347 121.736 97.4257 129.614 96.6347 131.319C95.8436 133.025 92.9646 134.99 88.1079 136.565C83.2512 138.141 79.9701 139.457 77.344 143.918C74.7179 148.379 71.8454 171.029 68.5514 176.988C65.1925 183.07 64.408 195.507 72.3706 201.68C78.8549 206.731 101.628 206.122 109.759 204.922C117.89 203.723 125.126 204.877 127.357 199.235C129.588 193.594 124.984 184.056 122.753 181.17C120.523 178.285 116.036 175.432 116.036 175.432C116.036 175.432 118.837 170.569 119.051 166.509C119.446 159.156 111.834 138.29 111.834 138.29C111.834 138.29 107.243 136.345 106.192 133.829C105.142 131.313 105.544 127.792 105.544 127.792L96.6347 121.736Z" fill="#92E3A9" stroke="#263238" stroke-linecap="round" stroke-linejoin="round"/>
<path d="M84.3018 183.077C84.3018 183.077 97.6852 183.66 104.961 189.477" stroke="#263238" stroke-linecap="round" stroke-linejoin="round"/>
<path d="M92.9648 170.971C92.9648 170.971 100.837 172.151 108.183 169.395" stroke="#263238" stroke-linecap="round" stroke-linejoin="round"/>
<path d="M102.017 172.151C102.017 172.151 107.269 171.366 110.284 169.525" stroke="#263238" stroke-linecap="round" stroke-linejoin="round"/>
<path d="M80.8911 161.29C83.7766 159.584 87.317 151.712 87.9784 145.41C88.4971 140.404 87.2781 137.888 86.7593 137.071C82.6354 138.472 79.7174 139.937 77.3442 143.97C75.7231 146.726 73.6028 156.251 71.6899 164.649C74.2772 164.662 78.2779 162.801 80.8911 161.29Z" fill="white" stroke="#263238" stroke-linecap="round" stroke-linejoin="round"/>
<path d="M106.218 133.829C105.168 131.339 105.57 127.792 105.57 127.792L96.6348 121.736C96.6348 121.736 97.4259 129.614 96.6348 131.319C96.0253 132.616 94.1513 134.121 91.0713 135.456C91.616 137.862 93.2111 144.029 95.7205 146.538C98.8654 149.689 104.902 150.344 107.003 146.149C109.104 141.954 108.054 136.176 108.054 136.176L108.105 136.04C107.31 135.463 106.663 134.705 106.218 133.829Z" fill="white" stroke="#263238" stroke-linecap="round" stroke-linejoin="round"/>
<path d="M105.563 127.792L97.8147 122.553L96.7578 123.13C96.8356 124.122 96.9329 125.516 96.9718 126.904C98.6901 128.849 101.18 131.255 103.488 131.696C104.208 131.834 104.942 131.88 105.674 131.832C105.476 130.494 105.439 129.138 105.563 127.792Z" fill="#263238"/>
<path d="M108.974 104.04C108.974 104.04 106.089 108.897 101.491 111.387C99.0076 112.79 96.3649 113.892 93.6195 114.668C93.6195 114.668 93.7492 116.244 93.0943 116.244C92.4394 116.244 90.9934 113.883 90.0791 113.754C89.1649 113.624 86.2729 117.424 87.3168 118.999C88.2931 120.414 89.6642 121.51 91.2593 122.151C92.5561 122.676 94.0151 120.971 94.0151 120.971C94.0151 120.971 104.118 133.291 109.895 130.159C115.672 127.027 115.27 110.868 115.27 110.868C115.27 110.868 113.961 107.321 108.974 104.04Z" fill="white" stroke="#263238" stroke-linecap="round" stroke-linejoin="round"/>
<path d="M105.103 114.279C105.103 115.109 104.721 115.783 104.247 115.783C103.774 115.783 103.398 115.135 103.398 114.279C103.398 113.423 103.781 112.768 104.247 112.768C104.714 112.768 105.103 113.442 105.103 114.279Z" fill="#263238"/>
<path d="M113.241 113.488C113.241 114.324 112.858 114.999 112.385 114.999C111.912 114.999 111.536 114.35 111.536 113.488C111.536 112.625 111.912 111.984 112.385 111.984C112.858 111.984 113.241 112.658 113.241 113.488Z" fill="#263238"/>
<path d="M110.154 112.048L109.37 114.538C109.37 114.538 111.464 115.187 111.464 116.38C111.464 117.573 109.519 118.085 109.104 118.085" stroke="#263238" stroke-linecap="round" stroke-linejoin="round"/>
<path d="M107.528 121.891C107.952 122.117 108.426 122.236 108.906 122.236C109.387 122.236 109.86 122.117 110.284 121.891" stroke="#263238" stroke-linecap="round" stroke-linejoin="round"/>
<path d="M102.542 111.128C102.542 111.128 103.722 109.027 105.953 109.552" stroke="#263238" stroke-linecap="round" stroke-linejoin="round"/>
<path d="M111.334 109.947C111.54 109.838 111.765 109.772 111.997 109.753C112.229 109.733 112.462 109.761 112.683 109.834C112.903 109.908 113.107 110.025 113.281 110.179C113.455 110.334 113.596 110.522 113.695 110.732" stroke="#263238" stroke-linecap="round" stroke-linejoin="round"/>
<path d="M107.133 181.527C107.133 181.527 111.6 182.26 111.866 182.824C112.132 183.388 113.617 186.598 113.215 187.538C112.813 188.478 112.002 187.136 111.737 186.189C111.471 185.243 108.494 183.096 108.494 183.096" fill="white"/>
<path d="M107.133 181.527C107.133 181.527 111.6 182.26 111.866 182.824C112.132 183.388 113.617 186.598 113.215 187.538C112.813 188.478 112.002 187.136 111.737 186.189C111.471 185.243 108.494 183.096 108.494 183.096" stroke="#263238" stroke-linecap="round" stroke-linejoin="round"/>
<path d="M106.348 181.605C106.348 181.605 110.135 182.779 110.505 183.258C111.289 184.276 112.832 186.805 112.45 187.745C112.067 188.686 111.542 188.122 109.584 185.061C109.057 184.388 108.435 183.796 107.736 183.304" fill="white"/>
<path d="M106.348 181.605C106.348 181.605 110.135 182.779 110.505 183.258C111.289 184.276 112.832 186.805 112.45 187.745C112.067 188.686 111.542 188.122 109.584 185.061C109.057 184.388 108.435 183.796 107.736 183.304" stroke="#263238" stroke-linecap="round" stroke-linejoin="round"/>
<path d="M86.0784 137.039C86.0784 137.039 77.2339 138.731 72.2475 142.498C67.2611 146.266 64.1616 166.321 63.6364 171.172C63.1112 176.022 62.56 180.593 64.9786 181.546C67.3972 182.5 85.4429 183.297 89.0741 183.297C92.7053 183.297 102.808 184.633 103.612 184.633C104.416 184.633 109.13 187.596 109.94 188.407C110.751 189.217 110.868 187.706 110.479 186.248C109.953 184.302 107.236 181.268 103.884 180.191C100.532 179.115 94.8645 179.653 91.2269 177.636C87.5892 175.62 78.8484 171.016 77.4997 170.763C76.9238 170.63 76.3385 170.541 75.749 170.497C75.749 170.497 82.7519 154.883 83.4198 152.594" fill="white"/>
<path d="M86.0784 137.039C86.0784 137.039 77.2339 138.731 72.2475 142.498C67.2611 146.266 64.1616 166.321 63.6364 171.172C63.1112 176.022 62.56 180.593 64.9786 181.546C67.3972 182.5 85.4429 183.297 89.0741 183.297C92.7053 183.297 102.808 184.633 103.612 184.633C104.416 184.633 109.13 187.596 109.94 188.407C110.751 189.217 110.868 187.706 110.479 186.248C109.953 184.302 107.236 181.268 103.884 180.191C100.532 179.115 94.8645 179.653 91.2269 177.636C87.5892 175.62 78.8484 171.016 77.4997 170.763C76.9238 170.63 76.3385 170.541 75.749 170.497C75.749 170.497 82.7519 154.883 83.4198 152.594" stroke="#263238" stroke-linecap="round" stroke-linejoin="round"/>
<path d="M106.711 184.088C106.711 184.088 109.954 186.377 109.954 188.4" stroke="#263238" stroke-linecap="round" stroke-linejoin="round"/>
<path d="M126.41 171.016C123.52 170.294 120.463 170.717 117.877 172.196C113.682 174.693 111.315 177.053 108.799 177.708C106.283 178.363 102.107 177.974 98.9559 179.284C96.7672 180.147 94.5334 180.892 92.2642 181.514C90.6885 182.039 90.8182 183.22 91.9983 183.22C93.1784 183.22 94.7541 183.09 94.7541 183.09C94.7541 183.09 92.6597 186.371 92.6597 187.421C92.6597 188.472 95.8046 188.601 96.9847 188.336C98.1648 188.07 100.136 185.58 100.791 185.32C101.446 185.061 103.942 185.45 105.777 184.14C107.612 182.83 108.403 182.195 108.403 182.195C108.403 182.195 115.886 184.555 121.372 183.245C126.858 181.936 128.783 180.691 130.359 175.049" fill="white"/>
<path d="M126.41 171.016C123.52 170.294 120.463 170.717 117.877 172.196C113.682 174.693 111.315 177.053 108.799 177.708C106.283 178.363 102.107 177.974 98.9559 179.284C96.7672 180.147 94.5334 180.892 92.2642 181.514C90.6885 182.039 90.8182 183.22 91.9983 183.22C93.1784 183.22 94.7541 183.09 94.7541 183.09C94.7541 183.09 92.6597 186.371 92.6597 187.421C92.6597 188.472 95.8046 188.601 96.9847 188.336C98.1648 188.07 100.136 185.58 100.791 185.32C101.446 185.061 103.942 185.45 105.777 184.14C107.612 182.83 108.403 182.195 108.403 182.195C108.403 182.195 115.886 184.555 121.372 183.245C126.858 181.936 128.783 180.691 130.359 175.049" stroke="#263238" stroke-linecap="round" stroke-linejoin="round"/>
<path d="M94.7803 183.096C95.5267 182.213 96.414 181.459 97.4064 180.866" stroke="#263238" stroke-linecap="round" stroke-linejoin="round"/>
<path d="M93.6001 187.817C93.6001 187.817 95.9668 183.356 99.1117 181.521" stroke="#263238" stroke-linecap="round" stroke-linejoin="round"/>
<path d="M95.4287 188.154C95.4287 188.154 96.3819 184.529 100.687 182.318" stroke="#263238" stroke-linecap="round" stroke-linejoin="round"/>
<path d="M97.0107 188.342C97.3072 187.169 97.9009 186.092 98.7345 185.215C99.5682 184.339 100.614 183.691 101.77 183.336" stroke="#263238" stroke-linecap="round" stroke-linejoin="round"/>
<path d="M123.337 192.09C123.337 192.09 117.501 189.38 111.873 194.586C106.244 199.793 106.296 202.367 98.8003 213.021C91.3046 223.675 80.4629 243.231 78.174 244.69C75.885 246.149 68.5902 249.061 67.1507 253.437C65.7112 257.814 67.7992 259.066 70.8986 257.814C73.9981 256.563 79.2309 247.602 80.0674 246.979C80.9038 246.357 98.6123 232.189 107.989 226.768C117.365 221.347 122.105 216.257 125.853 206.88C129.601 197.504 126.67 192.712 123.337 192.09Z" fill="white" stroke="#263238" stroke-linecap="round" stroke-linejoin="round"/>
<path d="M79.9052 247.122C78.9504 246.66 78.149 245.933 77.5968 245.027C74.8605 246.571 68.5189 249.378 67.1312 253.457C65.6723 257.834 67.7797 259.085 70.8791 257.834C73.8878 256.608 78.738 248.412 79.9052 247.122Z" fill="#263238" stroke="#263238" stroke-linecap="round" stroke-linejoin="round"/>
<path d="M81.2152 251.816C81.2152 251.816 91.7197 234.724 98.3855 224.096C105.051 213.468 108.183 207.017 108.183 201.803C108.183 201.803 108.456 194.132 102.347 194.094C98.593 194.094 91.5122 196.389 86.3053 206.414C81.0985 216.438 77.3441 249.125 76.7216 250.999C76.0991 252.873 76.0732 264.545 77.7591 267.255C79.445 269.966 82.3434 268.085 82.5509 262.249C82.6805 258.722 82.2293 255.197 81.2152 251.816Z" fill="white" stroke="#263238" stroke-linecap="round" stroke-linejoin="round"/>
<path d="M76.5724 251.674C76.1055 254.812 76.2417 264.752 77.759 267.236C79.432 269.94 82.3434 268.066 82.5509 262.23C82.6776 258.711 82.2264 255.195 81.2151 251.823C81.2151 251.823 78.8354 254.695 76.5724 251.674Z" fill="#263238" stroke="#263238" stroke-linecap="round" stroke-linejoin="round"/>
</svg>
