<svg width="90" height="90" viewBox="0 0 90 90" fill="none" xmlns="http://www.w3.org/2000/svg">
<path d="M74.8125 78.75C67 78.75 59.2812 77.0475 51.6562 73.6425C44.0312 70.2375 37.0938 65.4087 30.8438 59.1562C24.5938 52.9037 19.7662 45.9663 16.3612 38.3438C12.9562 30.7213 11.2525 23.0025 11.25 15.1875C11.25 14.0625 11.625 13.125 12.375 12.375C13.125 11.625 14.0625 11.25 15.1875 11.25H30.375C31.25 11.25 32.0313 11.5475 32.7188 12.1425C33.4063 12.7375 33.8125 13.44 33.9375 14.25L36.375 27.375C36.5 28.375 36.4688 29.2188 36.2812 29.9062C36.0938 30.5938 35.75 31.1875 35.25 31.6875L26.1562 40.875C27.4062 43.1875 28.89 45.4212 30.6075 47.5763C32.325 49.7313 34.2163 51.81 36.2812 53.8125C38.2188 55.75 40.25 57.5475 42.375 59.205C44.5 60.8625 46.75 62.3775 49.125 63.75L57.9375 54.9375C58.5 54.375 59.235 53.9538 60.1425 53.6737C61.05 53.3937 61.94 53.315 62.8125 53.4375L75.75 56.0625C76.625 56.3125 77.3438 56.7663 77.9062 57.4237C78.4688 58.0812 78.75 58.815 78.75 59.625V74.8125C78.75 75.9375 78.375 76.875 77.625 77.625C76.875 78.375 75.9375 78.75 74.8125 78.75ZM22.5938 33.75L28.7812 27.5625L27.1875 18.75H18.8438C19.1563 21.3125 19.5938 23.8438 20.1562 26.3438C20.7188 28.8438 21.5312 31.3125 22.5938 33.75ZM56.1562 67.3125C58.5938 68.375 61.0787 69.2188 63.6112 69.8438C66.1437 70.4688 68.69 70.875 71.25 71.0625V62.8125L62.4375 61.0312L56.1562 67.3125Z" fill="#072AC8"/>
</svg>
