<svg width="60" height="60" viewBox="0 0 60 60" fill="none" xmlns="http://www.w3.org/2000/svg">
<rect width="60" height="60" rx="30" fill="#072ACB"/>
<path d="M30 34.6875C32.0711 34.6875 33.75 33.0086 33.75 30.9375C33.75 28.8664 32.0711 27.1875 30 27.1875C27.9289 27.1875 26.25 28.8664 26.25 30.9375C26.25 33.0086 27.9289 34.6875 30 34.6875Z" fill="white"/>
<path d="M41.7188 23.4375H36.8555C36.6797 23.4375 36.4617 23.3238 36.2918 23.1445L34.6934 20.6367C34.043 19.6875 33.75 19.6875 32.6953 19.6875H27.3047C26.25 19.6875 25.8984 19.6875 25.3084 20.6373L23.7082 23.1445C23.5781 23.2863 23.3953 23.4375 23.2031 23.4375V22.5C23.2031 22.3757 23.1537 22.2565 23.0658 22.1685C22.9779 22.0806 22.8587 22.0312 22.7344 22.0312H20.3906C20.2663 22.0312 20.1471 22.0806 20.0592 22.1685C19.9713 22.2565 19.9219 22.3757 19.9219 22.5V23.4375H18.2812C17.9083 23.4375 17.5506 23.5857 17.2869 23.8494C17.0232 24.1131 16.875 24.4708 16.875 24.8438V38.9062C16.875 39.2792 17.0232 39.6369 17.2869 39.9006C17.5506 40.1643 17.9083 40.3125 18.2812 40.3125H41.7188C42.0917 40.3125 42.4494 40.1643 42.7131 39.9006C42.9768 39.6369 43.125 39.2792 43.125 38.9062V24.8438C43.125 24.4708 42.9768 24.1131 42.7131 23.8494C42.4494 23.5857 42.0917 23.4375 41.7188 23.4375ZM30.2643 36.5566C29.1305 36.6099 28.0071 36.3189 27.0418 35.7219C26.0765 35.125 25.3143 34.2499 24.8555 33.2118C24.3966 32.1736 24.2626 31.021 24.4709 29.9053C24.6793 28.7895 25.2203 27.7629 26.0229 26.9604C26.8254 26.1578 27.852 25.6168 28.9678 25.4084C30.0835 25.2001 31.2361 25.3341 32.2743 25.793C33.3124 26.2518 34.1875 27.014 34.7844 27.9793C35.3814 28.9446 35.6724 30.068 35.6191 31.2018C35.552 32.6003 34.9663 33.9237 33.9762 34.9137C32.9862 35.9038 31.6628 36.4895 30.2643 36.5566Z" fill="white"/>
</svg>
