<svg xmlns="http://www.w3.org/2000/svg" width="15" height="15" viewBox="0 0 15 15" fill="none">
  <path d="M7.5 9.84375C8.53553 9.84375 9.375 9.00428 9.375 7.96875C9.375 6.93322 8.53553 6.09375 7.5 6.09375C6.46447 6.09375 5.625 6.93322 5.625 7.96875C5.625 9.00428 6.46447 9.84375 7.5 9.84375Z" fill="white"/>
  <path d="M13.3594 4.21875H10.9277C10.8398 4.21875 10.7309 4.16191 10.6459 4.07227L9.84668 2.81836C9.52148 2.34375 9.375 2.34375 8.84766 2.34375H6.15234C5.625 2.34375 5.44922 2.34375 5.1542 2.81865L4.3541 4.07227C4.28906 4.14316 4.19766 4.21875 4.10156 4.21875V3.75C4.10156 3.68784 4.07687 3.62823 4.03292 3.58427C3.98896 3.54032 3.92935 3.51562 3.86719 3.51562H2.69531C2.63315 3.51562 2.57354 3.54032 2.52958 3.58427C2.48563 3.62823 2.46094 3.68784 2.46094 3.75V4.21875H1.64062C1.45414 4.21875 1.2753 4.29283 1.14344 4.42469C1.01158 4.55655 0.9375 4.73539 0.9375 4.92188V11.9531C0.9375 12.1396 1.01158 12.3184 1.14344 12.4503C1.2753 12.5822 1.45414 12.6562 1.64062 12.6562H13.3594C13.5459 12.6562 13.7247 12.5822 13.8566 12.4503C13.9884 12.3184 14.0625 12.1396 14.0625 11.9531V4.92188C14.0625 4.73539 13.9884 4.55655 13.8566 4.42469C13.7247 4.29283 13.5459 4.21875 13.3594 4.21875ZM7.63213 10.7783C7.06525 10.8049 6.50357 10.6595 6.0209 10.361C5.53823 10.0625 5.15715 9.62496 4.92773 9.10589C4.69831 8.58682 4.63128 8.0105 4.73546 7.45263C4.83964 6.89477 5.11014 6.38147 5.51143 5.98018C5.91272 5.57889 6.42602 5.30839 6.98388 5.20421C7.54175 5.10003 8.11807 5.16706 8.63714 5.39648C9.15621 5.6259 9.59373 6.00698 9.89222 6.48965C10.1907 6.97232 10.3362 7.534 10.3096 8.10088C10.276 8.80015 9.98313 9.46183 9.4881 9.95685C8.99308 10.4519 8.3314 10.7447 7.63213 10.7783Z" fill="white"/>
</svg>