<svg width="370" height="390" viewBox="0 0 5894 5802" fill="none" xmlns="http://www.w3.org/2000/svg">
<path d="M1621.68 138.801H461.615V2059.19H1621.68V138.801Z" fill="#E0E0E0"/>
<path d="M1583.15 138.801H423.082V2059.19H1583.15V138.801Z" fill="#EBEBEB"/>
<path d="M1533.87 177.728H472.494V2020.13H1533.87V177.728Z" fill="#FAFAFA"/>
<path d="M1327.18 417.186H674.598V1780.8H1327.18V417.186Z" fill="#EBEBEB"/>
<path d="M674.598 1298.21C673.025 1170.82 787.577 1046.44 913.663 1028.74C973.823 1020.22 1037.78 1032.15 1094.01 1009.08C1194.28 967.927 1226.26 834.633 1327.18 795.182L1331.77 1780.8H674.598V1298.21Z" fill="#E0E0E0"/>
<path d="M5893.67 210.756H4781.04V1370.56H5893.67V210.756Z" fill="#E0E0E0"/>
<path d="M5818.3 210.756H4705.68V1370.56H5818.3V210.756Z" fill="#FAFAFA"/>
<path d="M5818.57 1370.83H4705.29V210.363H5818.57V1370.83ZM4705.94 1370.17H5817.91V211.019H4705.94V1370.17Z" fill="#E0E0E0"/>
<path d="M5668.76 366.595H4855.23V1214.59H5668.76V366.595Z" fill="#FAFAFA"/>
<path d="M4855.23 1220.23C4849.5 1228.78 4842.77 1236.62 4835.17 1243.56C4822.07 1257.32 4803.85 1275.8 4783.4 1295.99C4762.96 1316.17 4744.08 1334.13 4730.32 1346.84C4723.29 1354.33 4715.36 1360.93 4706.73 1366.5C4712.49 1357.98 4719.22 1350.15 4726.78 1343.17C4739.89 1330.06 4757.98 1310.93 4778.55 1290.74C4799.13 1270.56 4817.87 1252.47 4831.77 1239.76C4838.78 1232.34 4846.66 1225.79 4855.23 1220.23Z" fill="#E0E0E0"/>
<path d="M5668.76 1218.13C5677.25 1223.94 5685.08 1230.66 5692.09 1238.19C5705.19 1251.29 5724.33 1269.51 5744.51 1290.61C5764.7 1311.72 5782.52 1329.93 5795.37 1343.83C5802.82 1350.81 5809.38 1358.69 5814.9 1367.29C5806.41 1361.57 5798.63 1354.89 5791.7 1347.37C5777.94 1334.26 5759.32 1316.04 5739.27 1294.94C5719.22 1273.84 5701 1255.62 5688.29 1241.73C5680.83 1234.7 5674.27 1226.78 5668.76 1218.13Z" fill="#E0E0E0"/>
<path d="M5666.53 368.954C5672.25 360.399 5678.98 352.566 5686.58 345.624C5699.69 332.517 5717.77 313.25 5738.22 293.197C5758.67 273.144 5777.54 255.057 5791.43 242.212C5798.5 234.889 5806.37 228.382 5814.89 222.814C5809.18 231.298 5802.5 239.084 5794.97 246.013C5781.87 259.775 5763.65 278.387 5742.55 298.44C5721.44 318.493 5703.23 336.711 5689.33 349.425C5682.43 356.704 5674.78 363.249 5666.53 368.954Z" fill="#E0E0E0"/>
<path d="M4852.87 370.92C4844.31 365.197 4836.48 358.464 4829.54 350.867C4815.78 337.76 4797.3 319.673 4777.11 299.227C4756.93 278.78 4738.97 259.907 4726.26 246.014C4718.83 238.971 4712.23 231.099 4706.6 222.553C4715.14 228.238 4722.97 234.926 4729.93 242.475C4743.03 255.581 4762.17 273.8 4782.35 294.901C4802.54 316.003 4820.63 334.221 4833.34 348.114C4840.71 354.932 4847.27 362.585 4852.87 370.92Z" fill="#E0E0E0"/>
<path d="M5666.53 1214.59C5666.42 1213.24 5666.42 1211.88 5666.53 1210.53C5666.53 1207.65 5666.53 1203.72 5666.53 1198.6C5666.53 1187.99 5666.53 1172.39 5666.53 1152.86C5666.53 1112.76 5666.53 1054.3 5665.74 980.117C5665.74 831.487 5664.83 619.946 5664.17 366.594L5667.32 369.74H4856.15L4859.68 366.07C4859.68 677.353 4859.68 968.976 4859.68 1214.07L4856.54 1211.06L5443.98 1212.63L5608.86 1213.42H5652.64H5667.84C5666.62 1213.53 5665.39 1213.53 5664.17 1213.42H5652.37H5609.25L5445.03 1214.2L4855.23 1215.77H4852.08V1212.63C4852.08 967.141 4852.08 675.911 4852.08 364.628V363.056H4855.88H5667.05H5670.2V366.988C5669.41 621.257 5668.89 833.453 5668.5 983C5668.5 1056.92 5668.5 1115.12 5667.71 1155.09C5667.71 1174.75 5667.71 1189.82 5667.71 1200.31C5667.71 1205.16 5667.71 1208.96 5667.71 1211.71C5667.71 1214.46 5666.53 1214.73 5666.53 1214.59Z" fill="#E0E0E0"/>
<path d="M5397.71 654.94H5126.27V926.379H5397.71V654.94Z" fill="#EBEBEB"/>
<path d="M4213.26 5645.69C4190.2 5625.9 4138.55 5563.12 4178.4 5489.98C4192.95 5463.77 4224.01 5449.88 4251.93 5437.56C4279.84 5425.24 4309.47 5415.54 4332.66 5395.75C4376.44 5358.52 4388.5 5296.79 4417.6 5247.12C4450.89 5190.1 4513.14 5147.38 4578.94 5150.39C4654.17 5153.8 4716.95 5215.27 4745.39 5285.39C4773.83 5355.51 4774.88 5433.36 4775.54 5509.12C4775.54 5550.93 4773.97 5598.11 4743.16 5626.42C4714.85 5652.64 4672.26 5652.64 4633.72 5651.59L4222.31 5638.48" fill="#F5F5F5"/>
<path d="M5000.32 4514.32H3918.23L4113.13 5676.49C4117.15 5700.73 4127.97 5723.32 4144.32 5741.65C4160.68 5759.98 4181.91 5773.29 4205.53 5780.03L4209.33 5781.08C4212.48 5781.87 4215.62 5782.92 4218.9 5783.57C4226.16 5785 4233.52 5785.83 4240.92 5786.06V5787.24L4246.16 5786.33H4728.49C4737.29 5786.3 4746.07 5785.42 4754.7 5783.7C4782.86 5779.34 4808.81 5765.86 4828.58 5745.34C4848.34 5724.81 4860.83 5698.37 4864.14 5670.07L4958.11 4869.25L4962.31 4837.4L4999.4 4520.35L5000.32 4514.32ZM4796.12 5255.77H4685.1L4696.37 4918.53H4824.95L4796.12 5255.77ZM4835.44 4918.53H4941.86L4902.54 5255.77H4806.99L4835.44 4918.53ZM4518.25 5629.7L4512.09 5336.5H4672.13L4662.3 5629.57L4518.25 5629.7ZM4345.64 5336.5H4500.95L4507.77 5629.57H4367.92L4345.64 5336.5ZM4357.7 5629.57H4227.42C4214.97 5550.93 4198.85 5447.65 4181.41 5336.5H4334.89L4357.7 5629.57ZM4339.35 5255.77L4313.14 4918.53H4491.39L4498.99 5255.77H4339.35ZM4509.74 5255.77L4502 4918.53H4685.5L4674.36 5255.77H4509.74ZM4500.17 4837.53L4492.96 4525.2H4698.47L4688.12 4837.53H4500.17ZM4489.42 4837.53H4306.84L4282.6 4525.2H4482.34L4489.42 4837.53ZM4295.97 4837.53H4102.77C4095.96 4794.41 4089.67 4753.65 4083.64 4716.82C4063.45 4590.61 4055.85 4543.03 4051.66 4525.2H4271.85L4295.97 4837.53ZM4302.26 4918.53L4328.6 5255.77H4168.7C4163.33 5221.56 4157.95 5186.96 4152.45 5152.36C4140 5072.67 4127.41 4993.11 4115.62 4918.53H4302.26ZM4158.22 5255.77H4053.36L3996.74 4918.53H4104.61C4121.25 5022.6 4139.47 5138.59 4158.22 5255.77ZM4171.32 5336.64C4187.31 5438.08 4202.91 5538.09 4217.33 5629.7H4116.93L4066.47 5336.5L4171.32 5336.64ZM4673.44 5629.7L4683.27 5336.64H4790.09L4765.05 5629.7H4673.44ZM4699.65 4837.53L4710.01 4525.2H4859.29L4833.08 4837.53H4699.65ZM4042.09 4525.2C4046.42 4547.75 4066.08 4670.69 4092.55 4837.53H3983.9L3931.47 4525.2H4042.09ZM4859.29 5629.7H4775.67L4800.44 5336.5H4893.37L4859.29 5629.7ZM4952.22 4837.53H4843.3L4869.51 4525.2H4988.39L4952.22 4837.53Z" fill="#E0E0E0"/>
<path d="M5616.2 5798.51C5616.2 5800.48 4358.88 5801.92 2808.23 5801.92C1257.58 5801.92 0 5800.48 0 5798.51C0 5796.55 1257.06 5795.11 2808.23 5795.11C4359.4 5795.11 5616.2 5796.68 5616.2 5798.51Z" fill="#263238"/>
<path d="M4112.47 4378.67L2624.74 4377.62C2538.82 4377.55 2456.44 4343.37 2395.72 4282.59C2334.99 4221.82 2300.87 4139.41 2300.87 4053.49V323.867C2300.91 281.246 2309.35 239.051 2325.71 199.697C2342.07 160.342 2366.03 124.601 2396.22 94.5185C2426.42 64.4362 2462.24 40.6037 2501.66 24.3852C2541.07 8.16672 2583.3 -0.119355 2625.92 0.00129889L4113.65 0.91876C4199.57 0.988246 4281.95 35.168 4342.68 95.9461C4403.41 156.724 4437.52 239.128 4437.52 325.046L4436.73 4054.54C4436.75 4097.12 4428.37 4139.29 4412.08 4178.63C4395.79 4217.97 4371.91 4253.72 4341.79 4283.82C4311.67 4313.92 4275.92 4337.8 4236.57 4354.07C4197.23 4370.35 4155.06 4378.7 4112.47 4378.67Z" fill="#455A64"/>
<path d="M4112.08 132.903H3823.73C3814.34 133.107 3805.07 135.161 3796.47 138.948C3787.86 142.734 3780.09 148.179 3773.59 154.97C3767.09 161.762 3761.99 169.768 3758.59 178.53C3755.18 187.292 3753.54 196.64 3753.75 206.038V258.465C3753.95 267.863 3752.31 277.21 3748.9 285.973C3745.5 294.735 3740.4 302.741 3733.9 309.532C3727.4 316.324 3719.63 321.769 3711.02 325.555C3702.42 329.341 3693.15 331.395 3683.76 331.6H3121.48C3102.49 331.153 3084.45 323.186 3071.33 309.449C3058.2 295.711 3051.07 277.327 3051.49 258.334V205.907C3051.91 186.914 3044.78 168.529 3031.66 154.792C3018.53 141.055 3000.49 133.088 2981.5 132.641H2627.62C2597.81 132.606 2568.28 138.449 2540.72 149.835C2513.16 161.222 2488.12 177.928 2467.03 198.998C2445.93 220.069 2429.2 245.092 2417.78 272.635C2406.36 300.178 2400.48 329.701 2400.48 359.517L2399.83 3999.89C2399.83 4060.05 2423.71 4117.75 2466.22 4160.31C2508.74 4202.88 2566.41 4226.83 2626.57 4226.9L4111.29 4227.68C4141.11 4227.72 4170.64 4221.87 4198.2 4210.49C4225.75 4199.1 4250.79 4182.4 4271.89 4161.32C4292.98 4140.25 4309.72 4115.23 4321.14 4087.69C4332.56 4060.15 4338.43 4030.62 4338.43 4000.81V360.434C4338.57 300.251 4314.81 242.475 4272.36 199.809C4229.92 157.142 4172.26 133.076 4112.08 132.903Z" fill="#FAFAFA"/>
<path d="M3854.14 250.994H3837.63V274.062H3854.14V250.994Z" fill="#263238"/>
<path d="M3881.01 240.771H3864.5V274.192H3881.01V240.771Z" fill="#263238"/>
<path d="M3907.75 233.037H3891.23V274.192H3907.75V233.037Z" fill="#263238"/>
<path d="M3934.62 218.096H3918.1V274.192H3934.62V218.096Z" fill="#263238"/>
<path d="M4178.01 275.241H4095.3C4093.73 275.241 4092.21 274.624 4091.09 273.522C4089.96 272.419 4089.31 270.919 4089.28 269.343V228.188C4089.28 226.624 4089.9 225.124 4091 224.018C4092.11 222.911 4093.61 222.29 4095.17 222.29H4178.01C4178.34 222.159 4178.72 222.159 4179.06 222.29C4179.17 222.675 4179.17 223.085 4179.06 223.47V236.576H4187.97C4188.39 236.576 4188.79 236.742 4189.08 237.037C4189.38 237.332 4189.54 237.732 4189.54 238.149V257.94C4189.51 258.334 4189.33 258.701 4189.04 258.969C4188.75 259.236 4188.36 259.383 4187.97 259.382H4179.06V272.489C4179.42 272.628 4179.72 272.906 4179.88 273.262C4180.04 273.619 4180.05 274.024 4179.91 274.389C4179.77 274.754 4179.49 275.049 4179.13 275.209C4178.78 275.368 4178.37 275.38 4178.01 275.241ZM4176.43 225.305H4095.17C4094.79 225.305 4094.42 225.379 4094.07 225.524C4093.72 225.669 4093.4 225.881 4093.13 226.149C4092.87 226.417 4092.65 226.735 4092.51 227.085C4092.36 227.434 4092.29 227.809 4092.29 228.188V269.343C4092.29 269.733 4092.37 270.119 4092.52 270.478C4092.67 270.836 4092.9 271.16 4093.18 271.43C4093.46 271.699 4093.8 271.909 4094.16 272.046C4094.53 272.183 4094.92 272.244 4095.3 272.226H4176.43V259.12C4176.43 258.703 4176.6 258.303 4176.9 258.008C4177.19 257.713 4177.59 257.547 4178.01 257.547H4186.79V240.377H4178.01C4177.81 240.396 4177.61 240.372 4177.42 240.308C4177.22 240.243 4177.05 240.14 4176.9 240.004C4176.75 239.869 4176.64 239.703 4176.56 239.519C4176.48 239.335 4176.43 239.136 4176.43 238.936V225.305Z" fill="#263238"/>
<path d="M4099.11 265.542V232.12H4169.75V247.193V250.469V265.542H4099.11Z" fill="#263238"/>
<path d="M4014.04 272.095C4014.01 270.507 4013.36 268.993 4012.24 267.869C4011.12 266.746 4009.6 266.1 4008.02 266.066C4006.42 266.066 4004.88 266.702 4003.75 267.832C4002.62 268.963 4001.99 270.496 4001.99 272.095C4001.97 272.892 4002.11 273.684 4002.41 274.424C4002.71 275.163 4003.15 275.835 4003.71 276.399C4004.28 276.962 4004.95 277.405 4005.69 277.702C4006.43 277.999 4007.22 278.142 4008.02 278.125C4009.61 278.125 4011.15 277.489 4012.28 276.359C4013.41 275.228 4014.04 273.694 4014.04 272.095Z" fill="#263238"/>
<path d="M3986.78 257.547L3994.51 265.28C3996.21 263.52 3998.25 262.121 4000.5 261.165C4002.75 260.209 4005.17 259.716 4007.62 259.716C4010.07 259.716 4012.49 260.209 4014.74 261.165C4016.99 262.121 4019.03 263.52 4020.73 265.28L4028.46 257.547C4025.71 254.798 4022.44 252.628 4018.84 251.165C4015.24 249.702 4011.38 248.975 4007.49 249.028C3999.74 249.035 3992.3 252.095 3986.78 257.547Z" fill="#263238"/>
<path d="M4007.49 231.727C3995.26 231.581 3983.48 236.295 3974.72 244.834L3982.32 252.567C3989 245.947 3998.02 242.234 4007.42 242.234C4016.83 242.234 4025.85 245.947 4032.52 252.567L4040.26 244.834C4031.49 236.319 4019.71 231.609 4007.49 231.727Z" fill="#263238"/>
<path d="M3961.62 232.776L3969.35 240.508C3979.33 230.536 3992.86 224.934 4006.97 224.934C4021.07 224.934 4034.6 230.536 4044.58 240.508L4052.32 232.776C4040.28 220.77 4023.97 214.028 4006.97 214.028C3989.96 214.028 3973.66 220.77 3961.62 232.776Z" fill="#263238"/>
<path d="M3468.54 585.868H3368.67C3361.8 585.868 3356.22 591.443 3356.22 598.32V666.081C3356.22 672.958 3361.8 678.532 3368.67 678.532H3468.54C3475.42 678.532 3481 672.958 3481 666.081V598.32C3481 591.443 3475.42 585.868 3468.54 585.868Z" fill="#263238"/>
<path d="M3383.74 591.898H3370.64V576.694C3370.3 570.192 3371.28 563.689 3373.54 557.581C3375.79 551.473 3379.27 545.888 3383.75 541.165C3388.23 536.443 3393.63 532.682 3399.61 530.112C3405.59 527.542 3412.03 526.217 3418.54 526.217C3425.05 526.217 3431.5 527.542 3437.48 530.112C3443.46 532.682 3448.86 536.443 3453.34 541.165C3457.82 545.888 3461.29 551.473 3463.55 557.581C3465.8 563.689 3466.79 570.192 3466.45 576.694V586.655H3453.34V576.694C3453.63 571.944 3452.95 567.186 3451.33 562.71C3449.71 558.235 3447.2 554.138 3443.94 550.672C3440.68 547.206 3436.74 544.444 3432.38 542.556C3428.01 540.667 3423.3 539.693 3418.54 539.693C3413.78 539.693 3409.08 540.667 3404.71 542.556C3400.34 544.444 3396.41 547.206 3393.15 550.672C3389.89 554.138 3387.37 558.235 3385.75 562.71C3384.14 567.186 3383.45 571.944 3383.74 576.694V591.898Z" fill="#263238"/>
<path d="M2415.03 2882.02C2416.31 2764.18 2448.73 2648.77 2508.99 2547.5C2569.25 2446.22 2655.21 2362.68 2758.16 2305.33C2902.34 2226.69 3070.36 2206.24 3230.66 2169.41C3390.95 2132.58 3557.14 2071.77 3656.23 1940.57C3790.18 1763.24 3764.62 1511.2 3861.35 1311.45C3906.32 1221.27 3974.55 1144.72 4059 1089.72C4143.44 1034.72 4241.04 1003.27 4341.71 998.597V4046.02C4341.71 4095.14 4322.2 4142.25 4287.47 4176.98C4252.73 4211.71 4205.63 4231.22 4156.51 4231.22H2600.49C2576.15 4231.24 2552.05 4226.46 2529.56 4217.16C2507.07 4207.87 2486.63 4194.23 2469.41 4177.03C2452.18 4159.83 2438.52 4139.41 2429.19 4116.94C2419.86 4094.46 2415.05 4070.36 2415.03 4046.02V2882.02Z" fill="#EBEBEB"/>
<path d="M2742.7 1294.81C2742.7 1181.83 2801.94 1114.46 2884.12 1114.46C2966.3 1114.46 3025.93 1181.83 3025.93 1294.81C3025.93 1407.79 2966.17 1475.29 2884.12 1475.29C2802.07 1475.29 2742.7 1407.79 2742.7 1294.81ZM2988.45 1294.81C2988.45 1200.05 2945.85 1147.88 2883.6 1147.88C2821.34 1147.88 2778.74 1200.31 2778.74 1294.81C2778.74 1389.31 2821.34 1441.86 2883.6 1441.86C2945.85 1441.86 2988.71 1389.31 2988.71 1294.81H2988.45Z" fill="#263238"/>
<path d="M3334.33 1291.79C3334.33 1412.37 3268.8 1475.29 3172.2 1475.29C3142.93 1476.53 3113.87 1469.88 3088.06 1456.02L3102.74 1426.66C3123.63 1438.73 3147.57 1444.51 3171.68 1443.31C3248.22 1443.31 3297.37 1394.16 3297.37 1297.82C3297.37 1289.83 3297.37 1279.6 3295.8 1268.99C3278.1 1308.31 3236.56 1329.8 3187.41 1329.8C3116.89 1329.8 3067.74 1288.25 3067.74 1223.38C3067.74 1158.5 3120.17 1114.46 3188.85 1114.46C3283.08 1114.07 3334.33 1179.6 3334.33 1291.79ZM3284.13 1221.41C3284.13 1182.09 3251.76 1145.39 3190.42 1145.39C3139.17 1145.39 3103.79 1175.27 3103.79 1222.33C3103.79 1269.38 3138.26 1298.87 3192.91 1298.87C3247.57 1298.87 3284.13 1265.45 3284.13 1221.41Z" fill="#263238"/>
<path d="M3387.55 1230.98C3387.38 1227.38 3387.96 1223.79 3389.25 1220.43C3390.53 1217.07 3392.5 1214 3395.02 1211.43C3397.54 1208.86 3400.56 1206.84 3403.9 1205.49C3407.24 1204.14 3410.82 1203.49 3414.41 1203.59C3418.01 1203.57 3421.57 1204.27 3424.9 1205.64C3428.22 1207.01 3431.24 1209.03 3433.78 1211.58C3436.31 1214.13 3438.32 1217.15 3439.68 1220.48C3441.03 1223.82 3441.71 1227.38 3441.68 1230.98C3441.75 1238.29 3438.92 1245.33 3433.81 1250.56C3428.7 1255.8 3421.73 1258.79 3414.41 1258.9C3410.81 1258.84 3407.26 1258.08 3403.95 1256.65C3400.64 1255.21 3397.66 1253.14 3395.16 1250.54C3392.66 1247.94 3390.7 1244.88 3389.39 1241.52C3388.09 1238.16 3387.46 1234.58 3387.55 1230.98ZM3387.55 1446.84C3387.38 1443.25 3387.96 1439.66 3389.25 1436.29C3390.53 1432.93 3392.5 1429.87 3395.02 1427.3C3397.54 1424.73 3400.56 1422.71 3403.9 1421.36C3407.24 1420.01 3410.82 1419.36 3414.41 1419.45C3418.01 1419.43 3421.57 1420.13 3424.9 1421.5C3428.22 1422.88 3431.24 1424.89 3433.78 1427.44C3436.31 1429.99 3438.32 1433.02 3439.68 1436.35C3441.03 1439.68 3441.71 1443.25 3441.68 1446.84C3441.75 1454.16 3438.92 1461.2 3433.81 1466.43C3428.7 1471.66 3421.73 1474.66 3414.41 1474.76C3410.81 1474.71 3407.26 1473.95 3403.95 1472.51C3400.64 1471.08 3397.66 1469 3395.16 1466.41C3392.66 1463.81 3390.7 1460.75 3389.39 1457.39C3388.09 1454.03 3387.46 1450.45 3387.55 1446.84Z" fill="#263238"/>
<path d="M3736.71 1439.77V1472.27H3487.68V1446.06L3635.13 1301.88C3675.24 1262.56 3682.84 1238.58 3682.84 1214.2C3682.84 1173.18 3653.87 1147.88 3599.74 1147.88C3581.68 1146.75 3563.6 1149.69 3546.83 1156.5C3530.06 1163.31 3515.04 1173.8 3502.88 1187.2L3476.67 1164.79C3504.06 1132.42 3548.1 1114.2 3602.36 1114.2C3674.32 1114.2 3720.32 1150.63 3720.32 1209.88C3720.32 1243.95 3709.71 1274.36 3662 1320.89L3541.42 1438.85L3736.71 1439.77Z" fill="#263238"/>
<path d="M3780.22 1294.81C3780.22 1181.83 3839.46 1114.46 3921.64 1114.46C4003.82 1114.46 4063.46 1181.83 4063.46 1294.81C4063.46 1407.79 4003.69 1475.29 3921.64 1475.29C3839.59 1475.29 3780.22 1407.79 3780.22 1294.81ZM4025.97 1294.81C4025.97 1200.05 3983.37 1147.88 3921.12 1147.88C3858.86 1147.88 3816.26 1200.31 3816.26 1294.81C3816.26 1389.31 3859.78 1441.73 3922.3 1441.73C3984.82 1441.73 4025.97 1389.31 4025.97 1294.81Z" fill="#263238"/>
<path d="M3014.17 844.344C3043.89 706.06 2955.88 569.864 2817.6 540.143C2679.31 510.422 2543.12 598.429 2513.4 736.714C2483.67 874.998 2571.68 1011.19 2709.97 1040.91C2848.25 1070.64 2984.45 982.628 3014.17 844.344Z" fill="#E0E0E0"/>
<path d="M1375.02 2827.89C1356.54 2814.79 1333.73 2809.28 1313.15 2799.58C1292.58 2789.88 1272.65 2773.37 1270.69 2750.3C1267.94 2716.75 1304.9 2691.45 1307.12 2658.55C1310.14 2611.24 1246.18 2585.42 1236.87 2539.02C1229.14 2500.49 1261.78 2464.18 1260.47 2424.86C1259.15 2385.54 1225.08 2356.32 1209.61 2320.01C1173.44 2236.39 1240.02 2128.52 1189.56 2052.63C1174.25 2033.55 1157.14 2015.99 1138.44 2000.21C1121.14 1982.91 1106.07 1960.89 1108.17 1935.85L1013.54 1892.86C981.818 1844.37 909.862 1842.53 856.256 1863.24C802.65 1883.95 754.68 1921.04 698.976 1934.94C671.715 1941.62 675.647 1901.25 648.123 1906.89C611.817 1914.23 567.386 1956.56 556.376 1991.69C545.367 2029.3 537.634 2070.98 524.265 2107.94C509.454 2148.71 465.809 2177.15 461.615 2220.4C456.897 2270.73 508.93 2312.15 509.061 2362.48C509.061 2416.87 449.033 2465.62 468.168 2516.61C479.178 2545.71 512.731 2561.3 524.527 2590.14C540.648 2629.46 508.537 2673.76 511.42 2716.62C514.304 2759.48 549.954 2790.93 583.638 2816.62C711.899 2916.73 855.411 2995.59 1008.69 3050.18C1075.14 3072.99 1145.13 3090.42 1215.12 3084.13C1285.11 3077.84 1355.49 3044.81 1392.19 2984.26C1422.2 2935.11 1421.94 2861.58 1375.02 2827.89Z" fill="#263238"/>
<path d="M1104.37 1912.13C1095.76 1877.72 1078.15 1846.22 1053.34 1820.87C1028.53 1795.52 997.413 1777.23 963.194 1767.89C928.975 1758.55 892.886 1758.49 858.635 1767.71C824.385 1776.94 793.209 1795.12 768.312 1820.38C748.128 1840.83 732.138 1865.86 708.283 1881.85C681.284 1900.07 677.352 1894.96 647.206 1906.63C617.061 1918.29 561.62 2002.57 562.538 2035.07L547.465 2177.41C548.644 2210.7 591.503 2229.84 622.959 2218.56C654.415 2207.29 675.386 2178.2 692.162 2149.36C708.939 2120.53 724.274 2089.33 751.797 2070.85C797.015 2039 858.355 2050.01 912.485 2061.02C966.616 2072.03 1029.4 2080.03 1071.73 2044.38C1108.17 2013.05 1116.03 1958.4 1104.37 1912.13Z" fill="#263238"/>
<path d="M1134.25 2115.28C1128.09 2022.62 1066.49 1909.12 974.216 1918.68L685.87 1992.21C672.364 1993.69 659.903 2000.17 650.948 2010.39C641.993 2020.61 637.196 2033.81 637.506 2047.39L669.88 2742.04H667.783C667.783 2742.04 785.743 2990.42 975.527 2930.52C1013.27 2918.59 978.935 2824.88 986.536 2782.41H988.371C988.371 2777.43 988.371 2772.71 988.371 2767.86C992.102 2736.19 992.497 2704.21 989.551 2672.45C989.551 2616.35 989.551 2593.81 989.551 2593.81C989.551 2593.81 1107.51 2573.89 1132.02 2419.49C1145 2344.13 1140.93 2218.17 1134.25 2115.28Z" fill="#FFBE9D"/>
<path d="M1110.4 2234.29C1110.47 2239.47 1108.5 2244.48 1104.92 2248.23C1101.35 2251.98 1096.44 2254.17 1091.26 2254.35C1088.74 2254.54 1086.21 2254.23 1083.81 2253.44C1081.41 2252.65 1079.2 2251.38 1077.3 2249.72C1075.39 2248.06 1073.84 2246.04 1072.73 2243.77C1071.61 2241.51 1070.96 2239.04 1070.81 2236.52C1070.77 2231.35 1072.75 2226.36 1076.32 2222.62C1079.89 2218.88 1084.78 2216.67 1089.95 2216.47C1092.47 2216.25 1095.01 2216.55 1097.41 2217.33C1099.82 2218.12 1102.04 2219.38 1103.95 2221.05C1105.86 2222.71 1107.41 2224.74 1108.52 2227.01C1109.63 2229.29 1110.26 2231.77 1110.4 2234.29Z" fill="#263238"/>
<path d="M1106.99 2180.82C1104.63 2183.44 1089.56 2172.43 1067.67 2172.43C1045.78 2172.43 1030.84 2183.31 1028.35 2180.69C1025.86 2178.06 1029.66 2174.79 1036.47 2169.94C1045.7 2163.5 1056.68 2160.07 1067.93 2160.11C1078.99 2160.1 1089.77 2163.58 1098.73 2170.07C1105.94 2175.71 1108.3 2179.64 1106.99 2180.82Z" fill="#263238"/>
<path d="M908.945 2241.24C909.017 2246.39 907.066 2251.36 903.512 2255.08C899.959 2258.81 895.086 2260.99 889.94 2261.16C887.419 2261.38 884.88 2261.08 882.475 2260.29C880.07 2259.51 877.847 2258.24 875.94 2256.58C874.032 2254.92 872.479 2252.89 871.371 2250.61C870.264 2248.34 869.626 2245.86 869.494 2243.34C869.423 2238.19 871.373 2233.22 874.927 2229.49C878.48 2225.77 883.353 2223.58 888.499 2223.41C891.02 2223.2 893.559 2223.49 895.964 2224.28C898.369 2225.07 900.592 2226.33 902.5 2227.99C904.407 2229.66 905.961 2231.69 907.068 2233.96C908.175 2236.24 908.814 2238.71 908.945 2241.24Z" fill="#263238"/>
<path d="M897.544 2185.27C895.184 2187.89 880.112 2176.75 858.224 2176.89C836.335 2177.02 821.394 2187.76 818.904 2185.14C816.413 2182.52 820.214 2179.24 827.03 2174.26C836.288 2167.91 847.259 2164.53 858.486 2164.56C869.532 2164.52 880.311 2167.96 889.286 2174.39C896.495 2179.51 898.723 2184.09 897.544 2185.27Z" fill="#263238"/>
<path d="M975.265 2343.21C986.473 2339.58 998.104 2337.42 1009.87 2336.79C1015.24 2336.79 1020.48 2335.21 1021.4 2331.41C1021.78 2325.8 1020.5 2320.19 1017.73 2315.29C1012.49 2302.19 1007.11 2288.42 1001.48 2273.87C979.066 2215.03 962.158 2166.53 965.173 2165.61C968.187 2164.7 987.716 2211.75 1010.13 2270.47C1015.5 2285.02 1020.75 2298.91 1025.59 2312.15C1029.04 2318.71 1030.06 2326.27 1028.48 2333.51C1027.69 2335.43 1026.48 2337.14 1024.94 2338.53C1023.39 2339.91 1021.56 2340.93 1019.57 2341.5C1016.56 2342.26 1013.49 2342.7 1010.39 2342.82C998.743 2344.39 986.945 2344.52 975.265 2343.21Z" fill="#263238"/>
<path d="M990.6 2595.12C917.889 2596.39 846.25 2577.47 783.646 2540.46C783.646 2540.46 833.976 2646.37 988.503 2632.21L990.6 2595.12Z" fill="#EB996E"/>
<path d="M966.353 2394.59C962.304 2389.46 957.01 2385.46 950.977 2382.96C944.943 2380.46 938.37 2379.54 931.882 2380.3C927.185 2380.74 922.626 2382.13 918.48 2384.38C914.335 2386.63 910.69 2389.7 907.766 2393.41C904.899 2396.95 903.196 2401.3 902.891 2405.85C902.586 2410.4 903.694 2414.94 906.062 2418.83C909.542 2422.61 914.056 2425.29 919.043 2426.52C924.029 2427.76 929.269 2427.5 934.111 2425.78C944.145 2422.22 953.368 2416.7 961.241 2409.53C963.641 2407.79 965.687 2405.61 967.27 2403.11C968.065 2401.95 968.49 2400.58 968.49 2399.17C968.49 2397.77 968.065 2396.4 967.27 2395.24" fill="#EB996E"/>
<path d="M912.615 2358.02C916.023 2358.02 916.154 2380.96 935.945 2397.34C955.736 2413.72 980.376 2411.1 980.638 2414.38C980.901 2417.65 975.134 2418.83 964.779 2419.1C951.177 2419.24 937.957 2414.6 927.425 2405.99C917.379 2397.77 910.899 2385.98 909.338 2373.09C908.421 2363.65 911.042 2357.89 912.615 2358.02Z" fill="#263238"/>
<path d="M907.766 2147.92C905.669 2153.82 884.305 2151.07 859.403 2154.08C834.5 2157.09 814.185 2164.04 810.777 2158.93C809.335 2156.44 812.874 2150.93 821 2145.82C831.747 2138.64 844.064 2134.14 856.913 2132.72C869.713 2131.21 882.689 2132.74 894.791 2137.17C903.31 2140.71 907.766 2145.17 907.766 2147.92Z" fill="#263238"/>
<path d="M1098.99 2119.22C1095.32 2124.07 1080.64 2119.22 1062.95 2119.22C1045.26 2119.22 1030.45 2122.62 1026.91 2117.51C1025.46 2115.02 1027.82 2110.17 1034.25 2105.59C1043.03 2100.09 1053.24 2097.31 1063.6 2097.62C1073.96 2097.92 1083.99 2101.29 1092.44 2107.29C1098.6 2111.88 1100.7 2116.86 1098.99 2119.22Z" fill="#263238"/>
<path d="M969.106 1879.63L955.999 1862.85C866.806 1873.1 779.418 1895.41 696.225 1929.17C662.934 1942.28 629.381 1958.79 606.576 1986.58C575.382 2024.72 570.401 2077.41 567.256 2126.56C554.149 2313.98 542.484 2506.65 601.464 2685.29C615.619 2662.49 643.405 2652.26 669.75 2647.15C696.094 2642.04 723.749 2640.34 748.39 2628.15C761.337 2621.12 772.684 2611.48 781.709 2599.84C790.734 2588.2 797.241 2574.81 800.816 2560.52C807.809 2531.62 804.423 2501.19 791.248 2474.54C776.962 2444.78 751.928 2416.08 757.695 2383.71C763.462 2351.33 803.044 2330.49 812.219 2297.2C828.078 2239.67 746.686 2188.03 763.593 2130.62C767.304 2120.28 773.09 2110.8 780.595 2102.78C788.101 2094.76 797.168 2088.35 807.238 2083.96C826.898 2074.13 848.524 2068.62 868.446 2059.32C901.537 2043.19 928.911 2017.34 946.901 1985.23C964.891 1953.11 972.638 1916.27 969.106 1879.63Z" fill="#263238"/>
<path d="M1748.69 3056.87L1568.08 3337.87C1575.06 3348.12 1584.57 3356.4 1595.68 3361.91C1606.79 3367.42 1619.13 3369.97 1631.52 3369.33C1675.03 3367.49 1734.8 3258.97 1741.87 3237.08C1748.95 3215.19 1739.38 3193.96 1745.81 3179.28C1752.23 3164.6 1749.74 3124.5 1749.74 3124.5C1748.82 3126.86 1788.8 3073.38 1748.69 3056.87Z" fill="#FFBE9D"/>
<path d="M1518.14 3337.74L1612.25 2965.64C1613.69 2960.16 1616.2 2955.02 1619.64 2950.52C1623.08 2946.02 1627.39 2942.25 1632.3 2939.43L1769 2861.45C1773.04 2859.18 1777.76 2858.48 1782.28 2859.47C1786.8 2860.46 1790.8 2863.08 1793.51 2866.82C1795.12 2869.04 1796.22 2871.59 1796.74 2874.28C1797.26 2876.98 1797.19 2879.75 1796.53 2882.42L1696.92 3274.04L1518.14 3337.74Z" fill="#263238"/>
<path d="M1470.7 3626.09L1689.18 3222.53L1606.87 3115.98L1299.39 3349.28L1380 3571.04L1470.7 3626.09Z" fill="#072ACB"/>
<path d="M1691.81 3310.09C1693.71 3304.68 1695.11 3299.11 1696 3293.44C1697.45 3277.74 1695.89 3261.9 1691.41 3246.78V3245.86V3244.95C1693.33 3241.89 1694.57 3238.46 1695.04 3234.89C1695.52 3231.32 1695.22 3227.68 1694.17 3224.24C1691.15 3216.46 1685.79 3209.82 1678.83 3205.23L1676.47 3203.66L1678.04 3201.17L1702.82 3164.21C1705.11 3161.26 1707.04 3158.05 1708.58 3154.64C1709.58 3151.43 1709.29 3147.95 1707.8 3144.94C1704.26 3137.99 1699.03 3132.04 1692.59 3127.64L1689.45 3125.41L1691.94 3122.53C1698.62 3114.93 1706.09 3107.33 1713.56 3099.59C1726.35 3086.43 1738.38 3072.56 1749.61 3058.05C1754.68 3051.38 1759.07 3044.22 1762.71 3036.68C1764.42 3033.32 1765.53 3029.68 1765.99 3025.93C1765.99 3022.53 1764.68 3020.69 1762.71 3020.3H1761.93C1757.72 3019.87 1753.47 3020.55 1749.61 3022.26C1745.14 3023.91 1740.77 3025.79 1736.5 3027.9C1728.51 3032.22 1721.03 3036.68 1714.22 3041.01C1701.11 3049.92 1688.66 3058.31 1679.09 3065.25L1656.68 3081.51C1654.19 3083.7 1651.41 3085.56 1648.42 3087.01C1650.46 3084.39 1652.84 3082.05 1655.5 3080.06C1660.35 3075.74 1667.56 3069.71 1676.87 3062.24C1686.17 3054.77 1697.7 3046.12 1711.34 3036.81C1718.28 3032.09 1725.62 3027.38 1733.88 3022.79C1738.11 3020.45 1742.49 3018.39 1746.99 3016.63C1752.06 3014.14 1757.81 3013.36 1763.37 3014.4H1762.58C1765.39 3014.79 1767.94 3016.28 1769.66 3018.54C1771.38 3020.8 1772.13 3023.64 1771.76 3026.46C1771.33 3031.01 1770.09 3035.45 1768.09 3039.56C1764.26 3047.59 1759.61 3055.19 1754.19 3062.24C1742.94 3077.09 1730.77 3091.23 1717.76 3104.57C1710.29 3112.31 1702.82 3119.91 1696.13 3127.38V3122.27C1703.67 3127.44 1709.72 3134.48 1713.7 3142.71C1715.72 3147.21 1716 3152.31 1714.48 3157C1712.77 3160.89 1710.57 3164.55 1707.93 3167.88C1699.02 3180.99 1690.5 3193.31 1682.5 3204.84V3200.65C1690.39 3206.09 1696.36 3213.89 1699.54 3222.93C1700.75 3227.07 1701.06 3231.42 1700.45 3235.7C1699.84 3239.97 1698.32 3244.06 1696 3247.7V3245.86C1700.19 3261.59 1701.04 3278.02 1698.49 3294.1C1697.72 3298.41 1696.35 3302.61 1694.43 3306.55C1692.86 3308.91 1692.07 3310.22 1691.81 3310.09Z" fill="#EB996E"/>
<path d="M1793.51 2866.69C1790.1 2869.77 1786.31 2872.41 1782.24 2874.55C1774.77 2879.27 1763.89 2885.96 1750.26 2894.08L1702.42 2922.78L1674.11 2939.17C1663.81 2944.14 1654.2 2950.44 1645.54 2957.91C1638.02 2966.16 1633.01 2976.4 1631.12 2987.4C1628.24 2998.41 1625.49 3008.9 1622.86 3019.12L1608.58 3072.73C1604.38 3087.93 1600.85 3100.25 1598.22 3108.64C1597.27 3113.19 1595.73 3117.59 1593.64 3121.74C1593.72 3117.3 1594.43 3112.89 1595.73 3108.64C1597.44 3099.99 1600.32 3087.54 1603.86 3072.2C1607.4 3056.87 1611.99 3038.12 1616.97 3018.2C1619.41 3007.98 1622.03 2997.36 1624.83 2986.35C1626.95 2974.14 1632.5 2962.78 1640.82 2953.59C1650.02 2945.82 1660.15 2939.21 1670.97 2933.93L1699.54 2917.94L1748.03 2891.72C1761.93 2884.12 1773.2 2878.62 1781.06 2874.16C1784.84 2871.09 1789.03 2868.58 1793.51 2866.69Z" fill="#455A64"/>
<path d="M1702.95 2993.82C1699.54 3001.95 1699.15 3009.55 1702.03 3010.73C1704.91 3011.91 1710.02 3006.41 1713.43 2998.28C1716.84 2990.15 1717.23 2982.68 1714.35 2981.37C1711.47 2980.06 1706.35 2985.83 1702.95 2993.82Z" fill="white"/>
<path d="M1022.45 2768.26C1069.44 2785.18 1112.63 2811.19 1149.55 2844.81C1186.48 2878.44 1216.42 2919 1237.66 2964.2L1530.99 3588.34L1783.68 3690.83L1560.87 3754.93L1362.96 3609.57L1022.45 2768.26Z" fill="#072ACB"/>
<path d="M1561.13 3754.93L1454.71 3836.97L923.626 3290.69L620.076 2742.31L655.202 2640.34L889.942 2738.11L973.956 2862.36L992.698 2705.08L1007.77 2726.18L1032.28 2792.64C1032.28 2792.64 1262.7 2984.39 1312.5 3136.29C1353.39 3263.56 1340.94 3525.69 1366.5 3596.47L1561.13 3754.93Z" fill="#FAFAFA"/>
<path d="M563.191 2735.23C559.653 2745.84 336.184 2835.63 325.568 2913.87C314.952 2992.12 486.124 3597.12 486.124 3597.12L757.563 3836.97H1454.71L1233.6 3422.93C1185.94 3333.65 1125.64 3251.72 1054.56 3179.67C989.026 3113.36 910.387 3031.31 869.232 2982.42C825.062 2929.34 637.768 2680.97 637.768 2680.97L563.191 2735.23Z" fill="#072ACB"/>
<path d="M703.041 2760C716.588 2764.87 729.735 2770.78 742.361 2777.69C766.346 2789.49 799.244 2806 835.418 2824.75L876.573 2846.24L871.855 2849.39C870.281 2824.92 871.733 2800.36 876.18 2776.25C877.421 2766.71 880.025 2757.4 883.913 2748.6C883.164 2758.09 881.939 2767.54 880.243 2776.91C877.174 2800.77 876.515 2824.87 878.277 2848.86V2854.63L873.165 2852.01L832.535 2831.04C796.36 2812.3 763.856 2795 740.788 2782.15C727.659 2775.74 715.04 2768.34 703.041 2760Z" fill="#263238"/>
<path d="M1240.41 3311.79C1236.24 3306.2 1232.51 3300.28 1229.27 3294.1L1200.83 3244.68C1176.98 3202.87 1143.69 3145.34 1106.2 3082.29C1068.72 3019.25 1033.72 2962.76 1008.42 2921.87L978.411 2873.37C974.506 2867.59 971.087 2861.5 968.188 2855.15C973.084 2860.31 977.473 2865.93 981.294 2871.93C989.027 2882.94 999.906 2899.06 1013.14 2919.25C1039.36 2959.48 1075.01 3015.71 1112.75 3078.88C1150.5 3142.06 1182.87 3199.99 1205.68 3242.32C1217.21 3263.56 1226.26 3280.73 1231.89 3292.79C1235.25 3298.88 1238.1 3305.23 1240.41 3311.79Z" fill="#263238"/>
<g opacity="0.3">
<path d="M1133.07 3733.56C1173.57 3740.38 1215.12 3746.67 1255.49 3739.59C1295.85 3732.51 1335.31 3706.43 1348.02 3667.37C1350.02 3654.63 1355.21 3642.59 1363.09 3632.38C1378.69 3617.96 1403.59 3626.87 1424.69 3624.91C1436.44 3623.11 1447.61 3618.63 1457.34 3611.81C1467.07 3604.99 1475.1 3596.02 1480.79 3585.59C1492.04 3564.71 1499.96 3542.2 1504.25 3518.88C1507.65 3507.63 1509.07 3495.88 1508.44 3484.14C1508.04 3478.31 1506.17 3472.66 1503 3467.74C1499.84 3462.82 1495.49 3458.77 1490.36 3455.96C1474.37 3448.75 1456.28 3459.24 1442.12 3469.07C1327.18 3551.9 1222.33 3648.11 1117.47 3743.79" fill="black"/>
</g>
<path d="M1393.5 3271.68C1393.5 3271.68 1433.47 3179.94 1454.71 3166.83C1475.94 3153.72 1581.97 3092.25 1581.97 3092.25L1568.87 3142.71L1672.54 3070.76C1685.65 3062.24 1759.17 2995 1772.28 3021.22C1781.85 3040.09 1721.43 3089.89 1713.3 3101.04C1693.12 3128.69 1700.19 3126.2 1700.19 3126.2C1700.19 3126.2 1722.08 3139.31 1711.07 3158.97C1702.08 3174.05 1692.19 3188.58 1681.45 3202.48C1681.45 3202.48 1710.29 3212.7 1693.51 3250.19C1698.35 3265.75 1699.34 3282.26 1696.39 3298.29C1691.68 3326.34 1641.08 3379.42 1641.08 3379.42L1388.13 3499.48L1286.42 3326.99L1393.5 3271.68Z" fill="#FFBE9D"/>
<path d="M806.189 3099.2L967.925 3444.43L1327.18 3288.72C1327.18 3288.72 1475.94 3375.49 1455.36 3470.38L1131.63 3735.4C1101.37 3760.25 1066.38 3778.7 1028.78 3789.63C991.174 3800.56 951.744 3803.73 912.877 3798.96C871.176 3793.86 831.086 3779.74 795.393 3757.58C759.7 3735.42 729.259 3705.76 706.185 3670.65L472.363 3315.2L341.296 3101.43C320.3 3068.14 309.619 3029.38 310.599 2990.04C311.578 2950.7 324.174 2912.52 346.801 2880.32C359.157 2862.95 374.839 2848.2 392.937 2836.94C451.523 2801.42 625.055 2785.95 806.189 3099.2Z" fill="#072ACB"/>
<path d="M1601.5 3119.38C1585.35 3133.3 1567.78 3145.47 1549.07 3155.69C1531.46 3167.82 1512.67 3178.14 1492.98 3186.49C1509.25 3172.74 1526.81 3160.58 1545.41 3150.18C1563.06 3138.13 1581.85 3127.81 1601.5 3119.38Z" fill="#EB996E"/>
<path d="M1702.55 3115.98C1688.54 3134.4 1672.79 3151.43 1655.5 3166.83C1639.74 3183.76 1622.51 3199.24 1603.99 3213.1C1618.08 3194.74 1633.83 3177.71 1651.05 3162.24C1666.8 3145.31 1684.03 3129.83 1702.55 3115.98Z" fill="#EB996E"/>
<path d="M1689.05 3193.83C1683.5 3205.26 1676.05 3215.67 1667.03 3224.63C1653.93 3240.49 1640.82 3252.55 1640.04 3250.84C1645.65 3239.37 1653.14 3228.92 1662.19 3219.91C1669.63 3209.79 1678.71 3200.97 1689.05 3193.83Z" fill="#EB996E"/>
<path d="M1694.16 3246.26C1695.61 3247.44 1689.97 3255.82 1682.89 3266.05C1675.81 3276.27 1669.79 3284.4 1668.08 3283.48C1666.38 3282.56 1670.31 3272.86 1677.65 3262.38C1684.99 3251.89 1692.46 3245.08 1694.16 3246.26Z" fill="#EB996E"/>
<path d="M1076.58 3770C1076.58 3770 1076.58 3769.34 1078.15 3768.43L1083.27 3764.1L1103.58 3747.72L1181.17 3686.38L1458.25 3469.59L1457.07 3471.82C1457.21 3453.85 1453.78 3436.03 1446.97 3419.4C1439.21 3401.97 1429.2 3385.62 1417.22 3370.77C1391.03 3339.83 1360.06 3313.28 1325.48 3292.13H1328.49L1142.77 3372.87L969.237 3447.05L966.354 3448.23L964.912 3445.48C917.335 3351.77 873.166 3263.69 828.865 3187.15C806.715 3148.74 784.827 3113.22 764.118 3080.06C743.41 3046.9 724.798 3016.23 705.269 2989.76C676.528 2947.1 638.309 2911.66 593.601 2886.22C585.868 2881.63 578.659 2878.09 572.368 2875.08C566.077 2872.06 560.965 2869.57 556.509 2867.74L546.81 2863.41C545.664 2863.01 544.565 2862.48 543.533 2861.84C582.419 2875.17 618.374 2895.86 649.435 2922.78C671.708 2942.24 691.634 2964.24 708.808 2988.32C728.468 3014.53 748.128 3045.46 768.443 3078.49C788.759 3111.52 811.564 3146.91 833.977 3185.31C879.064 3261.85 923.233 3349.93 971.072 3443.51L966.747 3441.94L1139.62 3366.71L1325.34 3286.1L1326.92 3285.45L1328.36 3286.36C1363.58 3308.02 1395.08 3335.19 1421.68 3366.84C1433.93 3382.22 1444.19 3399.09 1452.22 3417.04C1459.23 3434.72 1462.75 3453.59 1462.57 3472.61V3473.92L1461.39 3474.84L1183.01 3689.13L1104.37 3749.16L1083.53 3764.89L1078.02 3768.82L1076.58 3770Z" fill="#263238"/>
<path d="M946.169 3552.95C944.203 3552.17 954.164 3527.53 959.276 3495.68C964.388 3463.83 964.519 3437.22 966.616 3437.09C971.068 3456.76 971.068 3477.18 966.616 3496.86C964.125 3516.86 957.135 3536.04 946.169 3552.95Z" fill="#263238"/>
<path d="M2919.11 4567.01L3106.93 4802.28C3106.93 4802.28 3409.17 4690.48 3447.7 4730.58L3004.83 5111.59L2697.22 4757.72L2919.11 4567.01Z" fill="#072ACB"/>
<g opacity="0.6">
<path d="M2953.45 4900.84C2950.3 4905.79 2949.09 4911.72 2950.06 4917.51C2951.03 4923.29 2954.1 4928.52 2958.69 4932.17C2963.53 4935.5 2969.46 4936.86 2975.26 4935.96C2981.06 4935.06 2986.3 4931.96 2989.89 4927.32C2993.2 4922.03 2994.44 4915.71 2993.38 4909.57C2992.31 4903.42 2989.02 4897.89 2984.12 4894.02C2978.71 4891.1 2972.37 4890.37 2966.43 4892.01C2960.49 4893.65 2955.42 4897.52 2952.27 4902.81" fill="white"/>
</g>
<g opacity="0.6">
<path d="M3004.83 5111.59L2975.21 5074.63L3411.14 4723.11C3411.14 4723.11 3438.27 4714.73 3447.97 4730.58L3004.83 5111.59Z" fill="white"/>
</g>
<path d="M3112.17 4793.89C3114.01 4796.12 3104.05 4807 3099.07 4822.46C3094.09 4837.93 3096.58 4852.61 3093.82 4853.39C3091.07 4854.18 3083.6 4838.98 3089.63 4819.58C3095.66 4800.18 3110.99 4791.53 3112.17 4793.89Z" fill="#263238"/>
<path d="M3175.22 4773.18C3177.44 4774.88 3171.28 4786.29 3171.81 4802.15C3172.33 4818.01 3178.49 4829.01 3176.27 4830.85C3174.04 4832.68 3162.11 4821.54 3161.85 4802.28C3161.59 4783.01 3173.38 4770.82 3175.22 4773.18Z" fill="#263238"/>
<path d="M3249.4 4806.21C3247.83 4808.31 3235.51 4800.05 3230.79 4783.54C3226.07 4767.02 3232.36 4753.52 3234.72 4754.44C3237.08 4755.36 3236.42 4767.55 3240.36 4780.65C3244.29 4793.76 3251.37 4804.11 3249.4 4806.21Z" fill="#263238"/>
<path d="M3063.42 4744.61C3064.2 4747.36 3051.75 4753 3040.22 4764.27C3028.68 4775.54 3022.52 4787.6 3019.77 4786.81C3017.02 4786.03 3019.77 4770.3 3032.88 4757.19C3045.98 4744.08 3063.02 4742.38 3063.42 4744.61Z" fill="#263238"/>
<g opacity="0.3">
<path d="M2956.34 4613.67L2989.76 4655.61L2770.35 4840.68L2738.63 4804.24L2956.34 4613.67Z" fill="black"/>
</g>
<path d="M3024.62 4698.34C3025.54 4699.13 3018.07 4707.78 3002.34 4717.22C2993.17 4722.77 2983.36 4727.18 2973.11 4730.32C2967 4732.1 2960.78 4733.5 2954.5 4734.52C2950.81 4735.07 2947.05 4735.07 2943.36 4734.52C2940.65 4734.09 2938.14 4732.82 2936.19 4730.89C2934.24 4728.97 2932.94 4726.47 2932.48 4723.77C2932.25 4721.33 2932.61 4718.86 2933.52 4716.58C2934.43 4714.3 2935.87 4712.27 2937.72 4710.66C2940.46 4708.14 2943.61 4706.1 2947.03 4704.63C2962.44 4696.8 2979.56 4692.93 2996.84 4693.36C3006.83 4692.63 3016.81 4695.01 3025.41 4700.18C3025.41 4701.75 3014.14 4699.26 2996.97 4700.18C2986.98 4700.95 2977.12 4702.93 2967.61 4706.08C2962.05 4707.99 2956.66 4710.36 2951.49 4713.15C2945.72 4715.91 2941.66 4719.31 2942.31 4722.46C2942.31 4723.64 2942.31 4723.9 2944.93 4724.42C2947.67 4724.8 2950.45 4724.8 2953.19 4724.42C2959.05 4723.63 2964.87 4722.54 2970.62 4721.15C2980.39 4718.6 2989.91 4715.18 2999.06 4710.92C3007.25 4706.09 3015.8 4701.89 3024.62 4698.34Z" fill="#263238"/>
<path d="M3024.49 4703.85C3024.49 4704.76 3013.09 4700.7 3000.24 4687.33C2988.32 4674.73 2980.11 4659.09 2976.52 4642.11C2975.2 4638.16 2974.93 4633.93 2975.74 4629.85C2976.54 4625.76 2978.39 4621.95 2981.11 4618.78C2983.09 4617.08 2985.53 4616.01 2988.12 4615.71C2990.71 4615.41 2993.34 4615.88 2995.66 4617.08C2999.03 4618.68 3002.17 4620.76 3004.96 4623.24C3011.64 4629.01 3017.11 4636.04 3021.05 4643.94C3024.99 4651.84 3027.31 4660.44 3027.9 4669.25C3029.21 4688.12 3022.39 4698.47 3021.48 4697.95C3022.1 4688.65 3022.1 4679.33 3021.48 4670.03C3019.9 4660.38 3016.18 4651.2 3010.6 4643.16C3007.44 4638.47 3003.6 4634.27 2999.19 4630.71C2994.48 4626.65 2989.5 4624.29 2988.05 4626.26C2986.82 4628.35 2986.05 4630.69 2985.8 4633.11C2985.55 4635.53 2985.83 4637.98 2986.61 4640.28C2987.63 4645.98 2989.26 4651.56 2991.46 4656.93C2995.07 4666.32 3000.01 4675.15 3006.14 4683.14C3016.1 4696.38 3025.41 4702.41 3024.49 4703.85Z" fill="#263238"/>
<path d="M2715.04 5292.34L2703.38 5600.08C2703.38 5600.08 3012.3 5715.29 3015.71 5772.43L2418.05 5771.25L2416.6 5290.89L2715.04 5292.34Z" fill="#072ACB"/>
<g opacity="0.6">
<path d="M2518.57 5573.87C2512.83 5575.6 2507.93 5579.4 2504.81 5584.53C2501.69 5589.65 2500.57 5595.75 2501.67 5601.65C2503.24 5607.45 2506.96 5612.43 2512.07 5615.6C2517.18 5618.76 2523.3 5619.86 2529.19 5618.69C2535.22 5616.73 2540.34 5612.65 2543.6 5607.2C2546.85 5601.76 2548.02 5595.31 2546.88 5589.07C2544.66 5583.2 2540.26 5578.4 2534.6 5575.69C2528.94 5572.98 2522.44 5572.56 2516.48 5574.52" fill="white"/>
</g>
<g opacity="0.6">
<path d="M2418.04 5771.25L2419.88 5722.76L2991.72 5742.02C2991.72 5742.02 3017.94 5753.69 3015.32 5772.43L2418.04 5771.25Z" fill="white"/>
</g>
<path d="M2713.08 5596.54C2713.08 5599.42 2698.4 5600.74 2683.98 5609.65C2669.56 5618.56 2661.96 5631.14 2659.21 5629.96C2656.46 5628.78 2660.91 5612.01 2678.61 5601C2696.3 5589.99 2713.73 5594.44 2713.08 5596.54Z" fill="#263238"/>
<path d="M2775.73 5622.75C2775.73 5625.51 2763.67 5630.49 2753.71 5642.81C2743.75 5655.13 2740.6 5668.23 2737.98 5668.1C2735.36 5667.97 2733.26 5651.46 2745.97 5636.39C2758.69 5621.31 2775.59 5620.4 2775.73 5622.75Z" fill="#263238"/>
<path d="M2811.11 5698.25C2808.49 5698.25 2804.43 5684.22 2812.03 5668.23C2819.63 5652.24 2833.13 5645.95 2834.44 5648.44C2835.76 5650.93 2827.1 5659.32 2821.34 5672.56C2815.57 5685.8 2814 5697.99 2811.11 5698.25Z" fill="#263238"/>
<path d="M2707.96 5526.68C2706.65 5529.3 2693.28 5525.24 2676.77 5526.68C2660.26 5528.12 2647.41 5532.97 2645.97 5530.48C2644.53 5527.99 2656.85 5517.38 2676.25 5516.59C2695.64 5515.8 2709.41 5524.32 2707.96 5526.68Z" fill="#263238"/>
<g opacity="0.3">
<path d="M2712.68 5353.28L2710.72 5408.07L2417 5404.92L2416.73 5355.38L2712.68 5353.28Z" fill="black"/>
</g>
<path d="M2709.14 5464.43C2699.37 5467.2 2689.03 5467.2 2679.26 5464.43C2662.04 5461.28 2645.58 5454.88 2630.77 5445.55C2627.37 5443.72 2624.32 5441.33 2621.72 5438.47C2619.88 5436.37 2618.77 5433.74 2618.53 5430.96C2618.3 5428.17 2618.95 5425.39 2620.41 5423.01C2621.92 5420.95 2623.9 5419.27 2626.17 5418.11C2628.45 5416.95 2630.96 5416.34 2633.52 5416.32C2637.29 5416.31 2641.04 5416.84 2644.66 5417.9C2661.9 5422.1 2677.81 5430.58 2690.93 5442.54C2704.69 5455.64 2709.41 5466.26 2708.36 5466.79C2707.31 5467.31 2700.36 5458.66 2686.34 5448.04C2678.25 5441.97 2669.45 5436.9 2660.12 5432.97C2654.57 5430.67 2648.83 5428.87 2642.95 5427.6C2636.66 5425.89 2631.29 5425.89 2629.85 5428.64C2628.41 5431.4 2629.19 5430.22 2630.5 5432.05C2632.48 5434.07 2634.73 5435.79 2637.19 5437.16C2642.21 5440.54 2647.47 5443.56 2652.92 5446.21C2662.19 5450.84 2671.89 5454.57 2681.88 5457.35C2691.11 5459.13 2700.22 5461.49 2709.14 5464.43Z" fill="#263238"/>
<path d="M2705.34 5468.62C2699.65 5460.12 2696.89 5450 2697.48 5439.79C2696.76 5422.04 2700.83 5404.43 2709.28 5388.8C2710.91 5384.86 2713.52 5381.4 2716.87 5378.77C2720.23 5376.13 2724.2 5374.39 2728.41 5373.73C2731.18 5373.68 2733.9 5374.44 2736.24 5375.94C2738.57 5377.43 2740.41 5379.58 2741.52 5382.12C2743.04 5385.63 2744.1 5389.34 2744.66 5393.13C2745.96 5402.07 2745.47 5411.18 2743.22 5419.93C2740.97 5428.68 2737.01 5436.9 2731.56 5444.11C2719.76 5459.58 2707.57 5463.12 2707.31 5462.07C2707.05 5461.02 2716.62 5454.99 2725.53 5440.18C2730.73 5431.6 2734 5421.98 2735.1 5412C2735.88 5406.26 2735.88 5400.44 2735.1 5394.7C2734.18 5388.41 2731.82 5383.3 2729.46 5383.95C2727.1 5384.61 2721.33 5388.67 2718.84 5393.65C2715.91 5398.84 2713.46 5404.28 2711.5 5409.9C2708.09 5419.52 2706.11 5429.59 2705.61 5439.79C2703.38 5457.35 2706.92 5468.23 2705.34 5468.62Z" fill="#263238"/>
<path d="M2412.02 3836.97L3003.39 4622.85L2726.71 4860.47L2442.03 4488.11L2412.02 3836.97Z" fill="#263238"/>
<path d="M1159.81 3874.59C1159.81 3874.59 2111.35 3584.67 2198.51 3588.34C2285.67 3592.01 2451.07 3906.7 2451.07 3906.7L2183.96 3897C2115.41 4065.16 1988.8 4237.78 1846.2 4412.62L1300.05 4387.19L1159.81 3874.59Z" fill="#263238"/>
<path d="M1937.56 3645.49C1937.56 3647.32 1840.31 3677.99 1719.2 3714.03C1598.09 3750.08 1499.4 3777.73 1498.88 3775.9C1498.35 3774.06 1596 3743.39 1717.23 3707.48C1838.47 3671.57 1937.03 3643.65 1937.56 3645.49Z" fill="#263238"/>
<path d="M2158.67 3891.89H2425.78C2490.79 3891.94 2554.19 3912.13 2607.26 3949.68C2660.32 3987.23 2700.45 4040.3 2722.12 4101.6C2742.94 4160.7 2752.11 4223.28 2749.12 4285.88L2728.28 5373.73H2368.77L2362.21 5026.4L2316.73 4366.22L2005.45 4379.33L1829.03 4368.32L2158.67 3891.89Z" fill="#263238"/>
<path d="M2166.66 3886.52C2165.47 3894.27 2163.76 3901.93 2161.55 3909.45C2156.41 3930.24 2150.11 3950.71 2142.68 3970.79C2131.81 4000.59 2118.66 4029.51 2103.36 4057.3C2084.29 4091.37 2062.36 4123.78 2037.82 4154.15C1992.54 4208.18 1944.04 4259.43 1892.6 4307.63L1846.47 4352.06C1841.04 4357.73 1835.17 4362.95 1828.9 4367.66C1833.71 4361.47 1838.92 4355.6 1844.5 4350.1C1854.85 4339.09 1870.71 4323.89 1889.19 4304.23C1939.51 4255.2 1987.33 4203.67 2032.45 4149.83C2076.47 4095.18 2112.08 4034.26 2138.09 3969.09C2147.52 3943.92 2154.73 3923.22 2158.93 3908.8C2160.9 3901.17 2163.49 3893.72 2166.66 3886.52Z" fill="#455A64"/>
<path d="M2493.67 3899.23C2477.43 3899.27 2461.2 3898.49 2445.05 3896.87C2415.16 3895.17 2373.75 3893.99 2328.13 3894.91C2282.52 3895.82 2241.11 3898.57 2211.09 3900.54C2195 3902.4 2178.8 3903.23 2162.6 3903.03C2166.83 3901.56 2171.24 3900.63 2175.7 3900.28C2183.96 3898.97 2196.02 3897.4 2210.96 3895.69C2240.84 3892.55 2282.26 3889.01 2328.92 3888.09C2368.29 3887.16 2407.67 3888.52 2446.88 3892.15C2461.82 3893.46 2473.88 3895.17 2482.27 3896.48C2486.16 3896.98 2489.98 3897.9 2493.67 3899.23Z" fill="#455A64"/>
<path d="M2367.19 5174.51C2366.57 5171.53 2366.22 5168.5 2366.14 5165.46C2366.14 5158.78 2365.36 5150.26 2364.7 5139.25C2363.65 5115.79 2362.21 5083.29 2360.51 5043.57C2356.97 4962.83 2352.12 4851.3 2344.39 4728.23C2336.65 4605.15 2327.48 4493.75 2320.79 4413.67C2317.52 4374.35 2314.9 4341.58 2313.06 4318.25C2312.28 4307.5 2311.75 4298.85 2311.23 4292.04C2310.85 4288.99 2310.85 4285.91 2311.23 4282.86C2311.9 4285.84 2312.39 4288.86 2312.67 4291.91L2315.81 4318.12C2318.3 4341.32 2321.58 4373.69 2325.78 4413.27C2333.64 4493.75 2343.47 4605.15 2351.33 4727.83C2359.2 4850.51 2363.13 4962.7 2365.49 5043.57C2366.27 5082.89 2367.06 5115.79 2367.59 5139.25C2367.59 5150 2367.59 5158.65 2367.59 5165.46C2367.79 5168.48 2367.66 5171.52 2367.19 5174.51Z" fill="#263238"/>
<path d="M2749.64 4244.46C2751.61 4244.46 2750.3 4493.49 2746.89 4800.57C2743.48 5107.66 2739.03 5356.69 2737.19 5356.69C2735.36 5356.69 2736.54 5107.66 2740.08 4800.44C2743.62 4493.22 2747.81 4244.46 2749.64 4244.46Z" fill="#455A64"/>
<path d="M2456.32 4203.83C2429.93 4214.14 2404.27 4226.23 2379.51 4240C2356.04 4255.96 2333.66 4273.48 2312.54 4292.43C2316.57 4284.96 2321.9 4278.26 2328.27 4272.64C2356.96 4243.36 2392.43 4221.61 2431.55 4209.33C2439.42 4206.09 2447.8 4204.22 2456.32 4203.83Z" fill="#263238"/>
<g opacity="0.3">
<path d="M1829.03 4367.79C1901.64 4380.9 1981.2 4359.01 2043.33 4320.22C2105.36 4281.44 2150.34 4220.53 2169.15 4149.83C2177.15 4118.5 2179.51 4086 2187.5 4054.67C2193.8 4022.52 2210.97 3993.5 2236.13 3972.5C2266.53 3949.82 2340.98 3935.4 2363.78 3905C2363.78 3900.54 2274.92 3910.76 2245.17 3912.47C2212.66 3914.17 2158.27 3922.43 2159.45 3918.63C2150.85 3950.12 2140.35 3981.07 2128 4011.29C2063.25 4122.57 1921.04 4286.53 1829.03 4368.32" fill="black"/>
</g>
<path d="M346.277 5137.02L447.461 5798.51H547.727L498.314 5139.64L346.277 5137.02Z" fill="#263238"/>
<path d="M2126.03 5139.64V5798.51H2231.93L2271.38 5137.02L2126.03 5139.64Z" fill="#263238"/>
<path d="M328.321 3093.17C328.321 3093.17 186.638 3098.81 143.255 3158.7C66.8435 3263.56 109.833 3354.26 105.508 3385.19C101.183 3416.12 346.277 5137.02 346.277 5137.02H447.199L2270.86 5153.93L2358.93 4941.21L2316.73 4365.7L1829.03 4367.79C1829.03 4367.79 1629.29 3794.51 1454.71 3756.24C1336.75 3730.02 1058.75 3739.46 891.121 3748.11C850.167 3750.24 809.375 3741.53 772.858 3722.87C736.341 3704.21 705.388 3676.25 683.118 3641.82L328.321 3093.17Z" fill="#455A64"/>
<path d="M1945.16 5069.39C1945.16 5069.39 1935.07 5070.7 1915.67 5071.62C1896.27 5072.54 1867.7 5073.19 1830.74 5073.45C1756.68 5074.5 1649.34 5074.77 1516.18 5074.63C1248.67 5074.63 875.786 5072.41 454.539 5068.74H451.786V5066.11C444.184 5030.07 436.451 4992.98 428.587 4955.36C420.723 4917.75 413.253 4879.21 405.52 4840.55C313.773 4373.69 260.298 3945.89 231.463 3635.66C216.915 3480.6 208.265 3354.78 202.76 3267.75C200.401 3224.5 198.435 3190.82 197.255 3167.62C197.255 3156.34 196.337 3147.69 195.944 3141.4C195.551 3135.11 195.944 3132.49 195.944 3132.49C195.944 3132.49 195.944 3135.51 196.862 3141.4C197.779 3147.3 197.91 3156.21 198.697 3167.62C200.27 3190.68 202.629 3224.37 205.512 3267.62C211.803 3354.52 221.24 3480.21 236.313 3635.26C265.541 3945.1 319.409 4372.51 410.893 4839.11C418.583 4877.82 426.272 4916.04 433.961 4953.79C441.65 4991.54 449.383 5028.45 457.16 5064.54L453.883 5061.92L1515.52 5070.18L1830.08 5070.96H1915.01C1924.71 5070.96 1931.92 5070.18 1936.9 5070.18L1945.16 5069.39Z" fill="#263238"/>
<path d="M1925.89 5150.92C1925.8 5148.14 1926.06 5145.37 1926.68 5142.66C1927.59 5136.63 1928.64 5128.9 1930.08 5119.46C1931.53 5110.02 1933.75 5097.05 1935.33 5082.63C1936.9 5068.21 1939.52 5051.96 1940.7 5033.74C1941.88 5015.52 1944.24 4995.86 1945.03 4974.37C1945.81 4952.87 1946.47 4930.2 1946.86 4906.08C1946.61 4853.88 1943.54 4801.73 1937.69 4749.85C1931.37 4698.04 1922.36 4646.59 1910.69 4595.72C1899.68 4548.8 1887.88 4507.12 1876.48 4472.38C1871.37 4454.95 1865.47 4439.62 1860.75 4425.86C1856.03 4412.09 1851.71 4400.43 1847.64 4390.99L1839.52 4368.97C1838.39 4366.47 1837.6 4363.82 1837.16 4361.11C1838.62 4363.43 1839.85 4365.89 1840.83 4368.45L1850.13 4389.94C1854.2 4399.38 1859.05 4410.91 1863.24 4424.54C1867.43 4438.18 1874.51 4453.51 1880.02 4470.94C1891.94 4505.41 1904.4 4547.22 1915.8 4594.28C1927.84 4645.33 1937.07 4697 1943.45 4749.07C1949.29 4801.29 1952.18 4853.8 1952.1 4906.35C1952.1 4930.59 1951.32 4953.53 1949.61 4975.02C1947.91 4996.52 1946.47 5016.44 1944.5 5034.53C1942.54 5052.62 1940.05 5069.13 1937.95 5083.42C1935.85 5097.7 1933.75 5109.63 1931.66 5120.11C1929.56 5130.6 1928.12 5137.15 1926.94 5143.18C1926.85 5145.79 1926.5 5148.38 1925.89 5150.92Z" fill="#263238"/>
<path d="M589.145 3917.19C591.384 3914.9 593.842 3912.83 596.484 3911.03C602.12 3906.7 609.591 3901.2 618.503 3894.12L634.625 3882.19C640.654 3878.13 647.731 3874.2 654.94 3869.74C671.221 3859.22 688.164 3849.77 705.663 3841.43L736.07 3827.14C746.555 3821.9 758.22 3818.1 769.885 3813.25C781.55 3808.4 793.739 3803.42 806.584 3799.36L845.904 3786.25C905.291 3768.77 965.999 3756.15 1027.43 3748.5C1088.65 3740.42 1150.36 3736.66 1212.1 3737.23C1240.55 3737.23 1267.54 3739.07 1292.84 3739.98C1318.14 3740.9 1341.47 3743.92 1362.83 3746.93C1396.52 3751.27 1429.95 3757.44 1462.96 3765.41L1489.18 3772.75C1492.31 3773.51 1495.38 3774.52 1498.35 3775.77C1495.12 3775.51 1491.91 3774.94 1488.79 3774.06L1461.79 3767.9C1438.46 3763.05 1404.25 3756.63 1361.65 3751.78C1340.42 3749.03 1316.96 3747.72 1291.92 3745.62C1266.89 3743.52 1239.5 3742.87 1211.45 3743.52C1150.09 3743.37 1088.8 3747.26 1027.96 3755.19C967.016 3762.82 906.762 3775.17 847.739 3792.15L808.419 3804.34C795.312 3808.27 783.647 3813.51 771.851 3817.44C760.055 3821.38 748.521 3825.83 738.036 3830.55C727.551 3835.27 717.328 3840.25 707.629 3844.84C690.162 3852.93 673.181 3862.03 656.775 3872.1C649.435 3876.29 642.489 3880.09 636.197 3883.9L619.945 3895.43L597.271 3911.16C594.749 3913.41 592.029 3915.43 589.145 3917.19Z" fill="#263238"/>
<path d="M1673.33 4010.64C1673.33 4010.64 1673.33 4012.08 1672.02 4014.96C1670.71 4017.85 1669.79 4021.91 1667.56 4027.41C1660.77 4042.95 1651.71 4057.39 1640.69 4070.27C1622.87 4090.49 1601.51 4107.28 1577.65 4119.81C1562.72 4127.46 1547.21 4133.91 1531.25 4139.08C1513.18 4144.46 1494.67 4148.23 1475.94 4150.35C1432.99 4154.02 1389.74 4151.55 1347.5 4143.01C1301.75 4134.89 1254.18 4121.65 1203.32 4109.59C1151.04 4095.78 1097.23 4088.65 1043.16 4088.36C1014.72 4088.77 986.484 4093.18 959.276 4101.47C931.294 4110.09 904.972 4123.38 881.423 4140.79C835.582 4176.34 796.967 4220.34 767.657 4270.41C737.643 4317.99 713.92 4367.14 689.017 4412.62C665.971 4456.11 638.474 4497.09 606.969 4534.9C579.422 4568.3 545.058 4595.42 506.179 4614.46C473.9 4630.02 438.716 4638.64 402.899 4639.76C375.948 4640.41 349.16 4635.41 324.259 4625.08C315.093 4621.25 306.315 4616.55 298.046 4611.05C291.23 4605.94 284.939 4601.48 281.269 4597.95L272.225 4588.38C270.128 4586.15 269.211 4584.97 269.211 4584.97C269.211 4584.97 270.522 4585.89 272.619 4587.85L282.187 4596.9C286.512 4600.57 292.41 4604.76 299.094 4610C307.419 4615.15 316.192 4619.54 325.307 4623.11C349.948 4632.77 376.32 4637.23 402.768 4636.22C437.888 4634.94 472.372 4626.46 504.082 4611.31C542.159 4592.36 575.794 4565.56 602.775 4532.67C633.811 4494.84 660.866 4453.9 683.512 4410.52C708.546 4365.17 732.269 4315.89 762.152 4267.79C791.916 4217.13 831.112 4172.63 877.622 4136.72C901.764 4118.94 928.694 4105.3 957.31 4096.35C985.18 4088.03 1014.07 4083.61 1043.16 4083.25C1097.82 4083.6 1152.21 4090.91 1205.03 4105C1255.49 4117.33 1302.93 4131.22 1348.15 4139.08C1389.95 4147.62 1432.74 4150.31 1475.28 4147.08C1493.69 4145.16 1511.9 4141.6 1529.68 4136.46C1545.48 4131.54 1560.87 4125.36 1575.68 4117.98C1599.29 4105.9 1620.55 4089.7 1638.46 4070.14C1653.53 4052.54 1665.34 4032.39 1673.33 4010.64Z" fill="white"/>
<path d="M2339.93 4849.46L2334.16 4850.9L2317.25 4854.31C2308.35 4856.5 2299.59 4859.26 2291.04 4862.57C2285.44 4864.58 2279.96 4866.94 2274.66 4869.65C2268.44 4872.36 2262.4 4875.47 2256.57 4878.95C2226.27 4896.41 2198.08 4917.3 2172.56 4941.21C2142.15 4968.73 2109.65 5002.42 2069.8 5035.58C2049.08 5053.24 2026.49 5068.58 2002.43 5081.32C1989.58 5088.11 1976.21 5093.9 1962.46 5098.62L1940.83 5104.52C1933.44 5106.19 1925.95 5107.46 1918.42 5108.32C1886.88 5112.15 1854.92 5110.56 1823.92 5103.6C1791.21 5095.94 1759.59 5084.18 1729.81 5068.61C1666.62 5034.56 1608.15 4992.39 1555.89 4943.17C1500.84 4893.24 1444.61 4840.42 1379.08 4797.17C1346.98 4775.61 1312.22 4758.29 1275.67 4745.66C1240.19 4733.6 1202.74 4728.4 1165.31 4730.32C1129.2 4732.81 1093.76 4741.32 1060.46 4755.49C1028.41 4769.1 997.51 4785.28 968.056 4803.85C910.125 4839.63 857.436 4877.9 803.83 4907.13C681.073 4973.17 540.867 4999.55 402.504 4982.63C372.7 4979.22 343.236 4973.3 314.428 4964.93C316.411 4965.11 318.381 4965.42 320.326 4965.85L337.233 4969.52C352.044 4972.66 374.194 4976.73 402.767 4980C483.806 4988.96 565.795 4983.32 644.846 4963.36C699.3 4949.52 751.791 4928.86 801.078 4901.89C853.504 4872.66 906.717 4834.39 964.78 4798.21C994.473 4779.39 1025.64 4763 1057.97 4749.2C1091.91 4734.57 1128.06 4725.71 1164.92 4722.98C1203.18 4720.94 1241.49 4726.24 1277.77 4738.58C1314.88 4751.34 1350.14 4768.97 1382.62 4791.01C1448.94 4834.65 1505.3 4887.73 1560.21 4937.67C1612 4986.58 1669.94 5028.52 1732.57 5062.45C1761.79 5078.37 1792.93 5090.48 1825.23 5098.49C1855.52 5105.46 1886.78 5107.14 1917.63 5103.47C1925.03 5102.65 1932.39 5101.43 1939.65 5099.8L1960.89 5094.29C1974.39 5089.63 1987.53 5083.98 2000.21 5077.39C2024.05 5064.99 2046.43 5049.95 2066.92 5032.56C2106.24 4999.93 2139.53 4967.03 2170.2 4939.24C2195.91 4915.1 2224.37 4894.07 2255 4876.59C2260.94 4873.16 2267.12 4870.14 2273.48 4867.55C2278.84 4864.8 2284.4 4862.48 2290.12 4860.6C2299.02 4857.53 2308.08 4854.95 2317.25 4852.87L2334.29 4850.12L2339.93 4849.46Z" fill="white"/>
<path d="M515.877 3417.17C515.442 3422.81 514.252 3428.36 512.338 3433.68C507.97 3448.53 502.085 3462.9 494.775 3476.54C470.961 3522.25 433.704 3559.56 388.028 3583.44C342.353 3607.32 290.453 3616.63 239.327 3610.1C223.987 3608.31 208.876 3604.93 194.24 3600.01C188.737 3598.51 183.451 3596.3 178.512 3593.45C198.65 3598.88 219.148 3602.86 239.851 3605.38C289.925 3610.51 340.404 3600.83 385.023 3577.53C429.642 3554.23 466.438 3518.34 490.843 3474.31C500.475 3455.85 508.839 3436.76 515.877 3417.17Z" fill="white"/>
<path d="M4617.6 1694.95H2139.66C2089.43 1694.95 2048.7 1735.68 2048.7 1785.91V2456.71C2048.7 2506.95 2089.43 2547.67 2139.66 2547.67H4617.6C4667.84 2547.67 4708.56 2506.95 4708.56 2456.71V1785.91C4708.56 1735.68 4667.84 1694.95 4617.6 1694.95Z" fill="white"/>
<path d="M4616.95 2547.67C4622.84 2547.28 4628.7 2546.58 4634.51 2545.57C4651.55 2542.11 4667.21 2533.78 4679.6 2521.59C4688.81 2512.82 4695.97 2502.12 4700.57 2490.26C4705.91 2475.87 4708.1 2460.49 4706.99 2445.18C4706.99 2411.76 4706.99 2373.09 4706.99 2329.71C4706.99 2242.68 4706.99 2136.38 4706.99 2013.05C4706.99 1951.32 4706.99 1885.26 4706.99 1815.27C4708.13 1797.73 4707.08 1780.12 4703.85 1762.85C4699.2 1745.26 4689.25 1729.53 4675.34 1717.8C4661.43 1706.07 4644.24 1698.92 4626.12 1697.31C4607.64 1696.53 4588.11 1697.31 4568.72 1697.31L2139.79 1698.36C2125.49 1698.37 2111.4 1701.88 2098.77 1708.58C2086.18 1715.27 2075.39 1724.89 2067.31 1736.63C2059.38 1748.39 2054.35 1761.87 2052.63 1775.95C2051.45 1789.84 2052.63 1805.05 2052.63 1819.47V1993.92C2052.63 2109.43 2052.63 2223.02 2052.63 2334.69V2418.18C2052.63 2432.07 2052.63 2445.96 2052.63 2459.59C2053.17 2472.87 2056.67 2485.85 2062.86 2497.6C2069.06 2509.2 2077.77 2519.27 2088.36 2527.07C2098.95 2534.87 2111.15 2540.21 2124.06 2542.69C2137.12 2544.14 2150.26 2544.62 2163.38 2544.13H2519.88L3611.54 2544.92L4347.48 2545.97L4547.61 2546.62H4600.04H4617.73C4617.73 2546.62 4611.84 2546.62 4600.04 2546.62H4547.61H4347.48L3611.54 2547.67L2519.88 2548.46H2163.91C2150.21 2549.03 2136.49 2548.51 2122.88 2546.89C2101.73 2543.09 2082.52 2532.16 2068.45 2515.92C2054.38 2499.68 2046.3 2479.11 2045.55 2457.63C2045.55 2443.6 2045.55 2429.97 2045.55 2416.08V1817.11C2045.55 1802.3 2045.55 1788.27 2046.21 1772.81C2047.92 1757.55 2053.34 1742.94 2062 1730.25C2070.66 1717.57 2082.29 1707.21 2095.88 1700.06C2109.49 1692.84 2124.65 1689.06 2140.05 1689.05L4568.32 1690.1C4587.85 1690.1 4606.86 1690.1 4626.12 1690.1C4645.14 1691.84 4663.16 1699.37 4677.76 1711.68C4692.37 1723.98 4702.84 1740.47 4707.78 1758.91C4710.12 1767.76 4711.18 1776.9 4710.92 1786.04V1812.26C4710.92 1882.25 4710.92 1948.3 4710.92 2010.04C4710.92 2133.37 4710.92 2239.67 4710.92 2326.69C4710.92 2370.08 4710.92 2408.74 4710.92 2442.16C4712.02 2457.73 4709.69 2473.34 4704.11 2487.91C4698.33 2502 4689.14 2514.44 4677.36 2524.1C4665.57 2533.76 4651.57 2540.33 4636.61 2543.22C4632.28 2544 4627.9 2544.48 4623.5 2544.66L4616.95 2547.67Z" fill="#263238"/>
<path d="M4516.94 1869.93C4516.07 1869.93 4515.22 1869.61 4514.59 1869.01C4513.98 1868.37 4513.64 1867.53 4513.64 1866.65C4513.64 1865.77 4513.98 1864.92 4514.59 1864.29L4580.12 1801.51C4580.75 1800.9 4581.6 1800.56 4582.48 1800.56C4583.36 1800.56 4584.2 1800.9 4584.84 1801.51C4585.44 1802.12 4585.77 1802.95 4585.77 1803.8C4585.77 1804.66 4585.44 1805.48 4584.84 1806.1L4519.3 1868.88C4519.01 1869.21 4518.64 1869.47 4518.24 1869.66C4517.83 1869.84 4517.39 1869.93 4516.94 1869.93Z" fill="#263238"/>
<path d="M4582.22 1870.19C4581.8 1870.21 4581.39 1870.13 4581 1869.97C4580.62 1869.82 4580.27 1869.58 4579.99 1869.27L4515.11 1805.97C4514.8 1805.67 4514.55 1805.32 4514.38 1804.92C4514.21 1804.53 4514.12 1804.1 4514.12 1803.67C4514.12 1803.24 4514.21 1802.82 4514.38 1802.42C4514.55 1802.03 4514.8 1801.67 4515.11 1801.38C4515.72 1800.78 4516.55 1800.44 4517.4 1800.44C4518.26 1800.44 4519.08 1800.78 4519.7 1801.38L4585.23 1864.82C4585.83 1865.43 4586.17 1866.25 4586.17 1867.11C4586.17 1867.97 4585.83 1868.79 4585.23 1869.4C4584.84 1869.78 4584.36 1870.06 4583.83 1870.2C4583.3 1870.33 4582.74 1870.33 4582.22 1870.19Z" fill="#263238"/>
<path d="M2621.85 2286.98L2595.64 2249.1C2579.52 2226.29 2570.87 2199.05 2570.87 2171.12V2085.92C2570.87 2052.72 2558.97 2020.62 2537.33 1995.45C2515.68 1970.27 2485.73 1953.68 2452.91 1948.7V1908.07C2452.91 1903.1 2450.93 1898.33 2447.42 1894.81C2443.9 1891.3 2439.14 1889.32 2434.17 1889.32C2431.71 1889.32 2429.28 1889.81 2427.01 1890.75C2424.75 1891.7 2422.69 1893.08 2420.96 1894.82C2419.23 1896.56 2417.86 1898.63 2416.93 1900.9C2416.01 1903.18 2415.54 1905.61 2415.56 1908.07V1947.39C2381.76 1951.4 2350.61 1967.66 2328 1993.09C2305.39 2018.53 2292.9 2051.37 2292.88 2085.4V2173.61C2292.85 2203.94 2282.65 2233.38 2263.91 2257.23L2240.97 2286.46L2621.85 2286.98Z" fill="#072ACB"/>
<path d="M2411.23 2348.84C2421.6 2353.04 2432.93 2354.26 2443.96 2352.36C2454.98 2350.46 2465.25 2345.52 2473.62 2338.1C2480.79 2331.49 2486.2 2323.2 2489.35 2313.98L2378.33 2313.19C2381.04 2321.09 2385.36 2328.34 2391.03 2334.48C2396.69 2340.62 2403.57 2345.51 2411.23 2348.84Z" fill="#072ACB"/>
<path d="M4118.9 1983.04C4118.9 1984.87 3820.98 1986.44 3453.47 1986.44C3085.96 1986.44 2788.05 1984.87 2788.05 1983.04C2788.05 1981.2 3085.96 1979.63 3453.47 1979.63C3820.98 1979.63 4118.9 1981.2 4118.9 1983.04Z" fill="#263238"/>
<path d="M4431.88 2144.12C4431.88 2145.95 4063.72 2147.53 3609.7 2147.53C3155.69 2147.53 2787.39 2145.95 2787.39 2144.12C2787.39 2142.28 3155.43 2140.71 3609.7 2140.71C4063.98 2140.71 4431.88 2142.15 4431.88 2144.12Z" fill="#E0E0E0"/>
<path d="M4431.88 2241.24C4431.88 2243.07 4063.72 2244.65 3609.7 2244.65C3155.69 2244.65 2787.39 2243.07 2787.39 2241.24C2787.39 2239.4 3155.43 2237.83 3609.7 2237.83C4063.98 2237.83 4431.88 2238.62 4431.88 2241.24Z" fill="#E0E0E0"/>
<path d="M4192.03 2680.83H2546.49C2496.26 2680.83 2455.53 2721.56 2455.53 2771.8V3175.74C2455.53 3225.98 2496.26 3266.7 2546.49 3266.7H4192.03C4242.27 3266.7 4282.99 3225.98 4282.99 3175.74V2771.8C4282.99 2721.56 4242.27 2680.83 4192.03 2680.83Z" fill="#FAFAFA"/>
<path d="M4192.03 3266.7C4192.03 3266.7 4196.09 3266.7 4203.96 3265.39C4215.62 3263.86 4226.86 3259.98 4236.99 3253.99C4250.47 3246.11 4261.68 3234.87 4269.51 3221.36C4277.35 3207.85 4281.54 3192.54 4281.68 3176.92V3135.11C4281.68 3075.87 4281.68 3004.05 4281.02 2919.77C4281.02 2877.83 4281.02 2832.87 4281.02 2785.3C4281.65 2773.42 4280.68 2761.52 4278.14 2749.91C4275.18 2738.12 4269.78 2727.1 4262.28 2717.53C4254.6 2707.57 4244.87 2699.36 4233.74 2693.48C4222.62 2687.6 4210.36 2684.18 4197.8 2683.46L2546.36 2684.24C2526.95 2684.22 2508.07 2690.65 2492.7 2702.51C2477.33 2714.37 2466.33 2730.99 2461.43 2749.78C2459.13 2759.16 2458.2 2768.83 2458.68 2778.48V2808.23C2458.68 2828.02 2458.68 2847.55 2458.68 2867.34V3155.69C2458.68 3165.13 2458.68 3174.69 2458.68 3183.61C2459.65 3192.62 2461.9 3201.44 2465.36 3209.82C2472.5 3226.3 2484.49 3240.22 2499.73 3249.73C2514.97 3259.23 2532.74 3263.87 2550.68 3263.03H2765.24L3507.47 3263.69L4008.01 3264.87L4144.06 3265.52H4179.45H4191.51C4191.51 3265.52 4187.31 3265.52 4179.45 3265.52H4144.06H4008.01L3507.47 3266.57L2765.24 3267.36H2551.21C2531.93 3268.25 2512.83 3263.26 2496.45 3253.05C2480.07 3242.85 2467.17 3227.91 2459.46 3210.21C2455.82 3201.24 2453.44 3191.8 2452.38 3182.16C2451.6 3172.2 2452.38 3163.03 2452.38 3153.59V2778.61C2451.9 2768.38 2452.91 2758.14 2455.4 2748.2C2460.62 2727.86 2472.48 2709.84 2489.1 2697C2505.72 2684.15 2526.14 2677.22 2547.15 2677.3L4198.58 2678.48C4218.28 2679.74 4237.07 2687.22 4252.23 2699.85C4267.4 2712.47 4278.17 2729.59 4282.99 2748.73C4285.62 2760.68 4286.59 2772.94 4285.87 2785.16C4285.87 2832.74 4285.87 2877.7 4285.87 2919.64C4285.87 3003.52 4285.87 3075.74 4285.87 3134.98C4285.87 3149.66 4285.87 3163.68 4285.87 3176.79C4285.72 3189.23 4282.99 3201.5 4277.88 3212.83C4269.84 3230.59 4256.4 3245.36 4239.48 3255.04C4229.16 3260.95 4217.74 3264.7 4205.92 3266.05C4201.32 3266.65 4196.67 3266.87 4192.03 3266.7Z" fill="#263238"/>
<path d="M4151.4 2802.07C4150.96 2802.07 4150.52 2801.97 4150.11 2801.79C4149.71 2801.61 4149.34 2801.35 4149.04 2801.02C4148.73 2800.73 4148.48 2800.37 4148.31 2799.98C4148.13 2799.58 4148.05 2799.16 4148.05 2798.73C4148.05 2798.3 4148.13 2797.87 4148.31 2797.48C4148.48 2797.09 4148.73 2796.73 4149.04 2796.44L4194 2753.32C4194.3 2753 4194.67 2752.75 4195.07 2752.57C4195.48 2752.4 4195.91 2752.31 4196.35 2752.31C4196.8 2752.31 4197.23 2752.4 4197.64 2752.57C4198.04 2752.75 4198.41 2753 4198.71 2753.32C4199.31 2753.93 4199.65 2754.75 4199.65 2755.61C4199.65 2756.47 4199.31 2757.29 4198.71 2757.9L4153.63 2801.02C4153.35 2801.35 4153.01 2801.6 4152.63 2801.79C4152.24 2801.97 4151.82 2802.06 4151.4 2802.07Z" fill="#263238"/>
<path d="M4196.23 2802.2C4195.35 2802.21 4194.51 2801.88 4193.87 2801.28L4149.3 2757.77C4148.83 2757.14 4148.6 2756.36 4148.66 2755.57C4148.71 2754.79 4149.05 2754.05 4149.61 2753.49C4150.17 2752.93 4150.91 2752.59 4151.69 2752.54C4152.48 2752.48 4153.26 2752.71 4153.89 2753.18L4198.45 2796.7C4199.05 2797.31 4199.39 2798.13 4199.39 2798.99C4199.39 2799.85 4199.05 2800.67 4198.45 2801.28C4197.85 2801.85 4197.06 2802.18 4196.23 2802.2Z" fill="#263238"/>
<path d="M2849.25 3087.53L2830.91 3061.32C2819.87 3045.62 2813.92 3026.91 2813.87 3007.71V2949C2813.85 2926.22 2805.69 2904.21 2790.86 2886.92C2776.03 2869.64 2755.51 2858.23 2733 2854.76V2826.84C2733 2823.37 2731.62 2820.03 2729.16 2817.58C2726.7 2815.12 2723.37 2813.74 2719.89 2813.74C2716.42 2813.74 2713.08 2815.12 2710.62 2817.58C2708.17 2820.03 2706.79 2823.37 2706.79 2826.84V2854.37C2683.57 2857.1 2662.16 2868.25 2646.63 2885.72C2631.09 2903.19 2622.51 2925.75 2622.51 2949.13V3009.68C2622.53 3030.49 2615.56 3050.71 2602.72 3067.09L2586.86 3087.27L2849.25 3087.53Z" fill="#455A64"/>
<path d="M2704.56 3130.13C2711.68 3132.99 2719.46 3133.81 2727.02 3132.52C2734.59 3131.22 2741.65 3127.85 2747.42 3122.79C2752.36 3118.25 2756.06 3112.52 2758.16 3106.15H2681.88C2683.84 3111.47 2686.85 3116.35 2690.75 3120.47C2694.65 3124.59 2699.35 3127.88 2704.56 3130.13Z" fill="#455A64"/>
<path d="M3877.47 2878.75C3877.47 2880.58 3672.74 2882.15 3420.18 2882.15C3167.61 2882.15 2963.02 2880.58 2963.02 2878.75C2963.02 2876.91 3167.75 2875.34 3420.18 2875.34C3672.61 2875.34 3877.47 2876.78 3877.47 2878.75Z" fill="#263238"/>
<path d="M4092.68 2989.37C4092.68 2991.33 3839.72 2992.77 3527.79 2992.77C3215.85 2992.77 2962.76 2991.33 2962.76 2989.37C2962.76 2987.4 3215.59 2985.96 3527.79 2985.96C3839.99 2985.96 4092.68 2987.53 4092.68 2989.37Z" fill="#E0E0E0"/>
<path d="M4092.68 3055.69C4092.68 3057.52 3839.72 3059.09 3527.79 3059.09C3215.85 3059.09 2962.76 3057.52 2962.76 3055.69C2962.76 3053.85 3215.59 3052.28 3527.79 3052.28C3839.99 3052.28 4092.68 3053.85 4092.68 3055.69Z" fill="#E0E0E0"/>
<path d="M4185.08 3357.79H2553.31C2503.07 3357.79 2462.35 3398.52 2462.35 3448.75V3848.24C2462.35 3898.48 2503.07 3939.2 2553.31 3939.2H4185.08C4235.32 3939.2 4276.04 3898.48 4276.04 3848.24V3448.75C4276.04 3398.52 4235.32 3357.79 4185.08 3357.79Z" fill="#FAFAFA"/>
<path d="M4185.09 3939.34C4185.09 3939.34 4189.15 3939.34 4196.88 3938.16C4208.45 3936.58 4219.59 3932.7 4229.65 3926.75C4246.14 3917.27 4259.21 3902.82 4267 3885.47C4271.84 3874.46 4274.47 3862.62 4274.73 3850.6V3809.19C4274.73 3750.47 4274.73 3678.78 4274.73 3595.55C4274.73 3553.87 4274.73 3509.31 4274.73 3462.12C4275.42 3450.34 4274.45 3438.51 4271.85 3427C4268.95 3415.32 4263.64 3404.38 4256.25 3394.89C4248.67 3384.95 4239.06 3376.75 4228.05 3370.82C4217.04 3364.9 4204.9 3361.4 4192.42 3360.55L2554.09 3361.2C2534.75 3361.33 2515.98 3367.81 2500.68 3379.65C2485.38 3391.49 2474.4 3408.04 2469.42 3426.73C2467.04 3436.02 2466.02 3445.6 2466.41 3455.18V3543.25C2466.41 3621.28 2466.41 3698 2466.41 3773.41V3829.63C2466.41 3838.94 2466.41 3848.51 2466.41 3857.29C2467.31 3866.3 2469.52 3875.13 2472.96 3883.5C2480 3899.88 2491.82 3913.74 2506.89 3923.27C2521.96 3932.79 2539.56 3937.52 2557.37 3936.85H2770.22L3506.69 3937.5L4003.3 3938.68L4138.29 3939.34H4173.42H4185.35C4185.35 3939.34 4181.28 3939.34 4173.42 3939.34H4138.29L4003.3 3939.99L3506.69 3941.04L2770.22 3941.83H2557.11C2538.01 3942.46 2519.16 3937.34 2503.01 3927.13C2486.86 3916.91 2474.15 3902.08 2466.54 3884.55C2462.88 3875.62 2460.5 3866.22 2459.46 3856.63C2459.46 3846.93 2459.46 3837.76 2459.46 3828.32C2459.46 3809.71 2459.46 3790.97 2459.46 3772.09V3454.65C2459.06 3444.5 2460.17 3434.34 2462.74 3424.51C2468.19 3404.35 2480.13 3386.56 2496.72 3373.88C2513.31 3361.21 2533.61 3354.35 2554.49 3354.39L4192.82 3355.83C4205.94 3356.75 4218.72 3360.47 4230.29 3366.73C4241.87 3372.99 4251.97 3381.65 4259.92 3392.13C4267.58 3402.21 4273.15 3413.7 4276.31 3425.95C4278.81 3437.83 4279.78 3449.99 4279.19 3462.12C4279.19 3509.31 4279.19 3553.87 4279.19 3595.55C4279.19 3678.78 4279.19 3750.47 4278.54 3809.19C4278.54 3823.74 4278.54 3837.63 4278.54 3850.6C4278.09 3866.42 4273.56 3881.86 4265.38 3895.41C4257.2 3908.96 4245.66 3920.16 4231.88 3927.93C4221.6 3933.81 4210.22 3937.51 4198.45 3938.81C4194.02 3939.35 4189.55 3939.53 4185.09 3939.34Z" fill="#263238"/>
<path d="M4145.11 3478.24C4144.66 3478.24 4144.23 3478.14 4143.82 3477.96C4143.42 3477.78 4143.05 3477.52 4142.75 3477.19C4142.44 3476.9 4142.19 3476.55 4142.02 3476.15C4141.84 3475.76 4141.76 3475.33 4141.76 3474.9C4141.76 3474.47 4141.84 3474.05 4142.02 3473.65C4142.19 3473.26 4142.44 3472.9 4142.75 3472.61L4187.44 3429.75C4188.08 3429.14 4188.92 3428.8 4189.8 3428.8C4190.68 3428.8 4191.53 3429.14 4192.16 3429.75C4192.76 3430.36 4193.1 3431.18 4193.1 3432.04C4193.1 3432.9 4192.76 3433.72 4192.16 3434.34L4147.47 3477.19C4147.18 3477.53 4146.81 3477.8 4146.41 3477.98C4146 3478.17 4145.55 3478.25 4145.11 3478.24Z" fill="#263238"/>
<path d="M4189.93 3478.37C4189.06 3478.38 4188.21 3478.05 4187.57 3477.46L4143.4 3433.94C4142.78 3433.33 4142.42 3432.5 4142.41 3431.63C4142.4 3430.76 4142.73 3429.92 4143.34 3429.29C4143.95 3428.66 4144.78 3428.31 4145.65 3428.29C4146.52 3428.28 4147.37 3428.62 4147.99 3429.22L4192.16 3472.48C4192.76 3473.09 4193.1 3473.91 4193.1 3474.77C4193.1 3475.63 4192.76 3476.45 4192.16 3477.06C4191.62 3477.78 4190.82 3478.25 4189.93 3478.37Z" fill="#263238"/>
<path d="M2853.19 3761.61L2834.44 3735.4C2823.42 3719.85 2817.51 3701.25 2817.54 3682.18V3624.25C2817.52 3601.62 2809.42 3579.73 2794.68 3562.55C2779.95 3545.36 2759.56 3534.01 2737.19 3530.54V3502.88C2737.19 3499.41 2735.81 3496.07 2733.35 3493.62C2730.9 3491.16 2727.56 3489.78 2724.09 3489.78C2720.61 3489.78 2717.28 3491.16 2714.82 3493.62C2712.36 3496.07 2710.98 3499.41 2710.98 3502.88V3530.15C2687.96 3532.9 2666.75 3544 2651.37 3561.35C2635.98 3578.69 2627.49 3601.07 2627.49 3624.25V3684.41C2627.49 3705.08 2620.57 3725.15 2607.83 3741.42L2593.28 3761.61H2853.19Z" fill="#E0E0E0"/>
<path d="M2709.54 3803.81C2716.63 3806.63 2724.35 3807.44 2731.87 3806.14C2739.39 3804.85 2746.4 3801.5 2752.13 3796.47C2757.01 3791.95 2760.66 3786.27 2762.75 3779.96H2687.12C2689.03 3785.26 2692 3790.11 2695.86 3794.21C2699.71 3798.31 2704.37 3801.58 2709.54 3803.81Z" fill="#E0E0E0"/>
<path d="M3873.54 3554.26C3873.54 3556.23 3670.39 3557.67 3419.79 3557.67C3169.19 3557.67 2966.04 3556.23 2966.04 3554.26C2966.04 3552.3 3169.19 3550.85 3419.79 3550.85C3670.39 3550.85 3873.54 3551.9 3873.54 3554.26Z" fill="#263238"/>
<path d="M4087.44 3664.1C4087.44 3666.06 3836.32 3667.5 3526.74 3667.5C3217.16 3667.5 2966.04 3666.06 2966.04 3664.1C2966.04 3662.13 3217.03 3660.69 3526.74 3660.69C3836.45 3660.69 4087.44 3662.26 4087.44 3664.1Z" fill="#E0E0E0"/>
<path d="M4087.44 3729.89C4087.44 3731.73 3836.32 3733.3 3526.74 3733.3C3217.16 3733.3 2966.04 3731.73 2966.04 3729.89C2966.04 3728.06 3217.03 3726.48 3526.74 3726.48C3836.45 3726.48 4087.44 3728.06 4087.44 3729.89Z" fill="#E0E0E0"/>
<path d="M5527.34 3194.48C5391.68 3264.87 5287.62 3385.84 5212.78 3519.01C5137.94 3652.17 5089.71 3798.57 5042.39 3943.66L5000.19 4692.18C5158.12 4423.5 5284.86 4107.76 5319.07 3798.18L5214.22 3788.74C5284.73 3777.99 5343.84 3727.01 5381.46 3666.46C5419.08 3605.9 5438.47 3536.18 5457.35 3467.5L5328.9 3486.37C5430.1 3418.19 5501.16 3313.67 5527.34 3194.48Z" fill="#455A64"/>
<path d="M5527.34 3194.48C5391.68 3264.87 5287.62 3385.84 5212.78 3519.01C5137.94 3652.17 5089.71 3798.57 5042.39 3943.66L5000.19 4692.18C5158.12 4423.5 5284.86 4107.76 5319.07 3798.18L5214.22 3788.74C5284.73 3777.99 5343.84 3727.01 5381.46 3666.46C5419.08 3605.9 5438.47 3536.18 5457.35 3467.5L5328.9 3486.37C5430.1 3418.19 5501.16 3313.67 5527.34 3194.48Z" fill="#072ACB"/>
<g opacity="0.3">
<path d="M5527.34 3194.48C5391.68 3264.87 5287.62 3385.84 5212.78 3519.01C5137.94 3652.17 5089.71 3798.57 5042.39 3943.66L5000.19 4692.18C5158.12 4423.5 5284.86 4107.76 5319.07 3798.18L5214.22 3788.74C5284.73 3777.99 5343.84 3727.01 5381.46 3666.46C5419.08 3605.9 5438.47 3536.18 5457.35 3467.5L5328.9 3486.37C5430.1 3418.19 5501.16 3313.67 5527.34 3194.48Z" fill="black"/>
</g>
<path d="M4976.86 4867.68C4976.86 4867.68 4634.12 4457.57 4638.05 4065.95H4776.59C4776.59 4065.95 4626.12 3967.12 4638.05 3911.68C4649.98 3856.24 4653.91 3646.66 4653.91 3646.66L4780.52 3678.38C4780.52 3678.38 4685.63 3630.94 4673.7 3555.7C4661.77 3480.47 4701.36 3132.49 4701.36 3132.49C4701.36 3132.49 4855.62 3294.75 4903.07 3460.81C4950.51 3626.87 5075.16 3820.72 5038.59 4327.03C5002.02 4833.34 4976.86 4867.68 4976.86 4867.68Z" fill="#072ACB"/>
<path d="M5150.52 4906.34C5150.52 4906.34 5521.83 4659.02 5604.27 4343.41L5493 4313.14C5493 4313.14 5635.6 4266.48 5638.09 4219.42C5640.58 4172.37 5683.31 4002.9 5683.31 4002.9L5574.65 4000.67C5574.65 4000.67 5661.29 3983.24 5687.37 3925.44C5713.45 3867.64 5757.23 3579.16 5757.23 3579.16C5757.23 3579.16 5597.72 3675.76 5523.27 3798.96C5448.83 3922.17 5306.23 4050.61 5224.84 4465.7C5143.44 4880.79 5150.52 4906.34 5150.52 4906.34Z" fill="#072ACB"/>
<path d="M4794.94 3490.17C4795.57 3491.5 4796.01 3492.91 4796.25 3494.36C4797.03 3497.64 4798.08 3501.84 4799.26 3507.47C4801.88 3519.01 4805.55 3535.39 4810.27 3556.1C4814.99 3576.81 4820.63 3603.15 4826.66 3633.3C4832.68 3663.44 4839.76 3697.78 4846.84 3735.79C4861.52 3811.81 4877.12 3902.77 4892.98 4003.95C4908.83 4105.13 4923.91 4216.67 4937.67 4334.11C4951.43 4451.54 4961.52 4563.74 4969.52 4665.84C4977.51 4767.94 4982.63 4860.08 4985.77 4937.41C4987.61 4976.07 4988.52 5011.07 4989.44 5042.26C4990.36 5073.45 4991.01 5099.54 4991.14 5120.9C4991.28 5142.26 4991.14 5158.91 4991.14 5170.71V5183.81C4991.26 5185.3 4991.26 5186.79 4991.14 5188.27C4990.91 5186.79 4990.91 5185.29 4991.14 5183.81C4991.14 5180.54 4991.14 5176.34 4991.14 5170.71C4991.14 5158.78 4990.1 5142.13 4989.31 5120.77C4988.52 5099.41 4987.74 5072.67 4986.43 5042.13C4985.12 5011.59 4983.8 4976.6 4981.58 4937.28C4977.91 4859.95 4971.75 4767.94 4963.88 4665.97C4956.02 4564 4944.88 4451.94 4931.38 4334.5C4917.88 4217.07 4902.54 4105.79 4887.34 4004.61C4872.14 3903.42 4856.8 3812.46 4842.78 3736.31C4836.09 3698.3 4829.67 3663.83 4823.64 3633.69C4817.61 3603.54 4812.89 3577.46 4808.57 3556.23C4804.24 3535 4801.23 3519.01 4798.87 3507.34C4797.95 3502.1 4797.17 3497.9 4796.64 3494.23C4795.94 3492.94 4795.37 3491.58 4794.94 3490.17Z" fill="#263238"/>
<path d="M4929.28 5118.8C4929.28 5118.8 4615.64 4763.09 4518.39 4548.01L4591.78 4516.68C4538.57 4525.46 4483.92 4502.53 4442.63 4467.8C4401.34 4433.06 4370.94 4387.32 4341.19 4342.23L4438.04 4325.85C4349.09 4300.4 4273.34 4241.68 4226.5 4161.89C4340.79 4180.76 4444.2 4243.54 4529.4 4321.92C4597 4386.96 4658.42 4458.13 4712.89 4534.51C4740.25 4571.24 4764.08 4610.47 4784.06 4651.68C4836.75 4760.6 4929.41 4988.13 4929.28 5118.8Z" fill="#072ACB"/>
<path d="M5609.25 3786.25C5608.92 3787.53 5608.44 3788.76 5607.81 3789.92L5603.09 3800.27C5598.51 3809.71 5592.08 3822.95 5584.09 3839.59C5567.31 3873.8 5543.46 3923.48 5514.75 3985.21C5457.08 4108.54 5381.2 4280.63 5306.23 4474.35C5231.26 4668.07 5171.75 4846.58 5131.38 4976.6C5111.2 5042.13 5095.34 5094.56 5084.72 5130.99C5079.48 5148.82 5075.29 5162.84 5072.27 5172.93L5068.73 5183.81C5068.44 5185.08 5068 5186.31 5067.42 5187.48C5067.5 5186.19 5067.72 5184.92 5068.08 5183.68C5068.73 5180.8 5069.65 5177.13 5070.83 5172.54C5073.45 5162.32 5077.25 5148.16 5081.97 5130.21C5091.8 5093.38 5106.87 5040.29 5126.4 4975.15C5165.72 4844.09 5224.44 4665.71 5299.28 4471.73C5374.12 4277.75 5451.19 4105.79 5510.04 3982.98C5539.39 3921.51 5563.9 3872.1 5581.47 3838.81C5590.12 3822.29 5596.8 3809.19 5601.78 3799.49L5607.16 3789.4C5608.47 3787.82 5609.12 3786.12 5609.25 3786.25Z" fill="#263238"/>
<path d="M4955.89 5271.36C4955.05 5269.27 4954.52 5267.06 4954.32 5264.81C4953.4 5259.57 4952.35 5253.41 4951.17 5245.94C4948.68 5229.55 4944.62 5205.83 4938.85 5176.73C4933.08 5147.64 4925.09 5113.3 4914.73 5075.42C4904.38 5037.54 4891.14 4996.78 4875.41 4954.31C4859.69 4911.85 4841.86 4872.53 4824.95 4837.27C4808.04 4802.02 4791.01 4770.95 4776.06 4745.53C4761.12 4720.1 4748.67 4699.39 4739.63 4685.37L4729.54 4669.11C4728.19 4667.32 4727.13 4665.33 4726.39 4663.22C4726.39 4663.22 4728.09 4664.79 4730.72 4668.33L4741.99 4683.79C4751.82 4696.9 4765.06 4717.48 4780.52 4742.77C4795.99 4768.07 4813.29 4799.26 4830.98 4834.52C4848.68 4869.78 4866.11 4909.49 4882.23 4952.48C4898.35 4995.47 4911.06 5036.49 4921.55 5074.5C4932.03 5112.51 4939.11 5147.24 4944.22 5176.6C4949.33 5205.96 4952.74 5229.82 4954.18 5246.33C4954.97 5253.93 4955.49 5260.22 4956.02 5265.47C4956.26 5267.43 4956.22 5269.41 4955.89 5271.36Z" fill="#263238"/>
<path d="M5369.8 5187.61H4683.4V5327.59H5369.8V5187.61Z" fill="#455A64"/>
<path d="M4748.8 5327.59L4822.99 5798.51H5237.68L5306.88 5327.59H4748.8Z" fill="#455A64"/>
<path d="M5327.59 5327.59C5327.59 5329.69 5197.71 5331.26 5037.67 5331.26C4877.64 5331.26 4747.62 5329.69 4747.62 5327.59C4747.62 5325.49 4877.51 5323.92 5037.67 5323.92C5197.84 5323.92 5327.59 5325.63 5327.59 5327.59Z" fill="#263238"/>
<path d="M1295.99 1849.22L1310.27 1679.88C1227.92 1625.14 1169.02 1541.58 1145.15 1445.62C1121.28 1349.66 1134.17 1248.24 1181.28 1161.3C1228.4 1074.37 1306.33 1008.19 1399.75 975.795C1493.18 943.397 1595.34 947.117 1686.17 986.224C1776.99 1025.33 1849.9 1096.99 1890.56 1187.13C1931.23 1277.27 1936.71 1379.35 1905.92 1473.32C1875.14 1567.29 1810.32 1646.35 1724.2 1694.95C1638.09 1743.55 1536.91 1758.19 1440.55 1735.98L1295.99 1849.22Z" fill="white"/>
<path d="M1295.99 1849.22L1441.6 1737.03L1443.04 1735.85L1441.34 1735.06L1440.42 1737.29C1471.36 1744.46 1503.03 1747.98 1534.79 1747.77C1572.6 1747.31 1610.15 1741.49 1646.33 1730.47C1666.37 1724.43 1685.85 1716.62 1704.52 1707.14C1713.96 1702.03 1723.92 1697.18 1733.49 1691.81L1761.8 1673.2C1843.73 1613.61 1899.95 1525.1 1919.08 1425.61C1930.44 1370.32 1929.73 1313.23 1916.98 1258.24C1902.64 1200.67 1875.79 1146.97 1838.34 1100.96C1799.59 1052.52 1749.85 1014.02 1693.25 988.636L1671.1 979.33C1663.76 976.053 1655.89 974.218 1648.42 971.728C1640.95 969.238 1633.35 966.485 1625.62 965.044L1602.42 960.063C1594.74 958.289 1586.94 957.106 1579.09 956.524L1555.76 953.772H1532.43C1524.7 953.313 1516.96 953.313 1509.23 953.772C1448.8 957.199 1389.9 974.129 1336.88 1003.32C1286.63 1030.75 1243.04 1068.92 1209.22 1115.11C1148.68 1198.27 1122.28 1301.45 1135.43 1403.46C1141.81 1446.5 1154.71 1488.31 1173.7 1527.45C1190.48 1561.27 1212.06 1592.48 1237.79 1620.11C1259.2 1643.11 1283.26 1663.49 1309.49 1680.8V1679.75C1301.1 1788.01 1296.38 1840.96 1296.38 1849.22C1297.16 1840.96 1302.01 1788.14 1311.84 1680.01V1679.36C1285.94 1661.94 1262.15 1641.57 1240.94 1618.67C1215.58 1591.04 1194.31 1559.93 1177.76 1526.27C1159.13 1487.42 1146.5 1445.97 1140.28 1403.33C1127.5 1302.32 1153.8 1200.25 1213.81 1118C1247.37 1072.43 1290.49 1034.77 1340.15 1007.64C1392.6 978.869 1450.82 962.209 1510.54 958.884C1518.18 958.424 1525.84 958.424 1533.48 958.884H1556.55L1579.61 961.636C1587.34 962.238 1595 963.421 1602.55 965.175L1625.49 970.024C1633.22 971.466 1640.43 974.48 1648.03 976.577C1655.63 978.675 1663.23 980.903 1670.44 984.179L1692.2 993.354C1748.12 1018.41 1797.27 1056.42 1835.59 1104.24C1872.42 1149.88 1898.74 1203.09 1912.65 1260.07C1925.58 1314.11 1926.79 1370.29 1916.19 1424.82C1897 1523.41 1841.06 1611.03 1759.7 1669.92L1731.78 1688.4C1722.21 1693.9 1712.38 1698.62 1703.08 1703.73C1684.56 1713.15 1665.27 1720.96 1645.41 1727.06C1609.6 1738.15 1572.4 1744.07 1534.92 1744.63C1503.36 1745.03 1471.87 1741.73 1441.08 1734.8L1440.29 1737.03V1734.93C1348.41 1807.8 1302.8 1843.84 1295.99 1849.22Z" fill="#263238"/>
<path d="M1473.45 1149.19L1485.64 1379.34C1486.16 1388.42 1489.98 1397 1496.37 1403.47C1502.76 1409.94 1511.3 1413.85 1520.37 1414.47C1529.85 1415.08 1539.21 1412.03 1546.52 1405.97C1553.83 1399.9 1558.54 1391.26 1559.69 1381.83L1587.61 1150.9C1588.09 1146.77 1587.69 1142.6 1586.44 1138.64C1585.19 1134.69 1583.12 1131.04 1580.36 1127.94C1577.6 1124.85 1574.21 1122.37 1570.42 1120.68C1566.63 1118.99 1562.53 1118.12 1558.38 1118.13H1502.28C1498.31 1118.16 1494.39 1118.99 1490.76 1120.59C1487.12 1122.19 1483.86 1124.52 1481.15 1127.43C1478.45 1130.34 1476.38 1133.77 1475.05 1137.51C1473.73 1141.26 1473.18 1145.23 1473.45 1149.19Z" fill="#072ACB"/>
<path d="M1580.53 1530.2C1577.03 1540.73 1570.49 1549.99 1561.73 1556.8C1552.97 1563.61 1542.39 1567.68 1531.32 1568.47C1520.25 1569.27 1509.2 1566.77 1499.55 1561.28C1489.91 1555.79 1482.11 1547.57 1477.14 1537.64C1472.17 1527.72 1470.25 1516.55 1471.63 1505.54C1473.01 1494.53 1477.63 1484.18 1484.89 1475.79C1492.16 1467.4 1501.75 1461.36 1512.45 1458.42C1523.15 1455.49 1534.48 1455.79 1545.01 1459.3C1559.12 1463.99 1570.79 1474.1 1577.45 1487.4C1584.11 1500.69 1585.22 1516.09 1580.53 1530.2Z" fill="#072ACB"/>
</svg>
