<svg width="600" height="415" viewBox="0 0 600 415" fill="none" xmlns="http://www.w3.org/2000/svg">
<path d="M95.4044 397.134C114.587 381.431 117.068 355.041 114.351 331.728C113.894 327.834 113.991 323.69 111.829 320.419C109.667 317.148 105.093 315.166 101.683 317.106C98.911 318.714 97.8577 322.193 96.4439 325.117C94.5432 329.046 91.5748 332.36 87.8784 334.681C85.4667 336.178 82.4175 337.217 79.8118 336.067C76.2497 334.487 75.4735 329.871 75.1825 325.99C74.6281 318.755 74.0829 311.516 73.547 304.271C73.4558 300.37 72.735 296.509 71.4125 292.837C69.8879 289.261 66.908 286.059 63.0964 285.339C59.2849 284.618 54.7804 287.113 54.3368 290.98C54.319 292.601 54.4116 294.222 54.614 295.831C54.6928 296.635 54.5355 297.445 54.1613 298.161C53.7872 298.877 53.2124 299.469 52.5073 299.864C50.9827 300.446 49.3195 299.476 48.0443 298.478C43.6645 294.902 40.4905 290.079 37.5106 285.269C34.5307 280.46 31.6062 275.567 27.5729 271.548C23.5396 267.528 18.1619 264.618 12.5069 264.756C6.85198 264.895 1.12774 268.845 0.157527 274.458C-0.812683 280.072 2.86026 285.339 6.7411 289.469C12.5212 295.57 19.1496 300.808 26.4225 305.02C27.8163 305.641 28.9764 306.69 29.7351 308.014C30.8023 310.536 28.5292 313.308 26.0206 314.376C23.1654 315.581 19.9498 315.54 16.9144 316.15C13.8791 316.759 10.6635 318.367 9.73489 321.319C8.45975 325.478 12.1604 329.303 15.6809 331.756C22.7756 336.669 30.6543 340.338 38.9798 342.609C41.9597 343.413 45.0783 344.078 47.5731 345.894C50.0679 347.709 51.7311 351.077 50.5807 353.932C49.4303 356.788 45.8544 357.952 42.7775 357.647C39.7005 357.342 36.8592 355.942 33.8793 355.11C28.3352 353.544 21.4051 354.487 18.2727 359.379C17.3465 361.048 16.825 362.91 16.7504 364.817C16.6758 366.724 17.05 368.621 17.8431 370.357C19.4564 373.808 21.7471 376.9 24.5791 379.449C34.0132 388.923 45.7861 395.733 58.7028 399.186C71.5927 402.443 83.3045 402.651 95.4044 397.134Z" fill="#EBEBEB"/>
<path d="M97.0829 414.446C95.0906 403.695 92.0595 393.162 88.0322 382.997C83.0559 370.58 77.3589 358.464 70.9704 346.711L65.9669 337.453C64.3314 334.403 62.7098 331.382 60.9357 328.527C57.5358 323.054 53.834 317.774 49.8476 312.712C46.0637 307.847 42.2799 303.357 38.7594 299.199C35.239 295.041 31.8294 291.229 28.5445 287.875C23.4331 282.572 17.9137 277.678 12.0371 273.239C9.95805 271.659 8.29483 270.467 7.17216 269.718L5.88317 268.831C5.73597 268.73 5.58327 268.638 5.42578 268.554C5.42578 268.554 5.56438 268.679 5.84158 268.886L7.10286 269.815C8.21167 270.619 9.87489 271.811 11.8985 273.419C17.7079 277.917 23.1704 282.847 28.2396 288.166C31.469 291.52 34.8509 295.345 38.3991 299.517C41.9473 303.689 45.6895 308.18 49.4872 313.045C53.4723 318.098 57.174 323.368 60.5753 328.832C62.3355 331.673 63.9433 334.681 65.5788 337.73L70.5407 347.002C76.8761 358.739 82.5492 370.82 87.5333 383.191C91.5652 393.32 94.6282 403.808 96.681 414.515" fill="#E0E0E0"/>
<path d="M60.8251 328.457C60.9552 327.902 61.0295 327.336 61.0469 326.766C61.1578 325.685 61.2687 324.091 61.3795 322.137C61.6152 318.229 61.7538 312.823 61.8924 306.891C62.031 300.959 62.2527 295.526 62.5715 291.645C62.7101 289.69 62.8626 288.124 62.9735 287.029C63.0542 286.469 63.0913 285.904 63.0843 285.338C62.913 285.88 62.7969 286.437 62.7378 287.002C62.5577 288.083 62.3498 289.663 62.1557 291.603C61.726 295.512 61.435 300.917 61.2964 306.849C61.1578 312.781 61.0608 318.118 60.9776 322.096C60.9083 323.967 60.8667 325.533 60.8251 326.725C60.7692 327.301 60.7692 327.881 60.8251 328.457Z" fill="#E0E0E0"/>
<path d="M9.5 323.301H10.0267H11.5374C12.8403 323.301 14.7253 323.301 17.0815 323.371C21.7524 323.468 28.1696 323.828 35.3076 324.563C42.4456 325.297 48.7935 326.24 53.3951 327.058C55.6959 327.46 57.5531 327.82 58.8421 328.069L60.3113 328.36C60.6578 328.36 60.838 328.444 60.838 328.36C60.682 328.278 60.5134 328.222 60.339 328.194L58.8837 327.792C57.6224 327.473 55.7652 327.044 53.4644 326.6C48.8767 325.672 42.4733 324.66 35.363 323.911C28.2528 323.163 21.7801 322.886 17.0815 322.9C14.7391 322.9 12.9235 322.9 11.5374 323.024L10.0406 323.121C9.85201 323.153 9.66958 323.213 9.5 323.301Z" fill="#E0E0E0"/>
<path d="M87.3945 382.11C87.5035 381.901 87.5962 381.683 87.6717 381.459C87.8658 380.974 88.0875 380.35 88.3786 379.588C88.9884 377.952 89.7646 375.554 90.7903 372.658C92.7446 366.739 95.1978 358.479 97.8035 349.317C100.409 340.156 102.779 331.895 104.637 325.949C105.565 323.038 106.314 320.654 106.868 318.908C107.118 318.132 107.312 317.522 107.464 316.995C107.549 316.776 107.61 316.549 107.644 316.316C107.521 316.516 107.423 316.73 107.353 316.954C107.173 317.453 106.937 318.076 106.646 318.839C106.036 320.474 105.26 322.858 104.248 325.769C102.28 331.687 99.8271 339.948 97.2352 349.109C94.6434 358.271 92.301 366.559 90.3883 372.478C89.4736 375.388 88.7112 377.772 88.1707 379.505C87.9212 380.295 87.7272 380.891 87.5609 381.431C87.4834 381.652 87.4277 381.879 87.3945 382.11Z" fill="#E0E0E0"/>
<path d="M18.4531 366.268C18.6678 366.371 18.8967 366.442 19.1323 366.476L21.142 366.948L28.5433 368.639C34.7804 370.025 43.3737 372.145 52.8679 374.474C62.3621 376.802 70.9692 378.826 77.234 380.156C80.3664 380.822 82.9028 381.334 84.663 381.653L86.6866 382.014C86.9234 382.068 87.1646 382.1 87.4073 382.111C87.1871 382.01 86.9538 381.94 86.7143 381.903L84.7046 381.431L77.3172 379.74C71.0801 378.354 62.4868 376.234 53.0065 373.905C43.5261 371.577 34.9051 369.553 28.6403 368.223C25.5079 367.557 22.9715 367.045 21.2113 366.726L19.1739 366.352C18.9363 366.304 18.6952 366.276 18.4531 366.268Z" fill="#E0E0E0"/>
<path d="M277.483 1.08705L177.273 31.2276L197.589 98.7727L297.799 68.6322L277.483 1.08705Z" fill="white"/>
<path d="M297.817 68.5663C297.817 68.5663 297.665 68.1366 297.415 67.3328C297.166 66.5289 296.791 65.3092 296.306 63.7568C295.35 60.6244 293.936 56.0367 292.148 50.1878C288.572 38.4482 283.458 21.6081 277.221 1.10898L277.581 1.30303L177.4 31.5597L177.65 31.1023L197.941 98.6567L197.525 98.4349L269.709 76.8824L290.374 70.7701L295.918 69.1484L297.304 68.7326L297.803 68.6079L297.36 68.7603L295.974 69.2039L290.54 70.8671L270 77.1457L197.705 99.0586L197.386 99.1557L197.289 98.8369C191.094 78.2545 184.192 55.3715 176.943 31.2964L176.846 30.9499L177.178 30.8528L277.401 0.776334L277.678 0.693176L277.761 0.970385C283.901 21.5804 288.933 38.5037 292.453 50.2986C294.172 56.1476 295.53 60.7215 296.445 63.8677C296.902 65.3923 297.235 66.5704 297.484 67.4021C297.734 68.2337 297.817 68.5663 297.817 68.5663Z" fill="#E0E0E0"/>
<path d="M277.5 1.06692C277.463 1.17261 277.417 1.27468 277.361 1.37183L276.89 2.23117C276.433 3.02119 275.809 4.11615 275.033 5.50216L268.033 17.5189L244.554 57.3391L244.388 57.6024L244.111 57.4916L241.048 56.3134L195.905 38.6972L182.253 33.2918L178.566 31.781L177.61 31.379C177.495 31.3409 177.388 31.2847 177.291 31.2127C177.412 31.2232 177.529 31.2561 177.638 31.3097L178.608 31.6424L182.364 33.0284L196.085 38.226L241.297 55.6343L244.374 56.8263L243.931 56.9787C253.217 41.3861 261.561 27.4151 267.604 17.2556L274.797 5.36356C275.629 3.97755 276.294 2.93804 276.765 2.14801L277.306 1.33025C277.417 1.15007 277.486 1.05306 277.5 1.06692Z" fill="#E0E0E0"/>
<path d="M569.086 270.924C569.086 270.924 562.586 264.493 549.918 280.557C543.276 288.689 537.178 297.25 531.664 306.184C531.664 306.184 528.504 309.455 526.425 306.489C524.346 303.523 522.197 295.872 517.568 296.26C512.939 296.648 510.278 301.416 509.654 309.026C509.03 316.635 507.076 333.281 506.882 334.778C506.688 336.275 505.496 338.229 503.708 336.441C501.92 334.653 492.925 319.435 485.925 324.119C478.926 328.804 480.7 350.343 480.853 352.685C481.005 355.027 480.367 355.914 479.203 356.247C478.039 356.58 475.475 351.174 472.717 346.947C469.959 342.72 466.036 338.27 462.238 341.334C458.441 344.397 454.407 359.463 463.999 387.141L469.279 399.615L482.793 401.542C511.996 403.884 525.579 396.22 527.589 391.771C529.599 387.322 524.332 384.633 519.536 383.025C514.741 381.417 508.864 380.253 508.905 379.075C508.947 377.897 509.626 377.037 511.941 376.594C514.256 376.15 535.503 372.436 538.275 364.522C541.047 356.607 524.069 351.645 521.892 350.398C519.716 349.151 521.324 347.446 522.71 346.905C524.096 346.365 539.73 340.28 546.952 337.785C554.173 335.291 558.151 331.659 557.333 326.919C556.515 322.179 548.601 322.193 545.205 320.904C541.809 319.615 544.193 315.762 544.193 315.762C551.495 308.204 558.288 300.171 564.526 291.714C576.903 275.415 568.837 270.661 568.837 270.661" fill="#EBEBEB"/>
<path d="M557.669 285.228C557.607 285.35 557.532 285.467 557.447 285.574L556.74 286.572C556.075 287.459 555.146 288.721 553.968 290.328C551.543 293.586 548.008 298.27 543.601 304.036C534.8 315.568 522.492 331.396 508.826 348.804L473.87 393.448L463.323 407.017L460.44 410.69L459.678 411.632C459.497 411.84 459.414 411.951 459.4 411.937C459.463 411.815 459.537 411.699 459.622 411.591L460.329 410.607L463.101 406.837C465.513 403.58 469.061 398.895 473.455 393.129C482.256 381.597 494.577 365.769 508.257 348.361C521.937 330.952 534.231 315.18 543.199 303.717C547.62 298.021 551.224 293.405 553.746 290.162C554.966 288.596 555.936 287.39 556.615 286.475L557.392 285.533C557.558 285.325 557.655 285.214 557.669 285.228Z" fill="#E0E0E0"/>
<path d="M520.149 307.086C520.45 308.274 520.622 309.491 520.662 310.717C520.869 312.962 521.05 316.081 521.174 319.532C521.299 322.983 521.355 325.838 521.424 328.347C521.526 329.565 521.526 330.789 521.424 332.006C521.124 330.818 520.956 329.6 520.925 328.375C520.745 326.116 520.592 322.997 520.468 319.56C520.343 316.122 520.26 313.253 520.163 310.745C520.052 309.528 520.048 308.303 520.149 307.086Z" fill="#E0E0E0"/>
<path d="M522.59 332.491C527.333 331.725 532.111 331.202 536.907 330.925C544.821 330.273 551.266 329.899 551.28 330.093C546.537 330.851 541.758 331.369 536.963 331.646C529.049 332.311 522.618 332.685 522.59 332.491Z" fill="#E0E0E0"/>
<path d="M499.588 359.213C500.831 359.309 502.064 359.508 503.275 359.809C505.548 360.239 508.666 360.835 512.131 361.389C515.596 361.944 518.743 362.359 521.03 362.65C522.277 362.75 523.515 362.949 524.73 363.246C523.483 363.353 522.229 363.325 520.988 363.163C518.673 362.997 515.444 362.664 512.02 362.096C508.597 361.528 505.409 360.862 503.164 360.308C501.936 360.072 500.737 359.705 499.588 359.213Z" fill="#E0E0E0"/>
<path d="M492.332 336.732C492.907 337.737 493.372 338.801 493.718 339.906C494.453 341.916 495.437 344.688 496.49 347.765C497.543 350.842 498.431 353.642 499.054 355.693C499.445 356.777 499.732 357.895 499.914 359.033C499.33 358.028 498.865 356.958 498.528 355.845C497.779 353.85 496.809 351.078 495.755 348.001C494.702 344.924 493.815 342.11 493.191 340.073C492.784 338.994 492.496 337.874 492.332 336.732Z" fill="#E0E0E0"/>
<path d="M469.031 357.744C469.699 359.062 470.264 360.429 470.722 361.833C471.679 364.397 472.954 367.945 474.326 371.881C475.698 375.818 476.89 379.394 477.735 381.985C478.257 383.372 478.66 384.8 478.941 386.254C478.262 384.918 477.697 383.527 477.25 382.096C476.294 379.546 475.019 375.998 473.647 372.062C472.275 368.125 471.069 364.549 470.237 361.944C469.718 360.58 469.315 359.175 469.031 357.744Z" fill="#E0E0E0"/>
<path d="M478.9 385.506C480.479 385.596 482.049 385.8 483.599 386.116C486.482 386.573 490.529 387.197 494.895 387.779C499.261 388.361 503.322 388.805 506.219 389.165C507.797 389.269 509.367 389.477 510.917 389.789C509.337 389.885 507.751 389.848 506.177 389.678C503.253 389.484 499.247 389.123 494.798 388.527C490.349 387.931 486.371 387.238 483.502 386.67C481.939 386.408 480.4 386.019 478.9 385.506Z" fill="#E0E0E0"/>
<path d="M507.907 134.558L504.623 242.048L583.173 244.448L586.458 136.958L507.907 134.558Z" fill="#F5F5F5"/>
<path d="M493.446 148.847L490.162 256.337L568.712 258.737L571.997 151.247L493.446 148.847Z" fill="white"/>
<path d="M568.701 258.714C568.692 258.538 568.692 258.362 568.701 258.187C568.701 257.826 568.701 257.327 568.701 256.676C568.701 255.29 568.77 253.35 568.839 250.799C568.978 245.657 569.172 238.187 569.421 228.72C569.962 209.801 570.724 182.982 571.625 151.228L571.944 151.561L493.399 149.191L493.773 148.844C492.512 189.039 491.361 226.17 490.419 256.33L490.128 256.025L547.176 257.923L563.046 258.478L567.204 258.644L568.659 258.714H567.273L563.115 258.616L547.315 258.215L490.086 256.621H489.795V256.33C490.696 226.156 491.805 188.983 493.01 148.83V148.47H493.385L571.916 150.909H572.249V151.242C571.209 183.12 570.336 209.981 569.713 228.942C569.394 238.367 569.13 245.824 568.964 250.938C568.867 253.46 568.798 255.401 568.742 256.745C568.742 257.383 568.742 257.882 568.673 258.228C568.604 258.575 568.701 258.714 568.701 258.714Z" fill="#E0E0E0"/>
<path d="M541.366 173.709C541.366 173.917 532.814 173.806 522.281 173.488C511.747 173.169 503.195 172.739 503.195 172.545C503.195 172.351 511.761 172.448 522.295 172.767C532.828 173.086 541.366 173.515 541.366 173.709Z" fill="#E0E0E0"/>
<path d="M561.66 183.689C561.66 183.883 548.493 183.689 532.249 183.148C516.005 182.608 502.838 182.081 502.852 181.887C502.865 181.693 516.019 181.887 532.277 182.427C548.535 182.968 561.674 183.481 561.66 183.689Z" fill="#E0E0E0"/>
<path d="M561.369 193.432C561.369 193.626 548.188 193.432 531.944 192.891C515.7 192.351 502.547 191.824 502.547 191.63C502.547 191.436 515.728 191.63 531.972 192.17C548.216 192.711 561.369 193.224 561.369 193.432Z" fill="#E0E0E0"/>
<path d="M561.061 203.176C561.061 203.37 547.893 203.176 531.649 202.635C515.405 202.095 502.252 201.568 502.252 201.374C502.252 201.18 515.433 201.374 531.677 201.914C547.921 202.455 561.074 203.009 561.061 203.176Z" fill="#E0E0E0"/>
<path d="M560.772 212.92C560.772 213.114 547.591 212.92 531.36 212.379C515.13 211.838 501.949 211.312 501.949 211.118C501.949 210.924 515.13 211.118 531.374 211.658C547.618 212.199 560.772 212.712 560.772 212.92Z" fill="#E0E0E0"/>
<path d="M560.483 222.663C560.483 222.857 547.302 222.663 531.058 222.123C514.813 221.582 501.66 221.056 501.66 220.862C501.66 220.668 514.841 220.862 531.085 221.402C547.329 221.943 560.483 222.414 560.483 222.663Z" fill="#E0E0E0"/>
<path d="M560.178 232.407C560.178 232.601 546.997 232.407 530.767 231.866C514.536 231.326 501.355 230.799 501.369 230.605C501.383 230.411 514.536 230.605 530.78 231.145C547.024 231.686 560.192 232.199 560.178 232.407Z" fill="#E0E0E0"/>
<path d="M532.677 241.319C532.677 241.513 525.595 241.457 516.863 241.194C508.131 240.93 501.062 240.542 501.062 240.348C501.062 240.154 508.145 240.21 516.877 240.473C525.609 240.736 532.677 241.111 532.677 241.319Z" fill="#E0E0E0"/>
<path d="M336.038 50.5016L311.459 112.234L388.67 142.976L413.248 81.2431L336.038 50.5016Z" fill="white"/>
<path d="M413.233 81.248L412.859 81.1094L411.777 80.6936L407.619 79.0304L391.777 72.724L335.976 50.5478L336.143 50.4785L311.582 112.198L311.499 112.004L388.7 142.773H388.548C395.977 124.173 402.145 108.76 406.441 97.9911C408.603 92.6133 410.294 88.386 411.445 85.5169L412.831 82.2321L413.288 81.0955L412.859 82.2182C412.567 82.9667 412.138 84.0616 411.57 85.4892C410.433 88.3721 408.798 92.5995 406.635 97.9633C402.353 108.747 396.213 124.201 388.825 142.842V142.953H388.714L311.402 112.364H311.264V112.225C320.148 89.9383 328.533 68.8709 335.852 50.5062V50.3815H335.962L391.902 72.724L407.661 79.0442L411.819 80.7074L412.886 81.1371L413.233 81.248Z" fill="#E0E0E0"/>
<path d="M337.091 55.5163L315.609 109.471L387.399 138.054L408.881 84.0993L337.091 55.5163Z" fill="#EBEBEB"/>
<path d="M315.893 109.634L354.327 86.0713L361.506 113.237L376.503 106.224L387.688 138.213L315.893 109.634Z" fill="#E0E0E0"/>
<path d="M378.08 90.7426C377.635 91.861 376.868 92.8223 375.876 93.5048C374.884 94.1872 373.713 94.5603 372.509 94.5766C371.305 94.593 370.124 94.2519 369.114 93.5966C368.104 92.9413 367.312 92.0013 366.836 90.8953C366.361 89.7894 366.224 88.5673 366.444 87.3837C366.663 86.2001 367.229 85.1081 368.069 84.246C368.909 83.3839 369.986 82.7904 371.163 82.5405C372.341 82.2906 373.566 82.3956 374.684 82.8423C375.426 83.137 376.104 83.5754 376.676 84.1322C377.249 84.6891 377.706 85.3536 378.022 86.0875C378.337 86.8215 378.505 87.6105 378.515 88.4093C378.525 89.2081 378.377 90.001 378.08 90.7426Z" fill="#E0E0E0"/>
<path d="M137.273 176.481C137.794 176.697 138.359 176.787 138.922 176.745C139.597 176.667 140.223 176.359 140.696 175.872C141.245 175.112 141.731 174.311 142.152 173.474L151.147 157.784L154.141 152.6L155.735 149.828C156.012 149.387 156.253 148.923 156.455 148.442C156.601 147.963 156.601 147.452 156.455 146.973C156.331 146.48 156.054 146.039 155.665 145.712C155.221 145.398 154.758 145.111 154.279 144.852L151.188 143.134L144.757 139.53L116.122 123.466C115.557 123.164 114.9 123.082 114.279 123.236C113.657 123.389 113.114 123.768 112.754 124.298L110.606 127.985C109.22 130.424 107.834 132.85 106.448 135.22L98.4089 148.955C98.0902 149.496 97.7714 150.036 97.4664 150.577C97.1576 151.045 96.9981 151.596 97.0091 152.157C97.0309 152.704 97.2304 153.23 97.5773 153.654C97.971 154.062 98.4422 154.387 98.9633 154.61L105.02 158.047L115.859 164.201L131.549 173.169L135.804 175.636L136.899 176.287C137.148 176.44 137.273 176.523 137.259 176.537L136.871 176.357L135.734 175.761L131.424 173.404L115.609 164.645L104.771 158.505L98.7 155.109C98.1117 154.849 97.5798 154.477 97.1338 154.014C96.7008 153.479 96.4528 152.817 96.4269 152.129C96.3972 151.443 96.5813 150.765 96.9536 150.189C97.2585 149.648 97.5773 149.108 97.8961 148.567L105.838 134.859L109.996 127.624L112.172 123.896C112.631 123.216 113.326 122.73 114.122 122.533C114.918 122.336 115.759 122.441 116.483 122.829L145.09 138.948L151.521 142.579L154.584 144.326C155.113 144.595 155.623 144.9 156.109 145.241C156.592 145.653 156.936 146.205 157.093 146.821C157.259 147.41 157.259 148.033 157.093 148.622C156.872 149.147 156.608 149.652 156.303 150.133L154.681 152.905L151.66 158.075C147.793 164.617 144.66 169.926 142.47 173.654C142.016 174.492 141.497 175.294 140.918 176.052C140.402 176.557 139.725 176.866 139.005 176.925C138.57 176.957 138.133 176.886 137.73 176.717C137.568 176.66 137.414 176.581 137.273 176.481Z" fill="#E0E0E0"/>
<path d="M129.957 148.067L133.45 154.263L126.242 154.401L119.035 154.526L122.75 148.192L126.464 141.858L129.957 148.067Z" fill="#E0E0E0"/>
<path d="M600 412.297C600 412.505 467.428 412.672 303.948 412.672C140.467 412.672 7.85352 412.533 7.85352 412.297C7.85352 412.062 140.398 411.909 303.948 411.909C467.497 411.909 600 412.117 600 412.297Z" fill="#263238"/>
<path d="M154.404 324.272L112.561 282.234L133.6 243.592C154.64 216.648 199.186 218.38 199.186 218.38C221.163 216.886 243.241 218.242 264.87 222.413C300.255 229.344 297.399 252.712 297.399 252.712L302.14 339.435L307.226 410.052L176.733 412.686L154.404 324.327" fill="#072ACB"/>
<path d="M224.704 408.556L107.821 409.942C101.382 410.017 95.03 408.454 89.361 405.4C83.6921 402.346 78.8924 397.901 75.4129 392.482C71.9333 387.064 69.888 380.85 69.4691 374.425C69.0503 367.999 70.2715 361.573 73.0182 355.749L122.998 263.066L168.528 293.835L137.468 358.243L232.077 359.934L224.704 408.556Z" fill="#072ACB"/>
<path d="M293.271 238.574L387.063 383.385L332.343 386.961C332.343 386.961 299.661 335.471 300.396 336.524C301.698 338.464 293.271 238.574 293.271 238.574Z" fill="#072ACB"/>
<path d="M166.175 302.165C166.178 301.911 166.22 301.658 166.3 301.417C166.438 300.862 166.591 300.169 166.798 299.31C167.228 297.494 167.866 294.861 168.517 291.59C169.169 288.319 169.903 284.383 170.361 280.003C170.923 275.256 170.923 270.46 170.361 265.713C169.609 261.006 167.967 256.486 165.523 252.393C163.56 249.024 161.236 245.878 158.593 243.01C156.812 241.05 154.914 239.198 152.911 237.466C152.147 236.868 151.416 236.23 150.721 235.553C150.946 235.665 151.16 235.8 151.358 235.955C151.746 236.246 152.37 236.648 153.091 237.244C155.175 238.89 157.139 240.682 158.968 242.608C161.699 245.455 164.099 248.603 166.119 251.991C168.649 256.147 170.344 260.756 171.109 265.56C171.658 270.366 171.621 275.22 170.998 280.017C170.53 283.92 169.864 287.796 169.002 291.631C168.282 294.916 167.616 297.536 167.048 299.338C166.798 300.239 166.577 300.932 166.424 301.403C166.366 301.664 166.282 301.92 166.175 302.165Z" fill="#263238"/>
<path d="M162.398 307.155C162.198 307.877 161.928 308.578 161.594 309.248C161.039 310.634 160.208 312.491 159.14 314.792C157.02 319.491 154.012 325.949 150.547 333.018C147.082 340.087 143.811 346.421 141.386 351.036C140.166 353.309 139.168 355.194 138.461 356.4C138.124 357.072 137.734 357.716 137.297 358.327C137.546 357.619 137.852 356.933 138.212 356.275C138.919 354.889 139.833 353.032 140.984 350.801L149.951 332.782C153.347 325.755 156.438 319.407 158.739 314.653C159.82 312.422 160.707 310.565 161.4 309.109C161.677 308.431 162.011 307.777 162.398 307.155Z" fill="#263238"/>
<path d="M224.706 408.556C224.706 408.556 224.706 408.473 224.706 408.32C224.706 408.168 224.706 407.891 224.706 407.6C224.775 406.934 224.872 406.006 224.983 404.828C225.26 402.36 225.648 398.854 226.133 394.432C227.159 385.465 228.628 372.852 230.291 357.98L230.624 358.341H196.098L135.793 358.244L117.498 358.133L112.522 358.063H111.219H110.775C110.923 358.046 111.072 358.046 111.219 358.063H112.522L117.498 357.994L135.793 357.883L196.195 357.786H230.721H231.095V358.147C229.266 373.005 227.727 385.617 226.618 394.571C226.064 398.979 225.607 402.485 225.232 404.952C225.085 406.117 224.96 407.041 224.858 407.724L224.747 408.431C224.733 408.473 224.72 408.556 224.706 408.556Z" fill="#263238"/>
<path d="M138.286 359.269C137.449 358.344 136.671 357.367 135.958 356.344C132.222 351.655 127.597 347.75 122.347 344.854C121.226 344.312 120.134 343.71 119.076 343.052C120.306 343.341 121.488 343.808 122.583 344.439C128.05 347.14 132.779 351.131 136.36 356.067C137.147 357.04 137.795 358.118 138.286 359.269Z" fill="#263238"/>
<path d="M304.084 368.444C303.982 368.049 303.917 367.645 303.89 367.238C303.793 366.393 303.668 365.243 303.502 363.787C303.183 360.794 302.753 356.455 302.296 351.091C301.339 340.35 300.245 325.492 299.274 309.081C298.304 292.671 297.625 277.785 297.237 267.016C297.043 261.624 296.904 257.314 296.849 254.251C296.849 252.795 296.849 251.645 296.779 250.786C296.758 250.384 296.758 249.981 296.779 249.58C296.856 249.977 296.898 250.381 296.904 250.786C296.904 251.631 297.015 252.795 297.098 254.251C297.251 257.328 297.459 261.666 297.722 266.988C298.235 277.757 298.997 292.615 299.967 309.04C300.938 325.464 301.963 340.294 302.739 351.05C303.155 356.358 303.488 360.752 303.723 363.773C303.834 365.159 303.917 366.379 303.987 367.225C304.056 367.627 304.088 368.036 304.084 368.444Z" fill="#263238"/>
<path d="M199.743 289.65C199.749 289.014 199.8 288.379 199.895 287.751C200.062 286.434 200.27 284.674 200.533 282.512C201.143 277.938 201.919 271.673 202.945 264.41L203.471 264.743L194.504 271.021L185.384 277.369L184.732 277.827L184.843 277.037C185.952 269.843 186.895 263.634 187.615 259.019C187.976 256.898 188.253 255.152 188.475 253.849C188.549 253.224 188.679 252.607 188.863 252.005C188.864 252.637 188.808 253.268 188.696 253.89C188.53 255.193 188.322 256.94 188.045 259.088C187.421 263.634 186.548 269.857 185.55 277.106L185.023 276.773L194.13 270.398L203.111 264.147L203.762 263.689L203.652 264.479C202.584 271.714 201.656 277.979 200.99 282.498C200.644 284.646 200.367 286.406 200.159 287.709C200.078 288.367 199.939 289.016 199.743 289.65Z" fill="#E0E0E0"/>
<path d="M251.911 295.263C251.412 294.865 250.948 294.425 250.525 293.946C249.624 292.976 248.405 291.687 246.908 290.107L234.531 276.69L235.127 276.482C234.836 279.878 234.531 283.565 234.212 287.39C233.893 291.216 233.56 295.013 233.269 298.478L233.2 299.282L232.673 298.686L220.629 285.103L217.192 281.139C216.754 280.686 216.364 280.189 216.027 279.656C216.526 280.08 216.989 280.544 217.413 281.042L220.989 284.868L233.214 298.271L232.618 298.478C232.909 295.027 233.214 291.285 233.547 287.39C233.879 283.496 234.184 279.878 234.475 276.482L234.544 275.692L235.071 276.274L247.268 289.871L250.747 293.849C251.171 294.289 251.561 294.762 251.911 295.263Z" fill="#E0E0E0"/>
<path d="M278.162 293.405C277.904 293.989 277.589 294.547 277.22 295.068L274.448 299.531L264.552 314.888L264.219 314.362L274.975 312.504L285.924 310.661L286.714 310.522L286.34 311.118L276.222 326.171L273.173 330.523C272.834 331.055 272.454 331.56 272.036 332.033C272.31 331.466 272.625 330.919 272.979 330.398L275.751 325.963L285.661 310.716L286.007 311.243L275.058 313.142L264.261 314.972L263.471 315.096L263.914 314.445L274.018 299.199L276.984 294.833C277.348 294.334 277.742 293.857 278.162 293.405Z" fill="#E0E0E0"/>
<path d="M243.248 320.266C242.987 320.845 242.672 321.397 242.306 321.915L239.533 326.392L229.651 341.735L229.305 341.209L240.088 339.352L251.051 337.494L251.841 337.37L251.384 338.021L241.266 353.087L238.286 357.411C237.955 357.945 237.575 358.446 237.15 358.908C237.427 358.343 237.742 357.796 238.092 357.273C238.813 356.164 239.755 354.681 240.864 352.851L250.774 337.605L251.121 338.132L240.171 340.031L229.374 341.846L228.584 341.985L229.027 341.32L239.132 326.074C240.351 324.272 241.349 322.803 242.111 321.708C242.455 321.2 242.835 320.718 243.248 320.266Z" fill="#E0E0E0"/>
<path d="M318.689 293.1C318.414 293.672 318.099 294.223 317.747 294.75L314.975 299.226L305.092 314.57L304.746 314.043L315.529 312.186L326.492 310.328L327.282 310.204L326.839 310.855L316.707 325.921C315.487 327.695 314.489 329.151 313.727 330.232C313.399 330.771 313.018 331.278 312.591 331.742C312.87 331.175 313.19 330.629 313.547 330.107L316.319 325.685L326.229 310.439L326.575 310.966L315.626 312.851L304.829 314.681L304.053 314.819L304.482 314.154L314.586 298.908L317.566 294.542C317.893 294.026 318.269 293.543 318.689 293.1Z" fill="#E0E0E0"/>
<path d="M362.211 362.872C361.716 362.495 361.252 362.078 360.825 361.625L357.027 357.965L343.985 345.186L344.567 344.951C344.456 348.36 344.345 352.047 344.221 355.886C344.096 359.726 343.943 363.537 343.819 366.975V367.779L343.25 367.21L330.555 354.251L326.923 350.467C326.472 350.038 326.055 349.575 325.676 349.081C326.169 349.46 326.633 349.878 327.062 350.329L330.832 353.974L343.722 366.753L343.126 366.988C343.237 363.523 343.361 359.781 343.486 355.9C343.611 352.02 343.763 348.374 343.888 344.965V344.175L344.442 344.729L357.291 357.702L360.964 361.5C361.417 361.922 361.834 362.381 362.211 362.872Z" fill="#E0E0E0"/>
<path d="M142.043 270.841C141.771 271.414 141.456 271.965 141.1 272.49L138.328 276.967L128.446 292.324L128.099 291.797L138.882 289.926L149.846 288.083L150.636 287.944L150.192 288.609L140.061 303.662L137.094 307.986C136.758 308.516 136.378 309.016 135.958 309.483C136.224 308.915 136.539 308.373 136.9 307.861L139.672 303.426C142.181 299.587 145.618 294.32 149.582 288.18L149.929 288.706L138.979 290.605L128.182 292.435L127.406 292.56L127.836 291.908C131.897 285.81 135.39 280.543 137.94 276.662L140.92 272.296C141.255 271.782 141.631 271.295 142.043 270.841Z" fill="#E0E0E0"/>
<path d="M87.2402 374.487C87.7072 374.909 88.1341 375.373 88.5154 375.873L91.8972 379.934L103.387 394.113L102.777 394.28C103.276 390.912 103.803 387.253 104.371 383.441C104.94 379.63 105.494 375.873 106.007 372.45L106.118 371.66L106.617 372.298L117.788 386.601L120.962 390.759C121.365 391.241 121.727 391.755 122.043 392.298C121.588 391.869 121.166 391.405 120.782 390.912L117.455 386.865L106.159 372.713L106.769 372.561C106.27 375.984 105.73 379.699 105.161 383.552C104.593 387.405 104.053 391.009 103.54 394.377L103.429 395.167L102.93 394.543L91.62 380.212L88.3906 376.054C87.9724 375.558 87.5881 375.035 87.2402 374.487Z" fill="#E0E0E0"/>
<path d="M212.395 307.376C211.774 307.509 211.144 307.593 210.51 307.626L205.243 308.083L187.031 309.469L187.253 308.887L195.236 316.372L203.317 323.995L203.899 324.549H203.095L184.98 325.547L179.74 325.769C179.113 325.823 178.483 325.823 177.855 325.769C178.473 325.645 179.098 325.566 179.727 325.533L184.952 325.117L203.053 323.87L202.845 324.452L194.737 316.857L186.781 309.345L186.199 308.79H186.989L205.215 307.695L210.482 307.432C211.118 307.365 211.757 307.347 212.395 307.376Z" fill="#E0E0E0"/>
<path d="M181.682 377.232C182.144 377.666 182.579 378.129 182.984 378.618L186.436 382.609L198.231 396.553L197.621 396.719C198.05 393.337 198.522 389.678 199.007 385.866C199.492 382.055 199.991 378.271 200.393 374.848L200.504 374.044L201.003 374.667L212.479 388.735L215.736 392.894C216.14 393.376 216.51 393.885 216.845 394.418C216.377 393.993 215.946 393.529 215.556 393.032L212.146 389.054L200.504 375.194L201.1 375.014C200.67 378.451 200.199 382.166 199.714 386.033C199.229 389.9 198.743 393.517 198.328 396.899L198.217 397.689L197.718 397.079L186.117 382.97L182.818 378.812C182.388 378.324 182.007 377.794 181.682 377.232Z" fill="#E0E0E0"/>
<path d="M126.783 326.004C126.163 326.14 125.532 326.224 124.898 326.254L119.645 326.697L101.433 328.083L101.641 327.487L109.638 334.986L117.718 342.609L118.3 343.163H117.497L99.3814 344.161L94.1422 344.383C93.5289 344.435 92.9122 344.435 92.2988 344.383C92.9145 344.25 93.5406 344.171 94.1699 344.147L99.3952 343.731L117.497 342.47L117.289 343.066L109.18 335.471L101.211 327.958L100.643 327.404H101.433L119.659 326.295L124.926 326.046C125.543 325.985 126.164 325.971 126.783 326.004Z" fill="#E0E0E0"/>
<path d="M173.946 375.665C173.325 375.797 172.695 375.876 172.061 375.901L166.794 376.358L148.582 377.744L148.803 377.148L156.787 384.647L164.867 392.27L165.449 392.824H164.659L146.53 393.808L141.291 394.044C140.664 394.098 140.033 394.098 139.406 394.044C140.022 393.911 140.648 393.832 141.277 393.808L146.503 393.392L164.604 392.131L164.396 392.727L156.288 385.132L148.332 377.647L147.75 377.107H148.54L166.766 375.998L172.047 375.749C172.676 375.663 173.312 375.636 173.946 375.665Z" fill="#E0E0E0"/>
<path d="M280.409 249.316C279.788 249.449 279.158 249.532 278.524 249.565L273.257 250.009L255.058 251.395L255.266 250.813L263.25 258.297L271.33 265.92L271.912 266.475H271.122L252.993 267.473L247.754 267.694C247.127 267.749 246.496 267.749 245.869 267.694C246.485 267.562 247.111 267.483 247.74 267.459L252.966 267.043L271.081 265.795L270.859 266.378L262.779 258.796L254.823 251.284L254.241 250.729H255.031L273.257 249.621L278.537 249.371C279.159 249.306 279.784 249.287 280.409 249.316Z" fill="#E0E0E0"/>
<path d="M228.624 375.665C228.624 375.665 251.937 368.943 259.657 366.975C262.665 366.212 275.541 373.004 284.439 378.659C284.439 378.659 296.691 385.922 295.707 388.153C294.612 390.62 290.163 390.121 282.886 386.767C282.886 386.767 285.409 394.071 280.461 393.905C280.461 393.905 282.914 401.805 278.285 402.623C273.656 403.441 272.575 393.365 268.5 392.824C264.425 392.283 256.026 391.729 256.026 391.729C256.026 391.729 248.998 403.372 243.551 404.203C238.104 405.035 225.533 403.552 225.533 403.552L228.624 375.665Z" fill="#FFBE9D"/>
<path d="M268.42 377.273C270.702 378.29 272.883 379.519 274.934 380.946C277.11 382.177 279.162 383.616 281.06 385.243C276.596 383.007 272.362 380.337 268.42 377.273Z" fill="#EB996E"/>
<path d="M267.047 381.805C269.71 382.643 272.297 383.705 274.781 384.979C277.348 386.023 279.824 387.279 282.182 388.735C279.518 387.906 276.931 386.849 274.448 385.575C271.876 384.537 269.399 383.276 267.047 381.805Z" fill="#EB996E"/>
<path d="M269.545 392.63C273.066 392.617 276.572 393.083 279.968 394.016C276.447 394.026 272.941 393.56 269.545 392.63Z" fill="#EB996E"/>
<path d="M198.286 135.095C198.56 135.993 198.564 136.952 198.297 137.852C198.03 138.753 197.503 139.554 196.783 140.158C196.064 140.761 195.182 141.138 194.249 141.244C193.316 141.349 192.372 141.177 191.536 140.75C188.376 139.156 187.974 134.79 188.597 131.311C189.221 127.832 190.399 124.104 188.944 120.874C187.821 118.407 185.396 116.841 183.511 114.901C181.847 113.214 180.597 111.165 179.859 108.914C179.121 106.663 178.914 104.272 179.256 101.927C179.655 99.5903 180.692 97.4088 182.253 95.6235C183.813 93.8381 185.836 92.5183 188.098 91.8095C192.742 90.5205 198.466 91.9481 201.959 88.5801C204.467 86.1407 204.62 82.1629 206.56 79.2522C209.568 74.7338 215.93 74.0131 221.307 74.7477C226.685 75.4823 232.146 77.2148 237.413 75.8981C241.807 74.8031 245.41 71.74 249.54 69.855C254.042 67.7973 259.074 67.1979 263.933 68.1406C268.792 69.0833 273.235 71.521 276.64 75.1128C280.046 78.7046 282.244 83.2709 282.926 88.1731C283.609 93.0754 282.743 98.0684 280.449 102.454C278.919 105.664 276.316 108.237 273.089 109.731" fill="#263238"/>
<path d="M225.037 249.593C228.572 249.586 232.07 248.878 235.328 247.509C238.587 246.14 241.542 244.138 244.021 241.619C246.5 239.1 248.454 236.114 249.771 232.834C251.088 229.554 251.74 226.045 251.69 222.511L251.344 197.036C251.344 197.036 272.744 194.887 274.158 173.681C275.571 152.475 274.56 103.535 274.56 103.535C262.785 97.6936 249.665 95.0983 236.552 96.0168C223.44 96.9353 210.81 101.334 199.964 108.76L196.693 111.02L198.287 223.204C198.371 230.239 201.228 236.957 206.237 241.898C211.245 246.84 218.002 249.605 225.037 249.593Z" fill="#FFBE9D"/>
<path d="M268.96 142.025C268.186 141.936 267.472 141.565 266.953 140.984C266.435 140.402 266.148 139.651 266.148 138.872C266.148 138.093 266.435 137.341 266.953 136.759C267.472 136.178 268.186 135.807 268.96 135.718C269.128 135.677 269.304 135.677 269.473 135.718C270.246 135.807 270.961 136.178 271.479 136.759C271.997 137.341 272.284 138.093 272.284 138.872C272.284 139.651 271.997 140.402 271.479 140.984C270.961 141.565 270.246 141.936 269.473 142.025C269.303 142.052 269.13 142.052 268.96 142.025Z" fill="#263238"/>
<path d="M273.114 135.178C272.768 135.538 270.772 133.792 267.848 133.639C264.923 133.487 262.719 134.859 262.428 134.471C262.137 134.083 262.636 133.653 263.606 133.002C264.903 132.17 266.432 131.776 267.969 131.878C269.506 131.981 270.969 132.573 272.144 133.57C273.017 134.346 273.295 135.094 273.114 135.178Z" fill="#263238"/>
<path d="M239.313 135.899C239.816 136.247 240.204 136.736 240.429 137.305C240.653 137.874 240.704 138.497 240.574 139.094C240.445 139.692 240.141 140.238 239.701 140.663C239.261 141.088 238.705 141.373 238.103 141.481C237.501 141.59 236.881 141.518 236.32 141.274C235.759 141.03 235.283 140.625 234.953 140.11C234.623 139.595 234.452 138.994 234.463 138.383C234.475 137.771 234.667 137.177 235.016 136.675C235.484 136.003 236.199 135.544 237.004 135.398C237.81 135.253 238.64 135.433 239.313 135.899Z" fill="#263238"/>
<path d="M241.241 136.023C240.88 136.384 238.885 134.637 235.974 134.485C233.063 134.332 230.846 135.705 230.541 135.316C230.388 135.136 230.762 134.499 231.719 133.847C233.015 133.015 234.544 132.622 236.081 132.724C237.618 132.826 239.082 133.419 240.257 134.416C241.13 135.192 241.407 135.871 241.241 136.023Z" fill="#263238"/>
<path d="M251.693 160.778C251.693 160.556 253.508 160.279 256.474 160.029C257.237 160.029 257.86 159.849 257.93 159.447C257.985 158.683 257.837 157.918 257.5 157.229C256.849 155.247 256.197 153.252 255.504 151.159C252.732 142.524 250.916 135.414 251.346 135.275C251.776 135.136 254.354 142.025 257.084 150.66C257.722 152.766 258.345 154.818 258.941 156.758C259.381 157.767 259.469 158.895 259.191 159.96C259.067 160.248 258.877 160.502 258.636 160.702C258.395 160.902 258.11 161.042 257.805 161.11C257.373 161.207 256.929 161.239 256.488 161.207C253.494 161.152 251.693 161.013 251.693 160.778Z" fill="#263238"/>
<path d="M241.99 163.494C246.445 165.781 251.192 167.446 256.1 168.442C255.024 169.92 253.479 170.99 251.718 171.479C249.956 171.967 248.081 171.844 246.398 171.131C240.147 168.456 241.99 163.494 241.99 163.494Z" fill="white"/>
<path d="M251.429 196.731C241.617 196.381 232.132 193.119 224.18 187.361C224.18 187.361 229.89 202.982 251.165 202.233L251.429 196.731Z" fill="#EB996E"/>
<path d="M274.739 108.899C274.739 108.899 261.918 115.413 244.94 107.347C233.852 102.052 220.865 99.599 218.065 101.886C215.265 104.173 214.891 115.538 204.025 119.073C204.025 119.073 205.203 140.778 196.526 140.168C187.85 139.558 192.618 105.836 192.618 105.836L213.588 95.0807L236.61 90.2712L258.439 92.9185L275.377 97.2013L274.739 108.899Z" fill="#263238"/>
<path d="M198.107 133.196C197.76 133.016 183.761 128.082 183.443 142.621C183.124 157.16 197.774 154.485 197.802 154.069C197.829 153.654 198.107 133.196 198.107 133.196Z" fill="#FFBE9D"/>
<path d="M193.477 148.456C193.477 148.456 193.214 148.637 192.784 148.817C192.175 149.064 191.494 149.064 190.885 148.817C189.361 148.221 188.113 145.754 188.113 143.134C188.112 141.885 188.381 140.651 188.903 139.517C189.053 139.066 189.308 138.659 189.648 138.328C189.989 137.998 190.403 137.754 190.858 137.618C191.151 137.564 191.454 137.607 191.721 137.739C191.988 137.872 192.205 138.087 192.341 138.352C192.521 138.754 192.424 139.045 192.493 139.073C192.562 139.101 192.812 138.837 192.715 138.241C192.639 137.879 192.444 137.552 192.161 137.313C191.768 137.004 191.271 136.86 190.775 136.911C190.174 137.014 189.611 137.27 189.138 137.653C188.664 138.037 188.298 138.535 188.072 139.101C187.432 140.349 187.099 141.732 187.102 143.134C187.102 146.059 188.571 148.844 190.65 149.496C191.039 149.615 191.449 149.646 191.851 149.589C192.253 149.531 192.638 149.386 192.978 149.163C193.477 148.817 193.477 148.484 193.477 148.456Z" fill="#EB996E"/>
<path d="M190.703 87.6932C192.362 87.2067 194.133 87.2705 195.752 87.8752C197.371 88.4799 198.751 89.5928 199.684 91.0473C198.392 90.0686 196.998 89.2321 195.526 88.5525C193.953 88.0992 192.336 87.8112 190.703 87.6932Z" fill="#263238"/>
<path d="M199.448 78.989C199.712 78.989 199.31 82.052 199.809 85.6834C200.24 87.8666 200.924 89.9922 201.846 92.0175C201.846 92.0175 201.236 91.5047 200.626 90.4236C199.844 88.9848 199.327 87.4165 199.102 85.7943C198.698 83.529 198.817 81.2015 199.448 78.989Z" fill="#263238"/>
<path d="M259.177 128.165C259.094 127.999 259.718 127.486 260.896 127.014C264.023 125.805 267.495 125.84 270.598 127.112C271.762 127.61 272.386 128.123 272.303 128.29C272.123 128.678 269.323 127.583 265.733 127.583C262.143 127.583 259.344 128.595 259.177 128.165Z" fill="#263238"/>
<path d="M226.742 125.143C226.659 124.977 227.282 124.478 228.46 123.993C230.011 123.394 231.663 123.097 233.325 123.12C234.995 123.119 236.648 123.449 238.19 124.09C239.354 124.589 239.964 125.102 239.895 125.282C239.826 125.462 236.915 124.575 233.311 124.561C229.708 124.547 226.936 125.531 226.742 125.143Z" fill="#263238"/>
<path d="M256.667 130.493C256.698 130.778 256.698 131.067 256.667 131.352C256.667 131.962 256.667 132.738 256.736 133.694C256.806 134.651 256.736 135.94 256.82 137.326C256.767 138.925 257.002 140.521 257.513 142.038C258.181 144.006 259.338 145.772 260.875 147.17C262.412 148.569 264.278 149.555 266.3 150.036C267.46 150.319 268.657 150.422 269.848 150.341C271.087 150.285 272.309 150.027 273.466 149.578C275.931 148.654 278.032 146.957 279.453 144.741C280.799 142.624 281.475 140.151 281.394 137.645C281.394 135.164 281.394 132.78 281.394 130.493L281.726 130.825L263.708 130.659L258.483 130.562H257.097H256.584C257.178 130.496 257.775 130.468 258.372 130.479L263.514 130.382L281.726 130.216H282.184V130.562C282.184 132.849 282.184 135.233 282.184 137.714C282.277 140.357 281.566 142.967 280.146 145.198C278.639 147.545 276.412 149.34 273.798 150.313C272.57 150.784 271.273 151.051 269.959 151.103C268.706 151.177 267.449 151.06 266.231 150.756C264.11 150.244 262.158 149.194 260.56 147.709C258.963 146.223 257.775 144.352 257.111 142.274C256.613 140.689 256.406 139.026 256.501 137.367C256.501 135.981 256.501 134.692 256.57 133.639C256.639 132.586 256.57 131.934 256.639 131.324C256.626 131.047 256.636 130.769 256.667 130.493Z" fill="#263238"/>
<path d="M222.691 129.772C222.691 129.772 222.691 130.091 222.691 130.632V132.974C222.691 134 222.691 135.219 222.761 136.619C222.724 138.218 222.959 139.811 223.454 141.332C224.092 143.157 225.14 144.811 226.517 146.169C228.107 147.714 230.084 148.801 232.241 149.315C234.626 149.89 237.128 149.73 239.421 148.858C241.879 147.935 243.974 146.243 245.394 144.034C246.745 141.919 247.426 139.446 247.349 136.938C247.349 134.457 247.349 132.059 247.349 129.772L247.681 130.105L229.663 129.939L224.452 129.856H223.066H222.553C223.142 129.79 223.734 129.762 224.327 129.772L229.469 129.689L247.681 129.523H248.014V129.856C248.014 132.142 248.014 134.54 248.014 137.021C248.098 139.665 247.383 142.274 245.963 144.506C244.456 146.844 242.234 148.633 239.629 149.606C238.4 150.077 237.104 150.344 235.789 150.396C234.532 150.47 233.27 150.354 232.047 150.05C229.782 149.492 227.712 148.328 226.059 146.682C224.63 145.245 223.557 143.494 222.927 141.567C222.429 139.982 222.223 138.32 222.317 136.661C222.317 135.275 222.317 133.986 222.4 132.932C222.484 131.879 222.4 131.228 222.4 130.618C222.451 130.322 222.549 130.037 222.691 129.772Z" fill="#263238"/>
<path d="M256.97 131.505C253.8 131.986 250.576 131.986 247.406 131.505C250.575 131.007 253.801 131.007 256.97 131.505Z" fill="#263238"/>
<path d="M196.248 131.685C200.655 131.317 205.078 131.183 209.498 131.283C213.922 131.157 218.35 131.264 222.763 131.602C218.357 131.986 213.933 132.12 209.512 132.004C205.088 132.145 200.66 132.039 196.248 131.685Z" fill="#263238"/>
<path d="M338.828 393.24C341.943 399.021 346.66 403.779 352.413 406.943C358.167 410.108 364.711 411.544 371.261 411.078C378.999 410.537 386.321 407.373 392.018 402.109C397.716 396.845 401.448 389.796 402.599 382.124L410.638 290.107L378.44 282.151L365.287 354.224C365.287 354.224 358.413 384.425 338.828 393.24Z" fill="#FFBE9D"/>
<path d="M378.15 288.817L379.218 272.67C379.218 272.67 383.778 236.44 383.778 232.891C383.778 228.817 385.732 227.819 387.243 227.93C389.585 228.082 391.248 230.979 391.401 234.485C391.401 235.691 391.29 254.846 391.29 254.846C392.397 253.036 393.634 251.308 394.99 249.676C397.763 246.086 404.471 244.035 411.304 244.257C418.137 244.479 420.008 245.144 420.05 247.791C420.025 248.297 419.888 248.791 419.649 249.237C419.409 249.683 419.072 250.07 418.664 250.369C417.403 251.42 415.8 251.973 414.159 251.921C403.223 251.727 400.299 257.562 400.299 257.562L400.16 259.683C400.16 259.683 406.799 254.929 412.094 256.911C412.876 257.201 413.592 257.643 414.201 258.214C415.691 258.22 417.155 258.615 418.445 259.361C419.736 260.107 420.81 261.178 421.559 262.467C422.308 263.755 422.708 265.218 422.718 266.708C422.728 268.199 422.348 269.667 421.616 270.965C421.331 271.632 420.849 272.195 420.234 272.579C419.62 272.963 418.902 273.149 418.178 273.114C417.445 272.894 416.782 272.488 416.252 271.935C415.942 271.672 415.613 271.431 415.268 271.215L414.048 277.078C414.048 277.078 410.597 290.106 409.738 295.955" fill="#FFBE9D"/>
<path d="M381.295 287.556C383.291 288.111 385.356 286.642 386.438 284.867C387.519 283.093 387.976 281 388.919 279.143C391.774 273.599 398.621 270.966 401.24 265.283C401.601 264.493 401.795 263.412 401.102 262.885C400.409 262.359 399.549 262.788 398.842 263.176L380.824 273.156" fill="#FFBE9D"/>
<path d="M380.807 273.128C381.368 272.63 381.987 272.202 382.65 271.853C383.87 271.091 385.658 270.037 387.875 268.748L395.706 264.271L397.966 262.996C398.807 262.33 399.879 262.026 400.945 262.151C401.275 262.257 401.564 262.461 401.774 262.736C401.985 263.011 402.107 263.343 402.124 263.689C402.16 264.259 402.06 264.829 401.832 265.352C401.416 266.277 400.895 267.151 400.28 267.958C397.785 271.201 394.556 273.239 392.227 275.609C391.095 276.682 390.132 277.92 389.372 279.282C388.693 280.557 388.263 281.888 387.737 283.093C387.413 284.1 386.873 285.023 386.155 285.799C385.437 286.575 384.557 287.184 383.579 287.584C382.096 288.028 381.264 287.584 381.319 287.501C382.038 287.523 382.753 287.405 383.426 287.154C384.293 286.712 385.059 286.094 385.674 285.34C386.29 284.586 386.742 283.712 387.002 282.775C387.446 281.432 387.959 280.114 388.541 278.824C389.305 277.349 390.302 276.006 391.493 274.847C393.877 272.352 397.037 270.259 399.365 267.251C399.914 266.525 400.379 265.739 400.751 264.909C401.098 264.119 401.042 263.329 400.599 263.246C400.155 263.163 399.282 263.537 398.52 263.966L396.219 265.214L388.277 269.538C386.004 270.744 384.119 271.687 382.872 272.31C382.225 272.679 381.53 272.954 380.807 273.128Z" fill="#EB996E"/>
<path d="M399.912 259.836C400.034 258.525 400.466 257.261 401.173 256.149C401.994 255.009 403.16 254.163 404.499 253.738C406.177 253.186 407.931 252.906 409.697 252.906C411.51 252.924 413.32 252.766 415.102 252.435C416.596 252.13 417.982 251.437 419.122 250.425C419.501 250.075 419.795 249.644 419.982 249.164C420.169 248.683 420.245 248.167 420.203 247.653C420.183 247.275 420.058 246.911 419.843 246.6C419.773 246.6 419.843 247.002 419.912 247.667C419.905 248.131 419.798 248.589 419.597 249.008C419.396 249.427 419.106 249.797 418.748 250.092C417.64 250.964 416.336 251.554 414.95 251.811C413.205 252.098 411.438 252.228 409.669 252.199C407.838 252.179 406.015 252.465 404.278 253.045C402.824 253.551 401.581 254.526 400.743 255.817C400.201 256.685 399.886 257.677 399.829 258.7C399.75 259.079 399.779 259.472 399.912 259.836Z" fill="#EB996E"/>
<path d="M391.305 233.127C391.187 234.395 391.187 235.671 391.305 236.939C391.305 239.545 391.305 242.663 391.402 246.1C391.499 249.538 391.402 252.656 391.402 255.262C391.319 256.532 391.347 257.808 391.485 259.074C391.788 257.83 391.942 256.555 391.943 255.276C392.109 252.933 392.22 249.732 392.206 246.1C392.192 242.469 392.054 239.253 391.887 236.911C391.829 235.633 391.634 234.364 391.305 233.127Z" fill="#EB996E"/>
<path d="M404.232 264.091C404.619 263.998 404.992 263.853 405.341 263.661C405.792 263.43 406.288 263.298 406.795 263.274C407.302 263.25 407.808 263.335 408.279 263.522C408.569 263.68 408.813 263.909 408.987 264.188C409.162 264.468 409.262 264.787 409.277 265.116C409.321 265.943 409.261 266.772 409.097 267.583C408.867 268.603 409.031 269.672 409.554 270.577C409.885 271.042 410.321 271.423 410.827 271.688C411.333 271.952 411.894 272.094 412.465 272.102C413.026 272.098 413.58 271.981 414.095 271.757C414.609 271.533 415.073 271.207 415.459 270.799C416.181 270.074 416.665 269.146 416.845 268.138C417.062 266.508 417.039 264.855 416.775 263.231C416.632 262.134 416.299 261.069 415.791 260.085C415.403 259.392 415.043 259.129 415.015 259.157C414.987 259.184 415.237 259.531 415.528 260.21C415.908 261.206 416.146 262.252 416.235 263.315C416.417 264.877 416.394 266.457 416.165 268.013C415.989 268.895 415.532 269.695 414.862 270.295C414.192 270.895 413.346 271.261 412.451 271.34C412 271.337 411.556 271.229 411.154 271.024C410.752 270.82 410.404 270.524 410.136 270.161C409.717 269.401 409.585 268.516 409.762 267.667C409.917 266.793 409.954 265.903 409.873 265.019C409.833 264.597 409.684 264.193 409.441 263.846C409.198 263.498 408.869 263.22 408.487 263.037C407.948 262.832 407.368 262.758 406.794 262.82C406.221 262.883 405.67 263.081 405.188 263.398C404.537 263.786 404.149 263.994 404.232 264.091Z" fill="#EB996E"/>
<path d="M415.141 270.217C415.044 270.579 415.084 270.964 415.252 271.298C415.447 271.774 415.748 272.199 416.133 272.54C416.517 272.881 416.974 273.129 417.47 273.267C418.216 273.427 418.992 273.391 419.72 273.163C420.449 272.935 421.106 272.521 421.628 271.964C422.877 270.591 423.548 268.788 423.499 266.933C423.499 265.099 422.927 263.311 421.863 261.818C420.995 260.6 419.812 259.642 418.44 259.046C417.54 258.64 416.571 258.41 415.585 258.367C414.892 258.367 414.518 258.367 414.518 258.478C415.797 258.643 417.044 258.998 418.218 259.531C419.449 260.142 420.507 261.053 421.295 262.178C422.216 263.576 422.699 265.217 422.681 266.891C422.727 268.553 422.154 270.173 421.073 271.437C420.634 271.935 420.075 272.312 419.449 272.532C418.823 272.753 418.152 272.81 417.498 272.698C417.061 272.601 416.651 272.41 416.295 272.14C415.938 271.87 415.644 271.526 415.432 271.132C415.238 270.605 415.238 270.217 415.141 270.217Z" fill="#EB996E"/>
<path d="M401.973 283.024C401.378 282.836 400.739 282.836 400.144 283.024C398.584 283.365 397.18 284.213 396.152 285.436L396.79 285.63C396.705 284.772 396.567 283.92 396.374 283.08C395.822 280.1 394.455 277.331 392.424 275.082C393.781 277.682 394.859 280.419 395.639 283.246C395.833 284.105 395.972 284.937 396.069 285.713L396.18 286.572L396.72 285.893C397.64 284.76 398.867 283.918 400.255 283.468C401.294 283.149 401.973 283.121 401.973 283.024Z" fill="#EB996E"/>
<path d="M402.322 250.439C402.141 250.522 402.876 251.825 404.567 252.615C406.258 253.405 407.755 252.947 407.685 252.753C407.616 252.559 406.299 252.573 404.913 251.922C403.527 251.27 402.502 250.3 402.322 250.439Z" fill="#EB996E"/>
<path d="M372.602 299.268L413.06 302.165C413.06 302.165 406.837 373.752 405.631 384.854C404.425 395.956 397.315 412.699 372.602 412.699C347.89 412.699 343.288 404.286 332.297 386.961C345.256 377.98 365.838 351.16 365.838 351.16L372.602 299.268Z" fill="#072ACB"/>
<path d="M391.679 308.901C391.471 309.504 391.221 310.093 390.93 310.661L388.671 315.429L380.688 331.909L380.286 331.424L390.778 328.305L401.436 325.173L402.212 324.951L401.838 325.658L393.522 341.805L391.069 346.448C390.797 347.015 390.477 347.558 390.112 348.07C390.325 347.477 390.575 346.898 390.861 346.337C391.443 345.145 392.247 343.565 393.134 341.611L401.187 325.353L401.589 325.838L390.944 328.998L380.438 332.075L379.676 332.297L380.036 331.59L388.311 315.277C389.322 313.35 390.14 311.77 390.75 310.592C391.012 310.003 391.322 309.437 391.679 308.901Z" fill="#E0E0E0"/>
<path d="M387.85 377.759C387.229 377.892 386.599 377.975 385.965 378.008L380.698 378.465L362.486 379.851L362.708 379.255L370.691 386.74L378.772 394.363L379.354 394.917H378.55L360.435 395.915L355.196 396.137C354.568 396.191 353.938 396.191 353.311 396.137C353.928 396.015 354.553 395.941 355.182 395.915L360.407 395.486L378.508 394.238L378.3 394.834L370.192 387.225L362.236 379.713L361.654 379.172H362.444L380.67 378.077L385.951 377.814C386.582 377.747 387.217 377.729 387.85 377.759Z" fill="#E0E0E0"/>
<path d="M459.882 122.024L418.62 107.207L377.816 121.83C372.605 124.283 368.031 125.766 368.031 130.617V154.817C367.934 171.814 372.575 188.502 381.434 203.008C390.284 217.648 403.4 229.231 419.022 236.204C435.654 230.784 448.129 216.314 455.821 203.951C464.703 189.451 469.369 172.763 469.293 155.759V133.999C469.293 127.069 465.606 123.687 459.882 122.024Z" fill="#072ACB"/>
<g opacity="0.3">
<path d="M419.022 222.121C406.643 216.538 396.268 207.3 389.292 195.648C382.27 184.184 378.579 170.991 378.634 157.547V140.637C378.634 136.784 380.962 133.181 385.564 131.032L418.634 118.669V107.262L377.816 121.829C373.533 123.7 368.031 125.766 368.031 130.617V154.816C367.934 171.814 372.575 188.501 381.434 203.008C390.284 217.648 403.4 229.231 419.022 236.203V222.121Z" fill="black"/>
</g>
<g opacity="0.4">
<path d="M419.023 236.162C421.823 235.248 424.536 234.088 427.131 232.697C433.514 229.086 439.318 224.535 444.346 219.197C448.892 214.299 452.894 208.922 456.279 203.161C465.266 188.554 469.79 171.64 469.294 154.498V134.525C469.294 124.574 464.166 123.839 459.869 121.968L418.607 107.152V118.559L452.066 131.13C456.667 133.278 458.996 136.882 458.996 140.721V157.7C459.051 171.139 455.36 184.328 448.337 195.787C441.512 207.385 431.262 216.585 418.996 222.122L419.023 236.162Z" fill="black"/>
</g>
<path opacity="0.5" d="M429.571 156.466V153.195C429.571 150.353 428.442 147.628 426.433 145.619C424.424 143.61 421.699 142.481 418.857 142.481C416.016 142.481 413.291 143.61 411.282 145.619C409.272 147.628 408.143 150.353 408.143 153.195V156.521C406.726 156.734 405.431 157.448 404.495 158.534C403.559 159.62 403.044 161.006 403.043 162.44V181.705C403.043 183.293 403.674 184.816 404.797 185.939C405.92 187.062 407.443 187.693 409.031 187.693H429.1C430.688 187.693 432.211 187.062 433.334 185.939C434.457 184.816 435.088 183.293 435.088 181.705V162.44C435.089 160.932 434.521 159.48 433.499 158.373C432.476 157.265 431.074 156.584 429.571 156.466ZM421.768 176.896H416.529L417.347 173.112C416.773 172.738 416.336 172.19 416.1 171.548C415.864 170.906 415.842 170.205 416.037 169.549C416.231 168.893 416.633 168.318 417.181 167.909C417.729 167.5 418.395 167.278 419.079 167.278C419.763 167.278 420.429 167.5 420.977 167.909C421.526 168.318 421.927 168.893 422.122 169.549C422.317 170.205 422.294 170.906 422.058 171.548C421.822 172.19 421.385 172.738 420.812 173.112C421.172 174.526 421.768 176.896 421.768 176.896ZM427.312 156.438H410.458V153.195C410.546 151.024 411.47 148.972 413.037 147.468C414.604 145.963 416.692 145.123 418.864 145.123C421.036 145.123 423.125 145.963 424.691 147.468C426.258 148.972 427.182 151.024 427.27 153.195L427.312 156.438Z" fill="white"/>
<path d="M385.329 156.231C384.968 155.146 384.758 154.018 384.705 152.876C384.397 150.148 384.285 147.402 384.372 144.657C384.372 143.05 384.525 141.525 384.663 140.139C384.732 138.875 385.048 137.637 385.592 136.494C385.982 135.711 386.614 135.074 387.394 134.678C387.962 134.415 388.309 134.429 388.309 134.47C387.313 134.927 386.512 135.723 386.049 136.716C385.606 137.824 385.362 139.001 385.329 140.194C385.218 141.58 385.135 143.091 385.093 144.685C384.996 147.859 385.093 150.742 385.218 152.835C385.343 153.962 385.38 155.098 385.329 156.231Z" fill="white"/>
<path d="M385.927 166.75C385.733 166.75 385.552 165.766 385.525 164.533C385.497 163.299 385.65 162.301 385.844 162.301C386.038 162.301 386.218 163.285 386.245 164.519C386.273 165.752 386.135 166.75 385.927 166.75Z" fill="white"/>
<path d="M344.996 293.419L298.994 407.183H216.041V412.325H463.126L513.674 293.419H344.996Z" fill="#263238"/>
<path d="M415.322 360.585C413.659 366.309 408.808 369.926 404.483 368.679C400.159 367.431 398.011 361.749 399.674 356.025C401.337 350.3 406.202 346.683 410.526 347.93C414.851 349.178 416.999 354.86 415.322 360.585Z" fill="#FAFAFA"/>
</svg>
