<svg width="300" height="300" viewBox="0 0 300 300" fill="none" xmlns="http://www.w3.org/2000/svg">
<path d="M150 0C189.782 0 227.936 15.8035 256.066 43.934C284.196 72.0644 300 110.218 300 150C300 189.782 284.196 227.936 256.066 256.066C227.936 284.196 189.782 300 150 300C110.218 300 72.0644 284.196 43.934 256.066C15.8035 227.936 0 189.782 0 150C0 110.218 15.8035 72.0644 43.934 43.934C72.0644 15.8035 110.218 0 150 0ZM131.314 179.593L97.9929 146.25C96.7983 145.055 95.3801 144.108 93.8194 143.461C92.2586 142.815 90.5858 142.482 88.8964 142.482C87.2071 142.482 85.5342 142.815 83.9735 143.461C82.4127 144.108 80.9946 145.055 79.8 146.25C77.3875 148.663 76.0321 151.935 76.0321 155.346C76.0321 158.758 77.3875 162.03 79.8 164.443L122.229 206.871C123.42 208.072 124.837 209.025 126.398 209.675C127.959 210.326 129.634 210.66 131.325 210.66C133.016 210.66 134.691 210.326 136.252 209.675C137.813 209.025 139.23 208.072 140.421 206.871L228.279 118.993C229.489 117.803 230.452 116.386 231.112 114.822C231.772 113.258 232.116 111.58 232.124 109.882C232.132 108.185 231.803 106.503 231.158 104.934C230.513 103.364 229.563 101.937 228.363 100.737C227.164 99.5358 225.739 98.5843 224.17 97.9371C222.601 97.2899 220.919 96.9597 219.222 96.9656C217.525 96.9715 215.846 97.3133 214.281 97.9714C212.717 98.6295 211.298 99.5909 210.107 100.8L131.314 179.593Z" fill="#072AC8"/>
</svg>
