<svg width="379" height="390" viewBox="0 0 500 334" fill="none" xmlns="http://www.w3.org/2000/svg">
<path d="M43.6283 120.476H16.5122V129.13H43.6283V120.476Z" fill="#EBEBEB"/>
<path d="M28.5005 140.043L15.0121 140.267L8.20598 140.36L1.36122 140.399H1.01318V140.043V131.388V131.002H1.39989L14.9579 131.056L21.7408 131.118L28.516 131.203H28.7016V131.381L28.5005 140.043ZM28.5005 140.043L28.3149 131.388L28.5005 131.574L21.7253 131.659L14.9425 131.721L1.38442 131.775L1.77113 131.388V140.043L1.41536 139.687L8.13637 139.726L14.8806 139.819L28.5005 140.043Z" fill="#EBEBEB"/>
<path d="M450.64 108.163L464.105 107.938L470.919 107.846H477.756H478.104V108.194V116.848V117.243H477.718L464.159 117.196L457.384 117.127L450.601 117.042H450.447V116.856L450.64 108.163ZM450.64 108.163L450.826 116.817L450.64 116.639L457.408 116.523L464.183 116.454L477.741 116.4L477.354 116.786V108.132L477.71 108.487H470.989L464.245 108.395L450.64 108.163Z" fill="#EBEBEB"/>
<path d="M465.769 97.2497L479.234 97.0254L486.04 96.9326H492.885H493.233V97.2807V105.935V106.33H492.846L479.288 106.283L472.505 106.214L465.73 106.129H465.544V105.943L465.769 97.2497ZM465.769 97.2497L465.954 105.904L465.769 105.726L472.544 105.641L479.327 105.572L492.885 105.518L492.498 105.904V97.2497L492.854 97.6055H486.133L479.389 97.5127L465.769 97.2497Z" fill="#EBEBEB"/>
<path d="M58.749 140.043L45.2837 140.267L38.4776 140.36L31.6406 140.399H31.2539V140.043V131.388V131.002H31.6484L45.1987 131.056L51.9815 131.118L58.7567 131.203H58.9423V131.381L58.749 140.043ZM58.749 140.043L58.5633 131.388L58.749 131.574L51.9738 131.659L45.1909 131.721L31.6406 131.775L32.0196 131.388V140.043L31.6406 139.726L38.3539 139.765L45.0981 139.857L58.749 140.043Z" fill="#EBEBEB"/>
<path d="M217.076 108.48H244.192V99.8252H217.076V108.48Z" fill="#EBEBEB"/>
<path d="M232.204 88.9123L245.669 88.688L252.483 88.5952H259.32H259.676V88.9509V97.6055V97.9922H259.289L245.731 97.9381L238.956 97.8762L232.173 97.7911H231.987V97.6132L232.204 88.9123ZM232.204 88.9123L232.389 97.5668L232.204 97.3812L238.987 97.2961L245.762 97.2342L259.32 97.1801L258.933 97.5668L258.972 88.9123L259.32 89.268H252.607L245.855 89.1752L232.204 88.9123Z" fill="#EBEBEB"/>
<path d="M201.955 88.9123L215.42 88.688L222.234 88.5952H229.071H229.419V88.9509V97.6055V97.9922H229.033L215.475 97.9381L208.699 97.8762L201.917 97.7911H201.731V97.6132L201.955 88.9123ZM201.955 88.9123L202.141 97.5668L201.955 97.3812L208.738 97.2961L215.513 97.2342L229.071 97.1801L228.685 97.5668V88.9123L229.04 89.268H222.319L215.575 89.1752L201.955 88.9123Z" fill="#EBEBEB"/>
<path d="M382.208 14.7259L368.743 14.9502L361.937 15.043H355.092H354.744V14.695L354.706 6.0404V5.64595H355.092L368.65 5.69236L375.433 5.76196L382.208 5.84704H382.386V6.03266L382.208 14.7259ZM382.208 14.7259L382.023 6.07133L382.208 6.24922L375.433 6.33429L368.65 6.4039L355.092 6.45804L355.479 6.07133V14.7259L355.123 14.3701H361.844L368.588 14.4629L382.208 14.7259Z" fill="#EBEBEB"/>
<path d="M397.337 16.9843H370.221V25.6389H397.337V16.9843Z" fill="#EBEBEB"/>
<path d="M28.5005 14.7336L15.0121 14.9579L8.20598 15.0507H1.36122H1.01318V14.6949V6.04038V5.65367H1.39989L14.9579 5.70781L21.7408 5.76968L28.516 5.85476H28.7016V6.04038L28.5005 14.7336ZM28.5005 14.7336L28.3149 6.07905L28.5005 6.26467L21.7253 6.34201L14.9425 6.41162L1.38442 6.46576L1.77113 6.07905V14.7336L1.41536 14.3778H8.13637L14.8806 14.4706L28.5005 14.7336Z" fill="#EBEBEB"/>
<path d="M263.032 212.28L276.498 212.048L283.311 211.955H290.148H290.496V212.311L290.535 220.966V221.353H290.148L276.59 221.298L269.815 221.229L263.032 221.144H262.847V220.935L263.032 212.28ZM263.032 212.28L263.218 220.935L263.032 220.749L269.815 220.664L276.59 220.602L290.148 220.548L289.762 220.935V212.28L290.117 212.628H283.396L276.652 212.536L263.032 212.28Z" fill="#EBEBEB"/>
<path d="M65.8102 287.619H92.9263V278.965H65.8102V287.619Z" fill="#EBEBEB"/>
<path d="M471.762 287.619H498.878V278.965H471.762V287.619Z" fill="#EBEBEB"/>
<path d="M397.329 250.797H424.445V242.142H397.329V250.797Z" fill="#EBEBEB"/>
<path d="M412.457 231.229L425.922 231.005L432.736 230.912H439.573H439.921V231.268L439.96 239.922V240.309H439.573L426.015 240.255L419.24 240.193L412.457 240.108H412.271V239.922L412.457 231.229ZM412.457 231.229L412.643 239.884L412.457 239.698L419.24 239.613L426.015 239.551L439.573 239.497L439.186 239.884V231.229L439.542 231.585H432.821L426.077 231.492L412.457 231.229Z" fill="#EBEBEB"/>
<path d="M376.462 170.663C376.462 170.663 369.841 173.076 367.652 174.104C365.464 175.133 359.81 180.292 359.044 183.617C358.278 186.943 354.156 193.138 352.083 193.912C350.011 194.685 347.443 196.301 343.081 197.291C338.719 198.281 328.007 198.792 324.998 200.594C321.99 202.396 320.01 202.558 318.161 206.255C316.313 209.952 318.076 227.656 314.116 231.229C310.156 234.802 308.934 231.461 306.846 237.115C304.758 242.769 274.95 261.091 274.293 263.117C273.635 265.144 276.567 273.837 276.567 273.837L277.34 289.491L283.775 296.73H376.462V170.663Z" fill="#EBEBEB"/>
<path d="M362.51 182.852C360.653 180.756 358.805 178.644 356.995 176.51C355.185 174.375 353.352 172.24 351.581 170.083L351.805 170.206L346.562 169.595C344.814 169.394 343.066 169.155 341.326 168.93L336.09 168.257L330.861 167.523H330.645V167.321C330.645 166.076 330.645 164.831 330.73 163.594V163.663C330.041 162.31 329.353 160.964 328.68 159.603C329.454 160.902 330.227 162.209 331 163.516V163.563C331.047 164.8 331.062 166.045 331.086 167.291L330.877 167.051L336.128 167.608L341.372 168.219C343.12 168.427 344.868 168.613 346.616 168.837L351.852 169.518H351.991L352.076 169.626C353.855 171.792 355.595 173.988 357.328 176.185C359.06 178.381 360.816 180.617 362.51 182.852Z" fill="#EBEBEB"/>
<path d="M348.611 169.464C346.546 166.826 344.566 164.127 342.578 161.428L342.509 161.327V161.204L343.158 155.991C343.375 154.251 343.584 152.51 343.839 150.778L344.574 145.573L345.347 140.383V140.538C344.813 139.718 344.303 138.891 343.8 138.063C343.298 137.235 342.764 136.408 342.253 135.573C342.849 136.346 343.421 137.119 344.001 137.893C344.581 138.666 345.154 139.44 345.718 140.26L345.765 140.321V140.406L345.177 145.635L344.527 150.848C344.318 152.588 344.071 154.32 343.823 156.053L343.05 161.258L342.996 161.034C344.96 163.841 346.809 166.625 348.611 169.464Z" fill="#EBEBEB"/>
<path d="M274.309 263.117C271.117 260.735 267.936 258.327 264.765 255.893C261.601 253.465 258.438 251.036 255.306 248.569L255.252 248.53V248.469C253.333 245.189 251.384 241.925 249.505 238.631L243.82 228.754L243.735 228.607L243.805 228.46L247.865 219.388L249.946 214.864L252.05 210.347L250.162 214.987L248.26 219.589L244.393 228.77V228.468L250.132 238.252C252.057 241.531 253.929 244.834 255.832 248.121L255.747 248.02C258.84 250.495 261.973 253.009 265.066 255.522C268.16 258.036 271.246 260.565 274.309 263.117Z" fill="#EBEBEB"/>
<path d="M250.131 239.017C250.239 238.383 250.394 237.765 250.518 237.13C250.641 236.496 250.819 235.893 250.989 235.274C251.314 234.044 251.678 232.822 252.064 231.608V231.716C252.054 229.39 252.183 227.066 252.451 224.756C252.713 227.067 252.839 229.391 252.83 231.716V231.763V231.817C252.451 233.039 252.057 234.245 251.608 235.444C251.392 236.048 251.16 236.643 250.927 237.239C250.695 237.834 250.409 238.437 250.131 239.017Z" fill="#EBEBEB"/>
<path d="M373.592 175.203H373.329L365.866 175.265L365.394 175.636L373.066 175.705H376.462V175.187L373.592 175.203Z" fill="#DBDBDB"/>
<path d="M373.623 183.973H373.469V184.105L373.329 183.973H373.469L373.337 175.744L373.206 183.811V184.236H373.639H376.477V183.919L373.623 183.973ZM373.623 175.466L376.485 175.504V175.427L373.623 175.466Z" fill="#DBDBDB"/>
<path d="M373.6 175.705V175.187H373.337C370.87 175.187 368.403 175.187 365.936 175.187L365.874 175.226L365.402 175.597L365.355 175.636C367.934 175.636 370.512 175.636 373.09 175.636V175.373L373.345 175.628H373.105V183.733H373.391L373.105 184.02V183.811L360.104 183.849H359.044C359.044 184.004 358.952 184.167 358.897 184.337H360.104L373.391 184.375H373.685V183.911L373.6 175.705Z" fill="#DBDBDB"/>
<path d="M373.593 192.512H373.33L360.065 192.628H359.911V192.759L359.779 192.628H359.911L359.787 184.399L359.663 192.504V192.929H360.096L373.098 193.045H376.493V192.527L373.593 192.512ZM373.593 183.935H373.012L360.011 184.105L373.368 184.275H373.593H376.431V183.873L373.593 183.935ZM359.756 184.36L359.632 192.465V192.581H359.903L359.756 184.36Z" fill="#DBDBDB"/>
<path d="M373.623 201.282H373.469V201.414L373.329 201.282H373.469L373.337 193.053L373.221 201.159V201.584H373.654H376.493V201.267L373.623 201.282ZM373.623 192.775L376.485 192.813V192.736L373.623 192.775Z" fill="#DBDBDB"/>
<path d="M373.6 193.014V192.496H373.337C368.913 192.496 364.474 192.496 360.073 192.589H359.493L353.739 192.666C353.677 192.728 353.615 192.798 353.553 192.852L359.856 192.929H360.073C364.42 192.984 368.751 193.022 373.074 193.022V192.759L373.329 193.014H373.105V201.12H373.391L373.105 201.406V201.12L360.104 201.159H359.841L346.569 201.275H346.414V201.406L346.283 201.275H346.414L346.337 196.402L346.221 196.441L346.151 201.159V201.584H346.577L359.578 201.7H360.112L373.399 201.739H373.693V201.275L373.6 193.014Z" fill="#DBDBDB"/>
<path d="M373.593 209.821H373.33L360.065 209.929H359.911V210.107L359.779 209.968H359.911L359.787 201.739L359.663 209.844V210.269H360.096L373.098 210.385H376.493V209.867L373.593 209.821ZM373.593 201.244H373.012L360.011 201.414L373.368 201.584H373.593H376.431V201.182L373.593 201.244ZM359.756 201.669L359.632 209.774V209.891H359.903L359.756 201.669ZM373.593 201.553H373.159V201.244H373.005L360.004 201.414L373.361 201.584H373.585H376.423L373.593 201.553Z" fill="#DBDBDB"/>
<path d="M373.623 218.615H373.469V218.754L373.329 218.615H373.469L373.337 210.385L373.221 218.491V218.916H373.654H376.493V218.591L373.623 218.615ZM373.623 210.107L376.485 210.146V210.068L373.623 210.107Z" fill="#DBDBDB"/>
<path d="M373.6 210.324V209.805H373.337C368.913 209.805 364.474 209.844 360.073 209.898H359.493L346.492 210.068L359.856 210.239H360.073C364.42 210.293 368.751 210.331 373.074 210.331V210.107L373.329 210.362H373.105V218.468H373.391L373.275 218.584L373.105 218.754V218.468L360.104 218.506H359.841L346.569 218.615H346.414V218.754L346.283 218.615H346.414L346.291 210.385L346.167 218.491V218.916H346.592L359.594 219.032H360.127H373.415H373.708V218.568L373.6 210.324Z" fill="#DBDBDB"/>
<path d="M373.592 227.122H373.329L360.065 227.231H359.91V227.37L359.779 227.231H359.91L359.787 219.001L359.647 227.122V227.548H360.081L373.082 227.664H376.477V227.122H373.592ZM373.592 218.545H373.012L360.011 218.715L373.368 218.885H373.592H376.431V218.483L373.592 218.545ZM359.756 218.97L359.647 227.122V227.238H359.918L359.756 218.97ZM373.592 218.854H373.159V218.545H373.004L360.003 218.715L373.36 218.885H373.584H376.423L373.592 218.854Z" fill="#DBDBDB"/>
<path d="M373.623 235.893H373.469V236.032L373.329 235.893H373.469L373.337 227.664L373.221 235.769V236.194H373.654H376.493V235.87L373.623 235.893ZM373.623 227.385L376.485 227.424V227.347L373.623 227.385Z" fill="#DBDBDB"/>
<path d="M373.6 227.633V227.122H373.337C368.913 227.122 364.474 227.161 360.073 227.215H359.493L346.492 227.385L359.857 227.555H360.073C364.42 227.609 368.751 227.648 373.074 227.648V227.385L373.33 227.64H373.105V235.746H373.391L373.275 235.862L373.121 236.017V235.73L360.12 235.769H359.857L346.585 235.877H346.43V236.017L346.299 235.877H346.43L346.306 227.648L346.183 235.754V236.179H346.608L359.609 236.295H360.143H373.43H373.724V235.831L373.6 227.633Z" fill="#DBDBDB"/>
<path d="M373.593 244.439H373.33L360.065 244.547H359.911V244.687L359.779 244.547H359.911L359.787 236.318L359.663 244.424V244.849H360.096L373.105 244.911H376.501V244.393L373.593 244.439ZM373.593 235.862H373.012L360.011 236.032L373.368 236.202H373.593H376.431V235.8L373.593 235.862ZM359.756 236.287L359.632 244.393V244.509H359.903L359.756 236.287ZM373.593 236.171H373.159V235.862H373.005L360.004 236.032L373.361 236.202H373.585H376.423L373.593 236.171Z" fill="#DBDBDB"/>
<path d="M373.623 253.202H373.469V253.341L373.329 253.202H373.469L373.337 244.911L373.221 253.016V253.442H373.654H376.493V253.117L373.623 253.202ZM373.623 244.694L376.485 244.733V244.656L373.623 244.694Z" fill="#DBDBDB"/>
<path d="M373.6 244.911V244.393H373.337C368.913 244.393 364.474 244.431 360.073 244.486H359.493L346.492 244.656L359.856 244.826H360.073C364.42 244.88 368.751 244.919 373.074 244.919V244.656L373.329 244.911H373.105V253.016H373.391L373.275 253.132L373.121 253.287V253.001L360.119 253.04H359.856L346.584 253.148H346.43V253.287L346.298 253.148H346.43L346.229 244.911L346.105 253.016V253.442H346.53L359.532 253.558H360.065H373.353H373.646V253.094L373.6 244.911Z" fill="#DBDBDB"/>
<path d="M373.593 261.748H373.33L360.065 261.857H359.911V261.996L359.779 261.857H359.911L359.787 253.627L359.663 261.733V262.158H360.096L373.098 262.266H376.493V261.756L373.593 261.748ZM373.593 253.171H373.012L360.011 253.341L373.368 253.511H373.593H376.431V253.109L373.593 253.171ZM359.756 253.596L359.632 261.702V261.818H359.903L359.756 253.596ZM373.593 253.48H373.159V253.171H373.005L360.004 253.341L373.361 253.511H373.585H376.423V253.473L373.593 253.48Z" fill="#DBDBDB"/>
<path d="M373.623 270.511H373.469V270.65L373.329 270.511H373.469L373.337 262.274L373.221 270.38V270.805H373.654H376.493V270.48L373.623 270.511ZM373.623 262.003L376.485 262.042V261.926L373.623 262.003Z" fill="#DBDBDB"/>
<path d="M373.6 262.243V261.733H373.337C368.913 261.733 364.473 261.771 360.073 261.826H359.493L346.491 261.996L359.856 262.166H360.073C364.419 262.22 368.75 262.259 373.074 262.259V261.996L373.329 262.251H373.105V270.356H373.391L373.275 270.472L373.12 270.627V270.341H360.119H359.856L346.584 270.449H346.43V270.588L346.298 270.449H346.43L346.298 262.212L346.174 270.318V270.743H346.6L359.601 270.851H360.135L373.422 270.898H373.716V270.434L373.6 262.243Z" fill="#DBDBDB"/>
<path d="M373.592 279.057H373.329L360.065 279.166H359.91V279.305L359.779 279.166H359.91L359.779 270.929L359.655 279.034V279.46H360.088L373.089 279.568H376.485V279.057H373.592ZM373.592 270.48H373.012L360.011 270.65L373.368 270.82H373.592H376.43V270.434L373.592 270.48ZM359.748 270.898L359.624 279.003V279.119H359.895L359.748 270.898ZM373.592 270.789H373.159V270.48H373.004L360.003 270.65L373.36 270.82H373.584H376.423V270.782L373.592 270.789Z" fill="#DBDBDB"/>
<path d="M373.623 287.82H373.469V287.959L373.329 287.82H373.469L373.337 279.583L373.221 287.689V288.114H373.654H376.493V287.789L373.623 287.82ZM373.623 279.313H376.485V279.235L373.623 279.313Z" fill="#DBDBDB"/>
<path d="M373.6 279.552V279.042H373.337C368.913 279.042 364.473 279.08 360.073 279.135H359.493L346.491 279.305L359.856 279.475H360.073C364.419 279.529 368.75 279.568 373.074 279.568V279.305L373.329 279.56H373.105V287.665H373.391L373.275 287.781L373.12 287.936V287.65H360.119H359.856L346.584 287.758H346.43V287.897L346.298 287.758H346.43L346.298 279.521L346.174 287.627V288.052H346.6L359.601 288.16H360.135L373.422 288.207H373.716V287.743L373.6 279.552Z" fill="#DBDBDB"/>
<path d="M373.592 296.366H373.329L360.065 296.475H359.91V296.614L359.779 296.475H359.91L359.779 288.222L359.655 296.328V296.73H360.088L373.089 296.838H373.623V296.73H376.485V296.366H373.592ZM373.592 287.789H373.012L360.011 287.959L373.368 288.13H373.592H376.43V287.727L373.592 287.789ZM359.748 288.207L359.624 296.312V296.428H359.895L359.748 288.207ZM373.592 288.099H373.159V287.789H373.004L360.003 287.959L373.36 288.13H373.584H376.423V288.091L373.592 288.099Z" fill="#DBDBDB"/>
<path d="M373.6 296.622H376.461V296.544L373.6 296.622Z" fill="#DBDBDB"/>
<path d="M373.592 296.366H373.329C368.905 296.366 364.465 296.405 360.065 296.459H359.485L346.483 296.629L354.89 296.738L359.848 296.8H360.065C364.411 296.854 368.742 296.892 373.066 296.892V296.629L373.321 296.885H373.599V296.39L373.592 296.366ZM373.592 296.366H373.329L360.065 296.475H359.91H359.485L346.483 296.645L354.89 296.753L359.848 296.815H360.065C364.411 296.869 368.742 296.908 373.066 296.908V296.645L373.174 296.753H373.329V296.645H373.599L373.592 296.366Z" fill="#DBDBDB"/>
<path d="M360.042 184.36V183.811H358.983C358.983 183.965 358.89 184.128 358.836 184.298H359.516V184.035L359.771 184.29H359.516V192.396H359.802L359.686 192.512L359.532 192.666V192.38H353.948C353.895 192.443 353.838 192.503 353.777 192.558C353.716 192.62 353.654 192.69 353.592 192.744C353.531 192.81 353.467 192.872 353.398 192.929H359.818H360.112V192.465L360.042 184.36Z" fill="#DBDBDB"/>
<path d="M346.492 196.301L346.275 196.371L346.159 196.41L345.943 196.487V201.128H346.237L346.121 201.244L345.966 201.398V201.112L332.965 201.151H332.702L323.9 201.228L323.228 201.576L332.439 201.654H332.965L346.26 201.692H346.546V201.228L346.492 196.301Z" fill="#DBDBDB"/>
<path d="M360.042 201.669V201.151H359.772C355.337 201.151 350.916 201.182 346.508 201.244H345.928L332.926 201.414L346.291 201.584H346.508C350.854 201.638 355.185 201.677 359.509 201.677V201.414L359.764 201.669H359.509V209.774H359.795L359.679 209.89L359.524 210.045V209.759L346.523 209.798H346.26L332.988 209.906H332.841V210.107L332.702 209.968H332.841L332.71 201.739L332.586 209.844V210.269H333.011L346.013 210.385H346.546L359.834 210.424H360.127V209.96L360.042 201.669ZM332.671 201.669L332.547 209.774V209.89H332.826L332.671 201.669ZM346.508 201.553H346.082V201.244H345.928L332.926 201.414L346.291 201.584H346.508C350.854 201.638 355.185 201.677 359.509 201.677L346.508 201.553Z" fill="#DBDBDB"/>
<path d="M346.484 210.324V209.805H346.221C341.782 209.805 337.358 209.836 332.949 209.898H332.369L319.368 210.068L332.733 210.239H332.949C337.296 210.293 341.627 210.331 345.95 210.331V210.107L346.213 210.362H345.95V218.468H346.244L346.128 218.584L345.974 218.738V218.452L332.972 218.491H332.709L319.438 218.599H319.291V218.738L319.151 218.599H319.291L319.159 210.37L318.966 218.437V218.862H319.391L332.4 218.978H332.926H346.221H346.507V218.514L346.484 210.324Z" fill="#DBDBDB"/>
<path d="M360.042 218.978V218.46H359.772C355.337 218.46 350.916 218.491 346.507 218.553H345.927L332.926 218.723L346.291 218.893H346.507C350.854 218.947 355.185 218.986 359.509 218.986V218.723L359.764 218.978H359.509V227.084H359.795L359.679 227.2L359.524 227.354V227.122L346.523 227.161H346.26L332.988 227.269H332.841V227.408L332.702 227.269H332.841L332.71 219.04L332.532 227.122V227.548H332.957L345.958 227.664H346.492H359.779H360.073V227.2L360.042 218.978ZM332.802 227.238V227.377L332.663 227.238H332.802L332.671 219.009L332.532 227.122V227.238V227.532H332.957V227.254L332.802 227.238ZM346.507 218.862H346.082V218.553H345.927L332.926 218.723L346.291 218.893H346.507C350.854 218.947 355.185 218.986 359.509 218.986L346.507 218.862Z" fill="#DBDBDB"/>
<path d="M346.484 227.633V227.122H346.221C341.782 227.122 337.358 227.153 332.949 227.215H332.369L319.368 227.385L332.733 227.555H332.949C337.296 227.609 341.627 227.648 345.95 227.648V227.385L346.213 227.64H345.95V235.746H346.244L346.128 235.862L345.974 236.017V235.73L332.972 235.769H332.709L319.438 235.877H319.291V236.017L319.151 235.877H319.291L319.159 227.648L318.966 235.746V236.171H319.391L332.4 236.287H332.926H346.221H346.507V235.823L346.484 227.633Z" fill="#DBDBDB"/>
<path d="M360.042 236.287V235.769H359.772C355.34 235.769 350.916 235.808 346.508 235.862H345.928L332.926 236.032L346.291 236.202H346.508C350.854 236.256 355.185 236.295 359.509 236.295V236.032L359.772 236.295H359.509V244.4H359.795L359.679 244.516L359.524 244.671V244.385L346.523 244.424H346.26L332.988 244.532H332.841V244.671L332.702 244.532H332.841L332.71 236.303L332.586 244.408V244.834H333.011L346.013 244.95H346.546H359.834H360.127V244.486L360.042 236.287ZM332.803 244.547V244.687L332.663 244.547H332.803L332.671 236.318L332.547 244.424V244.54V244.834H332.973V244.555L332.803 244.547ZM346.508 236.171H346.082V235.862H345.928L332.926 236.032L346.291 236.202H346.508C350.854 236.256 355.185 236.295 359.509 236.295L346.508 236.171Z" fill="#DBDBDB"/>
<path d="M346.484 244.911V244.393H346.221C341.782 244.393 337.358 244.431 332.949 244.486H332.369L319.368 244.656L332.733 244.826H332.949C337.296 244.88 341.627 244.919 345.95 244.919V244.656L346.213 244.911H345.95V253.016H346.244L346.128 253.132L345.974 253.287V253.001L332.972 253.04H332.709L319.438 253.148H319.291V253.287L319.151 253.148H319.291L319.113 244.911L318.966 253.055V253.48H319.391L332.4 253.596H332.926H346.221H346.507V253.132L346.484 244.911Z" fill="#DBDBDB"/>
<path d="M360.042 253.596V253.078H359.772C355.34 253.078 350.916 253.117 346.508 253.171H345.928L332.926 253.341L346.291 253.511H346.508C350.854 253.565 355.185 253.604 359.509 253.604V253.341L359.772 253.604H359.509V261.71H359.795L359.679 261.826L359.524 261.98V261.694H346.523H346.26L332.988 261.802H332.841V261.942L332.702 261.802H332.841L332.71 253.573L332.586 261.679V262.104H333.011L346.013 262.212H346.546L359.834 262.259H360.127V261.795L360.042 253.596ZM332.671 253.596L332.547 261.702V261.818H332.826L332.671 253.596ZM346.508 253.48H346.082V253.171H345.928L332.926 253.341L346.291 253.511H346.508C350.854 253.565 355.185 253.604 359.509 253.604L346.508 253.48Z" fill="#DBDBDB"/>
<path d="M346.484 262.243V261.733H346.221C341.782 261.733 337.358 261.771 332.949 261.826H332.369L319.368 261.996L332.733 262.166H332.949C337.296 262.22 341.627 262.259 345.95 262.259V261.996L346.206 262.243H345.95V270.349H346.244L346.128 270.465L345.974 270.619V270.333H332.972H332.709L319.438 270.441H319.291V270.581L319.151 270.441H319.291L319.159 262.205L318.966 270.364V270.79H319.391L332.4 270.898H332.926L346.221 270.944H346.507V270.48L346.484 262.243Z" fill="#DBDBDB"/>
<path d="M360.042 270.898V270.387H359.772C355.34 270.387 350.916 270.426 346.508 270.48H345.928L332.926 270.65L346.291 270.82H346.508C350.854 270.875 355.185 270.913 359.509 270.913V270.65L359.772 270.913H359.509V279.019H359.795L359.509 279.305V279.019H346.508H346.245L332.973 279.127H332.826V279.266L332.687 279.127H332.826L332.694 270.89L332.571 278.995V279.421H332.996L345.997 279.529H346.531L359.818 279.576H360.112V279.111L360.042 270.898ZM332.671 270.898L332.547 279.003V279.119H332.826L332.671 270.898ZM346.508 270.789H346.082V270.48H345.928L332.926 270.65L346.291 270.82H346.508C350.854 270.875 355.185 270.913 359.509 270.913L346.508 270.789Z" fill="#DBDBDB"/>
<path d="M346.484 279.552V279.042H346.221C341.782 279.042 337.358 279.08 332.949 279.135H332.369L319.368 279.305L332.733 279.475H332.949C337.296 279.529 341.627 279.568 345.95 279.568V279.305L346.206 279.552H345.95V287.658H346.244L346.128 287.774L345.974 287.928V287.642H332.972H332.709L319.438 287.751H319.291V287.89L319.151 287.751H319.291L319.159 279.514L318.966 287.673V288.099H319.391L332.4 288.207H332.926L346.221 288.253H346.507V287.789L346.484 279.552Z" fill="#DBDBDB"/>
<path d="M360.042 288.222V287.712H359.772C355.34 287.712 350.916 287.751 346.508 287.805H345.928L332.926 287.975L346.291 288.145H346.508C350.854 288.199 355.185 288.238 359.509 288.238V287.975L359.772 288.238H359.509V296.343H359.795L359.509 296.629V296.343H346.508H346.245L332.973 296.452H332.826V296.591L332.687 296.452H332.826L332.671 288.222L332.547 296.328V296.73H332.973L345.974 296.838H346.508L359.795 296.885H360.089V296.421L360.042 288.222ZM346.508 288.114H346.082V287.805H345.928L332.926 287.975L346.291 288.145H346.508C350.854 288.199 355.185 288.238 359.509 288.238L346.508 288.114Z" fill="#DBDBDB"/>
<path d="M346.221 296.351C341.782 296.351 337.358 296.39 332.949 296.444H332.369L319.368 296.614L327.775 296.722L332.733 296.784H332.949C337.296 296.838 341.627 296.877 345.95 296.877V296.614L346.059 296.722L346.206 296.861H346.484V296.351H346.221ZM346.221 296.351C341.782 296.351 337.358 296.39 332.949 296.444H332.369L319.368 296.614L327.775 296.722L332.733 296.784H332.949C337.296 296.838 341.627 296.877 345.95 296.877V296.614L346.059 296.722H346.221V296.614H346.484V296.351H346.221Z" fill="#DBDBDB"/>
<path d="M332.926 201.669V201.151H332.663C329.75 201.151 326.842 201.166 323.939 201.197L323.862 201.244L323.189 201.592H323.119C326.213 201.592 329.307 201.646 332.4 201.646V201.383L332.656 201.638H332.4V209.744H332.694L332.578 209.86L332.424 210.014V209.728L319.422 209.767H319.159H317.489L317.442 210.239H318.896H319.422L332.717 210.277H333.004V209.813L332.926 201.669ZM319.368 209.821V210.107L332.369 209.937V209.821H319.368Z" fill="#DBDBDB"/>
<path d="M319.391 218.862V218.553V210.324V209.805H317.419L317.373 210.277H318.827V210.107L319.082 210.362H318.827V218.468H319.113L318.997 218.584L318.827 218.754V218.468H316.955C316.959 218.511 316.959 218.555 316.955 218.599C316.955 218.7 316.955 218.793 316.955 218.885C316.951 218.934 316.951 218.983 316.955 219.032H319.422V218.878L319.391 218.862ZM318.842 210.355V218.46H318.997L319.121 210.355H318.842Z" fill="#DBDBDB"/>
<path d="M332.926 218.978V218.46H332.663C328.224 218.46 323.8 218.491 319.392 218.553H318.819H316.948C316.948 218.653 316.948 218.746 316.948 218.839H319.183H319.407C323.761 218.893 328.085 218.932 332.408 218.932V218.669L332.663 218.924H332.408V227.029H332.702L332.586 227.145L332.431 227.3V227.122L319.43 227.161H319.167H316.074C316.074 227.316 316.004 227.463 315.965 227.61H318.912H319.438H332.733H333.019V227.145L332.926 218.978ZM319.368 227.122V227.37L332.37 227.2V227.122H319.368Z" fill="#DBDBDB"/>
<path d="M319.391 236.171V235.862V227.633V227.122H319.128H316.035C316.035 227.277 315.965 227.424 315.926 227.571H318.881V227.308L319.136 227.563H318.881V235.669H319.167L319.051 235.785L318.904 235.931V235.645H307.496L307.395 235.877V235.924C307.395 236.001 307.326 236.078 307.295 236.164H319.213H319.507V236.009L319.391 236.171ZM318.842 227.664V235.769H318.997L319.121 227.664H318.842Z" fill="#DBDBDB"/>
<path d="M332.925 236.287V235.769H332.662C328.223 235.769 323.799 235.808 319.391 235.862H318.818L307.31 236.009V236.055L319.197 236.202H319.421C323.776 236.256 328.099 236.295 332.423 236.295V236.032L332.678 236.287H332.423V244.393H332.717L332.601 244.509L332.446 244.663V244.377L319.445 244.416H319.182L305.918 244.524H305.763V244.663L305.624 244.524H305.763L305.67 239.025L305.577 239.133L305.492 244.408V244.834H305.817L318.818 244.95H319.344H332.639H332.925V244.486V236.287ZM319.367 244.439V244.687L332.368 244.516V244.4L319.367 244.439Z" fill="#DBDBDB"/>
<path d="M319.391 253.48V253.171V244.942V244.424H319.128C314.704 244.424 310.265 244.462 305.864 244.516H305.284L299.375 244.594L299.143 244.779L305.64 244.857H305.817C310.172 244.911 314.495 244.95 318.819 244.95V244.687L319.074 244.942H318.819V253.047H319.105L318.989 253.163L318.842 253.31V253.024L305.833 253.063H305.57L292.306 253.171H292.151V253.31L292.012 253.171H292.151L292.097 250.023L291.927 250.147L291.888 253.055V253.48H292.321L305.322 253.596H305.817H319.113H319.406V253.442L319.391 253.48ZM318.842 244.973V253.078H318.997L319.12 244.973H318.842Z" fill="#DBDBDB"/>
<path d="M332.925 253.596V253.078H332.662C328.223 253.078 323.799 253.117 319.391 253.171H318.818L305.817 253.341L319.182 253.511H319.406C323.76 253.565 328.084 253.604 332.407 253.604V253.341L332.662 253.596H332.407V261.702H332.701L332.585 261.818L332.43 261.973V261.686H319.429H319.166L305.902 261.795H305.747V261.934L305.608 261.795H305.747L305.616 253.565L305.492 261.671V262.096H305.817L318.818 262.205H319.344L332.639 262.251H332.925V261.787V253.596ZM319.367 261.748V261.996L332.368 261.826V261.71L319.367 261.748Z" fill="#DBDBDB"/>
<path d="M319.391 270.79V270.48V262.243V261.733H319.128C314.704 261.733 310.265 261.771 305.864 261.826H305.284L292.275 261.996L305.64 262.166H305.818C310.172 262.22 314.495 262.259 318.819 262.259V261.996L319.066 262.243H318.819V270.349H319.105L318.989 270.465L318.842 270.612V270.325L305.818 270.434H305.555L292.29 270.542H292.136V270.681L291.997 270.542H292.136L292.004 262.305L291.896 270.364V270.79H292.329L305.33 270.898H305.818L319.113 270.944H319.407V270.79H319.391ZM318.842 262.282V270.387H318.997L319.12 262.282H318.842Z" fill="#DBDBDB"/>
<path d="M332.926 270.898V270.387H332.663C328.223 270.387 323.799 270.426 319.391 270.48H318.819L305.81 270.65L319.174 270.82H319.399C323.753 270.875 328.076 270.913 332.4 270.913V270.65L332.655 270.905H332.4V279.011H332.694L332.578 279.127L332.423 279.282V278.995H319.422H319.159L305.895 279.104H305.74V279.243L305.601 279.104H305.74L305.609 270.867L305.485 278.972V279.398H305.817L318.819 279.506H319.345L332.64 279.552H332.926V279.088V270.898ZM319.368 279.057V279.305L332.369 279.135V279.019L319.368 279.057Z" fill="#DBDBDB"/>
<path d="M319.391 288.099V287.789V279.552V279.042H319.128C314.704 279.042 310.265 279.08 305.864 279.135H305.284L292.275 279.305L305.64 279.475H305.818C310.172 279.529 314.495 279.568 318.819 279.568V279.305L319.066 279.552H318.819V287.658H319.105L318.989 287.774L318.842 287.921V287.634H305.833H305.57L292.306 287.743H292.151V287.882L292.012 287.743H292.151L292.02 279.506L291.896 287.673V288.099H292.329L305.33 288.207H305.818L319.113 288.253H319.407V288.099H319.391ZM318.842 279.591V287.696H318.997L319.12 279.591H318.842Z" fill="#DBDBDB"/>
<path d="M332.926 288.222V287.712H332.663C328.224 287.712 323.8 287.751 319.391 287.805H318.819L305.81 287.975L319.175 288.145H319.399C323.753 288.199 328.077 288.238 332.4 288.238V287.975L332.656 288.23H332.4V296.336H332.694L332.578 296.452L332.423 296.606V296.32H319.422H319.159L305.895 296.428H305.741V296.568L305.601 296.428H305.741L305.555 288.222L305.431 296.328V296.73H305.818L318.819 296.838H319.345L332.64 296.885H332.926V296.421V288.222ZM332.4 288.222V296.328H332.563L332.656 288.222H332.4ZM332.663 287.696C328.224 287.696 323.8 287.735 319.391 287.789H318.819L305.81 287.959L319.175 288.13H319.399C323.753 288.184 328.077 288.222 332.4 288.222V287.959L332.648 288.207V287.959H332.911V287.696H332.663Z" fill="#DBDBDB"/>
<path d="M319.105 296.351C314.681 296.351 310.241 296.39 305.841 296.444H305.261L292.252 296.614L300.659 296.722L305.616 296.784H305.818C310.172 296.838 314.495 296.877 318.819 296.877V296.614L318.927 296.722L319.074 296.869H319.345V296.359L319.105 296.351ZM319.105 296.351C314.681 296.351 310.241 296.39 305.841 296.444H305.261L292.252 296.614L300.659 296.722L305.616 296.784H305.818C310.172 296.838 314.495 296.877 318.819 296.877V296.614L318.927 296.722H319.082V296.614H319.345V296.351H319.105Z" fill="#DBDBDB"/>
<path d="M305.817 238.724L305.593 238.994L305.5 239.102L305.276 239.342V244.377H305.562L305.446 244.493L305.299 244.64V244.354H299.615L299.39 244.532L299.158 244.718L298.918 244.903H305.585H305.817V244.439V238.724ZM305.817 238.724L305.593 238.994L305.5 239.102L305.276 239.342V244.377H305.562L305.446 244.493L305.299 244.64V244.354H299.615L299.39 244.532L299.158 244.718L298.918 244.903H305.585H305.817V244.439V238.724Z" fill="#DBDBDB"/>
<path d="M292.267 249.884C292.208 249.937 292.143 249.984 292.074 250.023L291.904 250.147L291.71 250.286V253.055H291.996L291.88 253.171L291.726 253.326V253.04H287.859L287.634 253.194L287.255 253.418L287.016 253.589H291.989H292.283V253.125L292.267 249.884ZM292.128 253.171L292.074 250.023L291.904 250.147L291.71 250.286V253.055H291.996L291.88 253.171H292.128Z" fill="#DBDBDB"/>
<path d="M305.818 253.596V253.078H305.555C301.131 253.078 296.691 253.117 292.291 253.171H291.711L287.588 253.225L287.256 253.418L292.059 253.48H292.283C296.637 253.534 300.961 253.573 305.284 253.573V253.31L305.539 253.565H305.284V261.671H305.57L305.454 261.787L305.307 261.934V261.648H292.298H292.035L278.771 261.756H278.617V261.895L278.485 261.756H278.617V259.536L278.416 259.683V261.64V262.065H278.748L291.749 262.174H292.275L305.57 262.22H305.818V261.756V253.596ZM305.818 253.596H305.292V261.702H305.578L305.462 261.818L305.315 261.965V261.679H292.306V262.174L305.601 262.22H305.818V261.756V253.596Z" fill="#DBDBDB"/>
<path d="M292.252 262.243V261.733H291.989C287.565 261.733 283.126 261.771 278.725 261.826H278.145L275.546 261.864L275.237 262.127L278.508 262.166H278.748C283.095 262.22 287.426 262.259 291.749 262.259V261.996L291.997 262.243H291.749V270.349H292.035L291.749 270.635V270.349H278.748H278.477H275.577C275.624 270.503 275.662 270.65 275.709 270.797H278.214H278.748L292.035 270.844H292.329V270.38L292.252 262.243ZM292.128 270.48L291.997 262.243H291.726V270.349H292.012L291.896 270.465L292.128 270.48Z" fill="#DBDBDB"/>
<path d="M305.817 270.898V270.387H305.554C301.13 270.387 296.691 270.426 292.29 270.48H291.71L278.709 270.65L292.066 270.82H292.29C296.645 270.875 300.968 270.913 305.291 270.913V270.65L305.547 270.905H305.291V279.011H305.578L305.462 279.127L305.315 279.274V278.988H292.306H292.043L278.779 279.096H278.624V279.235L278.492 279.096H278.624L278.492 270.859L278.376 278.965V279.39H278.748L291.749 279.498H292.275L305.57 279.545H305.817V279.081V270.898ZM305.817 270.898H305.291V279.003H305.578L305.462 279.119L305.315 279.266V278.98H292.306V279.475L305.601 279.521H305.817V279.057V270.898Z" fill="#DBDBDB"/>
<path d="M292.252 279.552V279.042H291.989C287.565 279.042 283.125 279.08 278.725 279.135H278.144H276.837V279.436H278.493H278.748C283.094 279.49 287.426 279.529 291.749 279.529V279.266L291.996 279.514H291.749V287.619H292.035L291.749 287.905V287.619H278.748H277.294V288.099H278.725L292.012 288.145H292.306V287.681L292.252 279.552ZM292.128 287.789L291.996 279.552H291.726V287.658H292.012L291.896 287.774L292.128 287.789Z" fill="#DBDBDB"/>
<path d="M305.818 288.222V287.712H305.555C301.131 287.712 296.691 287.751 292.29 287.805H291.71L278.709 287.975L292.066 288.145H292.29C296.645 288.199 300.968 288.238 305.292 288.238V287.975L305.547 288.23H305.292V296.335H305.578L305.462 296.452L305.315 296.598V296.312H292.306H292.043L283.574 296.382L283.829 296.668H291.78V296.807H292.306L305.601 296.854H305.818V296.39V288.222ZM278.438 287.975V288.222V290.674L278.524 290.775V288.207L278.438 287.975ZM305.292 288.238V296.343H305.446L305.57 288.238H305.292Z" fill="#DBDBDB"/>
<path d="M291.989 296.351C289.153 296.351 286.317 296.364 283.481 296.39L283.52 296.436L283.775 296.722H291.726V296.614L291.834 296.722L291.981 296.869H292.252V296.359L291.989 296.351ZM291.989 296.351C289.153 296.351 286.317 296.364 283.481 296.39L283.52 296.436L283.775 296.722H291.726V296.614L291.834 296.722H291.989V296.614H292.252V296.351H291.989Z" fill="#DBDBDB"/>
<path d="M278.748 259.474L278.563 259.606L278.361 259.753L278.184 259.884V261.71H278.47L278.338 261.841L278.184 261.996V261.71H275.763L275.585 261.856L275.276 262.119L275.098 262.274H278.748V259.459V259.474ZM278.748 259.474L278.563 259.606L278.361 259.753L278.184 259.884V261.71H278.47L278.338 261.841L278.184 261.996V261.71H275.763L275.585 261.856L275.276 262.119L275.098 262.274H278.748V259.459V259.474Z" fill="#DBDBDB"/>
<path d="M278.701 270.898V270.387H275.522C275.569 270.542 275.608 270.689 275.654 270.836H278.152V270.573L278.407 270.828H278.152V278.934H278.438L278.322 279.05L278.168 279.204V278.918H276.853V279.042V279.343V279.483H278.748V279.019L278.701 270.898ZM278.701 270.898H278.168V279.003H278.454L278.338 279.119L278.183 279.274V278.988H276.868V279.111V279.413V279.552H278.748V279.088L278.701 270.898Z" fill="#DBDBDB"/>
<path d="M278.702 288.222V287.712H277.248V288.191H278.145V287.928L278.4 288.184H278.145V290.38L278.377 290.635L278.462 290.736L278.694 290.999L278.702 288.222ZM278.702 288.222H278.168V290.419L278.4 290.674L278.485 290.775L278.717 291.038L278.702 288.222Z" fill="#DBDBDB"/>
<path d="M9.51318 296.73H215.15C215.15 296.73 222.66 299.491 208.359 300.961C194.059 302.43 159.789 300.961 148.984 304.572C141.312 307.132 160.802 317.473 129.061 317.473C97.3195 317.473 87.2418 304.712 42.5227 304.712C25.1208 304.712 9.51318 296.73 9.51318 296.73Z" fill="#EBEBEB"/>
<g opacity="0.5">
<path d="M86.5609 296.73L58.1532 305.292C54.58 305.006 50.7516 304.82 46.6138 304.743L73.2039 296.73H86.5609Z" fill="white"/>
<path d="M137.568 317.14L147.112 314.263C145.859 315.57 143.114 316.63 137.568 317.14Z" fill="white"/>
<path d="M216.441 297.395L203.44 301.316C199.194 301.548 194.074 301.657 188.66 301.749L205.335 296.722H215.149C215.603 296.899 216.036 297.125 216.441 297.395Z" fill="white"/>
<path d="M147.631 309.592L122.185 317.257C118.905 317.06 115.637 316.698 112.394 316.174L147.337 305.655C146.656 306.684 147.182 308.107 147.631 309.592Z" fill="white"/>
<path d="M190.338 296.73L172.549 302.097C166.115 302.299 160.066 302.623 155.341 303.258L176.997 296.73H190.338Z" fill="white"/>
<path d="M103.793 296.73L70.5979 306.73C69.1362 306.506 67.6203 306.289 66.0425 306.096L97.1185 296.73H103.793Z" fill="white"/>
<path d="M35.7782 296.73L20.975 301.185C19.8381 300.845 18.7707 300.489 17.7808 300.133L29.0959 296.73H35.7782Z" fill="white"/>
</g>
<path d="M0.262695 296.722L62.7318 296.537L125.201 296.467L250.131 296.336L375.062 296.467L437.531 296.537L500 296.722L437.531 296.908L375.062 296.977L250.131 297.109L125.201 296.977L62.7318 296.908L0.262695 296.722Z" fill="#263238"/>
<path d="M497.401 324.89H2.854V333.073H497.401V324.89Z" fill="#C7C7C7"/>
<path d="M28.2993 324.89C28.815 327.591 28.815 330.365 28.2993 333.065C27.7837 330.365 27.7837 327.591 28.2993 324.89Z" fill="#263238"/>
<path d="M57.8828 324.89C58.3985 327.591 58.3985 330.365 57.8828 333.065C57.3672 330.365 57.3672 327.591 57.8828 324.89Z" fill="#263238"/>
<path d="M87.458 324.89C87.9737 327.591 87.9737 330.365 87.458 333.065C86.9424 330.365 86.9424 327.591 87.458 324.89Z" fill="#263238"/>
<path d="M117.033 324.89C117.304 326.237 117.434 327.608 117.42 328.982C117.441 330.353 117.311 331.722 117.033 333.065C116.755 331.722 116.626 330.353 116.647 328.982C116.633 327.608 116.763 326.237 117.033 324.89Z" fill="#263238"/>
<path d="M146.609 324.89C147.125 327.591 147.125 330.365 146.609 333.065C146.093 330.365 146.093 327.591 146.609 324.89Z" fill="#263238"/>
<path d="M176.185 324.89C176.701 327.591 176.701 330.365 176.185 333.065C175.669 330.365 175.669 327.591 176.185 324.89Z" fill="#263238"/>
<path d="M205.769 324.89C206.284 327.591 206.284 330.365 205.769 333.065C205.253 330.365 205.253 327.591 205.769 324.89Z" fill="#263238"/>
<path d="M235.343 324.89C235.614 326.237 235.744 327.608 235.73 328.982C235.747 330.353 235.618 331.722 235.343 333.065C235.065 331.722 234.936 330.353 234.957 328.982C234.939 327.608 235.069 326.236 235.343 324.89Z" fill="#263238"/>
<path d="M264.919 324.89C265.194 326.236 265.324 327.608 265.306 328.982C265.327 330.353 265.197 331.722 264.919 333.065C264.645 331.722 264.516 330.353 264.533 328.982C264.519 327.608 264.649 326.237 264.919 324.89Z" fill="#263238"/>
<path d="M294.495 324.89C295.01 327.591 295.01 330.365 294.495 333.065C293.979 330.365 293.979 327.591 294.495 324.89Z" fill="#263238"/>
<path d="M324.078 324.89C324.594 327.591 324.594 330.365 324.078 333.065C323.562 330.365 323.562 327.591 324.078 324.89Z" fill="#263238"/>
<path d="M353.653 324.89C354.169 327.591 354.169 330.365 353.653 333.065C353.138 330.365 353.138 327.591 353.653 324.89Z" fill="#263238"/>
<path d="M383.229 324.89C383.5 326.237 383.63 327.608 383.616 328.982C383.637 330.353 383.507 331.722 383.229 333.065C382.951 331.722 382.822 330.353 382.843 328.982C382.829 327.608 382.958 326.237 383.229 324.89Z" fill="#263238"/>
<path d="M412.805 324.89C413.32 327.591 413.32 330.365 412.805 333.065C412.289 330.365 412.289 327.591 412.805 324.89Z" fill="#263238"/>
<path d="M442.38 324.89C442.896 327.591 442.896 330.365 442.38 333.065C441.865 330.365 441.865 327.591 442.38 324.89Z" fill="#263238"/>
<path d="M471.964 324.89C472.48 327.591 472.48 330.365 471.964 333.065C471.448 330.365 471.448 327.591 471.964 324.89Z" fill="#263238"/>
<path d="M234.725 146.841H2.97754V270.302H234.725V146.841Z" fill="#072ACB"/>
<g opacity="0.1">
<path d="M13.6504 261.199L13.3411 234.856C13.2251 226.07 13.2096 217.292 13.14 208.506L12.9853 182.163L12.9312 155.821V155.101H13.6504C30.5264 155.101 47.4024 155.032 64.2784 155.101L114.906 155.187L165.527 155.426L190.841 155.604L216.155 155.844L190.841 156.076L165.527 156.262L114.906 156.501L64.2784 156.586C47.4024 156.633 30.5264 156.586 13.6504 156.586L14.3774 155.867L14.3156 182.21L14.1686 208.552C14.099 217.339 14.0835 226.117 13.9675 234.903L13.6504 261.199Z" fill="black"/>
<path d="M218.831 188.451C210.501 188.621 202.171 188.699 193.842 188.83L168.845 189.039C152.178 189.171 135.518 189.155 118.851 189.225C102.192 189.163 85.5244 189.171 68.8649 189.047L43.868 188.83C35.5383 188.699 27.2008 188.629 18.8711 188.451C27.2008 188.273 35.5383 188.196 43.868 188.072L68.8649 187.856C85.5244 187.732 102.192 187.74 118.851 187.678C135.518 187.74 152.178 187.732 168.845 187.856L193.842 188.072C202.179 188.181 210.501 188.25 218.831 188.451Z" fill="black"/>
<path d="M218.831 228.592C210.501 228.762 202.171 228.839 193.842 228.971L168.845 229.18C152.178 229.311 135.518 229.296 118.851 229.365C102.192 229.303 85.5244 229.311 68.8649 229.187L43.868 228.971C35.5383 228.839 27.2008 228.762 18.8711 228.592C27.2008 228.414 35.5383 228.337 43.868 228.213L68.8649 227.996C85.5244 227.872 102.192 227.88 118.851 227.818C135.518 227.88 152.178 227.872 168.845 227.996L193.842 228.213C202.179 228.344 210.501 228.414 218.831 228.592Z" fill="black"/>
<path d="M224.052 155.821L224.369 182.163C224.485 190.949 224.501 199.728 224.57 208.506C224.64 217.284 224.717 226.07 224.717 234.856L224.779 261.199V261.926H224.052C207.524 261.926 191.004 261.988 174.476 261.926L124.9 261.849L75.3393 261.617L50.5898 261.431L25.8018 261.199L50.5898 260.959L75.3393 260.781L124.915 260.542L174.492 260.457C191.022 260.41 207.547 260.41 224.068 260.457L223.341 261.184L223.403 234.841C223.403 226.055 223.503 217.277 223.55 208.491C223.596 199.705 223.635 190.934 223.751 182.148L224.052 155.821Z" fill="black"/>
</g>
<path d="M24.6176 283.28L17.7264 283.272L13.1787 270.302H27.9974L23.79 276.799L24.6176 283.28Z" fill="#263238"/>
<path d="M31.0141 287.217C31.0125 289.097 30.4534 290.935 29.4073 292.497C28.3612 294.06 26.8752 295.277 25.1373 295.995C23.3994 296.712 21.4877 296.899 19.6439 296.53C17.8001 296.161 16.1072 295.253 14.7793 293.922C13.4513 292.591 12.548 290.896 12.1836 289.051C11.8192 287.207 12.0101 285.295 12.7322 283.559C13.4542 281.823 14.6749 280.34 16.2399 279.298C17.8049 278.255 19.6439 277.701 21.5242 277.704C22.7721 277.705 24.0076 277.952 25.16 278.431C26.3124 278.909 27.3592 279.61 28.2405 280.494C29.1218 281.377 29.8204 282.426 30.2963 283.579C30.7722 284.733 31.0161 285.969 31.0141 287.217Z" fill="#37474F"/>
<path d="M26.7058 287.209C26.7058 288.238 26.4006 289.243 25.8288 290.098C25.257 290.953 24.4444 291.62 23.4938 292.012C22.5432 292.405 21.4974 292.507 20.4888 292.306C19.4801 292.104 18.5541 291.607 17.8278 290.879C17.1016 290.15 16.6078 289.223 16.409 288.214C16.2102 287.204 16.3154 286.159 16.7111 285.21C17.1069 284.26 17.7754 283.449 18.6322 282.88C19.4889 282.311 20.4953 282.009 21.5239 282.012C22.2057 282.012 22.8808 282.146 23.5105 282.408C24.1402 282.669 24.7121 283.052 25.1935 283.535C25.6749 284.018 26.0563 284.591 26.3158 285.221C26.5753 285.852 26.7078 286.527 26.7058 287.209Z" fill="#DBDBDB"/>
<path d="M21.6243 284.054C21.6243 284.827 21.5315 285.407 21.4233 285.407C21.315 285.407 21.2222 284.804 21.2222 284.054C21.2222 283.303 21.315 282.708 21.4233 282.708C21.5315 282.708 21.6243 283.311 21.6243 284.054Z" fill="#263238"/>
<path d="M19.3666 284.897C19.8925 285.43 20.256 285.917 20.1787 285.995C20.1014 286.072 19.6141 285.709 19.0805 285.183C18.5468 284.657 18.191 284.162 18.2684 284.084C18.3457 284.007 18.8794 284.355 19.3666 284.897Z" fill="#263238"/>
<path d="M18.3686 287.093C19.142 287.093 19.7221 287.186 19.7221 287.294C19.7221 287.402 19.1111 287.495 18.3686 287.495C17.6261 287.495 17.0151 287.402 17.0151 287.294C17.0151 287.186 17.6261 287.093 18.3686 287.093Z" fill="#263238"/>
<path d="M19.2115 289.352C19.7374 288.818 20.2324 288.454 20.3098 288.578C20.3871 288.702 20.0236 289.143 19.5364 289.669C19.0491 290.195 18.5154 290.558 18.4381 290.481C18.3608 290.403 18.6856 289.877 19.2115 289.352Z" fill="#263238"/>
<path d="M21.4004 290.349C21.4004 289.576 21.4932 288.996 21.6092 288.996C21.7252 288.996 21.8026 289.599 21.8026 290.349C21.8026 291.099 21.7098 291.695 21.6015 291.695C21.4932 291.695 21.4004 291.092 21.4004 290.349Z" fill="#263238"/>
<path d="M23.6584 289.506C23.1325 288.973 22.769 288.485 22.8463 288.408C22.9237 288.331 23.4186 288.694 23.9446 289.22C24.4705 289.746 24.834 290.241 24.718 290.318C24.602 290.396 24.1843 290.032 23.6584 289.506Z" fill="#263238"/>
<path d="M24.6563 287.31C23.8829 287.31 23.3105 287.217 23.3105 287.109C23.3105 287 23.9138 286.908 24.6563 286.908C25.3988 286.908 26.0098 287 26.0098 287.116C26.0098 287.232 25.4065 287.31 24.6563 287.31Z" fill="#263238"/>
<path d="M23.8137 285.059C23.2878 285.585 22.7928 285.948 22.7154 285.832C22.6381 285.716 23.0016 285.26 23.5353 284.734C24.0689 284.208 24.5485 283.845 24.6335 283.922C24.7186 283.999 24.3396 284.525 23.8137 285.059Z" fill="#263238"/>
<path d="M213.084 283.28L219.976 283.272L224.531 270.302H209.705L213.912 276.799L213.084 283.28Z" fill="#263238"/>
<path d="M206.696 287.217C206.699 289.095 207.259 290.931 208.305 292.491C209.351 294.051 210.836 295.266 212.573 295.982C214.31 296.698 216.22 296.883 218.061 296.513C219.903 296.144 221.594 295.237 222.92 293.906C224.246 292.576 225.148 290.882 225.511 289.039C225.875 287.196 225.684 285.287 224.962 283.553C224.24 281.818 223.021 280.337 221.457 279.296C219.894 278.255 218.056 277.701 216.178 277.704C214.931 277.706 213.696 277.954 212.545 278.433C211.393 278.912 210.347 279.613 209.467 280.497C208.586 281.38 207.888 282.428 207.413 283.581C206.937 284.734 206.694 285.97 206.696 287.217Z" fill="#37474F"/>
<path d="M211.004 287.209C211.006 288.236 211.312 289.239 211.883 290.091C212.455 290.944 213.266 291.608 214.215 291.999C215.164 292.39 216.208 292.492 217.214 292.29C218.22 292.088 219.144 291.592 219.869 290.866C220.594 290.139 221.087 289.213 221.285 288.206C221.484 287.199 221.38 286.156 220.986 285.208C220.591 284.261 219.925 283.451 219.071 282.882C218.217 282.313 217.213 282.01 216.186 282.012C215.505 282.012 214.829 282.146 214.2 282.408C213.57 282.669 212.998 283.052 212.517 283.535C212.035 284.018 211.654 284.591 211.394 285.221C211.135 285.852 211.002 286.527 211.004 287.209Z" fill="#DBDBDB"/>
<path d="M216.101 284.054C216.101 284.827 216.194 285.407 216.302 285.407C216.41 285.407 216.503 284.804 216.503 284.054C216.503 283.303 216.41 282.708 216.294 282.708C216.178 282.708 216.101 283.311 216.101 284.054Z" fill="#263238"/>
<path d="M218.336 284.897C217.81 285.43 217.447 285.917 217.524 285.995C217.601 286.072 218.096 285.709 218.622 285.183C219.148 284.657 219.512 284.162 219.434 284.084C219.357 284.007 218.87 284.355 218.336 284.897Z" fill="#263238"/>
<path d="M219.342 287.093C218.568 287.093 217.988 287.186 217.988 287.294C217.988 287.402 218.592 287.495 219.342 287.495C220.092 287.495 220.688 287.402 220.688 287.294C220.688 287.186 220.084 287.093 219.342 287.093Z" fill="#263238"/>
<path d="M218.491 289.352C217.965 288.818 217.477 288.454 217.392 288.578C217.307 288.702 217.686 289.143 218.212 289.669C218.738 290.195 219.233 290.558 219.31 290.481C219.388 290.403 219.024 289.877 218.491 289.352Z" fill="#263238"/>
<path d="M216.302 290.349C216.302 289.576 216.209 288.996 216.101 288.996C215.993 288.996 215.9 289.599 215.9 290.349C215.9 291.099 215.993 291.695 216.101 291.695C216.209 291.695 216.302 291.092 216.302 290.349Z" fill="#263238"/>
<path d="M214.044 289.506C214.577 288.973 214.941 288.485 214.856 288.408C214.771 288.331 214.291 288.694 213.765 289.22C213.239 289.746 212.876 290.241 212.953 290.318C213.031 290.396 213.518 290.032 214.044 289.506Z" fill="#263238"/>
<path d="M213.046 287.31C213.819 287.31 214.399 287.217 214.399 287.109C214.399 287 213.796 286.908 213.046 286.908C212.296 286.908 211.7 287 211.7 287.116C211.7 287.232 212.303 287.31 213.046 287.31Z" fill="#263238"/>
<path d="M213.889 285.059C214.423 285.585 214.91 285.948 214.987 285.832C215.064 285.716 214.701 285.26 214.175 284.734C213.649 284.208 213.154 283.845 213.077 283.922C212.999 283.999 213.363 284.525 213.889 285.059Z" fill="#263238"/>
<path d="M205.219 120.475H32.4525L2.97754 146.841H234.686L205.219 120.475Z" fill="#072ACB"/>
<path opacity="0.3" d="M203.03 122.834H31.6944L7.49414 144.482H227.23L203.03 122.834Z" fill="black"/>
<path d="M118.851 146.841H0L29.4673 119.865H118.851V146.841Z" fill="#37474F"/>
<path d="M118.836 146.841H0V150.77H118.836V146.841Z" fill="#263238"/>
<path d="M112.78 122.061H111.063V144.274H112.78V122.061Z" fill="#263238"/>
<path d="M103.785 144.274H102.068L102.803 122.061H104.52L103.785 144.274Z" fill="#263238"/>
<path d="M94.0554 144.274H92.3462L94.5504 122.061H96.2674L94.0554 144.274Z" fill="#263238"/>
<path d="M84.3332 144.274H82.6162L86.2977 122.061H88.0147L84.3332 144.274Z" fill="#263238"/>
<path d="M73.8693 144.274H72.1523L78.0458 122.061H79.7628L73.8693 144.274Z" fill="#263238"/>
<path d="M63.405 144.274H61.688L69.7934 122.061H71.5027L63.405 144.274Z" fill="#263238"/>
<path d="M51.4631 144.274H49.7461L60.7982 122.061H62.5152L51.4631 144.274Z" fill="#263238"/>
<path d="M40.2644 144.274H38.5474L52.5462 122.061H54.2632L40.2644 144.274Z" fill="#263238"/>
<path d="M27.5882 144.274H25.8789L43.5593 122.061H45.2763L27.5882 144.274Z" fill="#263238"/>
<path d="M15.654 144.274H13.937L35.3066 122.061H37.0158L15.654 144.274Z" fill="#263238"/>
<path d="M118.835 42.8397H218.661L205.342 119.864H118.835V42.8397Z" fill="#263238"/>
<path d="M118.859 42.8397L218.668 42.8397V37.5727L118.859 37.5727V42.8397Z" fill="#37474F"/>
<path d="M124.714 113.592H126.377L126.377 50.1717H124.714L124.714 113.592Z" fill="#37474F"/>
<path d="M133.415 50.1717H135.078L134.366 113.592H132.704L133.415 50.1717Z" fill="#37474F"/>
<path d="M142.069 50.1717H143.732L142.355 113.592H140.692L142.069 50.1717Z" fill="#37474F"/>
<path d="M151.489 50.1717H153.144L150.337 113.592H148.682L151.489 50.1717Z" fill="#37474F"/>
<path d="M160.856 50.1717H162.511L158.326 113.592H156.671L160.856 50.1717Z" fill="#37474F"/>
<path d="M170.222 50.1717H171.877L166.316 113.592H164.653L170.222 50.1717Z" fill="#37474F"/>
<path d="M180.253 50.1717H181.916L175.017 113.592H173.354L180.253 50.1717Z" fill="#37474F"/>
<path d="M189.573 50.1717H191.236L183.007 113.592H181.344L189.573 50.1717Z" fill="#37474F"/>
<path d="M198.8 50.1717H200.463L191.708 113.592H190.045L198.8 50.1717Z" fill="#37474F"/>
<path d="M207.315 50.1717H208.978L199.697 113.592H198.034L207.315 50.1717Z" fill="#37474F"/>
<path d="M136.88 119.424H128.751V120.816H136.88V119.424Z" fill="#263238"/>
<path d="M198.174 119.424H190.045V120.816H198.174V119.424Z" fill="#263238"/>
<path d="M53.606 184.832C52.6547 187.647 50.5123 190.106 48.7953 192.465C47.3877 194.36 45.9878 196.719 43.6753 197.57C42.3759 198.034 40.8755 198.227 40.4037 196.719C39.7695 194.685 40.048 192.334 40.4656 190.13C40.5661 188.389 40.7054 186.657 40.9219 184.948C41.1694 182.96 42.3218 182.071 44.2631 181.668C45.6153 181.443 46.9837 181.329 48.3545 181.328C49.5765 181.289 51.9045 180.934 53.0414 181.382C54.4567 181.947 54.0004 183.648 53.606 184.832Z" fill="#263238"/>
<path d="M96.2985 283.079C95.7107 285.848 93.9164 288.648 92.4933 291.061C91.1952 293.357 89.7076 295.54 88.0461 297.588C86.4142 299.53 84.7281 299.971 82.2764 300.071C79.1209 300.203 75.9266 300.249 72.7711 300.148C66.4755 299.963 60.3964 298.602 54.209 297.666C47.1984 296.582 40.067 296.527 33.0406 297.503C27.1084 298.323 21.1454 299.692 15.1282 298.981C10.7816 298.455 5.84714 296.815 3.07056 293.172C-0.115922 288.949 3.4186 285.129 5.29028 281.262C5.6392 280.514 5.92381 279.737 6.14104 278.941C6.22611 278.64 6.29572 278.354 6.36533 278.044C7.37851 273.272 6.36533 268.059 8.22154 263.349C9.34299 260.457 10.8357 257.711 12.2046 254.934C13.6355 252.034 15.6541 248.979 16.2651 245.777C16.907 242.436 15.9171 238.963 16.3192 235.576C16.6512 232.982 17.3491 230.448 18.392 228.05C20.7123 222.528 24.2468 217.625 27.5725 212.69C29.8154 209.357 32.0196 206.008 34.278 202.674C35.3995 200.3 36.5983 197.964 38.4313 196.209C36.3044 194.909 33.8836 193.37 32.3909 191.46C31.0451 189.751 31.7103 188.297 32.6616 186.556C33.6129 184.816 37.8435 176.409 40.2334 181.034C40.6961 182.225 41.0533 183.454 41.3007 184.708C41.7028 186.069 42.0199 188.436 42.9326 189.519C44.665 191.568 45.3921 188.977 46.7378 188.505C47.6118 188.212 48.4007 188.691 49.2437 188.993C50.5662 189.48 53.3505 189.766 53.4898 191.576C53.4424 192.315 53.2111 193.03 52.8169 193.656C52.3992 194.43 51.0303 195.683 50.6668 196.75C51.4905 197.535 52.2269 198.406 52.8633 199.349C54.8896 202.334 56.1503 205.76 58.4164 208.63C60.466 211.19 63.0569 213.27 65.4932 215.389C69.6619 218.994 74.0627 223.271 74.7742 229.033C75.0604 231.276 74.4494 233.789 74.8825 236.04C74.9685 236.513 75.1086 236.975 75.3002 237.416C75.3951 237.623 75.501 237.824 75.6173 238.02C76.9244 240.162 79.4844 241.291 81.3715 242.799C85.1978 245.838 88.187 249.802 90.057 254.316C92.1607 259.358 92.2071 264.13 92.0756 269.482C92.0339 271.026 92.3406 272.559 92.9728 273.968C93.1739 274.425 93.3982 274.873 93.6379 275.329C94.102 276.172 94.6124 277.031 95.1461 277.967C96.1524 279.468 96.5633 281.291 96.2985 283.079Z" fill="#37474F"/>
<path d="M37.0696 287.549C30.395 286.459 23.643 287.07 16.9607 286.134C12.0881 285.446 8.90165 282.592 6.13281 278.957C6.21789 278.655 6.2875 278.369 6.3571 278.06C7.95537 279.707 9.6973 281.208 11.5622 282.545C13.908 284.011 16.5494 284.938 19.2964 285.26C25.1976 286.157 31.3231 285.701 37.085 287.325C37.2861 287.356 37.2243 287.573 37.0696 287.549Z" fill="#263238"/>
<path d="M84.3181 280.604C79.4687 283.156 75.3309 286.977 70.6208 289.761C68.0762 291.27 65.7405 291.308 62.8866 291.099C60.0327 290.891 56.9699 290.759 54.0155 290.558C53.7989 290.558 53.8067 290.867 54.0155 290.898C57.2716 291.293 60.5122 291.78 63.776 292.159C65.9866 292.553 68.265 292.251 70.296 291.293C72.8792 289.993 75.2072 288.014 77.5429 286.327C80.0032 284.701 82.3662 282.932 84.6197 281.03C84.8749 280.813 84.6197 280.488 84.3181 280.604Z" fill="#263238"/>
<path d="M93.6613 275.283C91.2373 277.295 89.0639 279.59 87.1877 282.12C84.8675 285.167 82.5472 288.71 78.9663 290.388C78.7961 290.458 78.6415 290.218 78.8116 290.125C81.3175 288.911 82.8102 286.397 84.357 284.177C85.5404 282.484 86.6773 280.79 87.9689 279.166C89.4221 277.217 91.1107 275.456 92.9961 273.922C93.1972 274.378 93.4215 274.827 93.6613 275.283Z" fill="#263238"/>
<path d="M75.3384 237.37C74.5582 239.051 73.5988 240.644 72.4767 242.119C70.095 244.987 66.8083 246.959 63.157 247.711C63.1385 247.711 63.1208 247.703 63.1078 247.69C63.0947 247.677 63.0874 247.659 63.0874 247.641C63.0874 247.623 63.0947 247.605 63.1078 247.592C63.1208 247.579 63.1385 247.571 63.157 247.571C67.3044 246.193 70.8092 243.353 73.0181 239.582C73.6987 238.399 74.302 237.161 74.9594 235.993C75.0329 236.465 75.16 236.927 75.3384 237.37Z" fill="#263238"/>
<path d="M54.4563 208.56C53.2807 206.727 53.1261 204.438 52.1361 202.497C51.2484 200.799 50.1233 199.236 48.7949 197.856C49.3518 197.624 49.9009 197.346 50.4036 197.083C50.6124 196.982 50.4578 196.688 50.2567 196.727C48.7717 197.029 47.89 197.593 46.2504 197.5C45.6239 197.454 45.0516 197.261 44.4019 197.253C42.4676 197.148 40.552 196.819 38.6941 196.271C38.6507 196.262 38.6059 196.269 38.567 196.29C38.5282 196.311 38.4976 196.345 38.4805 196.385C38.4633 196.426 38.4606 196.471 38.4727 196.514C38.4848 196.556 38.5111 196.593 38.5471 196.619C38.8023 196.773 39.0421 196.905 39.3205 197.036C37.8459 198.725 36.7631 200.719 36.1495 202.876C36.1495 202.961 36.2578 203.023 36.2965 202.937C36.8405 201.682 37.5311 200.496 38.3537 199.403C38.9412 198.78 39.4173 198.06 39.7614 197.276C40.0398 197.423 40.3182 197.554 40.5889 197.678C40.2009 198.232 39.8887 198.836 39.6608 199.473C38.7306 200.788 37.9523 202.205 37.3406 203.695C36.1804 206.487 36.3583 209.612 35.0977 212.327C35.0977 212.396 35.1673 212.466 35.2059 212.389C36.4202 210.068 36.6522 207.377 37.7582 204.987C38.8642 202.597 40.3646 200.408 41.432 198.026C42.208 198.261 43.0219 198.345 43.8296 198.274C44.3137 198.243 44.7994 198.243 45.2836 198.274C44.4174 200.934 45.6394 203.425 46.1111 206.078C46.1073 206.4 46.1816 206.718 46.3277 207.006C46.3607 207.074 46.407 207.135 46.4639 207.186C46.5208 207.236 46.5872 207.275 46.6592 207.299C46.7312 207.324 46.8074 207.334 46.8833 207.329C46.9591 207.323 47.0332 207.303 47.1011 207.269C47.4492 207.052 47.4878 206.433 47.4878 206.078C47.4897 205.575 47.3646 205.08 47.1243 204.639C47.1157 204.629 47.1042 204.622 47.0914 204.619C47.0787 204.616 47.0653 204.618 47.0533 204.623C47.0412 204.628 47.0311 204.637 47.0244 204.648C47.0178 204.659 47.0148 204.672 47.016 204.685C47.1939 205.289 47.3177 206.727 46.784 206.611C46.3973 206.526 46.1576 203.688 45.8791 202.659C45.5682 201.728 45.4575 200.743 45.5543 199.766C45.5543 199.248 45.6703 198.792 45.678 198.289C46.3177 198.329 46.9597 198.311 47.5961 198.235C47.8213 198.193 48.0435 198.136 48.2612 198.065C49.5167 199.694 50.6663 201.401 51.703 203.177C52.6388 205.002 53.0797 206.982 54.3249 208.645C54.4099 208.715 54.5337 208.645 54.4563 208.56Z" fill="#263238"/>
<path d="M55.0359 254.122C48.0751 253.179 41.3928 256.497 34.4011 255.955C30.6423 255.661 27.7574 254.176 24.8648 251.848C22.5446 249.992 20.4795 247.788 17.7958 246.481C17.765 246.464 17.7286 246.459 17.6945 246.468C17.6604 246.478 17.6314 246.5 17.614 246.531C17.5966 246.562 17.5921 246.598 17.6015 246.633C17.6109 246.667 17.6335 246.696 17.6643 246.713C23.0086 250.402 25.7774 256.713 32.8156 257.541C40.2868 258.453 47.4255 254.2 54.9586 254.656C55.2757 254.702 55.353 254.192 55.0359 254.122Z" fill="#263238"/>
<path d="M65.1838 258.136C60.2877 257.723 55.3613 257.834 50.4889 258.469C45.8019 258.979 40.8753 260.789 36.2115 259.521C36.0955 259.521 36.0569 259.652 36.1574 259.699C40.3339 261.423 44.665 260.58 48.942 259.931C54.356 259.119 59.708 258.91 65.1838 258.523C65.2351 258.523 65.2843 258.503 65.3206 258.466C65.3568 258.43 65.3772 258.381 65.3772 258.33C65.3772 258.278 65.3568 258.229 65.3206 258.193C65.2843 258.157 65.2351 258.136 65.1838 258.136Z" fill="#263238"/>
<path d="M83.6458 230.03C82.6558 230.858 80.6681 232.637 80.7686 234.593C80.8692 236.55 83.785 238.143 83.4911 238.979C83.1972 239.814 69.3452 263.891 70.0568 271.207C70.7683 278.524 76.9634 283.775 77.0639 285.732C77.1645 287.689 78.7964 293.033 82.4779 295.616C86.1594 298.199 104.428 302.577 106.523 302.616C108.619 302.654 128.001 297.82 131.373 297.047C134.746 296.274 143.4 288.694 144.174 287.588C144.947 286.482 144.908 277.681 145.194 277.263C145.481 276.845 148.621 273.69 149.502 271.076C150.384 268.461 145.434 256.048 143.23 254.331C141.026 252.614 136.347 244.493 136.223 243.441C136.099 242.39 136.145 239.907 136.145 239.907C136.145 239.907 138.466 238.793 139.139 236.713C139.811 234.632 134.854 229.821 131.219 228.074C127.584 226.326 124.01 226.589 118.496 223.866C112.982 221.144 102.618 214.585 99.4854 213.773C96.353 212.961 84.512 212.822 82.795 214.709C81.078 216.596 78.2318 223.99 78.5257 225.15C78.8196 226.31 83.6458 230.03 83.6458 230.03Z" fill="#455A64"/>
<path d="M135.031 234.918C133.77 235.71 132.314 236.139 130.824 236.156C128.2 236.252 125.574 236.026 123.005 235.483L122.626 235.413L122.386 235.367C121.852 235.259 121.311 235.166 120.77 235.081C119.076 234.802 117.351 234.601 115.634 234.408L113.801 234.199C113.206 234.137 112.61 234.068 112.022 233.99L111.179 233.866C110.267 233.743 109.369 233.603 108.472 233.426C108.016 233.341 107.56 233.248 107.111 233.139C106.113 232.917 105.127 232.643 104.157 232.32C103.051 231.948 101.937 231.546 100.823 231.082C100.382 230.904 99.9414 230.726 99.5005 230.533C98.3636 230.038 97.2267 229.504 96.1284 228.932C94.0314 227.866 92.0333 226.616 90.1576 225.196C89.0859 224.46 88.1991 223.486 87.5667 222.35C87.237 221.657 87.111 220.885 87.2032 220.123C87.4661 217.694 88.9124 216.356 91.9288 216.008C94.4888 215.707 97.1803 215.521 99.663 216.325C102.347 217.192 112.633 222.652 115.418 224.145C118.79 225.954 121.937 226.372 125.549 227.377C125.982 227.493 126.446 227.648 126.934 227.826C129.385 228.708 132.348 230.262 134.088 232.235C134.616 232.797 135.04 233.449 135.341 234.16C135.377 234.303 135.367 234.454 135.311 234.59C135.255 234.727 135.157 234.842 135.031 234.918Z" fill="#263238"/>
<path d="M123.004 235.483L122.625 235.413L122.385 235.367C121.852 235.259 121.31 235.166 120.769 235.081C119.075 234.802 117.351 234.601 115.634 234.408L113.801 234.199C113.205 234.137 112.609 234.068 112.022 233.99L111.179 233.866C110.266 233.743 109.369 233.603 108.472 233.426C108.696 233.279 108.998 233.101 109.361 232.9C110.003 232.536 110.823 232.126 111.643 231.724L111.72 231.685L112.308 231.407C113.081 231.036 113.855 230.703 114.404 230.51C114.605 230.428 114.812 230.361 115.023 230.309C115.156 230.288 115.291 230.288 115.425 230.309C117.165 230.363 122.169 231.786 122.44 232.219C122.971 233.219 123.169 234.363 123.004 235.483Z" fill="#072ACB"/>
<path d="M122.625 235.413L122.385 235.367C121.852 235.259 121.31 235.166 120.769 235.081C121.272 233.681 121.921 232.644 122.239 232.714C122.556 232.784 122.726 233.952 122.625 235.413Z" fill="white"/>
<path d="M112.633 232.614C113.076 233.086 113.468 233.605 113.801 234.16C113.205 234.099 112.61 234.029 112.022 233.952C111.78 233.737 111.506 233.563 111.21 233.433C110.624 233.157 110.001 232.964 109.361 232.861C110.003 232.498 110.823 232.088 111.643 231.685H111.682C112.023 231.969 112.341 232.279 112.633 232.614Z" fill="white"/>
<path d="M115.634 234.408L113.801 234.199C113.206 234.137 112.61 234.068 112.022 233.99L111.179 233.866C110.267 233.743 109.37 233.603 108.472 233.426C108.016 233.341 107.56 233.248 107.111 233.139C106.113 232.917 105.127 232.643 104.157 232.32C103.051 231.948 101.937 231.546 100.823 231.082C100.382 230.904 99.9416 230.726 99.5008 230.533C98.3638 230.038 97.2269 229.504 96.1286 228.932C94.0316 227.866 92.0335 226.616 90.1579 225.196C89.0861 224.46 88.1993 223.486 87.5669 222.35C88.1592 222.096 88.7943 221.957 89.4386 221.94C90.212 221.94 91.4572 222.404 92.0373 221.793C92.277 221.554 92.3466 220.819 92.5013 220.494C92.8975 219.614 93.6218 218.923 94.5199 218.568C96.3916 217.88 98.0777 218.723 99.6554 219.697L100.065 219.953C100.537 220.254 101.009 220.564 101.465 220.827C101.849 221.042 102.26 221.206 102.687 221.314C103.26 221.472 103.845 221.586 104.435 221.654H104.551C106.469 221.902 108.472 222.025 109.656 223.503C110.245 224.335 110.491 225.363 110.344 226.372C110.282 227.64 110.066 228.808 110.785 229.945C111.121 230.439 111.546 230.866 112.038 231.206C112.122 231.272 112.21 231.334 112.301 231.392C112.564 231.585 112.834 231.763 113.074 231.941C114.096 232.569 114.969 233.41 115.634 234.408Z" fill="#EBEBEB"/>
<path d="M109.005 230.371C108.683 231.471 108.019 232.44 107.11 233.139C106.112 232.917 105.126 232.643 104.156 232.32C103.05 231.948 101.936 231.546 100.823 231.082C100.382 230.904 99.9409 230.726 99.5 230.533C98.3631 230.038 97.2262 229.504 96.1279 228.932C95.5324 227.184 94.9601 222.257 95.2385 221.848C96.1434 220.595 97.9145 219.96 99.6547 219.697C101.859 219.357 104.001 219.605 104.202 219.937C104.364 220.367 104.466 220.817 104.504 221.275C104.504 221.399 104.504 221.538 104.558 221.67C104.806 223.41 105.03 225.807 105.177 226.001L105.339 226.171C106.097 226.96 109.152 229.883 109.005 230.371Z" fill="#072ACB"/>
<path d="M95.7802 221.832C95.8652 222.25 97.8916 222.466 99.9257 222.126C101.96 221.786 104.195 220.842 103.793 220.1C103.569 219.667 101.241 219.643 99.2219 220.1C97.2033 220.556 95.7106 221.461 95.7802 221.832Z" fill="white"/>
<path d="M105.34 226.171L105.232 226.279C103.739 227.61 102.006 228.545 101.055 230.417C100.953 230.629 100.875 230.852 100.823 231.082C100.382 230.904 99.9413 230.726 99.5005 230.533C100.367 228.716 101.906 227.486 102.95 225.777C103.71 224.512 104.217 223.112 104.443 221.654C104.443 221.53 104.489 221.399 104.505 221.275C104.505 221.399 104.505 221.538 104.559 221.67C104.806 223.41 105.03 225.807 105.177 226.001L105.34 226.171Z" fill="white"/>
<path opacity="0.8" d="M134.304 232.188L134.096 232.235L133.67 232.32C133.67 232.32 131.86 235.32 130.824 236.187C128.2 236.283 125.574 236.057 123.005 235.514L122.626 235.444L122.386 235.398C121.852 235.29 121.311 235.197 120.77 235.112C119.076 234.833 117.351 234.632 115.634 234.439L113.801 234.23C113.206 234.168 112.61 234.098 112.022 234.021L111.179 233.897C111.179 233.766 111.179 233.634 111.179 233.503C111.246 232.897 111.419 232.308 111.69 231.763C111.687 231.74 111.687 231.716 111.69 231.693C111.773 231.522 111.883 231.366 112.014 231.229C112.148 231.073 112.326 230.962 112.525 230.912L114.373 230.518L115.394 230.301L122.1 228.862C122.153 229.051 122.24 229.229 122.355 229.388C122.372 229.416 122.397 229.438 122.426 229.451C122.456 229.463 122.489 229.467 122.52 229.46C122.552 229.453 122.58 229.436 122.602 229.413C122.624 229.389 122.638 229.359 122.641 229.326C122.689 229.134 122.708 228.936 122.695 228.739L123.252 228.615C123.309 228.803 123.395 228.98 123.508 229.141C123.527 229.167 123.553 229.187 123.583 229.198C123.613 229.209 123.646 229.212 123.678 229.206C123.71 229.199 123.739 229.184 123.762 229.161C123.785 229.139 123.802 229.11 123.809 229.079C123.83 228.884 123.83 228.687 123.809 228.491L124.374 228.367C124.427 228.556 124.514 228.734 124.629 228.893C124.647 228.92 124.673 228.941 124.703 228.953C124.732 228.965 124.765 228.967 124.797 228.961C124.828 228.954 124.857 228.938 124.879 228.915C124.902 228.892 124.917 228.863 124.923 228.831C124.964 228.638 124.979 228.441 124.969 228.244L125.534 228.12C125.592 228.307 125.678 228.484 125.789 228.646C125.807 228.672 125.833 228.693 125.863 228.705C125.893 228.717 125.925 228.72 125.957 228.713C125.988 228.707 126.017 228.691 126.04 228.668C126.062 228.645 126.077 228.616 126.083 228.584C126.116 228.387 126.134 228.188 126.137 227.988L126.872 227.834L128.481 227.486C129.347 227.308 132.85 229.713 133.067 229.86L133.709 229.721L133.848 230.378L134.304 232.188Z" fill="#EBEBEB"/>
<path d="M135.934 232.109L135.296 229.129C135.251 228.916 135.041 228.78 134.828 228.826L134.027 228.997C133.813 229.043 133.678 229.253 133.723 229.466L134.361 232.445C134.407 232.658 134.616 232.794 134.829 232.749L135.631 232.577C135.844 232.531 135.98 232.322 135.934 232.109Z" fill="#37474F"/>
<path d="M89.5002 289.854C87.3578 289.382 84.7823 289.46 82.7714 288.524C80.7605 287.588 79.0668 285.655 77.0404 284.541C76.8393 284.433 76.5918 284.649 76.7542 284.85C78.1619 286.598 80.2037 288.849 82.2997 289.754C84.3956 290.659 87.3114 290.295 89.5157 290.195C89.7322 290.187 89.6781 289.893 89.5002 289.854Z" fill="#263238"/>
<path d="M144.838 277.394C141.93 278.988 139.788 281.757 136.679 283.064C133.57 284.371 129.014 283.976 125.696 283.698C125.611 283.698 125.611 283.822 125.696 283.837C129.347 284.301 133.624 285.732 137.205 284.301C140.144 283.126 143.253 280.14 145.093 277.65C145.217 277.487 144.993 277.309 144.838 277.394Z" fill="#263238"/>
<path d="M127.158 292.577C122.711 293.667 118.426 295.315 114.087 296.745C109.748 298.176 104.984 297.163 100.522 296.544C100.297 296.544 100.189 296.83 100.421 296.9C104.505 298.114 109.13 299.739 113.391 298.509C118.177 297.051 122.833 295.199 127.313 292.971C127.514 292.863 127.351 292.515 127.158 292.577Z" fill="#263238"/>
<path d="M105.75 275.391C103.595 273.824 101.299 272.462 98.8896 271.323C96.4843 270.279 94.0093 269.405 91.5808 268.423C90.2892 267.905 88.4871 267.371 87.4817 266.319C86.4762 265.267 86.0199 263.442 85.5559 262.027C84.6404 259.297 83.9574 256.495 83.514 253.651C83.514 253.465 83.1737 253.511 83.1969 253.689C83.5291 256.702 84.064 259.689 84.7979 262.63C85.4244 264.997 85.8652 267.193 88.1468 268.431C93.669 271.431 100.197 272.445 105.518 275.786C105.765 275.94 105.982 275.554 105.75 275.391Z" fill="#263238"/>
<path d="M116.631 240.742C105.2 239.837 94.9212 234.47 84.5188 230.077C84.4723 230.077 84.4259 230.123 84.4723 230.154C94.2252 236.148 105.061 240.549 116.631 240.819C116.685 240.819 116.685 240.75 116.631 240.742Z" fill="#263238"/>
<path d="M135.31 240.185C131.192 241.367 126.876 241.696 122.626 241.152C122.541 241.152 122.525 241.284 122.626 241.291C126.795 241.902 131.69 243.024 135.426 240.402C135.503 240.332 135.449 240.147 135.31 240.185Z" fill="#263238"/>
<path d="M107.358 247.169C103.282 245.994 99.0436 245.352 94.9831 244.076C91.0803 242.745 87.3616 240.926 83.9155 238.662C83.8304 238.608 83.7531 238.747 83.8382 238.801C87.0324 241.013 90.2885 243.372 93.9932 244.671C98.1619 246.133 102.895 246.837 107.257 247.502C107.458 247.486 107.543 247.231 107.358 247.169Z" fill="#263238"/>
<path d="M491.199 24.3627H376.462V279.715H491.199V24.3627Z" fill="#37474F"/>
<path d="M491.191 24.3627H376.462V40.7669L491.191 34.3707V24.3627Z" fill="#263238"/>
<path d="M491.199 24.3627H485.321V279.715H491.199V24.3627Z" fill="#455A64"/>
<path d="M499.992 279.722H367.652V296.722H499.992V279.722Z" fill="#DBDBDB"/>
<path d="M478.027 144.498H468.468V170.663H478.027V144.498Z" fill="#072ACB"/>
<path opacity="0.2" d="M473.248 153.431C475.375 153.431 477.1 151.654 477.1 149.463C477.1 147.272 475.375 145.496 473.248 145.496C471.121 145.496 469.396 147.272 469.396 149.463C469.396 151.654 471.121 153.431 473.248 153.431Z" fill="black"/>
<path d="M447.059 20.9442H421.482L417.012 6.05585H450.64L447.059 20.9442Z" fill="#455A64"/>
<path d="M441.615 19.1963H426.595C425.962 19.1981 425.346 18.997 424.837 18.6225C424.327 18.248 423.951 17.7198 423.764 17.1158L422.086 11.5162C421.96 11.0803 421.938 10.621 422.022 10.1751C422.106 9.72923 422.293 9.30912 422.568 8.94837C422.843 8.58761 423.198 8.29621 423.606 8.09748C424.014 7.89874 424.463 7.79817 424.916 7.80381H442.96C443.396 7.80285 443.826 7.89978 444.219 8.08743C444.612 8.27508 444.958 8.54867 445.232 8.88797C445.505 9.22727 445.698 9.62363 445.798 10.0478C445.897 10.4719 445.9 10.9129 445.806 11.3383L444.461 16.9379C444.307 17.5782 443.943 18.1486 443.427 18.5579C442.911 18.9673 442.273 19.192 441.615 19.1963Z" fill="#072ACB"/>
<path d="M422.023 0.36351H445.628C446.957 0.36351 448.232 0.891531 449.172 1.83142C450.112 2.7713 450.64 4.04607 450.64 5.37527V6.04814H417.012V5.37527C417.012 4.04607 417.54 2.7713 418.48 1.83142C419.42 0.891531 420.694 0.36351 422.023 0.36351Z" fill="#37474F"/>
<path opacity="0.5" d="M487.672 279.993H380.298L422.062 9.96164H445.907L487.672 279.993Z" fill="#072ACB"/>
<path opacity="0.5" d="M493.333 279.993C493.132 287.542 466.643 293.652 433.989 293.652C401.335 293.652 374.838 287.542 374.645 279.993H493.333Z" fill="#072ACB"/>
<path d="M295.461 322.756C340.282 322.756 376.616 319.598 376.616 315.702C376.616 311.806 340.282 308.648 295.461 308.648C250.641 308.648 214.307 311.806 214.307 315.702C214.307 319.598 250.641 322.756 295.461 322.756Z" fill="#EBEBEB"/>
<path d="M326.127 83.5138C323.459 84.5192 321.402 86.7621 318.958 88.2161C317.937 88.8194 316.939 89.3221 315.864 88.7653C315.399 88.4692 314.957 88.1383 314.542 87.7753C314.091 87.4762 313.581 87.279 313.047 87.1975C312.512 87.116 311.967 87.1522 311.448 87.3035C309.901 87.6748 308.517 88.7498 307.055 89.4691C305.883 90.071 304.59 90.3989 303.273 90.4281C300.748 90.4208 298.305 89.5379 296.358 87.93C295.152 86.9787 294.193 85.7335 293.04 84.7203C291.888 83.7071 284.533 80.9537 283.759 76.5298C283.28 73.7223 283.759 70.6441 287.472 67.0709C288.207 66.3516 289.019 65.6865 289.243 64.6114C289.349 63.7276 289.254 62.8314 288.965 61.9895C288.625 61.0316 288.585 59.9933 288.849 59.0119C289.22 58.0064 290.109 57.4109 290.836 56.6916C292.197 55.4077 292.228 53.2963 291.555 50.628C291.302 49.5012 291.31 48.3314 291.578 47.2081C291.846 46.0847 292.367 45.0375 293.102 44.1467C294.015 43.1331 295.055 42.2415 296.196 41.4939C296.922 40.9884 297.534 40.3362 297.992 39.5795C298.45 38.8228 298.745 37.9784 298.857 37.1009C299.336 34.5873 300.519 32.7929 302.932 31.919C305.035 31.0877 307.346 30.9388 309.537 31.4936C311.921 30.3956 314.608 30.1419 317.156 30.7743C319.515 31.3698 321.301 33.2183 322.925 34.974C324.379 36.5208 325.671 38.2069 325.485 40.5349C325.377 41.8806 324.89 43.1722 324.789 44.5102C324.666 46.2195 325.485 47.4106 326.491 48.6248C328 50.2632 328.927 52.3537 329.128 54.5724C329.198 56.4209 327.079 59.0119 328.85 61.9431C330.397 64.5341 333.312 67.6432 333.807 70.7291C335.339 80.2809 328.68 82.547 326.127 83.5138Z" fill="#263238"/>
<path d="M294.82 84.6816C291.34 83.5524 286.366 83.3745 284.619 80.0875C286.062 81.337 287.791 82.2111 289.653 82.632C289.708 82.632 289.715 82.5547 289.653 82.547C287.593 82.0975 285.725 81.0159 284.309 79.4533C284.008 78.5686 283.895 77.6309 283.977 76.6999C284.147 73.8924 285.523 71.8738 286.993 69.6386C287.559 68.7823 288.036 67.87 288.416 66.9162C288.596 66.6879 288.757 66.4446 288.896 66.1892C289.862 64.4103 289.344 62.4535 288.749 60.6824C288.749 60.6824 288.702 60.6824 288.71 60.6824C289.017 61.7228 289.184 62.7997 289.205 63.8844C289.006 64.7064 288.747 65.5129 288.431 66.2974C287.665 67.2627 286.773 68.1211 285.779 68.8497C284.232 70.1877 282.724 71.9434 282.36 74.0471C282.179 75.0281 282.235 76.0381 282.522 76.9933C282.81 77.9484 283.322 78.821 284.015 79.5384C285.462 83.8386 291.154 83.8231 294.735 84.8131C294.843 84.8131 294.897 84.7048 294.82 84.6816ZM283.335 77.8523C282.02 75.0912 282.871 72.3378 284.881 70.18C285.81 69.1978 287.024 68.3934 287.975 67.388C287.859 67.6277 287.743 67.8597 287.612 68.0995C286.838 69.4607 285.856 70.6286 285.098 71.9666C283.923 73.9947 283.476 76.363 283.83 78.6799C283.833 78.7081 283.833 78.7367 283.83 78.7649C283.645 78.4716 283.48 78.1668 283.335 77.8523Z" fill="#263238"/>
<path d="M296.753 41.0376C295.249 42.0575 293.801 43.1573 292.414 44.3324C291.456 45.0931 290.808 46.1761 290.589 47.3796C290.408 48.5984 290.648 49.8425 291.27 50.9064C291.502 51.3473 291.726 51.8036 291.919 52.2599C291.885 53.0575 291.665 53.8361 291.277 54.5338C290.504 55.864 289.089 56.5679 288.3 57.9136C287.039 60.0947 287.913 62.1133 288.632 64.2788C288.13 62.5155 287.356 60.7366 288.122 58.8649C288.756 57.3567 289.994 56.6529 291.007 55.4928C291.621 54.7479 292.019 53.8493 292.159 52.8941C292.739 54.5338 292.817 56.1966 291.262 57.6584C291.2 57.728 291.262 57.8363 291.355 57.7821C293.273 56.2353 293.072 54.1007 292.252 52.1439C292.308 51.0581 292.195 49.9703 291.919 48.9187C291.919 48.8027 291.726 48.8646 291.734 48.9729C291.788 49.7463 291.896 50.6048 291.912 51.4169L291.765 51.123C290.635 49.0193 290.38 46.6836 292.19 44.7964C293.551 43.3811 295.284 42.3524 296.776 41.0685C296.838 41.0685 296.792 41.0067 296.753 41.0376Z" fill="#263238"/>
<path d="M272.561 313.273C270.705 312.631 228.43 280.07 227.61 277.812C227.285 276.961 231.67 270.519 237.185 262.901L237.363 262.661C238.499 261.114 258.84 234.818 258.84 234.818L286.645 256.798L264.827 283.357L264.455 283.814C264.455 283.814 275.067 303.513 275.709 306.096C276.351 308.679 274.394 313.915 272.561 313.273Z" fill="#EB9481"/>
<path d="M272.561 313.273C270.705 312.631 228.43 280.07 227.61 277.812C227.354 277.147 230.007 273.025 233.797 267.595C240.936 277.503 267.162 302.113 271.076 302.36C273.071 302.484 272.228 299.267 270.821 295.84C273.218 300.481 275.461 304.959 275.724 306.096C276.358 308.664 274.394 313.915 272.561 313.273Z" fill="#263238"/>
<path d="M245.669 251.206L272.855 273.837C272.855 273.837 316.398 222.482 317.991 214.748C319.801 205.977 324.852 137.266 324.736 133.84C324.596 129.687 320.018 111.411 320.018 111.411H287.403C287.403 111.411 282.839 201.267 281.888 204.051C280.867 207.06 245.669 251.206 245.669 251.206Z" fill="#37474F"/>
<path d="M242.784 255.507L246.605 248.298L274.866 273.071L269.312 277.944L242.784 255.507Z" fill="#455A64"/>
<path d="M275.422 267.023C271.214 262.962 254.818 249.938 252.776 248.871C252.73 248.871 252.668 248.925 252.699 248.964C254.184 250.727 268.167 262.181 275.314 267.154C275.391 267.209 275.491 267.085 275.422 267.023Z" fill="#263238"/>
<path d="M321.634 124.938C321.198 124.806 320.754 124.702 320.304 124.629C319.829 124.498 319.368 124.322 318.927 124.103C318.007 123.636 317.16 123.037 316.413 122.324C315.579 121.425 314.926 120.375 314.488 119.23C314.201 118.573 312.871 115.077 312.856 115.046C312.84 115.015 312.717 115.046 312.74 115.1C312.825 115.587 313.745 118.612 314.008 119.362C314.421 120.694 315.109 121.924 316.027 122.974C316.814 123.786 317.762 124.423 318.811 124.845C319.288 125.047 319.79 125.183 320.304 125.247C320.758 125.354 321.233 125.327 321.673 125.17C321.742 125.116 321.696 124.961 321.634 124.938Z" fill="#263238"/>
<path d="M292.778 113.02L292.097 131.064L291.324 149.107L289.576 185.187C289.251 191.197 288.934 197.206 288.555 203.216C288.508 203.989 288.447 204.763 288.377 205.536C288.374 205.655 288.35 205.773 288.307 205.884L288.16 206.17C288.06 206.348 287.959 206.511 287.851 206.673C287.65 206.998 287.433 207.307 287.217 207.617C286.343 208.854 285.43 210.061 284.518 211.259C282.7 213.657 280.828 216.016 278.957 218.375C275.208 223.088 271.426 227.774 267.611 232.436L256.11 246.357L267.332 232.204C271.07 227.486 274.793 222.758 278.5 218.019C280.346 215.647 282.177 213.26 283.992 210.857C284.897 209.658 285.801 208.452 286.66 207.23L287.279 206.302C287.457 205.992 287.712 205.683 287.696 205.42C287.758 204.693 287.82 203.966 287.859 203.208C288.214 197.199 288.508 191.189 288.81 185.18L290.713 149.107L291.71 131.079L292.778 113.02Z" fill="#263238"/>
<path d="M318.641 209.952C318.401 212.164 318.185 213.819 317.991 214.74C317.094 219.071 302.964 237.169 290.752 252.22L282.375 199.542C283.868 180.849 287.395 111.426 287.395 111.426H303.637L318.641 209.952Z" fill="#263238"/>
<path d="M365.17 312.013C363.445 312.964 310.946 322.493 308.711 321.588C307.86 321.255 306.019 313.683 304.07 304.472C304.07 304.379 297.774 269.598 297.774 269.598L329.376 263.713L337.884 298.238C337.884 298.238 359.609 303.575 361.953 304.835C364.296 306.096 366.918 311.069 365.17 312.013Z" fill="#EB9481"/>
<path d="M365.17 312.013C363.445 312.964 310.945 322.493 308.71 321.58C308.045 321.325 306.769 316.591 305.299 310.118C317.434 311.464 353.251 308.509 356.09 305.771C357.521 304.379 354.543 302.817 351.078 301.595C356.136 302.933 360.939 304.279 361.975 304.835C364.311 306.088 366.918 311.069 365.17 312.013Z" fill="#263238"/>
<path d="M313.551 111.426C313.551 111.426 312.693 125.348 308.841 135.31C308.841 135.31 303.288 138.767 302.708 139.316L335.733 288.222L301.85 294.812C301.85 294.812 288.531 222.683 287.402 217.741C285.585 209.805 271.16 142.309 270.557 138.473C269.219 130.453 276.628 111.457 276.628 111.457L313.551 111.426Z" fill="#37474F"/>
<path d="M332.276 280.751C322.995 282.151 305.137 285.925 302.948 286.838C302.894 286.838 302.948 286.954 302.948 286.954C305.322 286.915 327.024 282.607 332.284 280.921C332.306 280.92 332.327 280.91 332.343 280.894C332.358 280.877 332.366 280.855 332.365 280.832C332.364 280.81 332.354 280.789 332.337 280.773C332.321 280.758 332.298 280.75 332.276 280.751Z" fill="#263238"/>
<path d="M280.798 124.946C281.49 124.847 282.187 124.782 282.886 124.752C283.614 124.666 284.335 124.529 285.044 124.343C286.397 124.004 287.697 123.483 288.911 122.796C290.078 122.056 291.041 121.035 291.711 119.826C292.105 119.192 293.907 115.758 293.923 115.734C293.938 115.711 294.139 115.734 294.124 115.804C294.023 116.284 292.84 119.261 292.476 120.004C291.86 121.416 290.854 122.624 289.576 123.484C287.567 124.68 285.285 125.338 282.948 125.394C282.212 125.46 281.471 125.392 280.759 125.193C280.635 125.116 280.705 124.961 280.798 124.946Z" fill="#263238"/>
<path d="M309.623 134.938C306.533 136.029 303.544 137.388 300.69 138.999C300.666 139.01 300.647 139.031 300.637 139.056C300.628 139.082 300.629 139.11 300.64 139.134C300.651 139.159 300.672 139.178 300.697 139.187C300.723 139.197 300.751 139.196 300.775 139.185C303.784 137.924 306.847 136.717 309.786 135.317C309.836 135.296 309.876 135.255 309.896 135.204C309.916 135.154 309.916 135.097 309.894 135.047C309.873 134.996 309.832 134.957 309.781 134.937C309.73 134.916 309.674 134.917 309.623 134.938Z" fill="#263238"/>
<path d="M310.767 114.381C310.767 114.273 310.574 114.249 310.574 114.381C310.544 117.725 310.345 121.065 309.978 124.389C309.831 125.936 308.509 134.443 305.841 133.801C305.392 133.693 305.168 133.252 305.106 132.572C305.121 131.69 305.249 130.815 305.485 129.965C305.794 128.179 306.049 126.392 306.22 124.551C306.565 121.209 306.565 117.84 306.22 114.497C306.214 114.478 306.202 114.461 306.186 114.449C306.17 114.437 306.151 114.431 306.131 114.431C306.111 114.431 306.091 114.437 306.075 114.449C306.059 114.461 306.047 114.478 306.042 114.497C306.078 119.154 305.765 123.808 305.106 128.419C304.75 130.638 303.598 133.964 305.918 134.327C308.238 134.691 309.862 129.115 310.164 127.591C310.933 123.232 311.136 118.792 310.767 114.381Z" fill="#263238"/>
<path d="M305.91 134.018C305.666 134.592 305.459 135.181 305.291 135.781C305.113 136.245 305.023 136.739 305.029 137.235C305.029 137.328 305.16 137.336 305.214 137.274C305.487 136.836 305.69 136.359 305.817 135.859C306.026 135.31 306.243 134.768 306.436 134.219C306.441 134.156 306.425 134.093 306.391 134.04C306.357 133.986 306.307 133.945 306.248 133.923C306.189 133.9 306.124 133.897 306.063 133.915C306.002 133.932 305.949 133.968 305.91 134.018Z" fill="#263238"/>
<path d="M279.406 111.426C278.485 114.961 277.611 118.511 276.815 122.076C276.018 125.642 275.268 129.223 274.819 132.842L274.688 134.196C274.688 134.645 274.688 135.093 274.649 135.542L275.051 138.225L276.072 143.639L278.253 154.382L287.209 197.307L296.173 240.232L300.628 261.702L305.044 283.156L300.28 261.748L295.64 240.325L286.482 197.431C283.52 183.115 280.535 168.814 277.704 154.467L275.624 143.701L274.657 138.287L274.27 135.549C274.285 134.626 274.354 133.704 274.479 132.788C274.989 129.153 275.809 125.588 276.66 122.03C277.511 118.472 278.423 114.976 279.406 111.426Z" fill="#263238"/>
<path d="M302.33 297.743L298.973 290.303L335.865 283.156L336.314 290.535L302.33 297.743Z" fill="#455A64"/>
<path d="M318.456 66.1892C327.164 71.6031 353.19 92.2379 351.241 100.776C349.369 108.975 339.918 109.624 331.805 101.882C326.004 96.3448 318.58 83.6916 314.071 74.6117C310.412 67.2487 310.404 61.1542 318.456 66.1892Z" fill="#EB9481"/>
<path d="M318.456 66.1892C327.164 71.6031 353.19 92.2379 351.241 100.776C349.369 108.975 339.918 109.624 331.805 101.882C326.004 96.3448 318.58 83.6916 314.071 74.6117C310.412 67.2487 310.404 61.1542 318.456 66.1892Z" fill="#072ACB"/>
<path opacity="0.1" d="M346.987 106.507C343.035 108.433 337.133 106.964 331.804 101.867C326.004 96.3293 318.579 83.6762 314.07 74.5962C312.392 71.2164 311.479 68.1072 311.75 66.2124L346.987 106.507Z" fill="black"/>
<path d="M321.286 97.7524L320.01 111.426H276.621C276.621 111.426 288.996 77.2723 301.285 65.7406C306.181 61.1542 310.721 62.5154 314.186 66.0268C314.959 66.8002 324.527 82.5934 325.331 88.2239C325.996 92.8489 321.286 97.7524 321.286 97.7524Z" fill="#072ACB"/>
<path d="M315.246 95.1614C313.061 95.2157 310.886 95.4747 308.749 95.9348C307.674 96.1823 306.615 96.4994 305.563 96.8397C305.029 97.0099 304.503 97.1568 303.969 97.3038C303.426 97.4727 302.86 97.5588 302.291 97.559C302.245 97.559 302.237 97.6518 302.291 97.6518C302.815 97.7343 303.346 97.7705 303.877 97.7601C304.398 97.7261 304.915 97.6484 305.424 97.5281C306.514 97.2883 307.597 96.9789 308.68 96.7547C310.868 96.2442 313.065 95.726 315.269 95.4166C315.354 95.378 315.354 95.1537 315.246 95.1614Z" fill="#263238"/>
<path d="M320.319 98.0927C318.577 97.7077 316.809 97.4493 315.029 97.3193C314.138 97.269 313.244 97.269 312.353 97.3193C311.92 97.3193 311.494 97.3657 311.069 97.3966C310.644 97.4276 310.125 97.5436 309.654 97.5668C309.607 97.5668 309.592 97.6673 309.654 97.6673C310.094 97.6673 310.535 97.7524 310.984 97.7756L312.314 97.8529C313.204 97.8993 314.093 97.9689 314.982 98.0076C316.761 98.0927 318.54 98.1932 320.311 98.3556C320.404 98.2938 320.412 98.1159 320.319 98.0927Z" fill="#263238"/>
<path d="M305.315 72.4384C304.464 77.4037 286.25 112.037 285.453 113.685C283.234 118.325 267.541 127.312 265.05 115.564C262.56 103.816 285.554 78.502 296.072 68.726C303.59 61.7343 306.892 63.2115 305.315 72.4384Z" fill="#072ACB"/>
<path d="M288.578 107.606C289.468 105.463 290.442 103.36 291.417 101.264C292.391 99.1678 293.42 97.095 294.448 95.0223C295.477 92.9495 296.537 90.8922 297.635 88.8349L299.29 85.7799C299.862 84.7745 300.419 83.7535 301.015 82.7558C300.574 83.8231 300.094 84.875 299.63 85.9423L298.176 89.0901C297.202 91.1938 296.173 93.2666 295.144 95.3394C294.116 97.4121 293.048 99.4772 291.95 101.527C290.852 103.576 289.754 105.61 288.578 107.606Z" fill="#263238"/>
<path d="M297.759 89.4536C298.099 88.7411 298.533 88.0777 299.05 87.4814C299.554 86.8679 300.14 86.3266 300.791 85.8727C300.453 86.5887 300.018 87.255 299.499 87.8526C298.994 88.4622 298.408 89.0007 297.759 89.4536Z" fill="#263238"/>
<path d="M304.557 65.8411C304.905 66.6145 309.917 71.3324 313.706 70.443C314.944 70.1568 313.652 63.343 313.652 63.343V62.817L313.923 55.4696L304.642 51.6875L303.312 51.208C303.312 51.208 303.373 53.2189 303.474 55.7325C303.474 55.8485 303.474 55.9645 303.474 56.0883C303.474 56.212 303.474 56.3667 303.474 56.4982C303.474 56.8694 303.474 57.2716 303.513 57.6351C303.551 57.9986 303.513 58.2075 303.567 58.5091C303.621 58.8107 303.605 59.1124 303.621 59.4217C303.786 61.5803 304.099 63.7251 304.557 65.8411Z" fill="#EB9481"/>
<path d="M313.938 55.4696L313.737 61.015C310.7 62.44 307.311 62.9403 303.992 62.4535C303.876 61.5177 303.76 60.4658 303.675 59.4217C303.675 59.1124 303.629 58.8185 303.613 58.5091C303.598 58.1997 303.613 57.9213 303.559 57.6351C303.505 57.349 303.559 56.8617 303.52 56.4982C303.52 56.3667 303.52 56.2275 303.52 56.0883C303.52 55.9491 303.52 55.8485 303.52 55.7325C303.42 53.2189 303.366 51.208 303.366 51.208L304.688 51.6875L313.938 55.4696Z" fill="#263238"/>
<path d="M294.471 44.8892C291.455 57.4418 298.625 60.6669 301.332 61.3089C303.791 61.8967 312.229 63.6291 316.529 51.4246C320.83 39.22 315.949 33.8912 310.404 32.2438C304.858 30.5964 297.495 32.3443 294.471 44.8892Z" fill="#EB9481"/>
<path d="M315.392 51.7727C312.747 51.1075 314.077 44.9975 314.077 44.9975C314.077 44.9975 312.662 44.0307 311.533 40.5426C311.533 40.5426 312.144 43.4739 313.644 44.982C313.9 45.2373 305.005 42.1436 305.81 34.9276C304.616 36.617 303.074 38.031 301.287 39.0743C299.501 40.1176 297.512 40.766 295.454 40.9757C295.237 40.9757 297.565 34.8502 299.251 33.6978C300.226 33.0238 301.284 32.478 302.399 32.0737C305.626 30.6841 309.269 30.6147 312.546 31.8803C317.96 34.0304 320.211 40.7901 320.056 43.3037C319.739 48.2691 316.645 52.0898 315.392 51.7727Z" fill="#263238"/>
<path d="M313.32 45.0671C308.401 43.6594 305.207 39.5449 306.003 34.3707C306.007 34.3423 306 34.3135 305.984 34.2899C305.968 34.2662 305.944 34.2494 305.916 34.2427C305.888 34.236 305.858 34.2398 305.833 34.2535C305.808 34.2671 305.789 34.2896 305.779 34.3165C303.877 39.3051 308.548 44.4097 313.343 45.1444C313.459 45.1831 313.436 45.098 313.32 45.0671Z" fill="#263238"/>
<path d="M305.934 34.7574H305.887C303.985 37.0777 301.595 41.3856 297.929 40.3106C297.828 40.3106 297.774 40.4266 297.875 40.4575C301.301 41.7801 304.89 37.6346 305.934 34.7574Z" fill="#263238"/>
<path d="M314.325 51.9119C314.325 51.9119 317.713 48.3464 319.368 49.5916C321.023 50.8368 318.061 56.3126 315.818 56.7844C315.534 56.8631 315.238 56.8839 314.946 56.8455C314.655 56.807 314.374 56.7102 314.12 56.5608C313.867 56.4113 313.646 56.2123 313.471 55.9757C313.297 55.739 313.171 55.4696 313.103 55.1834L314.325 51.9119Z" fill="#EB9481"/>
<path d="M318.455 51.1539C318.494 51.1539 318.494 51.208 318.455 51.2158C316.908 51.5947 315.887 52.8554 315.122 54.2012C315.231 54.0649 315.367 53.9539 315.523 53.8757C315.679 53.7974 315.85 53.7539 316.024 53.748C316.198 53.7421 316.372 53.7741 316.532 53.8416C316.693 53.9092 316.837 54.0107 316.955 54.1393C316.993 54.1393 316.955 54.2321 316.901 54.2166C316.651 54.088 316.366 54.0418 316.088 54.0849C315.81 54.128 315.553 54.258 315.354 54.4564C315.021 54.7834 314.725 55.1466 314.472 55.5392C314.379 55.6552 314.155 55.5392 314.225 55.4077C314.519 53.4664 316.39 51.0379 318.455 51.1539Z" fill="#263238"/>
<path d="M297.31 42.5071C297.602 42.4527 297.896 42.414 298.192 42.3911C298.496 42.3076 298.82 42.3267 299.112 42.4452C299.197 42.5013 299.262 42.584 299.295 42.6805C299.329 42.777 299.33 42.8819 299.298 42.9789C299.207 43.1595 299.07 43.3124 298.899 43.4213C298.729 43.5302 298.533 43.5911 298.331 43.5976C297.922 43.6776 297.497 43.6033 297.14 43.3888C297.063 43.3335 297.004 43.2576 296.969 43.1699C296.935 43.0821 296.926 42.9863 296.944 42.8936C296.961 42.801 297.005 42.7153 297.07 42.6468C297.135 42.5784 297.218 42.5299 297.31 42.5071Z" fill="#263238"/>
<path d="M306.53 44.5953C306.313 44.3865 306.073 44.2241 305.841 44.0384C305.625 43.8051 305.336 43.6524 305.021 43.6053C304.92 43.608 304.822 43.6444 304.744 43.7089C304.665 43.7733 304.611 43.8621 304.588 43.9611C304.573 44.1629 304.611 44.3651 304.7 44.5471C304.788 44.7292 304.923 44.8846 305.091 44.9975C305.399 45.2747 305.798 45.4289 306.212 45.4306C306.307 45.4261 306.399 45.3939 306.475 45.3382C306.552 45.2825 306.611 45.2055 306.645 45.1168C306.678 45.0281 306.685 44.9315 306.665 44.8389C306.644 44.7463 306.597 44.6616 306.53 44.5953Z" fill="#263238"/>
<path d="M303.652 47.3719C303.652 47.3719 303.706 47.4337 303.698 47.4647C303.451 48.3077 303.312 49.3132 304.008 49.7849C304.008 49.7849 304.008 49.8391 304.008 49.8313C303.08 49.4678 303.281 48.1298 303.652 47.3719Z" fill="#263238"/>
<path d="M304.642 46.6835C306.034 46.931 305.416 49.7076 304.139 49.4679C302.863 49.2281 303.498 46.4747 304.642 46.6835Z" fill="#263238"/>
<path d="M305.152 46.9156C305.361 47.1244 305.539 47.457 305.825 47.5498C306.111 47.6426 306.475 47.4183 306.753 47.194C306.753 47.194 306.8 47.194 306.792 47.194C306.684 47.7277 306.359 48.2227 305.779 48.184C305.199 48.1453 305.005 47.5885 304.959 47.0239C304.951 46.9929 305.044 46.8615 305.152 46.9156Z" fill="#263238"/>
<path d="M298.54 46.1422C298.54 46.1422 298.462 46.1422 298.454 46.204C298.3 47.0625 297.983 48.0293 297.14 48.1531V48.1995C298.083 48.2381 298.532 46.9543 298.54 46.1422Z" fill="#263238"/>
<path d="M297.96 45.0516C296.599 44.6495 295.91 47.3719 297.186 47.7663C298.462 48.1608 299.097 45.3687 297.96 45.0516Z" fill="#263238"/>
<path d="M297.31 45.0825C297.054 45.1753 296.776 45.3842 296.536 45.3378C296.296 45.2914 296.08 44.9279 295.956 44.5643C295.956 44.5643 295.917 44.5643 295.91 44.5643C295.763 45.0825 295.801 45.6703 296.281 45.9024C296.76 46.1344 297.17 45.7477 297.426 45.2527C297.48 45.214 297.441 45.0516 297.31 45.0825Z" fill="#263238"/>
<path d="M302.26 54.7271C302.012 54.8972 301.757 55.137 301.44 55.1138C301.121 55.0496 300.818 54.9206 300.55 54.7348C300.55 54.7348 300.488 54.7348 300.504 54.7348C300.598 54.9253 300.742 55.0868 300.92 55.2025C301.099 55.3182 301.305 55.3837 301.517 55.3922C301.702 55.3774 301.878 55.3076 302.023 55.1918C302.167 55.076 302.274 54.9196 302.329 54.7426C302.352 54.7348 302.291 54.7039 302.26 54.7271Z" fill="#263238"/>
<path d="M298.927 50.2413C298.927 50.2413 298.455 51.4788 298.316 52.082C299.493 52.3608 300.625 52.8034 301.68 53.3968C301.92 53.5438 301.974 53.3195 301.719 53.072C300.955 52.3423 299.991 51.8575 298.95 51.6798C298.95 51.502 299.723 49.785 299.623 49.754C299.143 49.6881 298.656 49.6881 298.176 49.754C299.089 47.1476 300.404 44.7036 301.27 42.0972C301.27 42.0044 301.169 41.9425 301.123 42.0198C299.629 44.5922 298.396 47.3075 297.442 50.1253C297.31 50.4578 298.656 50.2877 298.927 50.2413Z" fill="#263238"/>
<path d="M302.5 74.3951C302.283 72.5312 301.092 70.3192 300.597 69.2442C300.102 68.1691 298.137 66.251 298.153 65.5704C298.168 64.8898 301.896 63.691 302.407 63.8148C302.917 63.9385 305.5 68.1382 306.019 69.7701C306.537 71.402 306.854 72.6859 306.854 72.6859L302.5 74.3951Z" fill="#263238"/>
<path d="M319.677 72.6395C320.048 72.3301 318.904 66.978 317.651 65.9803C316.398 64.9826 308.37 64.5572 307.302 66.1969C306.235 67.8365 307.24 73.2195 307.82 73.3433C308.401 73.467 309.947 73.3433 310.272 73.0262C310.597 72.7091 309.893 69.2828 310.373 68.7028C311.007 67.9293 315.586 68.2078 315.988 68.7414C316.39 69.2751 316.761 72.2682 316.8 72.4616C316.839 72.6549 319.081 73.1422 319.677 72.6395Z" fill="#263238"/>
<path d="M293.443 119.052C294.951 122.796 300.644 127.869 304.171 128.728C307.697 129.586 331.07 134.235 335.208 129.076C338.974 124.381 334.512 89.0979 328.495 77.6667C328.05 76.7687 327.489 75.9338 326.824 75.1841L326.693 75.0448C320.668 69.0354 307.751 71.3943 306.12 71.7887C303.583 72.4152 299.932 74.5653 297.829 79.6003C295.725 84.6352 291.896 115.317 293.443 119.052Z" fill="#37474F"/>
<path d="M307.001 117.49C307.21 120.081 310.567 126.33 314.883 128.07C319.198 129.811 335.2 129.076 338.975 125.897C339.516 125.283 339.861 124.521 339.965 123.708C340.831 119.725 337.884 112.749 336.662 104.659C335.541 97.1955 336.275 88.5951 334.063 85.0683C333.674 84.374 333.148 83.7661 332.517 83.2817C331.81 82.7947 331.056 82.3801 330.266 82.0443C325.884 80.2811 321.092 79.7958 316.445 80.6444C313.63 81.2167 311.278 82.3691 310.126 84.1712C307.179 88.7421 306.8 114.915 307.001 117.49Z" fill="#DBDBDB"/>
<path opacity="0.1" d="M307.001 117.49C307.21 120.081 310.567 126.33 314.883 128.07C319.198 129.811 335.2 129.076 338.975 125.897C339.516 125.283 339.861 124.521 339.965 123.708C337.058 125.333 333.803 126.235 330.475 126.338C328.091 126.439 325.702 126.307 323.344 125.944C321.024 125.595 318.634 124.923 316.801 123.229C313.344 120.027 312.446 114.226 312.253 109.4C312.18 104.097 312.583 98.7986 313.46 93.5682C314.024 89.1727 315.021 84.8437 316.437 80.6444C313.622 81.2167 311.271 82.3691 310.118 84.1712C307.179 88.7421 306.8 114.915 307.001 117.49Z" fill="black"/>
<path d="M310.636 107.351H311.719C311.789 101.937 312.562 87.2803 315.215 84.5733C317.868 81.8664 327.265 82.0133 331.093 83.5447C332.129 83.9666 333.123 84.4845 334.063 85.0915C333.672 84.3989 333.146 83.7914 332.516 83.3049C331.804 82.8195 331.048 82.4025 330.258 82.0597C325.617 80.7913 317.172 81.0156 314.488 83.7535C310.938 87.3422 310.652 106.538 310.636 107.351Z" fill="#263238"/>
<path d="M298.176 102.045L299.251 102.138C301.378 80.4433 302.384 79.7085 306.607 76.553L306.753 76.4447C310.86 73.351 320.041 74.3023 323.599 75.1995C325.392 75.6466 327.062 76.4896 328.487 77.6667C328.042 76.7687 327.481 75.9338 326.816 75.184C325.881 74.6935 324.892 74.3145 323.869 74.0548C321.379 73.4283 311.046 71.8351 306.15 75.4934L306.003 75.5939C301.548 78.9119 300.357 79.8013 298.176 102.045Z" fill="#263238"/>
<path d="M290.589 118.248C290.991 121.117 296.776 127.104 299.692 128.488C300.287 128.767 305.315 130.174 305.694 127.962C305.725 127.814 305.748 127.664 305.763 127.514C306.591 121.721 305.199 108.952 304.773 107.242C304.263 105.208 298.748 101.094 295.353 100.119C294.761 99.9045 294.122 99.8563 293.504 99.9799C290.914 100.776 290.349 116.43 290.589 118.248Z" fill="#455A64"/>
<path d="M290.589 118.248C290.991 121.117 296.776 127.104 299.692 128.488C300.287 128.767 305.315 130.174 305.694 127.962C305.725 127.814 305.748 127.664 305.763 127.514C302.028 126.972 296.915 124.838 294.997 119.926C293.172 115.286 294.371 105.556 295.353 100.119C294.761 99.9045 294.122 99.8563 293.504 99.9799C290.914 100.776 290.349 116.43 290.589 118.248Z" fill="#37474F"/>
<path d="M344.566 93.1892C351.643 94.4963 350.931 103.615 347.118 106.283C338.162 112.54 323.738 116.144 313.931 117.297C310.767 117.668 307.21 96.5613 310.481 95.641C314.402 94.5272 330.706 90.6292 344.566 93.1892Z" fill="#EB9481"/>
<path d="M311.107 94.0323L316.978 121.048C316.978 121.048 342.694 112.037 348.742 104.852C354.458 98.0695 347.752 93.2047 342.678 91.8589C335.656 89.9873 311.107 94.0323 311.107 94.0323Z" fill="#072ACB"/>
<path d="M340.257 91.712C339.716 91.712 339.182 91.712 338.649 91.712C337.558 91.712 336.468 91.712 335.377 91.712C333.173 91.7662 330.969 91.8435 328.772 91.9982C324.379 92.2998 312.43 94.0555 311.208 94.2024C311.146 94.2024 310.999 93.9704 311.301 93.8776C311.448 93.808 319.151 92.4081 321.355 92.1142C325.744 91.5178 330.167 91.2103 334.596 91.1938H334.813L335.261 91.0391C335.635 90.9287 336.014 90.8409 336.398 90.7762C337.165 90.6493 337.942 90.6 338.718 90.6292C338.727 90.6328 338.734 90.6388 338.739 90.6463C338.744 90.6539 338.746 90.6627 338.746 90.6718C338.746 90.6808 338.744 90.6896 338.739 90.6972C338.734 90.7048 338.727 90.7107 338.718 90.7143C337.937 90.7621 337.161 90.8759 336.398 91.0546L335.625 91.2016L338.324 91.2866C338.95 91.2866 339.561 91.3408 340.18 91.3949C340.799 91.4491 341.394 91.4645 341.982 91.5728C342.029 91.5728 342.021 91.6502 341.982 91.6579C341.394 91.7739 340.807 91.7043 340.257 91.712Z" fill="#263238"/>
<path d="M319.538 104.195C320.141 107.119 320.776 110.042 321.263 112.997C321.541 114.675 321.828 116.361 322.09 118.039C322.09 118.101 321.99 118.14 321.974 118.039C321.247 115.131 320.528 112.215 319.94 109.269C319.353 106.322 318.749 103.406 318.2 100.467C317.891 98.7888 317.636 97.1105 317.427 95.409C317.427 95.409 317.481 95.3625 317.489 95.409C318.316 98.3093 318.966 101.248 319.538 104.195Z" fill="#263238"/>
<path d="M299.63 109.207C302.19 110.452 307.566 131.458 303.381 131.466C283.698 131.535 270.774 123.105 267.951 120.421C264.254 116.91 265.708 110.707 268.33 108.634C272.081 105.626 297.063 107.969 299.63 109.207Z" fill="#EB9481"/>
<path d="M328.904 112.942C329.059 113.632 328.999 114.352 328.732 115.006C328.465 115.66 328.004 116.216 327.412 116.601C328.27 117.421 328.817 118.515 328.958 119.694C329.113 121.798 325.865 122.966 325.865 122.966C326.589 124.012 326.982 125.251 326.994 126.524C326.94 128.558 323.838 130.197 323.838 130.197C323.977 131.523 323.634 132.855 322.872 133.948C320.714 136.787 315.292 136.269 311.843 136.013C308.393 135.758 298.865 131.713 296.978 131.133L298.571 108.975C298.571 108.975 314.403 105.827 318.409 106.724C321.827 107.513 328.247 110.336 328.904 112.942Z" fill="#EB9481"/>
<path d="M327.288 116.229C323.885 114.559 320.18 113.986 316.514 113.198C316.437 113.198 316.406 113.314 316.514 113.329C320.164 114.064 323.629 115.518 327.249 116.423C327.326 116.43 327.373 116.276 327.288 116.229Z" fill="#263238"/>
<path d="M325.849 122.711C325.04 122.406 324.195 122.208 323.335 122.123C322.433 121.979 321.528 121.847 320.621 121.728C318.803 121.496 316.986 121.303 315.16 121.164C315.075 121.164 315.044 121.28 315.16 121.295C316.97 121.527 318.78 121.79 320.574 122.069C321.479 122.223 322.376 122.386 323.274 122.556C324.109 122.769 324.964 122.891 325.826 122.919C325.843 122.909 325.858 122.895 325.869 122.878C325.88 122.861 325.887 122.841 325.889 122.821C325.892 122.801 325.889 122.78 325.882 122.761C325.875 122.742 325.864 122.725 325.849 122.711Z" fill="#263238"/>
<path d="M323.8 130.213C323.056 129.94 322.271 129.801 321.479 129.803L318.997 129.517C317.334 129.323 315.679 129.122 314.031 128.867C313.946 128.867 313.923 128.983 314.031 128.999C315.71 129.262 317.38 129.555 319.058 129.772C319.878 129.903 320.706 130.019 321.526 130.135C322.27 130.311 323.04 130.353 323.8 130.259C323.805 130.253 323.807 130.244 323.807 130.236C323.807 130.228 323.805 130.22 323.8 130.213Z" fill="#263238"/>
<path d="M297.032 108.016L293.49 133.91C293.49 133.91 270.086 127.545 266.126 118.202C263.497 112.014 267.279 109.037 268.756 108.194C270.697 107.111 281.509 105.811 297.032 108.016Z" fill="#072ACB"/>
<path d="M275.252 106.755C285.724 105.641 296.831 107.977 296.854 107.977C297.055 107.977 297.055 108.263 296.947 108.248C289.753 107.167 282.478 106.721 275.206 106.917C275.136 106.917 275.175 106.763 275.252 106.755Z" fill="#263238"/>
<path d="M287.735 131.048C287.975 128.728 288.872 121.937 289.182 120.135C289.808 116.477 290.38 112.78 291.293 109.176C291.293 109.106 291.432 109.106 291.425 109.176C291.138 112.826 290.527 116.469 289.971 120.081C289.684 121.891 288.176 130.135 287.851 131.048C287.828 131.118 287.735 131.118 287.735 131.048Z" fill="#263238"/>
</svg>
