<svg width="502" height="485" viewBox="0 0 502 485" fill="none" xmlns="http://www.w3.org/2000/svg">
<path d="M1 455.223L501 455.223" stroke="#263238" stroke-linecap="round" stroke-linejoin="round"/>
<path d="M82.2545 196.364C77.9248 186.905 72.1133 184.804 72.1133 184.804" stroke="#263238" stroke-linecap="round" stroke-linejoin="round"/>
<path d="M90.0184 187.231L87.6328 196.174" stroke="#263238" stroke-linecap="round" stroke-linejoin="round"/>
<path d="M92.5547 196.311L104.23 173.822" stroke="#263238" stroke-linecap="round" stroke-linejoin="round"/>
<path d="M84.8906 162.22L87.2236 196.069" stroke="#263238" stroke-linecap="round" stroke-linejoin="round"/>
<path d="M93.2872 208.586L93.2872 203.72L99.9499 196.363L73.2884 196.363L79.9512 203.72L79.9512 208.586C79.9522 212.703 79.1044 216.777 77.4608 220.552C75.8172 224.328 73.4131 227.724 70.3984 230.528L70.3984 260.322L102.84 260.322L102.84 230.528C99.8268 227.722 97.4236 224.326 95.7801 220.551C94.1366 216.776 93.288 212.703 93.2872 208.586Z" stroke="#263238" stroke-linecap="round" stroke-linejoin="round"/>
<path d="M77.5468 184.394C85.7964 176.964 79.9744 171.131 72.5339 179.381C72.4789 179.44 72.4122 179.487 72.3381 179.519C72.2639 179.552 72.1839 179.568 72.1031 179.568C72.0222 179.568 71.9422 179.552 71.8681 179.519C71.794 179.487 71.7273 179.44 71.6722 179.381C64.2423 171.131 58.4098 176.964 66.6594 184.394C66.7215 184.447 66.7714 184.513 66.8056 184.587C66.8398 184.662 66.8576 184.743 66.8576 184.824C66.8576 184.906 66.8398 184.987 66.8056 185.062C66.7714 185.136 66.7215 185.202 66.6594 185.255C58.4098 192.685 64.2423 198.518 71.6722 190.268C71.7255 190.206 71.7916 190.156 71.8659 190.122C71.9403 190.088 72.0212 190.07 72.1031 190.07C72.1849 190.07 72.2658 190.088 72.3402 190.122C72.4146 190.156 72.4807 190.206 72.5339 190.268C79.9744 198.518 85.7964 192.685 77.5468 185.255C77.4876 185.2 77.4404 185.134 77.4081 185.059C77.3758 184.985 77.3591 184.905 77.3591 184.824C77.3591 184.744 77.3758 184.664 77.4081 184.59C77.4404 184.515 77.4876 184.449 77.5468 184.394Z" fill="#263238"/>
<path d="M74.7815 184.825C74.7815 184.295 74.6243 183.776 74.3299 183.336C74.0354 182.895 73.6169 182.552 73.1272 182.349C72.6375 182.146 72.0987 182.093 71.5789 182.196C71.0591 182.3 70.5816 182.555 70.2068 182.93C69.832 183.304 69.5768 183.782 69.4734 184.302C69.37 184.822 69.423 185.36 69.6259 185.85C69.8287 186.34 70.1722 186.758 70.6129 187.053C71.0536 187.347 71.5717 187.504 72.1017 187.504C72.8124 187.504 73.494 187.222 73.9966 186.719C74.4992 186.217 74.7815 185.535 74.7815 184.825Z" fill="white" stroke="#263238" stroke-linecap="round" stroke-linejoin="round"/>
<path d="M89.8313 164.553C100.687 162.199 98.5223 154.243 87.9712 157.711C87.894 157.737 87.8122 157.745 87.7313 157.737C87.6505 157.729 87.5722 157.703 87.5018 157.663C87.4314 157.622 87.3703 157.567 87.3227 157.501C87.275 157.435 87.2417 157.36 87.2251 157.28C84.8711 146.435 76.9157 148.589 80.3837 159.14C80.4091 159.218 80.4179 159.299 80.4095 159.38C80.4011 159.461 80.3758 159.539 80.3351 159.61C80.2944 159.68 80.2394 159.741 80.1735 159.789C80.1076 159.837 80.0324 159.87 79.9528 159.887C69.1075 162.241 71.2618 170.196 81.8129 166.728C81.8909 166.703 81.9733 166.694 82.0548 166.702C82.1364 166.71 82.2153 166.735 82.2865 166.776C82.3578 166.817 82.4197 166.872 82.4685 166.938C82.5172 167.003 82.5517 167.079 82.5696 167.159C84.9131 178.004 92.8685 175.85 89.4005 165.299C89.3751 165.221 89.3663 165.14 89.3747 165.059C89.383 164.978 89.4084 164.9 89.4491 164.829C89.4897 164.759 89.5448 164.698 89.6107 164.65C89.6765 164.602 89.7517 164.569 89.8313 164.553Z" fill="#263238"/>
<path d="M87.215 163.554C87.4805 163.095 87.6036 162.567 87.5687 162.037C87.5337 161.507 87.3423 161 87.0187 160.58C86.6952 160.159 86.2539 159.844 85.751 159.674C85.2482 159.505 84.7062 159.488 84.194 159.627C83.6817 159.766 83.2222 160.053 82.8737 160.454C82.5251 160.854 82.3033 161.349 82.2363 161.875C82.1693 162.402 82.2601 162.936 82.4972 163.411C82.7344 163.886 83.1072 164.279 83.5683 164.542C84.1834 164.892 84.9121 164.985 85.5953 164.8C86.2786 164.615 86.8608 164.167 87.215 163.554Z" fill="white" stroke="#263238" stroke-linecap="round" stroke-linejoin="round"/>
<path d="M107.477 178.204C118.144 181.272 120.004 173.244 109.075 171.299C108.994 171.288 108.917 171.259 108.848 171.214C108.779 171.17 108.721 171.112 108.677 171.043C108.633 170.974 108.605 170.896 108.594 170.816C108.583 170.735 108.589 170.652 108.612 170.574C111.671 159.897 103.652 158.037 101.708 168.977C101.694 169.057 101.662 169.133 101.617 169.201C101.571 169.268 101.511 169.325 101.441 169.368C101.372 169.41 101.294 169.438 101.213 169.448C101.133 169.459 101.05 169.452 100.972 169.429C90.3056 166.371 88.4455 174.4 99.3749 176.333C99.4561 176.346 99.5336 176.376 99.6022 176.422C99.6708 176.467 99.729 176.527 99.7727 176.596C99.8165 176.666 99.8449 176.744 99.856 176.826C99.8672 176.907 99.8608 176.99 99.8373 177.069C96.7792 187.746 104.808 189.596 106.742 178.666C106.756 178.586 106.788 178.509 106.833 178.442C106.879 178.374 106.938 178.316 107.008 178.273C107.077 178.229 107.154 178.201 107.235 178.189C107.316 178.177 107.399 178.182 107.477 178.204Z" fill="#263238"/>
<path d="M105.648 176.092C106.098 175.811 106.455 175.403 106.673 174.92C106.891 174.437 106.961 173.899 106.874 173.376C106.787 172.853 106.546 172.368 106.183 171.982C105.82 171.595 105.35 171.326 104.833 171.206C104.316 171.087 103.776 171.124 103.28 171.312C102.784 171.5 102.356 171.831 102.048 172.263C101.74 172.695 101.568 173.208 101.552 173.738C101.536 174.268 101.678 174.791 101.96 175.24C102.338 175.84 102.938 176.265 103.629 176.424C104.32 176.584 105.045 176.464 105.648 176.092Z" fill="white" stroke="#263238" stroke-linecap="round" stroke-linejoin="round"/>
<path d="M93.2677 191.624C103.945 194.682 105.795 186.653 94.8651 184.719C94.7847 184.705 94.7081 184.674 94.6404 184.628C94.5727 184.582 94.5152 184.523 94.4717 184.454C94.4282 184.384 94.3996 184.307 94.3877 184.226C94.3759 184.145 94.3809 184.063 94.4027 183.984C97.4713 173.307 89.4424 171.457 87.4982 182.386C87.4852 182.466 87.4553 182.542 87.4105 182.61C87.3656 182.677 87.3069 182.734 87.2382 182.777C87.1696 182.82 87.0925 182.847 87.0123 182.858C86.9321 182.868 86.8505 182.862 86.7731 182.838C76.0959 179.78 74.2358 187.809 85.1757 189.743C85.2552 189.759 85.3306 189.791 85.3971 189.837C85.4636 189.883 85.5199 189.943 85.5623 190.012C85.6047 190.081 85.6324 190.158 85.6437 190.238C85.6549 190.319 85.6494 190.4 85.6276 190.478C82.5695 201.156 90.5984 203.005 92.5321 192.076C92.5464 191.995 92.5776 191.919 92.6235 191.852C92.6694 191.784 92.7291 191.727 92.7985 191.685C92.868 191.642 92.9457 191.615 93.0266 191.604C93.1075 191.594 93.1896 191.6 93.2677 191.624Z" fill="#263238"/>
<path d="M91.4374 189.501C91.8874 189.22 92.244 188.813 92.4622 188.329C92.6803 187.846 92.7502 187.309 92.6629 186.786C92.5756 186.263 92.3351 185.777 91.9719 185.391C91.6086 185.005 91.1389 184.735 90.6222 184.616C90.1055 184.497 89.5651 184.533 89.0693 184.721C88.5735 184.909 88.1446 185.24 87.837 185.672C87.5293 186.104 87.3567 186.618 87.341 187.148C87.3253 187.678 87.4672 188.2 87.7488 188.65C88.1256 189.251 88.7255 189.679 89.4171 189.838C90.1086 189.998 90.8352 189.877 91.4374 189.501Z" fill="white" stroke="#263238" stroke-linecap="round" stroke-linejoin="round"/>
<path d="M19.0938 269.422L19.0937 455.054L24.8317 455.054L24.8317 329.692L142.733 329.692L142.733 455.054L148.481 455.054L148.481 269.422L19.0938 269.422Z" stroke="#263238" stroke-linecap="round" stroke-linejoin="round"/>
<path d="M152.749 260.448L14.8281 260.448L14.8281 269.422L152.749 269.422L152.749 260.448Z" stroke="#263238" stroke-linecap="round" stroke-linejoin="round"/>
<path d="M141.106 280.636L27.1875 280.636L27.1875 320.423L141.106 320.423L141.106 280.636Z" stroke="#263238" stroke-linecap="round" stroke-linejoin="round"/>
<path d="M102.129 295.895L66.1562 295.895L66.1562 305.164L102.129 305.164L102.129 295.895Z" stroke="#263238" stroke-linecap="round" stroke-linejoin="round"/>
<path d="M136.505 1L40.6523 1L40.6523 113.72L136.505 113.72L136.505 1Z" stroke="black" stroke-linecap="round" stroke-linejoin="round"/>
<path d="M132.447 7.76784L44.707 7.76784L44.707 106.963L132.447 106.963L132.447 7.76784Z" stroke="black" stroke-linecap="round" stroke-linejoin="round"/>
<path d="M113.713 28.9436L63.4375 28.9436L63.4375 85.7871L113.713 85.7871L113.713 28.9436Z" stroke="black" stroke-linecap="round" stroke-linejoin="round"/>
<path d="M238.223 176.648L257.675 184.12" stroke="#263238" stroke-linecap="round" stroke-linejoin="round"/>
<path d="M238.223 243.969L257.675 236.487" stroke="#263238" stroke-linecap="round" stroke-linejoin="round"/>
<path d="M257.676 211.801L243.457 211.801" stroke="#263238" stroke-linecap="round" stroke-linejoin="round"/>
<path d="M487.331 176.648L467.879 184.12" stroke="#263238" stroke-linecap="round" stroke-linejoin="round"/>
<path d="M487.331 243.969L467.879 236.487" stroke="#263238" stroke-linecap="round" stroke-linejoin="round"/>
<path d="M467.879 211.801L482.087 211.801" stroke="#263238" stroke-linecap="round" stroke-linejoin="round"/>
<path d="M429.821 9.81711L301.137 9.81711C286.221 9.81711 274.129 21.9091 274.129 36.8254L274.129 370.646C274.129 385.562 286.221 397.654 301.137 397.654L429.821 397.654C444.737 397.654 456.829 385.562 456.829 370.646L456.829 36.8254C456.829 21.9091 444.737 9.81711 429.821 9.81711Z" fill="#072AC8" stroke="#263238" stroke-linecap="round" stroke-linejoin="round"/>
<path d="M450.462 36.8044L450.462 370.667C450.462 373.418 449.92 376.142 448.866 378.684C447.813 381.226 446.27 383.535 444.324 385.48C442.378 387.425 440.067 388.968 437.525 390.02C434.983 391.072 432.258 391.613 429.507 391.611L301.443 391.611C300.49 391.614 299.539 391.547 298.595 391.412C293.579 390.728 288.98 388.249 285.651 384.435C282.322 380.621 280.488 375.73 280.488 370.667L280.488 36.8044C280.488 31.2468 282.696 25.9168 286.626 21.9869C290.556 18.0571 295.886 15.8493 301.443 15.8493L305.164 15.8493C316.723 15.8493 339.654 16.0595 339.686 16.1751C344.688 16.1751 347.725 17.0368 349.995 19.3278C353.61 22.9429 357.835 27.8822 363.352 28.4602C369.122 29.0592 373.704 24.3827 377.455 20.673C381.659 16.4694 387.313 15.8703 393.009 15.8703L429.507 15.8703C435.061 15.8703 440.388 18.0752 444.317 22.0005C448.246 25.9258 450.456 31.2504 450.462 36.8044Z" fill="#263238" stroke="#263238" stroke-linecap="round" stroke-linejoin="round"/>
<path d="M364.392 24.0989C366.429 24.0989 368.081 22.4475 368.081 20.4103C368.081 18.3731 366.429 16.7216 364.392 16.7216C362.355 16.7216 360.703 18.3731 360.703 20.4103C360.703 22.4475 362.355 24.0989 364.392 24.0989Z" fill="#7D7D7D"/>
<path d="M456.766 121.381L456.766 73.1132C457.642 73.1132 458.482 73.4605 459.103 74.079C459.723 74.6976 460.073 75.5369 460.076 76.413L460.076 118.071C460.077 118.506 459.993 118.937 459.827 119.339C459.661 119.742 459.417 120.107 459.11 120.415C458.802 120.722 458.436 120.966 458.034 121.132C457.632 121.298 457.201 121.383 456.766 121.381Z" fill="#072AC8" stroke="#263238" stroke-linecap="round" stroke-linejoin="round"/>
<path d="M456.766 162.987L456.766 138.9C457.644 138.9 458.486 139.249 459.106 139.869C459.727 140.49 460.076 141.332 460.076 142.21L460.076 159.676C460.076 160.554 459.727 161.396 459.106 162.017C458.486 162.638 457.644 162.987 456.766 162.987Z" fill="#072AC8" stroke="#263238" stroke-linecap="round" stroke-linejoin="round"/>
<path d="M275.621 286.5C275.621 286.5 276.031 288.601 276.43 288.738C276.83 288.875 280.813 288.633 280.918 287.614C281.023 286.594 278.879 285.985 278.879 285.985L275.621 286.5Z" fill="white" stroke="#263238" stroke-linejoin="round"/>
<path d="M433.255 32.8635L417.24 32.8635C417.125 32.8635 417.016 32.8181 416.935 32.7373C416.854 32.6565 416.809 32.5469 416.809 32.4326L416.809 23.6575C416.807 23.6001 416.817 23.5429 416.838 23.4894C416.859 23.4359 416.891 23.3872 416.931 23.346C416.971 23.3049 417.019 23.2722 417.072 23.2499C417.125 23.2276 417.182 23.2161 417.24 23.2161L433.255 23.2161C433.371 23.2189 433.48 23.2666 433.561 23.3491C433.641 23.4316 433.686 23.5423 433.686 23.6575L433.686 32.4326C433.684 32.546 433.637 32.6541 433.557 32.7343C433.477 32.8145 433.369 32.8608 433.255 32.8635ZM417.681 32.0017L432.825 32.0017L432.825 24.0884L417.67 24.0884L417.681 32.0017Z" fill="#696969"/>
<path d="M429.727 23.6575L417.242 23.6575L417.242 32.4326L429.727 32.4326L429.727 23.6575Z" fill="#696969"/>
<path d="M429.716 32.8109L417.242 32.8109C417.141 32.8109 417.045 32.7711 416.974 32.7001C416.903 32.6292 416.863 32.5329 416.863 32.4326L416.863 23.6575C416.863 23.5562 416.903 23.4589 416.973 23.3862C417.044 23.3136 417.14 23.2714 417.242 23.2687L429.716 23.2687C429.819 23.2687 429.918 23.3097 429.991 23.3826C430.064 23.4555 430.105 23.5544 430.105 23.6575L430.105 32.4326C430.105 32.4832 430.095 32.5333 430.075 32.5799C430.055 32.6265 430.026 32.6686 429.99 32.7039C429.954 32.7392 429.911 32.7668 429.864 32.7852C429.817 32.8036 429.766 32.8123 429.716 32.8109ZM417.62 32.0438L429.338 32.0438L429.338 24.0359L417.62 24.0359L417.62 32.0438Z" fill="#696969"/>
<path d="M435.474 26.1061L433.215 26.1061L433.215 29.9735L435.474 29.9735L435.474 26.1061Z" fill="#696969"/>
<path d="M435.463 30.3518L433.256 30.3518C433.205 30.3532 433.155 30.3445 433.108 30.3261C433.061 30.3077 433.018 30.2801 432.982 30.2448C432.945 30.2095 432.917 30.1673 432.897 30.1207C432.877 30.0741 432.867 30.0241 432.867 29.9735L432.867 26.1062C432.867 26.0556 432.877 26.0055 432.897 25.9589C432.917 25.9123 432.945 25.8701 432.982 25.8349C433.018 25.7996 433.061 25.7719 433.108 25.7536C433.155 25.7352 433.205 25.7264 433.256 25.7278L435.505 25.7278C435.605 25.7278 435.702 25.7677 435.772 25.8386C435.843 25.9096 435.883 26.0058 435.883 26.1062L435.883 29.9735C435.884 30.0269 435.873 30.0798 435.851 30.1287C435.829 30.1776 435.798 30.2213 435.758 30.257C435.718 30.2928 435.672 30.3197 435.621 30.336C435.57 30.3524 435.516 30.3578 435.463 30.3518ZM433.592 29.5952L435.085 29.5952L435.085 26.4424L433.592 26.4424L433.592 29.5952Z" fill="#696969"/>
<path d="M294.538 26.3794L291.605 26.3794L291.605 31.4132L294.538 31.4132L294.538 26.3794Z" fill="#696969"/>
<path d="M294.538 31.8651L291.595 31.8651C291.473 31.8651 291.355 31.8164 291.268 31.7297C291.182 31.643 291.133 31.5253 291.133 31.4027L291.133 26.3794C291.133 26.2558 291.181 26.137 291.268 26.0486C291.354 25.9603 291.472 25.9092 291.595 25.9065L294.538 25.9065C294.661 25.9092 294.779 25.9603 294.865 26.0486C294.952 26.137 295 26.2558 295 26.3794L295 31.4027C295 31.5253 294.951 31.643 294.865 31.7297C294.778 31.8164 294.66 31.8651 294.538 31.8651ZM292.068 30.9403L294.065 30.9403L294.065 26.8418L292.068 26.8418L292.068 30.9403Z" fill="#696969"/>
<path d="M299.151 24.6139L296.219 24.6139L296.219 31.4132L299.151 31.4132L299.151 24.6139Z" fill="#696969"/>
<path d="M299.152 31.8651L296.22 31.8651C296.098 31.8651 295.98 31.8164 295.893 31.7297C295.807 31.643 295.758 31.5254 295.758 31.4027L295.758 24.6139C295.758 24.4903 295.806 24.3715 295.893 24.2831C295.979 24.1948 296.097 24.1437 296.22 24.141L299.152 24.141C299.278 24.141 299.398 24.1908 299.487 24.2795C299.575 24.3682 299.625 24.4885 299.625 24.6139L299.625 31.4027C299.625 31.4643 299.613 31.5253 299.589 31.5821C299.565 31.6389 299.53 31.6904 299.486 31.7335C299.442 31.7765 299.39 31.8104 299.332 31.833C299.275 31.8556 299.214 31.8665 299.152 31.8651ZM296.641 30.9403L298.742 30.9403L298.742 25.0763L296.641 25.0763L296.641 30.9403Z" fill="#696969"/>
<path d="M303.764 22.5226L300.832 22.5226L300.832 31.4027L303.764 31.4027L303.764 22.5226Z" fill="#696969"/>
<path d="M303.767 31.8651L300.845 31.8651C300.723 31.8651 300.605 31.8164 300.518 31.7297C300.432 31.6429 300.383 31.5253 300.383 31.4027L300.383 22.5225C300.383 22.3999 300.432 22.2823 300.518 22.1956C300.605 22.1089 300.723 22.0601 300.845 22.0601L303.777 22.0601C303.9 22.0601 304.017 22.1089 304.104 22.1956C304.191 22.2823 304.24 22.3999 304.24 22.5225L304.24 31.4027C304.241 31.4647 304.23 31.5264 304.206 31.5839C304.183 31.6414 304.148 31.6934 304.104 31.7368C304.059 31.7802 304.007 31.814 303.949 31.836C303.891 31.8581 303.829 31.868 303.767 31.8651ZM301.297 30.9403L303.304 30.9403L303.304 22.9849L301.297 22.9849L301.297 30.9403Z" fill="#696969"/>
<path d="M367.093 344.331C377.18 344.331 385.358 336.154 385.358 326.066C385.358 315.979 377.18 307.801 367.093 307.801C357.006 307.801 348.828 315.979 348.828 326.066C348.828 336.154 357.006 344.331 367.093 344.331Z" fill="#072AC8" stroke="#263238" stroke-linecap="round" stroke-linejoin="round"/>
<path d="M379.199 323.576C377.843 322.525 374.743 321.011 368.931 320.822L364.612 320.822C358.801 321.011 355.7 322.556 354.345 323.576C353.639 324.044 353.079 324.701 352.728 325.472C352.377 326.243 352.249 327.097 352.359 327.937C352.769 329.194 353.492 330.326 354.46 331.226C354.744 331.52 355.038 331.573 355.711 331.226C356.384 330.879 360.966 328.557 361.239 328.073C361.512 327.59 361.134 325.972 361.134 325.972C361.395 325.763 361.725 325.661 362.058 325.688L366.735 325.551L371.422 325.688C371.752 325.661 372.08 325.763 372.336 325.972C372.336 325.972 371.947 327.569 372.242 328.073C372.536 328.578 377.086 330.932 377.759 331.226C378.432 331.52 378.736 331.468 379.02 331.226C379.988 330.326 380.712 329.194 381.122 327.937C381.238 327.103 381.12 326.253 380.78 325.483C380.441 324.712 379.893 324.052 379.199 323.576Z" fill="white"/>
<path d="M367.03 203.236C377.118 203.236 385.295 195.059 385.295 184.972C385.295 174.884 377.118 166.707 367.03 166.707C356.943 166.707 348.766 174.884 348.766 184.972C348.766 195.059 356.943 203.236 367.03 203.236Z" fill="#696969"/>
<path d="M360.954 181.399C362.336 181.399 363.455 180.279 363.455 178.897C363.455 177.516 362.336 176.396 360.954 176.396C359.573 176.396 358.453 177.516 358.453 178.897C358.453 180.279 359.573 181.399 360.954 181.399Z" fill="white"/>
<path d="M367.029 181.399C368.41 181.399 369.53 180.279 369.53 178.897C369.53 177.516 368.41 176.396 367.029 176.396C365.647 176.396 364.527 177.516 364.527 178.897C364.527 180.279 365.647 181.399 367.029 181.399Z" fill="white"/>
<path d="M373.114 181.399C374.496 181.399 375.616 180.279 375.616 178.897C375.616 177.516 374.496 176.396 373.114 176.396C371.733 176.396 370.613 177.516 370.613 178.897C370.613 180.279 371.733 181.399 373.114 181.399Z" fill="white"/>
<path d="M363.455 184.972C363.455 184.477 363.309 183.993 363.034 183.582C362.759 183.171 362.368 182.85 361.911 182.661C361.454 182.472 360.952 182.422 360.466 182.519C359.981 182.615 359.536 182.853 359.186 183.203C358.836 183.553 358.598 183.998 358.501 184.484C358.405 184.969 358.454 185.472 358.644 185.929C358.833 186.386 359.153 186.776 359.565 187.051C359.976 187.326 360.46 187.473 360.954 187.473C361.618 187.473 362.254 187.209 362.723 186.74C363.192 186.271 363.455 185.635 363.455 184.972Z" fill="white"/>
<path d="M369.53 184.972C369.53 184.477 369.383 183.993 369.108 183.582C368.833 183.171 368.443 182.85 367.986 182.661C367.529 182.472 367.026 182.422 366.541 182.519C366.055 182.615 365.61 182.853 365.26 183.203C364.91 183.553 364.672 183.998 364.575 184.484C364.479 184.969 364.528 185.472 364.718 185.929C364.907 186.386 365.228 186.776 365.639 187.051C366.05 187.326 366.534 187.473 367.029 187.473C367.692 187.473 368.328 187.209 368.797 186.74C369.266 186.271 369.53 185.635 369.53 184.972Z" fill="white"/>
<path d="M375.616 184.972C375.616 184.477 375.469 183.993 375.194 183.582C374.919 183.171 374.529 182.85 374.072 182.661C373.615 182.472 373.112 182.422 372.626 182.519C372.141 182.615 371.696 182.853 371.346 183.203C370.996 183.553 370.758 183.998 370.661 184.484C370.565 184.969 370.614 185.472 370.804 185.929C370.993 186.386 371.314 186.776 371.725 187.051C372.136 187.326 372.62 187.473 373.114 187.473C373.777 187.47 374.412 187.206 374.88 186.737C375.348 186.269 375.613 185.634 375.616 184.972Z" fill="white"/>
<path d="M360.954 193.547C362.336 193.547 363.455 192.427 363.455 191.046C363.455 189.665 362.336 188.545 360.954 188.545C359.573 188.545 358.453 189.665 358.453 191.046C358.453 192.427 359.573 193.547 360.954 193.547Z" fill="white"/>
<path d="M367.029 193.547C368.41 193.547 369.53 192.427 369.53 191.046C369.53 189.665 368.41 188.545 367.029 188.545C365.647 188.545 364.527 189.665 364.527 191.046C364.527 192.427 365.647 193.547 367.029 193.547Z" fill="white"/>
<path d="M373.114 193.547C374.496 193.547 375.616 192.427 375.616 191.046C375.616 189.665 374.496 188.545 373.114 188.545C371.733 188.545 370.613 189.665 370.613 191.046C370.613 192.427 371.733 193.547 373.114 193.547Z" fill="white"/>
<path d="M416.495 203.236C426.583 203.236 434.76 195.059 434.76 184.972C434.76 174.884 426.583 166.707 416.495 166.707C406.408 166.707 398.23 174.884 398.23 184.972C398.23 195.059 406.408 203.236 416.495 203.236Z" fill="#696969"/>
<path d="M410.893 181.777L405.48 181.777L405.48 189.47L410.893 189.47L416.021 193.316L416.021 177.931L410.893 181.777Z" fill="white"/>
<path d="M423.799 185.486C423.801 187.213 423.244 188.894 422.212 190.279L423.074 190.794C424.216 189.232 424.825 187.343 424.808 185.408C424.791 183.473 424.149 181.595 422.979 180.053L422.117 180.568C423.21 181.975 423.801 183.706 423.799 185.486Z" fill="white"/>
<path d="M427.53 185.487C427.531 187.877 426.797 190.211 425.428 192.17L426.3 192.685C427.768 190.544 428.545 188.005 428.528 185.409C428.511 182.813 427.701 180.284 426.206 178.162L425.344 178.677C426.764 180.663 427.528 183.044 427.53 185.487Z" fill="white"/>
<path d="M419.794 185.487C419.799 186.494 419.424 187.466 418.743 188.208L419.615 188.723C420.412 187.803 420.842 186.622 420.825 185.406C420.808 184.189 420.343 183.021 419.521 182.124L418.648 182.639C419.391 183.399 419.803 184.423 419.794 185.487Z" fill="white"/>
<path d="M416.495 257.179C426.583 257.179 434.76 249.002 434.76 238.915C434.76 228.827 426.583 220.65 416.495 220.65C406.408 220.65 398.23 228.827 398.23 238.915C398.23 249.002 406.408 257.179 416.495 257.179Z" fill="#696969"/>
<path d="M424.565 238.915C424.563 240.513 424.087 242.075 423.197 243.403C422.308 244.73 421.044 245.765 419.567 246.374C418.089 246.984 416.464 247.142 414.897 246.828C413.33 246.514 411.891 245.743 410.762 244.611C409.633 243.479 408.865 242.038 408.556 240.47C408.246 238.902 408.408 237.278 409.022 235.802C409.635 234.326 410.673 233.065 412.003 232.179C413.333 231.292 414.896 230.821 416.494 230.823C417.556 230.823 418.607 231.032 419.588 231.439C420.568 231.846 421.459 232.442 422.209 233.194C422.959 233.946 423.553 234.838 423.957 235.82C424.361 236.801 424.568 237.853 424.565 238.915Z" stroke="white" stroke-miterlimit="10"/>
<path d="M419.079 237.044C419.079 236.541 418.929 236.048 418.649 235.63C418.369 235.212 417.971 234.886 417.506 234.693C417.041 234.501 416.529 234.451 416.035 234.55C415.542 234.649 415.089 234.893 414.733 235.249C414.378 235.606 414.137 236.06 414.04 236.554C413.943 237.048 413.995 237.56 414.189 238.025C414.383 238.489 414.711 238.885 415.13 239.164C415.55 239.442 416.042 239.589 416.546 239.587C416.879 239.587 417.21 239.521 417.518 239.393C417.826 239.265 418.105 239.078 418.34 238.842C418.576 238.605 418.762 238.325 418.889 238.016C419.015 237.708 419.08 237.377 419.079 237.044Z" fill="white"/>
<path d="M423.054 243.633C422.322 244.648 421.364 245.48 420.256 246.062C419.148 246.644 417.92 246.96 416.669 246.987C415.418 247.013 414.178 246.749 413.046 246.214C411.915 245.68 410.923 244.89 410.148 243.906C412.03 242.409 414.376 241.617 416.78 241.668C419.027 241.635 421.226 242.324 423.054 243.633Z" fill="white"/>
<path d="M367.03 257.179C377.118 257.179 385.295 249.002 385.295 238.915C385.295 228.827 377.118 220.65 367.03 220.65C356.943 220.65 348.766 228.827 348.766 238.915C348.766 249.002 356.943 257.179 367.03 257.179Z" fill="#696969"/>
<path d="M370.045 232.105L359.105 232.105C358.299 232.105 357.645 232.759 357.645 233.565L357.645 243.875C357.645 244.682 358.299 245.336 359.105 245.336L370.045 245.336C370.852 245.336 371.506 244.682 371.506 243.875L371.506 233.565C371.506 232.759 370.852 232.105 370.045 232.105Z" fill="white"/>
<path d="M372.453 235.73L372.453 241.71L377.182 244.695L377.182 232.746L372.453 235.73Z" fill="white"/>
<path d="M317.573 257.179C327.661 257.179 335.838 249.002 335.838 238.915C335.838 228.827 327.661 220.65 317.573 220.65C307.486 220.65 299.309 228.827 299.309 238.915C299.309 249.002 307.486 257.179 317.573 257.179Z" fill="#696969"/>
<path d="M317.574 229.635L317.574 248.184" stroke="white" stroke-miterlimit="10"/>
<path d="M326.852 238.915L308.293 238.915" stroke="white" stroke-miterlimit="10"/>
<path d="M317.573 203.236C327.661 203.236 335.838 195.059 335.838 184.972C335.838 174.884 327.661 166.707 317.573 166.707C307.486 166.707 299.309 174.884 299.309 184.972C299.309 195.059 307.486 203.236 317.573 203.236Z" fill="#696969"/>
<path d="M317.554 188.44C317.925 188.441 318.293 188.369 318.637 188.227C318.981 188.086 319.293 187.877 319.556 187.615C319.818 187.352 320.027 187.04 320.168 186.696C320.31 186.352 320.382 185.984 320.381 185.613L320.381 176.638C320.404 176.251 320.348 175.864 320.217 175.5C320.085 175.136 319.88 174.803 319.615 174.521C319.35 174.239 319.029 174.014 318.674 173.861C318.319 173.707 317.936 173.628 317.548 173.628C317.161 173.628 316.778 173.707 316.423 173.861C316.067 174.014 315.747 174.239 315.482 174.521C315.217 174.803 315.012 175.136 314.88 175.5C314.748 175.864 314.693 176.251 314.716 176.638L314.716 185.613C314.716 185.985 314.79 186.353 314.932 186.697C315.075 187.041 315.284 187.353 315.548 187.615C315.812 187.878 316.124 188.086 316.469 188.227C316.813 188.369 317.181 188.441 317.554 188.44Z" fill="white"/>
<path d="M322.574 185.476L322.574 181.272C322.574 181.133 322.519 180.999 322.42 180.901C322.322 180.802 322.188 180.747 322.049 180.747C321.909 180.747 321.776 180.802 321.677 180.901C321.578 180.999 321.523 181.133 321.523 181.272L321.523 185.476C321.523 186.53 321.105 187.54 320.36 188.285C319.615 189.03 318.604 189.448 317.551 189.448C316.497 189.448 315.487 189.03 314.742 188.285C313.997 187.54 313.578 186.53 313.578 185.476L313.578 181.272C313.578 181.133 313.523 180.999 313.424 180.901C313.326 180.802 313.192 180.747 313.053 180.747C312.913 180.747 312.78 180.802 312.681 180.901C312.583 180.999 312.527 181.133 312.527 181.272L312.527 185.476C312.528 186.714 312.987 187.908 313.816 188.827C314.644 189.747 315.784 190.328 317.015 190.457L317.015 195.102L314.072 195.102C313.933 195.102 313.799 195.158 313.701 195.256C313.602 195.355 313.547 195.488 313.547 195.628C313.547 195.767 313.602 195.901 313.701 195.999C313.799 196.098 313.933 196.153 314.072 196.153L320.977 196.153C321.116 196.153 321.25 196.098 321.348 195.999C321.447 195.901 321.502 195.767 321.502 195.628C321.502 195.488 321.447 195.355 321.348 195.256C321.25 195.158 321.116 195.102 320.977 195.102L318.045 195.102L318.045 190.457C319.283 190.337 320.433 189.761 321.27 188.84C322.107 187.92 322.572 186.72 322.574 185.476Z" fill="white"/>
<path d="M309.66 176.627L325.382 192.349" stroke="white" stroke-miterlimit="10"/>
<path d="M348.933 84.4945C348.397 84.529 347.865 84.3848 347.42 84.0846C347.064 83.8242 346.802 83.4555 346.674 83.0337C346.533 82.5346 346.466 82.0178 346.474 81.4994L346.474 77.6321C346.462 77.0989 346.532 76.567 346.684 76.0557C346.806 75.6307 347.069 75.2601 347.43 75.0048C347.88 74.7243 348.404 74.5886 348.933 74.6159C349.415 74.5911 349.894 74.7081 350.31 74.9522C350.642 75.1882 350.892 75.5227 351.024 75.9086C351.178 76.3835 351.249 76.881 351.235 77.3798L351.235 77.9683L350.373 77.9683L350.373 77.4009C350.377 77.0477 350.342 76.6953 350.268 76.3499C350.218 76.0746 350.073 75.8254 349.858 75.6458C349.587 75.4594 349.261 75.3704 348.933 75.3936C348.586 75.3704 348.241 75.4668 347.956 75.6669C347.726 75.8606 347.57 76.1279 347.514 76.4235C347.43 76.7992 347.391 77.1839 347.399 77.569L347.399 81.7096C347.387 82.1134 347.433 82.5167 347.535 82.9076C347.605 83.1965 347.772 83.4526 348.008 83.6327C348.284 83.8064 348.607 83.8908 348.933 83.8744C349.264 83.8969 349.592 83.7999 349.858 83.6012C350.078 83.4124 350.223 83.1517 350.268 82.8656C350.344 82.5029 350.38 82.1327 350.373 81.7621L350.373 81.1211L351.287 81.1211L351.287 81.6991C351.295 82.2098 351.231 82.7191 351.098 83.2124C350.991 83.6331 350.742 84.0041 350.394 84.2633C349.946 84.5012 349.432 84.5826 348.933 84.4945Z" fill="#072AC8"/>
<path d="M352.137 84.3789L354.186 74.6475L355.153 74.6475L357.255 84.3789L356.361 84.3789L355.878 81.7726L353.555 81.7726L353.072 84.3789L352.137 84.3789ZM353.65 81.1106L355.752 81.1106L354.701 75.8561L353.65 81.1106Z" fill="#072AC8"/>
<path d="M358.391 84.3789L358.391 74.6475L359.305 74.6475L359.305 83.6958L362.069 83.6958L362.069 84.3789L358.391 84.3789Z" fill="#072AC8"/>
<path d="M362.984 84.3789L362.984 74.6475L363.899 74.6475L363.899 83.6958L366.663 83.6958L366.663 84.3789L362.984 84.3789Z" fill="#072AC8"/>
<path d="M367.586 84.3789L367.586 74.6475L368.5 74.6475L368.5 84.3789L367.586 84.3789Z" fill="#072AC8"/>
<path d="M370.203 84.3789L370.203 74.6475L370.855 74.6475L374.007 82.2035L374.007 74.6475L374.806 74.6475L374.806 84.3789L374.155 84.3789L371.002 76.7388L371.002 84.3789L370.203 84.3789Z" fill="#072AC8"/>
<path d="M378.662 84.505C378.155 84.5335 377.651 84.4011 377.223 84.1267C376.874 83.8616 376.617 83.4942 376.487 83.0758C376.332 82.5469 376.258 81.9978 376.266 81.4469L376.266 77.6531C376.258 77.1028 376.329 76.5542 376.477 76.0242C376.603 75.6014 376.865 75.232 377.223 74.9733C377.669 74.7429 378.165 74.6226 378.668 74.6226C379.17 74.6226 379.666 74.7429 380.113 74.9733C380.459 75.1976 380.721 75.5302 380.859 75.9191C381.018 76.4146 381.092 76.9332 381.079 77.4534L381.079 77.7897L380.218 77.7897L380.218 77.3588C380.227 76.9696 380.185 76.5809 380.092 76.2028C380.029 75.9303 379.873 75.6884 379.65 75.5198C379.379 75.3452 379.058 75.264 378.736 75.2886C378.38 75.2625 378.027 75.363 377.738 75.5723C377.502 75.779 377.346 76.0615 377.296 76.371C377.22 76.7514 377.185 77.139 377.191 77.527L377.191 81.5204C377.184 81.9269 377.226 82.3327 377.317 82.729C377.379 83.0328 377.546 83.3048 377.79 83.4961C378.072 83.6946 378.413 83.791 378.757 83.7694C379.088 83.7882 379.414 83.6916 379.682 83.4961C379.917 83.2948 380.08 83.0215 380.144 82.7185C380.244 82.3201 380.29 81.91 380.281 81.4994L380.281 80.3539L378.841 80.3539L378.841 79.6708L381.122 79.6708L381.122 84.3789L380.533 84.3789L380.428 83.328C380.32 83.678 380.112 83.9886 379.829 84.2213C379.486 84.45 379.072 84.5505 378.662 84.505Z" fill="#072AC8"/>
<path d="M382.57 84.3789L382.57 83.0548L383.495 83.0548L383.495 84.3789L382.57 84.3789Z" fill="#072AC8"/>
<path d="M384.746 84.3789L384.746 83.0548L385.671 83.0548L385.671 84.3789L384.746 84.3789Z" fill="#072AC8"/>
<path d="M386.922 84.3789L386.922 83.0548L387.847 83.0548L387.847 84.3789L386.922 84.3789Z" fill="#072AC8"/>
<path d="M321.062 110.588L321.062 92.9017L327.463 92.9017L327.463 94.1838L322.744 94.1838L322.744 100.826L326.59 100.826L326.59 102.055L322.744 102.055L322.744 109.348L327.505 109.348L327.505 110.588L321.062 110.588Z" fill="#072AC8"/>
<path d="M329.629 110.588L330.06 92.9017L331.699 92.9017L335.22 108.255L338.782 92.9017L340.432 92.9017L340.874 110.588L339.497 110.588L339.15 96.5063L335.766 110.588L334.715 110.588L331.321 96.5273L330.964 110.588L329.629 110.588Z" fill="#072AC8"/>
<path d="M343.781 110.588L343.781 92.9017L350.234 92.9017L350.234 94.1838L345.515 94.1838L345.515 100.826L349.351 100.826L349.351 102.055L345.515 102.055L345.515 109.348L350.234 109.348L350.234 110.588L343.781 110.588Z" fill="#072AC8"/>
<path d="M352.496 110.588L352.496 92.9017L356.542 92.9017C357.446 92.8571 358.346 93.0415 359.159 93.4377C359.779 93.7796 360.261 94.3254 360.525 94.9825C360.815 95.7547 360.954 96.5751 360.935 97.3996C360.939 98.0229 360.864 98.6442 360.714 99.2492C360.593 99.7985 360.34 100.31 359.979 100.741C359.586 101.171 359.061 101.457 358.486 101.551L361.198 110.588L359.579 110.588L356.983 101.897L354.209 101.897L354.209 110.588L352.496 110.588ZM354.157 100.678L356.405 100.678C357.004 100.712 357.6 100.581 358.129 100.3C358.535 100.064 358.844 99.6916 359.001 99.2492C359.194 98.6666 359.283 98.0549 359.264 97.4416C359.324 96.587 359.127 95.734 358.696 94.993C358.414 94.6878 358.062 94.455 357.671 94.3142C357.279 94.1733 356.86 94.1286 356.448 94.1838L354.157 94.1838L354.157 100.678Z" fill="#072AC8"/>
<path d="M367.661 110.83C366.737 110.883 365.821 110.64 365.044 110.137C364.394 109.641 363.922 108.948 363.699 108.161C363.424 107.198 363.293 106.199 363.31 105.197L363.31 98.2929C363.292 97.2954 363.419 96.3005 363.689 95.3398C363.907 94.5595 364.385 93.8772 365.044 93.4062C365.868 92.906 366.825 92.6678 367.787 92.7231C368.666 92.6802 369.54 92.884 370.309 93.3116C370.942 93.7153 371.417 94.3236 371.655 95.0351C371.949 95.9296 372.088 96.868 372.064 97.8095L372.064 98.482L370.499 98.482L370.499 97.862C370.518 97.1541 370.44 96.447 370.267 95.7602C370.149 95.2653 369.868 94.8247 369.469 94.5096C368.964 94.2025 368.377 94.0594 367.787 94.0998C367.141 94.0476 366.498 94.2346 365.98 94.6252C365.553 94.9969 365.271 95.5064 365.181 96.065C365.047 96.7574 364.984 97.4616 364.992 98.1668L364.992 105.45C364.978 106.192 365.056 106.933 365.223 107.656C365.335 108.207 365.636 108.702 366.074 109.054C366.592 109.4 367.208 109.566 367.829 109.527C368.415 109.595 369.004 109.435 369.475 109.081C369.946 108.727 370.264 108.206 370.362 107.625C370.541 106.896 370.622 106.147 370.604 105.397L370.604 103.295L367.987 103.295L367.987 102.045L372.138 102.045L372.138 110.609L371.087 110.609L370.887 108.602C370.705 109.24 370.339 109.81 369.836 110.242C369.204 110.689 368.433 110.897 367.661 110.83Z" fill="#072AC8"/>
<path d="M374.996 110.588L374.996 92.9017L381.396 92.9017L381.396 94.1838L376.678 94.1838L376.678 100.826L380.524 100.826L380.524 102.055L376.678 102.055L376.678 109.348L381.438 109.348L381.438 110.588L374.996 110.588Z" fill="#072AC8"/>
<path d="M383.707 110.588L383.707 92.9017L384.916 92.9017L390.548 106.637L390.548 92.9017L391.988 92.9017L391.988 110.588L390.811 110.588L385.126 96.6955L385.126 110.588L383.707 110.588Z" fill="#072AC8"/>
<path d="M399.178 110.809C398.199 110.874 397.226 110.612 396.414 110.063C395.759 109.562 395.287 108.861 395.069 108.066C394.815 107.16 394.691 106.222 394.701 105.281L394.701 98.2508C394.684 97.2776 394.811 96.3072 395.079 95.3713C395.301 94.5844 395.782 93.8955 396.445 93.4167C397.263 92.9105 398.217 92.6684 399.178 92.7231C400.053 92.6725 400.924 92.8848 401.679 93.3326C402.293 93.7508 402.751 94.3605 402.982 95.0666C403.259 95.9321 403.391 96.8377 403.371 97.7464L403.371 98.7973L401.805 98.7973L401.805 97.7464C401.815 97.0794 401.751 96.4133 401.616 95.7602C401.518 95.2558 401.251 94.7999 400.859 94.4676C400.366 94.1302 399.773 93.9708 399.178 94.0157C398.546 93.966 397.917 94.1409 397.402 94.5096C396.978 94.8634 396.692 95.3542 396.592 95.8968C396.437 96.5862 396.366 97.292 396.382 97.9986L396.382 105.534C396.365 106.27 396.45 107.006 396.634 107.719C396.763 108.243 397.068 108.706 397.496 109.033C397.999 109.345 398.586 109.495 399.178 109.464C399.776 109.508 400.371 109.341 400.859 108.991C401.254 108.639 401.52 108.166 401.616 107.646C401.751 106.978 401.814 106.299 401.805 105.618L401.805 104.462L403.371 104.462L403.371 105.513C403.388 106.443 403.267 107.371 403.013 108.266C402.807 109.018 402.356 109.68 401.731 110.147C400.971 110.631 400.077 110.863 399.178 110.809Z" fill="#072AC8"/>
<path d="M408.793 110.588L408.793 104.714L404.789 92.9017L406.407 92.9017L409.56 102.728L412.618 92.9017L414.342 92.9017L410.443 104.714L410.443 110.588L408.793 110.588Z" fill="#072AC8"/>
<path d="M225.487 435.823C225.487 435.823 229.239 430.568 231.793 429.759C234.346 428.95 239.244 433.259 239.674 433.963C240.105 434.667 247.441 438.608 250.856 439.953C254.272 441.298 258.212 448.276 259.19 450.21C260.167 452.143 259.6 454.109 257.235 454.308C254.871 454.508 246.001 450.819 241.608 449.201C237.215 447.582 232.329 446.258 232.329 446.258C232.329 446.258 224.972 440.689 224.794 439.953C224.615 439.217 225.487 435.823 225.487 435.823Z" fill="white" stroke="#263238" stroke-linecap="round" stroke-linejoin="round"/>
<path d="M158.07 458.438C158.07 458.438 171.248 457.02 176.923 454.172C182.598 451.324 228.586 446.815 228.586 446.815L224.74 436.674C224.74 436.674 191.72 439.217 183.407 438.208C175.095 437.2 171.448 436.58 170.439 436.58C169.43 436.58 166.793 446.721 164.565 449.758C162.337 452.795 156.651 455.433 156.651 455.433C156.651 455.433 154.623 458.029 158.07 458.438Z" fill="white" stroke="#263238" stroke-linecap="round" stroke-linejoin="round"/>
<path d="M264.739 441.183C264.739 441.183 268.49 435.928 271.044 435.119C273.598 434.31 278.495 438.629 278.915 439.375C279.336 440.121 286.692 444.009 290.107 445.365C293.523 446.721 297.464 453.678 298.441 455.622C299.418 457.566 298.851 459.51 296.486 459.71C294.122 459.91 285.252 456.221 280.859 454.603C276.467 452.984 271.58 451.66 271.58 451.66C271.58 451.66 264.276 446.09 264.045 445.355C263.814 444.619 264.739 441.183 264.739 441.183Z" fill="#263238" stroke="#263238" stroke-linecap="round" stroke-linejoin="round"/>
<path d="M201.367 458.449C205.908 458.896 210.48 458.942 215.029 458.585C222.952 458.018 245.169 454.54 247.733 454.382C250.297 454.224 269.865 451.797 269.865 451.797C269.865 451.797 272.261 452.238 271.021 448.329C269.781 444.419 264.779 441.161 264.779 441.161C264.779 441.161 251.464 440.689 247.029 440.741C242.594 440.794 214.861 438.345 214.861 438.345C214.861 438.345 199.36 448.865 201.367 458.449Z" fill="#263238" stroke="#263238" stroke-linecap="round" stroke-linejoin="round"/>
<path d="M151.429 354.714C149.628 362.5 148.395 370.406 147.74 378.37C147.131 388.879 142.065 446.069 143.484 449.106C144.903 452.144 149.968 459.615 156.452 458.438C162.936 457.261 166.383 453.573 167.403 451.944C168.422 450.315 183.009 390.529 183.009 390.529C183.009 390.529 186.456 403.14 186.456 406.135C186.456 409.13 183.376 453.215 185.835 455.38C192.267 461.055 199.634 459.647 200.643 459.647C201.652 459.647 208.346 458.029 209.565 456.61C210.784 455.191 219.696 422.76 221.314 411.001C222.932 399.241 230.037 366.81 227.399 356.269C224.761 345.729 216.659 335.987 216.659 335.987C216.659 335.987 210.353 341.462 192.33 349.365C174.307 357.268 158.281 355.45 156.599 354.619C154.918 353.789 151.429 354.714 151.429 354.714Z" fill="#072AC8" stroke="#263238" stroke-linecap="round" stroke-linejoin="round"/>
<path d="M125.764 264.578C125.764 264.578 121.834 270.316 121.235 273.479C120.636 276.642 111.566 301.717 111.566 301.717C111.566 301.717 120.478 303.819 123.799 303.987L130.588 304.281L133.614 304.89C133.614 304.89 134.213 320.591 137.387 323.912C140.561 327.233 146.751 331.163 147.35 333.57C147.949 335.976 151.732 353.957 151.427 354.714C151.123 355.471 150.072 360.294 150.072 360.294C150.072 360.294 161.39 370.267 175.735 370.267C190.08 370.267 202.312 370.267 209.858 359.548C217.403 348.829 219.526 342.933 218.16 338.404C216.794 333.874 209.406 329.198 208.702 328.441C207.998 327.685 200.851 319.235 200.851 319.235C200.851 319.235 201.755 284.808 200.399 275.896C199.044 266.984 191.194 263.821 187.715 263.212C184.237 262.602 170.964 262.465 170.964 262.465L133.362 261.099L125.764 264.578Z" fill="#263238" stroke="#263238" stroke-linecap="round" stroke-linejoin="round"/>
<path d="M114.593 259.271C114.593 259.271 112.323 261.982 115.339 266.522C118.355 271.062 126.973 283.441 127.446 284.492C127.919 285.543 116.569 310.313 116.569 310.313C116.569 310.313 107.668 322.84 109.023 328.284C110.379 333.727 117.178 337.941 118.839 337.49C120.499 337.038 127.593 331.3 129.558 327.527C131.523 323.754 135.863 282.832 135.863 282.832C135.863 282.832 137.682 275.738 137.524 273.626C137.196 270.677 136.694 267.751 136.021 264.861C135.716 263.958 127.866 244.894 127.866 244.894L117.599 255.761L114.593 259.271Z" fill="white" stroke="#263238" stroke-linecap="round" stroke-linejoin="round"/>
<path d="M129.086 272.575C129.086 272.575 132.102 276.506 132.554 278.881C132.822 280.34 132.721 281.842 132.26 283.252" stroke="#263238" stroke-linecap="round" stroke-linejoin="round"/>
<path d="M125.007 242.383L124.555 270.316L131.795 271.072L130.597 243.738L125.007 242.383Z" fill="#263238" stroke="#263238" stroke-linecap="round" stroke-linejoin="round"/>
<path d="M117.756 263.212C117.756 263.212 126.363 256.423 127.571 254.804C128.261 253.952 128.633 252.885 128.622 251.788L124.545 239.251C124.545 239.251 120.467 242.404 119.857 243.78C119.248 245.157 114.277 259.481 113.972 260.542C113.668 261.604 112.921 262.959 114.729 264.462" fill="white"/>
<path d="M117.756 263.212C117.756 263.212 126.363 256.423 127.571 254.804C128.261 253.952 128.633 252.885 128.622 251.788L124.545 239.251C124.545 239.251 120.467 242.404 119.857 243.78C119.248 245.157 114.277 259.481 113.972 260.542C113.668 261.604 112.921 262.959 114.729 264.462" stroke="#263238" stroke-linecap="round" stroke-linejoin="round"/>
<path d="M117.305 258.535C117.305 258.535 125.607 253.102 127.73 250.38" stroke="#263238" stroke-linecap="round" stroke-linejoin="round"/>
<path d="M117.609 253.249C117.609 253.249 125.155 248.877 126.668 245.893" stroke="#263238" stroke-linecap="round" stroke-linejoin="round"/>
<path d="M119.125 247.669L125.315 243.286" stroke="#263238" stroke-linecap="round" stroke-linejoin="round"/>
<path d="M140.059 270.673C140.059 270.673 142.066 283.21 146.974 290.85C151.881 298.491 162.579 308.663 162.579 308.663C162.579 308.663 170.388 293.215 171.848 278.86C173.309 264.504 173.299 262.507 173.299 262.507L169.095 261.961L140.059 265.408L140.059 270.673Z" fill="#757575" stroke="#263238" stroke-linecap="round" stroke-linejoin="round"/>
<path d="M142.527 273.784C142.527 273.784 146.899 286.615 150.935 292.7C153.739 296.72 156.924 300.461 160.445 303.871C164.239 297.065 166.844 289.662 168.148 281.981C169.956 270.053 170.87 262.507 170.87 262.507C169.302 260.563 167.896 258.492 166.667 256.318C165.91 254.5 165.164 253.165 165.164 253.165C165.164 253.165 164.701 261.772 159.268 267.058C153.835 272.344 152.774 273.09 149.61 273.363C146.447 273.637 142.527 273.784 142.527 273.784Z" fill="white" stroke="#263238" stroke-linecap="round" stroke-linejoin="round"/>
<path d="M154.445 278.187L156.63 269.538C153.373 272.565 152.196 273.111 149.621 273.353C146.468 273.658 142.527 273.805 142.527 273.805C142.527 273.805 144.776 280.415 147.561 286.416L154.445 278.187Z" fill="#263238" stroke="#263238" stroke-linecap="round" stroke-linejoin="round"/>
<path d="M119.574 229.551C119.574 229.551 115.496 236.035 116.095 239.514C116.694 242.992 125.007 247.511 125.007 247.511L128.475 237.548C128.475 237.548 139.352 241.479 142.526 241.626C145.699 241.773 152.33 241.174 153.991 241.479C155.651 241.784 165.772 247.511 165.015 249.172C164.258 250.832 163.964 254.153 164.416 255.067C165.033 256.033 165.736 256.94 166.518 257.778C166.518 257.778 171.646 255.677 174.368 252.797C177.09 249.918 178.75 247.364 178.897 243.885C179.045 240.407 171.541 229.551 171.541 229.551C171.541 229.551 170.185 220.03 168.073 217.319C165.961 214.607 149.798 206.147 145.268 205.233C140.739 204.319 141.8 203.426 139.079 204.781C136.357 206.137 119.111 217.161 118.239 220.639C117.367 224.118 119.574 229.551 119.574 229.551Z" fill="#263238" stroke="#263238" stroke-linecap="round" stroke-linejoin="round"/>
<path d="M126.973 233.166C126.973 233.166 138.596 238.757 141.612 239.062C143.359 239.24 145.12 239.24 146.867 239.062L143.998 230.749C144.839 232.617 146.069 234.285 147.606 235.64C149.143 236.996 150.951 238.008 152.909 238.61C159.404 240.417 164.68 241.931 164.68 241.931L165.436 237.853C165.436 237.853 169.818 237.696 170.575 241.931C171.332 246.166 170.575 251.441 169.966 252.04C169.356 252.64 166.645 254.615 166.645 254.615C166.645 254.615 167.853 259.597 167.401 260.647C166.95 261.698 155.2 277.136 154.444 278.187C153.687 279.238 149.315 279.847 147.35 279.396C145.385 278.944 135.58 267.762 133.163 265.355C130.746 262.949 127.12 253.123 125.807 249.949C124.493 246.775 124.44 245.872 125.355 243.307C126.269 240.743 126.973 233.166 126.973 233.166Z" fill="white" stroke="#263238" stroke-linecap="round" stroke-linejoin="round"/>
<path d="M137.082 248.415C137.082 248.415 139.657 255.067 140.855 257.936C142.053 260.805 142.673 265.292 144.186 264.872C145.313 264.431 146.339 263.766 147.202 262.917" stroke="#263238" stroke-linecap="round" stroke-linejoin="round"/>
<path d="M147.352 270.316C147.352 270.316 151.881 270.316 152.785 269.401C153.689 268.487 152.638 267.142 149.769 267.447C146.9 267.751 144.64 268.498 147.352 270.316Z" fill="#263238" stroke="#263238" stroke-linecap="round" stroke-linejoin="round"/>
<path d="M149.948 249.119C150.4 250.17 150.179 251.221 149.454 251.568C148.729 251.914 147.773 251.305 147.352 250.275C146.932 249.245 147.111 248.173 147.836 247.826C148.561 247.48 149.517 248.079 149.948 249.119Z" fill="#263238"/>
<path d="M136.504 252.293C136.751 252.685 136.839 253.158 136.749 253.613C136.659 254.068 136.399 254.472 136.021 254.741C135.285 255.057 134.329 254.479 133.919 253.449C133.509 252.419 133.688 251.347 134.413 251C135.138 250.653 136.052 251.252 136.504 252.293Z" fill="#263238"/>
<path d="M129.547 249.172C130.246 248.239 131.162 247.491 132.214 246.991C133.267 246.492 134.425 246.255 135.59 246.303L135.138 244.495" stroke="#263238" stroke-linecap="round" stroke-linejoin="round"/>
<path d="M140.711 242.687L141.762 244.043C144.648 242.582 147.916 242.053 151.115 242.53" stroke="#263238" stroke-linecap="round" stroke-linejoin="round"/>
<path d="M269.317 415.54C269.317 415.54 300.004 425.671 308.054 426.27C316.104 426.869 333.979 431.336 333.979 431.336C333.979 431.336 368.828 435.203 371.255 435.823C373.683 436.443 395.689 443.274 401.952 444.167C408.215 445.06 417.148 446.553 417.148 446.553L415.362 458.47L343.543 458.176L265.776 462.642L245.146 450.399L223.992 445.039C223.992 445.039 221.007 424.179 221.89 418.514C222.773 412.85 227.26 408.689 239.755 409.277C252.251 409.866 269.317 415.54 269.317 415.54Z" fill="#263238" stroke="#263238" stroke-linecap="round" stroke-linejoin="round"/>
<path d="M226.084 387.481C226.084 387.481 241.027 378.748 254.605 384.57C268.183 390.392 273.227 409.403 273.616 416.581C274.005 423.759 271.872 448.203 271.872 448.203C277.285 447.632 282.728 447.372 288.171 447.425C295.738 447.625 327.937 450.147 330.46 449.947C332.982 449.747 337.816 449.758 337.816 449.758L337.816 459.458C337.816 459.458 319.583 464.712 300.383 470.324C281.183 475.936 264.652 482.546 260.028 483.513C258.18 483.886 256.261 483.606 254.597 482.72C252.933 481.834 251.628 480.399 250.906 478.658C249.739 475.946 233.64 441.803 229.961 431.525C226.283 421.247 224.129 414.458 224.129 412.903C224.129 411.347 226.084 387.481 226.084 387.481Z" fill="#263238" stroke="#263238" stroke-linecap="round" stroke-linejoin="round"/>
<path d="M328.305 449.359L333.118 449.222" stroke="#A6A6A6" stroke-linecap="round" stroke-linejoin="round"/>
<path d="M273.605 420.059L274.719 452.585C274.719 452.585 289.874 450.735 297.261 450.367C301.665 450.147 313.529 449.789 322.42 449.548" stroke="#A6A6A6" stroke-linecap="round" stroke-linejoin="round"/>
<path d="M237.478 447.94C234.294 440.2 232.152 432.072 231.109 423.769" stroke="#A6A6A6" stroke-linecap="round" stroke-linejoin="round"/>
<path d="M241.082 455.874C241.082 455.874 240.567 454.907 239.758 453.194" stroke="#A6A6A6" stroke-linecap="round" stroke-linejoin="round"/>
<path d="M337.828 449.768L353.35 451.87C353.35 451.87 370.038 459.437 370.427 465.448C370.816 471.459 366.161 474.57 358.983 471.459C351.805 468.348 345.594 460.603 343.85 460.015C341.869 459.609 339.85 459.415 337.828 459.437L337.828 449.768Z" fill="white" stroke="#263238" stroke-linecap="round" stroke-linejoin="round"/>
<path d="M106.977 417.758L116.288 410.969C116.288 410.969 120.743 391.18 125.987 388.847C131.231 386.514 142.665 384.78 146.932 386.136C151.199 387.492 182.242 398.547 183.798 398.747C185.353 398.947 192.92 399.136 192.92 399.136C192.92 399.136 197.375 393.703 200.097 393.314C202.819 392.925 205.52 395.836 205.52 395.836L228.03 385.747C228.03 385.747 230.132 402.047 228.22 414.069C226.307 426.091 228.03 432.502 229.386 439.291C230.257 444.045 230.777 448.857 230.941 453.688L219.686 454.266C219.686 454.266 227.043 460.288 228.03 461.623C228.845 462.673 229.752 463.647 230.742 464.534C227.771 464.321 224.79 464.321 221.82 464.534C218.331 464.922 211.542 466.278 197.964 463.945C184.386 461.612 178.175 460.067 172.154 460.067C166.132 460.067 156.832 460.656 156.832 460.656C156.832 460.656 132.188 454.634 130.254 454.445C128.32 454.256 120.943 456.189 118.221 456.547C115.499 456.904 112.41 456.736 112.41 452.08C112.41 447.425 112.599 442.969 111.632 439.28C110.665 435.592 106.977 417.758 106.977 417.758Z" fill="#072AC8" stroke="#263238" stroke-linecap="round" stroke-linejoin="round"/>
<path d="M205.528 451.313C198.676 450.262 189.912 449.211 185.351 449.884C179.885 450.77 174.287 450.341 169.02 448.633" stroke="#263238" stroke-linecap="round" stroke-linejoin="round"/>
<path d="M215.196 453.026C215.196 453.026 213.168 452.616 210.109 452.08" stroke="#263238" stroke-linecap="round" stroke-linejoin="round"/>
<path d="M194.462 402.772C194.462 402.772 175.304 411.568 166.508 411.883L194.462 402.772Z" fill="#072AC8"/>
<path d="M194.462 402.772C194.462 402.772 175.304 411.568 166.508 411.883" stroke="#263238" stroke-linecap="round" stroke-linejoin="round"/>
<path d="M205.14 397.381C205.14 397.381 204.362 409.414 201.84 414.847" stroke="#263238" stroke-linecap="round" stroke-linejoin="round"/>
<path d="M210.113 420.364C210.054 421.777 209.881 423.182 209.598 424.568" stroke="#263238" stroke-linecap="round" stroke-linejoin="round"/>
<path d="M207.074 396.803C208.654 403.089 209.667 409.504 210.101 415.971" stroke="#263238" stroke-linecap="round" stroke-linejoin="round"/>
<path d="M141.107 440.815C141.107 440.815 111.325 454.277 110.421 455.349C109.517 456.421 99.8383 458.575 97.3267 459.122C94.815 459.668 78.4839 458.071 79.1985 459.122C79.9132 460.172 92.482 463.966 94.9621 463.966C97.4423 463.966 108.96 461.864 110.032 461.633C111.104 461.402 139.825 453.909 143.409 452.658C145.593 451.894 147.703 450.934 149.714 449.789L141.107 440.815Z" fill="white" stroke="#263238" stroke-linecap="round" stroke-linejoin="round"/>
<path d="M128.152 407.795L148.246 434.709L141.11 440.815L152.912 451.587C152.912 451.587 165.523 446.027 169.064 444.409C172.606 442.79 174.981 441.361 174.445 438.85C173.909 436.338 153.09 392.2 153.09 392.2" fill="#072AC8"/>
<path d="M128.152 407.795L148.246 434.709L141.11 440.815L152.912 451.587C152.912 451.587 165.523 446.027 169.064 444.409C172.606 442.79 174.981 441.361 174.445 438.85C173.909 436.338 153.09 392.2 153.09 392.2" stroke="#263238" stroke-linecap="round" stroke-linejoin="round"/>
<path d="M144.116 469.347C144.116 469.347 152.733 469.347 157.042 466.657C161.35 463.966 165.113 457.86 164.219 452.837C163.326 447.814 166.195 447.814 156.863 446.92C150.093 446.237 143.298 447.951 137.663 451.765C133.89 454.098 132.64 456.789 140.353 456.61C148.067 456.431 153.09 457.146 150.579 459.657C148.067 462.169 142.161 468.086 144.116 469.347Z" fill="#072AC8" stroke="#263238" stroke-linecap="round" stroke-linejoin="round"/>
<path d="M123.483 456.421C123.483 456.421 102.665 469.031 101.414 469.883C100.164 470.734 94.4152 470.419 91.3571 469.347C89.1762 468.483 86.7598 468.419 84.5367 469.168C82.2454 469.815 79.9096 470.293 77.5482 470.597C75.5725 470.776 72.2936 470.061 72.8821 472.216C73.4706 474.37 77.5482 474.013 77.5482 474.013C77.5482 474.013 74.3114 480.833 75.2152 481.548C76.1189 482.262 89.2027 481.905 93.6901 481.012C98.1774 480.119 108.592 477.06 110.021 476.524C111.45 475.989 139.268 471.501 146.803 468.117C154.338 464.733 160.801 457.535 160.801 453.762C160.801 449.989 161.347 448.203 153.087 449.642C144.827 451.082 135.506 450.147 123.483 456.421Z" fill="white" stroke="#263238" stroke-linecap="round" stroke-linejoin="round"/>
<path d="M92.0087 481.148C91.2835 481.148 76.6444 483.166 76.6444 483.166C76.6444 483.166 73.3761 479.362 72.8296 478.963C72.2832 478.563 71.6211 475.053 71.6211 475.053C71.6211 475.053 72.8822 474.002 73.4181 475.053L73.9541 476.104C73.9541 476.104 77.1804 475.253 78.6201 475.747C79.8287 476.146 81.4891 476.64 81.4891 476.64C81.4891 476.64 82.0251 474.664 83.2862 475.022C85.5115 476.087 87.6699 477.288 89.7492 478.616C89.7492 478.616 93.9528 474.717 95.9811 474.002C97.3401 473.579 98.7778 473.471 100.185 473.687" fill="white"/>
<path d="M92.0087 481.148C91.2835 481.148 76.6444 483.166 76.6444 483.166C76.6444 483.166 73.3761 479.362 72.8296 478.963C72.2832 478.563 71.6211 475.053 71.6211 475.053C71.6211 475.053 72.8822 474.002 73.4181 475.053L73.9541 476.104C73.9541 476.104 77.1804 475.253 78.6201 475.747C79.8287 476.146 81.4891 476.64 81.4891 476.64C81.4891 476.64 82.0251 474.664 83.2862 475.022C85.5115 476.087 87.6699 477.288 89.7492 478.616C89.7492 478.616 93.9528 474.717 95.9811 474.002C97.3401 473.579 98.7778 473.471 100.185 473.687" stroke="#263238" stroke-linecap="round" stroke-linejoin="round"/>
<path d="M81.4922 476.703C83.3239 478.296 85.3467 479.655 87.5139 480.749" stroke="#263238" stroke-linecap="round" stroke-linejoin="round"/>
<path d="M77.4453 475.82C78.2369 478.465 80.0376 480.693 82.4581 482.021" stroke="#263238" stroke-linecap="round" stroke-linejoin="round"/>
<path d="M73.957 476.167C73.957 476.167 75.4598 480.991 79.0434 482.662" stroke="#263238" stroke-linecap="round" stroke-linejoin="round"/>
<path d="M144.661 435.077C144.661 435.077 150.757 440.993 153.983 443.684C157.209 446.374 162.243 449.989 162.243 449.989C162.243 449.989 155.244 452.679 154.172 453.037C153.1 453.394 148.245 451.418 144.483 448.549C141.964 446.512 139.783 444.089 138.02 441.372L144.661 435.077Z" fill="#072AC8" stroke="#263238" stroke-linecap="round" stroke-linejoin="round"/>
<path d="M116.285 442.202L117.83 448.991L128.507 444.409L116.285 442.202Z" fill="#072AC8" stroke="#263238" stroke-linecap="round" stroke-linejoin="round"/>
<path d="M91.1798 425.387C92.7627 425.78 94.401 425.901 96.0244 425.745C98.0001 425.387 98.7148 422.865 95.6671 418.746C94.5451 417.119 92.8506 415.974 90.922 415.542C88.9934 415.109 86.9726 415.42 85.2632 416.413C82.7515 418.021 80.7758 419.46 77.5495 419.639C74.3232 419.818 68.5748 415.33 63.8877 418.746C59.2007 422.161 59.2217 423.233 58.3285 424.841C57.4352 426.449 51.7077 427.71 48.6286 435.613C45.5494 443.516 48.4499 449.275 48.6286 450.325C48.8072 451.376 41.9974 452.658 39.6644 459.836C37.3314 467.014 42.5333 473.298 50.0683 474.727C57.6033 476.157 71.6014 472.037 73.9344 467.371C76.2674 462.705 74.4704 460.729 73.3984 458.964C73.2218 458.62 73.1207 458.243 73.1019 457.857C73.083 457.471 73.1469 457.085 73.2892 456.726C73.4315 456.367 73.649 456.042 73.927 455.774C74.205 455.505 74.5372 455.3 74.9012 455.17C75.6264 455.17 74.5439 453.016 75.2691 447.099C75.9942 441.183 78.138 434.888 82.804 432.922C87.4701 430.957 91.2113 431.483 92.1361 430.043C93.0609 428.603 91.1798 425.387 91.1798 425.387Z" fill="#A6A6A6" stroke="#263238" stroke-linecap="round" stroke-linejoin="round"/>
<path d="M70.1073 445.691C70.1073 445.691 69.7185 439.68 64.8528 439.48C59.9871 439.28 56.3089 442.78 59.4196 449.989C62.5303 457.198 66.5973 459.5 63.2974 464.344C59.9976 469.189 43.8977 475.411 45.0642 465.511C46.2307 455.611 56.1198 456.978 54.3753 459.889C52.6307 462.8 49.7197 460.078 49.7197 460.078" stroke="#263238" stroke-linecap="round" stroke-linejoin="round"/>
<path d="M48.6289 450.325C48.6289 450.325 55.155 445.071 60.1889 456.168" stroke="#263238" stroke-linecap="round" stroke-linejoin="round"/>
<path d="M58.8555 429.78C58.8555 429.78 61.3776 426.68 70.8883 426.491C80.399 426.302 78.003 432.45 76.29 433.637" stroke="#263238" stroke-linecap="round" stroke-linejoin="round"/>
<path d="M83.4958 423.38C83.4958 423.38 75.7296 419.692 71.2738 421.278C66.8179 422.865 64.6741 425.156 62.3516 425.356" stroke="#263238" stroke-linecap="round" stroke-linejoin="round"/>
<path d="M112.356 441.708L128.498 444.398L110.012 425.566C110.012 425.566 99.9658 427.174 97.9901 425.387C96.0144 423.601 85.6104 424.841 85.6104 424.841C85.6104 424.841 89.0153 428.435 85.9677 429.15C82.9201 429.864 79.1473 430.411 76.2783 433.637C73.4094 436.863 73.588 439.196 72.8734 441.887C72.1588 444.577 69.2793 446.731 68.922 449.243C68.5647 451.755 68.7433 454.098 74.1765 457.503C79.6097 460.908 91.5795 461.087 94.8163 460.551C100.178 459.34 105.406 457.597 110.422 455.349C115.624 453.016 115.267 448.35 114.91 447.099C114.156 445.257 113.304 443.458 112.356 441.708Z" fill="white" stroke="#263238" stroke-linecap="round" stroke-linejoin="round"/>
<path d="M112.355 441.708L106.312 433.711L118.45 442.769L112.355 441.708Z" fill="#263238" stroke="#263238" stroke-linecap="round" stroke-linejoin="round"/>
<path d="M96.5604 446.195C96.5604 446.195 97.4642 449.789 96.2031 451.944" stroke="#263238" stroke-linecap="round" stroke-linejoin="round"/>
<path d="M103.203 445.481C103.754 446.973 103.877 448.588 103.56 450.147" stroke="#263238" stroke-linecap="round" stroke-linejoin="round"/>
<path d="M88.4909 440.1C88.6804 440.897 88.6988 441.725 88.5448 442.529C88.3909 443.333 88.068 444.096 87.5977 444.766" stroke="#263238" stroke-linecap="round" stroke-linejoin="round"/>
<path d="M87.9531 451.944C87.9531 451.944 89.7502 455.527 88.1318 457.324" stroke="#263238" stroke-linecap="round" stroke-linejoin="round"/>
<path d="M81.4895 442.433C81.3913 440.335 82.098 438.279 83.4652 436.685" stroke="#263238" stroke-linecap="round" stroke-linejoin="round"/>
<path d="M82.2564 451.765C81.9696 452.808 81.9344 453.905 82.1536 454.964C82.3728 456.024 82.8402 457.017 83.5175 457.86" stroke="#263238" stroke-linecap="round" stroke-linejoin="round"/>
<path d="M87.7752 427.899C87.7752 427.899 81.4698 423.233 82.9305 421.436C84.3913 419.639 92.0839 421.257 92.9772 423.412C93.5096 424.78 93.6337 426.273 93.3345 427.71" fill="white"/>
<path d="M87.7752 427.899C87.7752 427.899 81.4698 423.233 82.9305 421.436C84.3913 419.639 92.0839 421.257 92.9772 423.412C93.5096 424.78 93.6337 426.273 93.3345 427.71" stroke="#263238" stroke-linecap="round" stroke-linejoin="round"/>
<path d="M106.777 414.069L99.4102 418.536L120.554 442.591L128.899 440.457L106.777 414.069Z" fill="#072AC8" stroke="#263238" stroke-linecap="round" stroke-linejoin="round"/>
<path d="M417.107 446.532C417.107 446.532 426.943 446.826 432.008 447.131C437.074 447.435 442.717 448.318 445.418 453.688C448.119 459.058 445.712 464.418 441.54 465.616C437.368 466.814 430.222 462.033 425.777 460.551C422.374 459.53 418.884 458.827 415.352 458.449L417.107 446.532Z" fill="white" stroke="#263238" stroke-linecap="round" stroke-linejoin="round"/>
<path d="M191.14 309.115L193.242 343.69C193.242 343.69 185.886 354.104 181.314 360.452C176.743 366.799 162.587 381.743 161.231 382.952C159.53 384.103 157.708 385.065 155.798 385.821C155.798 385.821 146.582 385.064 144.774 384.612C142.967 384.16 140.392 384.907 138.889 385.064C137.386 385.222 135.264 384.013 135.411 385.663C135.558 387.313 137.071 387.765 139.183 388.227C141.296 388.69 143.387 387.933 144.175 388.385C144.965 388.94 145.72 389.544 146.435 390.193C146.435 390.193 138.479 395.531 138.027 396.288C137.576 397.045 134.202 401.364 134.812 402.73C135.421 404.096 136.619 403.329 137.229 402.278C137.84 401.351 138.544 400.488 139.331 399.703C139.331 399.703 138.122 402.856 137.67 404.233C137.218 405.609 137.061 406.807 137.964 406.955C138.868 407.102 139.782 405.746 139.782 405.746C139.782 405.746 140.381 407.711 141.748 407.259C143.114 406.807 142.725 406.093 144.69 403.833C145.741 402.604 149.146 401.217 149.146 401.217C149.146 401.217 146.277 405.893 146.424 406.471C146.571 407.049 147.034 408.132 147.938 407.68C148.841 407.228 152.309 401.942 152.919 401.374C153.528 400.807 158.657 400.775 159.865 399.567C161.074 398.358 166.959 390.508 166.959 390.508C166.959 390.508 196.101 368.313 200.588 364.088C205.075 359.863 212.968 345.172 212.968 344.457C212.968 343.743 209.195 296.115 209.195 296.115L191.14 309.115Z" fill="white" stroke="#263238" stroke-linecap="round" stroke-linejoin="round"/>
<path d="M139.352 399.703C139.352 399.703 145.237 394.449 148.557 393.209" stroke="#263238" stroke-linecap="round" stroke-linejoin="round"/>
<path d="M139.805 405.746C140.682 403.987 141.831 402.377 143.21 400.975C145.47 399.38 147.81 397.899 150.219 396.54" stroke="#263238" stroke-linecap="round" stroke-linejoin="round"/>
<path d="M149.168 401.217L151.543 399.377" stroke="#263238" stroke-linecap="round" stroke-linejoin="round"/>
<path d="M186.613 276.653L190.386 312.583L215.723 293.257C215.723 293.257 208.682 279.469 206.665 274.236C203.333 265.629 189.451 260.048 180.539 262.613" fill="#263238"/>
<path d="M186.613 276.653L190.386 312.583L215.723 293.257C215.723 293.257 208.682 279.469 206.665 274.236C203.333 265.629 189.451 260.048 180.539 262.613" stroke="#263238" stroke-linecap="round" stroke-linejoin="round"/>
</svg>
