<svg xmlns="http://www.w3.org/2000/svg" width="30" height="30" viewBox="0 0 20 20" fill="none">
  <path d="M10 17.3125C9.83111 17.3125 9.665 17.2778 9.50167 17.2083C9.33778 17.1389 9.18833 17.0406 9.05333 16.9133L3.08667 10.9467C2.95889 10.8117 2.86056 10.6622 2.79167 10.4983C2.72222 10.335 2.6875 10.1689 2.6875 10C2.6875 9.83112 2.72111 9.6639 2.78833 9.49834C2.85556 9.33278 2.955 9.18445 3.08667 9.05334L9.05333 3.08667C9.18833 2.94778 9.33778 2.84667 9.50167 2.78334C9.66556 2.72001 9.83167 2.68806 10 2.68751C10.1683 2.68695 10.3356 2.71973 10.5017 2.78584C10.6678 2.85195 10.8164 2.95195 10.9475 3.08584L16.9142 9.05251C17.0481 9.18417 17.1481 9.3314 17.2142 9.49417C17.2803 9.65695 17.3131 9.82556 17.3125 10C17.3125 10.1689 17.2808 10.335 17.2175 10.4983C17.1542 10.6617 17.0528 10.8111 16.9133 10.9467L10.9467 16.9133C10.8156 17.045 10.6683 17.1445 10.505 17.2117C10.3422 17.2789 10.1739 17.3125 10 17.3125ZM10 10.9775C10.1189 10.9775 10.2181 10.9375 10.2975 10.8575C10.3769 10.7775 10.4167 10.6786 10.4167 10.5608V7.03584C10.4167 6.91751 10.3767 6.81834 10.2967 6.73834C10.2167 6.65834 10.1175 6.61834 9.99917 6.61834C9.88083 6.61834 9.78194 6.65834 9.7025 6.73834C9.62306 6.81834 9.58333 6.91723 9.58333 7.03501V10.5608C9.58333 10.6786 9.62333 10.7775 9.70333 10.8575C9.78333 10.9375 9.8825 10.9775 10.0008 10.9775M10 12.8358C10.1456 12.8358 10.2675 12.787 10.3658 12.6892C10.4636 12.5908 10.5125 12.4689 10.5125 12.3233C10.5125 12.1778 10.4636 12.0561 10.3658 11.9583C10.2681 11.8606 10.1461 11.8114 10 11.8108C9.85389 11.8103 9.73222 11.8595 9.635 11.9583C9.53778 12.0572 9.48861 12.1792 9.4875 12.3242C9.48639 12.4692 9.53556 12.5908 9.635 12.6892C9.73444 12.7875 9.85611 12.8367 10 12.8367" fill="#072ACB"/>
</svg>