<svg width="20" height="20" viewBox="0 0 20 20" fill="none" xmlns="http://www.w3.org/2000/svg">
<path d="M13.3332 5.83335C13.3332 6.93842 12.8942 7.99823 12.1128 8.77963C11.3314 9.56103 10.2716 10 9.1665 10C8.06144 10 7.00163 9.56103 6.22023 8.77963C5.43882 7.99823 4.99984 6.93842 4.99984 5.83335C4.99984 4.72828 5.43882 3.66848 6.22023 2.88708C7.00163 2.10567 8.06144 1.66669 9.1665 1.66669C10.2716 1.66669 11.3314 2.10567 12.1128 2.88708C12.8942 3.66848 13.3332 4.72828 13.3332 5.83335ZM9.1665 10.8334C11.1632 10.8334 12.979 11.4117 14.3148 12.2267C14.9815 12.6334 15.5515 13.1134 15.9632 13.635C16.3682 14.1475 16.6665 14.7609 16.6665 15.4167C16.6665 16.1209 16.324 16.6759 15.8307 17.0717C15.364 17.4467 14.7482 17.695 14.094 17.8684C12.779 18.2159 11.024 18.3334 9.1665 18.3334C7.309 18.3334 5.554 18.2167 4.239 17.8684C3.58484 17.695 2.969 17.4467 2.50234 17.0717C2.00817 16.675 1.6665 16.1209 1.6665 15.4167C1.6665 14.7609 1.96484 14.1475 2.36984 13.6342C2.7815 13.1134 3.35067 12.6342 4.01817 12.2259C5.354 11.4125 7.17067 10.8334 9.1665 10.8334ZM17.4998 10.8334C17.7122 10.8336 17.9165 10.9149 18.071 11.0607C18.2254 11.2065 18.3184 11.4058 18.3308 11.6178C18.3433 11.8299 18.2743 12.0387 18.1379 12.2015C18.0016 12.3644 17.8083 12.4691 17.5973 12.4942L17.4998 12.5H16.6665C16.4541 12.4998 16.2498 12.4185 16.0954 12.2726C15.9409 12.1268 15.848 11.9276 15.8355 11.7155C15.8231 11.5035 15.8921 11.2947 16.0284 11.1318C16.1647 10.9689 16.3581 10.8643 16.569 10.8392L16.6665 10.8334H17.4998ZM14.9998 9.16669C14.9998 8.94567 15.0876 8.73371 15.2439 8.57743C15.4002 8.42115 15.6122 8.33335 15.8332 8.33335H17.4998C17.7208 8.33335 17.9328 8.42115 18.0891 8.57743C18.2454 8.73371 18.3332 8.94567 18.3332 9.16669C18.3332 9.3877 18.2454 9.59966 18.0891 9.75594C17.9328 9.91222 17.7208 10 17.4998 10H15.8332C15.6122 10 15.4002 9.91222 15.2439 9.75594C15.0876 9.59966 14.9998 9.3877 14.9998 9.16669ZM14.9998 5.83335C14.7788 5.83335 14.5669 5.92115 14.4106 6.07743C14.2543 6.23371 14.1665 6.44567 14.1665 6.66669C14.1665 6.8877 14.2543 7.09966 14.4106 7.25594C14.5669 7.41222 14.7788 7.50002 14.9998 7.50002H17.4998C17.7208 7.50002 17.9328 7.41222 18.0891 7.25594C18.2454 7.09966 18.3332 6.8877 18.3332 6.66669C18.3332 6.44567 18.2454 6.23371 18.0891 6.07743C17.9328 5.92115 17.7208 5.83335 17.4998 5.83335H14.9998Z" fill="#FF6700"/>
</svg>
