<svg width="20" height="21" viewBox="0 0 20 21" fill="none" xmlns="http://www.w3.org/2000/svg">
<path d="M7.318 7C7.486 6.127 7.715 5.343 7.988 4.68C8.289 3.947 8.636 3.386 8.996 3.017C9.354 2.649 9.693 2.5 10 2.5C10.307 2.5 10.646 2.649 11.004 3.017C11.364 3.387 11.711 3.947 12.012 4.68C12.285 5.343 12.514 6.127 12.682 7H7.318ZM7.063 4.3C7.27656 3.76193 7.55423 3.25158 7.89 2.78C6.7911 3.08169 5.76911 3.61411 4.89212 4.34177C4.01513 5.06943 3.30328 5.97564 2.804 7H6.301C6.483 5.993 6.742 5.078 7.063 4.3ZM12.937 4.3C12.7234 3.76228 12.4457 3.25226 12.11 2.781C13.2088 3.08258 14.2307 3.61484 15.1077 4.34233C15.9847 5.06981 16.6966 5.97582 17.196 7H13.699C13.517 5.993 13.258 5.078 12.937 4.3ZM13.85 8H17.602C17.836 8.712 17.972 9.468 17.996 10.253C17.2593 9.75616 16.3895 9.49399 15.501 9.501C14.961 9.501 14.453 9.591 13.987 9.756C13.9671 9.16894 13.9214 8.58304 13.85 8ZM12.999 10.258C12.9916 9.50288 12.9392 8.74888 12.842 8H7.158C7.0504 8.82895 6.99762 9.6641 7 10.5C7 11.375 7.056 12.214 7.158 13H11.14C11.412 11.872 12.07 10.891 12.999 10.258ZM11.003 14H7.318C7.486 14.873 7.715 15.657 7.988 16.32C8.289 17.053 8.636 17.614 8.996 17.983C9.354 18.351 9.693 18.5 10 18.5C10.307 18.5 10.646 18.351 11.004 17.983C11.258 17.723 11.506 17.366 11.736 16.92C11.245 15.986 11 15.05 11 14.182L11.003 14ZM2.804 14C3.3035 15.0243 4.01556 15.9304 4.89272 16.6578C5.76988 17.3853 6.79201 17.9175 7.891 18.219C7.55503 17.7481 7.27702 17.2384 7.063 16.701C6.743 15.921 6.483 15.007 6.301 14H2.804ZM6.15 13H2.398C2.13349 12.1931 1.99915 11.3492 2 10.5C2 9.627 2.14 8.787 2.398 8H6.15C6.052 8.795 6 9.634 6 10.5C6 11.366 6.052 12.205 6.15 13ZM19 14.182C19 12.149 17.535 10.501 15.501 10.501C13.467 10.501 12 12.149 12 14.182C12 15.706 12.982 17.712 15.256 19.418C15.401 19.528 15.601 19.528 15.746 19.418C18.022 17.712 19 15.706 19 14.182ZM17 14C17 14.3978 16.842 14.7794 16.5607 15.0607C16.2794 15.342 15.8978 15.5 15.5 15.5C15.1022 15.5 14.7206 15.342 14.4393 15.0607C14.158 14.7794 14 14.3978 14 14C14 13.6022 14.158 13.2206 14.4393 12.9393C14.7206 12.658 15.1022 12.5 15.5 12.5C15.8978 12.5 16.2794 12.658 16.5607 12.9393C16.842 13.2206 17 13.6022 17 14Z" fill="#2ECC71"/>
</svg>
