<svg width="20" height="21" viewBox="0 0 20 21" fill="none" xmlns="http://www.w3.org/2000/svg">
<path d="M1.796 2.59799C1.74347 2.55859 1.6837 2.52993 1.62009 2.51363C1.55648 2.49734 1.49029 2.49373 1.42529 2.50301C1.36029 2.5123 1.29775 2.5343 1.24125 2.56775C1.18475 2.6012 1.1354 2.64546 1.096 2.69799C1.0566 2.75052 1.02794 2.81029 1.01164 2.8739C0.995347 2.9375 0.991739 3.0037 1.00103 3.0687C1.01031 3.1337 1.03231 3.19624 1.06576 3.25273C1.09922 3.30923 1.14347 3.35859 1.196 3.39799L3.198 4.89999C3.25053 4.93938 3.3103 4.96805 3.37391 4.98434C3.43752 5.00064 3.50371 5.00425 3.56871 4.99496C3.63371 4.98568 3.69625 4.96368 3.75275 4.93023C3.80925 4.89677 3.8586 4.85252 3.898 4.79999C3.9374 4.74746 3.96606 4.68769 3.98236 4.62408C3.99865 4.56047 4.00226 4.49428 3.99297 4.42928C3.98369 4.36428 3.96169 4.30174 3.92824 4.24524C3.89478 4.18874 3.85053 4.13938 3.798 4.09999L1.796 2.59799ZM1 7.49999C0.867392 7.49999 0.740215 7.55267 0.646447 7.64643C0.552678 7.7402 0.5 7.86738 0.5 7.99999C0.5 8.1326 0.552678 8.25977 0.646447 8.35354C0.740215 8.44731 0.867392 8.49999 1 8.49999H2.5C2.63261 8.49999 2.75979 8.44731 2.85355 8.35354C2.94732 8.25977 3 8.1326 3 7.99999C3 7.86738 2.94732 7.7402 2.85355 7.64643C2.75979 7.55267 2.63261 7.49999 2.5 7.49999H1ZM12.45 16.5C12.3343 17.0643 12.0273 17.5714 11.5809 17.9355C11.1345 18.2996 10.5761 18.4985 10 18.4985C9.42393 18.4985 8.86553 18.2996 8.41914 17.9355C7.97275 17.5714 7.66574 17.0643 7.55 16.5H12.45ZM9.998 2.49999C13.147 2.49999 15.742 4.83399 15.982 7.85499L15.996 8.07699L16 8.30199L15.999 11.908L16.953 14.495L16.978 14.579L16.994 14.666L16.999 14.754C16.999 15.069 16.803 15.344 16.477 15.461L16.364 15.494L16.249 15.504H3.751C3.66272 15.503 3.5752 15.4875 3.492 15.458C3.205 15.352 3.016 15.086 3.01 14.742L3.014 14.624L3.048 14.494L3.999 11.911L4 8.29199L4.004 8.06799C4.127 4.94999 6.771 2.49999 9.998 2.49999ZM18.904 2.69799C18.8244 2.5919 18.706 2.52177 18.5747 2.50301C18.4434 2.48426 18.3101 2.51842 18.204 2.59799L16.202 4.09999C16.0959 4.17955 16.0258 4.298 16.007 4.42928C15.9883 4.56055 16.0224 4.6939 16.102 4.79999C16.1816 4.90607 16.3 4.97621 16.4313 4.99496C16.5626 5.01372 16.6959 4.97955 16.802 4.89999L18.804 3.39799C18.9101 3.31842 18.9802 3.19997 18.999 3.0687C19.0177 2.93742 18.9836 2.80407 18.904 2.69799ZM19.5 7.99999C19.5 7.86738 19.4473 7.7402 19.3536 7.64643C19.2598 7.55267 19.1326 7.49999 19 7.49999H17.5C17.3674 7.49999 17.2402 7.55267 17.1464 7.64643C17.0527 7.7402 17 7.86738 17 7.99999C17 8.1326 17.0527 8.25977 17.1464 8.35354C17.2402 8.44731 17.3674 8.49999 17.5 8.49999H19C19.1326 8.49999 19.2598 8.44731 19.3536 8.35354C19.4473 8.25977 19.5 8.1326 19.5 7.99999Z" fill="#FF0000"/>
</svg>
