<svg width="100" height="100" viewBox="0 0 100 100" fill="none" xmlns="http://www.w3.org/2000/svg">
<g filter="url(#filter0_i_232_821)">
<path d="M6.25 90.625C6.25 88.9062 7.65625 87.5 9.375 87.5H71.875C73.5938 87.5 75 88.9062 75 90.625C75 92.3438 73.5938 93.75 71.875 93.75H9.375C7.65625 93.75 6.25 92.375 6.25 90.625Z" fill="url(#paint0_linear_232_821)"/>
</g>
<path d="M21.875 73.9375H25V87.5094C23.7563 88.5313 22.3875 87.9344 21.8938 87.5094H21.875V73.9375Z" fill="url(#paint1_linear_232_821)"/>
<path d="M21.875 73.9375H25V87.5094C23.7563 88.5313 22.3875 87.9344 21.8938 87.5094H21.875V73.9375Z" fill="url(#paint2_linear_232_821)"/>
<g filter="url(#filter1_f_232_821)">
<path d="M10.9805 90.1875H71.7398" stroke="url(#paint3_linear_232_821)" stroke-width="0.25" stroke-linecap="round"/>
</g>
<path d="M43.75 74.0625L45.9688 71.8438L61.3531 87.4937C60.6687 88.3219 58.0312 88.1656 57.1844 87.5188H57.1781L57.1531 87.4937L43.75 74.0625Z" fill="url(#paint4_linear_232_821)"/>
<path d="M40.625 17.1562C40.625 16.2812 39.9375 15.5938 39.0625 15.5938C38.1875 15.5938 37.5 16.2812 37.5 17.1562V18.7188H40.625V17.1562Z" fill="url(#paint5_linear_232_821)"/>
<path d="M37.5 28.0938H12.5C10.7812 28.0938 9.375 26.6875 9.375 24.9688C9.375 23.25 10.7812 21.8438 12.5 21.8438H37.5V28.0938Z" fill="#D7C8D3"/>
<path d="M37.5 28.0938H12.5C10.7812 28.0938 9.375 26.6875 9.375 24.9688C9.375 23.25 10.7812 21.8438 12.5 21.8438H37.5V28.0938Z" fill="url(#paint6_linear_232_821)"/>
<path d="M37.5 28.0938H12.5C10.7812 28.0938 9.375 26.6875 9.375 24.9688C9.375 23.25 10.7812 21.8438 12.5 21.8438H37.5V28.0938Z" fill="url(#paint7_linear_232_821)"/>
<path d="M37.5 28.0938H12.5C10.7812 28.0938 9.375 26.6875 9.375 24.9688C9.375 23.25 10.7812 21.8438 12.5 21.8438H37.5V28.0938Z" fill="url(#paint8_radial_232_821)"/>
<path d="M40.625 21.8438H68.75C70.4688 21.8438 71.875 23.25 71.875 24.9688C71.875 26.6875 70.4688 28.0938 68.75 28.0938H40.625V21.8438Z" fill="#D7C8D3"/>
<path d="M40.625 21.8438H68.75C70.4688 21.8438 71.875 23.25 71.875 24.9688C71.875 26.6875 70.4688 28.0938 68.75 28.0938H40.625V21.8438Z" fill="url(#paint9_linear_232_821)"/>
<g filter="url(#filter2_iii_232_821)">
<path fill-rule="evenodd" clip-rule="evenodd" d="M85.5938 22.7188C86.1562 22.1563 86.9062 21.8438 87.6875 21.8438C89.3125 21.8438 90.625 23.1875 90.625 24.7813V39.0312C90.625 41.625 88.5312 43.7188 85.9375 43.7188H71.875L56.25 59.3438V43.7188H32.8125C30.2188 43.7188 28.125 41.625 28.125 39.0312C28.125 36.4375 30.2188 34.3438 32.8125 34.3438H73.9688L85.5938 22.7188ZM87.5 37.4688C87.5 38.2976 87.1708 39.0924 86.5847 39.6785C85.9987 40.2645 85.2038 40.5938 84.375 40.5938C83.5462 40.5938 82.7513 40.2645 82.1653 39.6785C81.5792 39.0924 81.25 38.2976 81.25 37.4688C81.25 36.6399 81.5792 35.8451 82.1653 35.259C82.7513 34.673 83.5462 34.3438 84.375 34.3438C85.2038 34.3438 85.9987 34.673 86.5847 35.259C87.1708 35.8451 87.5 36.6399 87.5 37.4688Z" fill="url(#paint10_linear_232_821)"/>
</g>
<path d="M40.5406 34.3438H27.9906C25.7937 34.3438 23.85 34.6562 21.875 35.25L6.25 59.3438C7.7875 69.9375 16.9156 78.0938 27.9906 78.0938H40.5406C52.6812 78.0938 62.5 68.3125 62.5 56.2188C62.5 44.1562 52.65 34.3438 40.5406 34.3438Z" fill="url(#paint11_radial_232_821)"/>
<path d="M40.5406 34.3438H27.9906C25.7937 34.3438 23.85 34.6562 21.875 35.25L6.25 59.3438C7.7875 69.9375 16.9156 78.0938 27.9906 78.0938H40.5406C52.6812 78.0938 62.5 68.3125 62.5 56.2188C62.5 44.1562 52.65 34.3438 40.5406 34.3438Z" fill="url(#paint12_radial_232_821)"/>
<path d="M40.5406 34.3438H27.9906C25.7937 34.3438 23.85 34.6562 21.875 35.25L6.25 59.3438C7.7875 69.9375 16.9156 78.0938 27.9906 78.0938H40.5406C52.6812 78.0938 62.5 68.3125 62.5 56.2188C62.5 44.1562 52.65 34.3438 40.5406 34.3438Z" fill="url(#paint13_radial_232_821)"/>
<path d="M40.625 18.7188H37.5V31.2188H40.625V18.7188Z" fill="url(#paint14_linear_232_821)"/>
<path d="M6.03125 56.2188C6.03125 57.2812 6.09375 58.3125 6.25 59.3438H32.6875C34.75 59.3438 36 57.0625 34.875 55.3125L21.875 35.25C12.8438 37.9375 6.03125 46.3125 6.03125 56.2188Z" fill="#4ECAEF"/>
<path d="M6.03125 56.2188C6.03125 57.2812 6.09375 58.3125 6.25 59.3438H32.6875C34.75 59.3438 36 57.0625 34.875 55.3125L21.875 35.25C12.8438 37.9375 6.03125 46.3125 6.03125 56.2188Z" fill="url(#paint15_linear_232_821)"/>
<path d="M6.03125 56.2188C6.03125 57.2812 6.09375 58.3125 6.25 59.3438H32.6875C34.75 59.3438 36 57.0625 34.875 55.3125L21.875 35.25C12.8438 37.9375 6.03125 46.3125 6.03125 56.2188Z" fill="url(#paint16_radial_232_821)"/>
<g filter="url(#filter3_i_232_821)">
<path d="M32.1557 41.4999L38.9682 51.9687C40.3745 54.1562 43.7495 53.1562 43.7495 50.5624V40.0937C43.7495 38.6562 42.5932 37.4999 41.1557 37.4999H34.3432C32.2807 37.4687 31.0307 39.7812 32.1557 41.4999Z" fill="#51CEFF"/>
</g>
<path d="M8.14648 65.5938C9.27148 67.9375 10.7871 70.0625 12.5996 71.8438H55.9059C57.7718 70.0514 59.2947 67.9333 60.3996 65.5938H8.14648Z" fill="url(#paint17_radial_232_821)"/>
<path d="M34.375 32.6344C34.375 32.22 34.5396 31.8226 34.8326 31.5295C35.1257 31.2365 35.5231 31.0719 35.9375 31.0719H42.2844C42.6988 31.0719 43.0962 31.2365 43.3892 31.5295C43.6823 31.8226 43.8469 32.22 43.8469 32.6344V34.3438H34.375V32.6344Z" fill="url(#paint18_linear_232_821)"/>
<path d="M34.375 32.6344C34.375 32.22 34.5396 31.8226 34.8326 31.5295C35.1257 31.2365 35.5231 31.0719 35.9375 31.0719H42.2844C42.6988 31.0719 43.0962 31.2365 43.3892 31.5295C43.6823 31.8226 43.8469 32.22 43.8469 32.6344V34.3438H34.375V32.6344Z" fill="url(#paint19_linear_232_821)"/>
<defs>
<filter id="filter0_i_232_821" x="6.25" y="87.25" width="69.25" height="6.5" filterUnits="userSpaceOnUse" color-interpolation-filters="sRGB">
<feFlood flood-opacity="0" result="BackgroundImageFix"/>
<feBlend mode="normal" in="SourceGraphic" in2="BackgroundImageFix" result="shape"/>
<feColorMatrix in="SourceAlpha" type="matrix" values="0 0 0 0 0 0 0 0 0 0 0 0 0 0 0 0 0 0 127 0" result="hardAlpha"/>
<feOffset dx="0.5" dy="-0.25"/>
<feGaussianBlur stdDeviation="0.375"/>
<feComposite in2="hardAlpha" operator="arithmetic" k2="-1" k3="1"/>
<feColorMatrix type="matrix" values="0 0 0 0 0.666667 0 0 0 0 0.235294 0 0 0 0 0.454902 0 0 0 1 0"/>
<feBlend mode="normal" in2="shape" result="effect1_innerShadow_232_821"/>
</filter>
<filter id="filter1_f_232_821" x="10.4555" y="89.6625" width="61.8098" height="1.05" filterUnits="userSpaceOnUse" color-interpolation-filters="sRGB">
<feFlood flood-opacity="0" result="BackgroundImageFix"/>
<feBlend mode="normal" in="SourceGraphic" in2="BackgroundImageFix" result="shape"/>
<feGaussianBlur stdDeviation="0.2" result="effect1_foregroundBlur_232_821"/>
</filter>
<filter id="filter2_iii_232_821" x="27.825" y="21.6437" width="63.1" height="37.7" filterUnits="userSpaceOnUse" color-interpolation-filters="sRGB">
<feFlood flood-opacity="0" result="BackgroundImageFix"/>
<feBlend mode="normal" in="SourceGraphic" in2="BackgroundImageFix" result="shape"/>
<feColorMatrix in="SourceAlpha" type="matrix" values="0 0 0 0 0 0 0 0 0 0 0 0 0 0 0 0 0 0 127 0" result="hardAlpha"/>
<feOffset dx="0.2" dy="-0.3"/>
<feGaussianBlur stdDeviation="0.1"/>
<feComposite in2="hardAlpha" operator="arithmetic" k2="-1" k3="1"/>
<feColorMatrix type="matrix" values="0 0 0 0 0.776471 0 0 0 0 0.356863 0 0 0 0 0.34902 0 0 0 1 0"/>
<feBlend mode="normal" in2="shape" result="effect1_innerShadow_232_821"/>
<feColorMatrix in="SourceAlpha" type="matrix" values="0 0 0 0 0 0 0 0 0 0 0 0 0 0 0 0 0 0 127 0" result="hardAlpha"/>
<feOffset dx="0.3"/>
<feGaussianBlur stdDeviation="0.2"/>
<feComposite in2="hardAlpha" operator="arithmetic" k2="-1" k3="1"/>
<feColorMatrix type="matrix" values="0 0 0 0 0.776471 0 0 0 0 0.356863 0 0 0 0 0.34902 0 0 0 1 0"/>
<feBlend mode="normal" in2="effect1_innerShadow_232_821" result="effect2_innerShadow_232_821"/>
<feColorMatrix in="SourceAlpha" type="matrix" values="0 0 0 0 0 0 0 0 0 0 0 0 0 0 0 0 0 0 127 0" result="hardAlpha"/>
<feOffset dx="-0.3"/>
<feGaussianBlur stdDeviation="0.15"/>
<feComposite in2="hardAlpha" operator="arithmetic" k2="-1" k3="1"/>
<feColorMatrix type="matrix" values="0 0 0 0 1 0 0 0 0 0.631373 0 0 0 0 0.368627 0 0 0 1 0"/>
<feBlend mode="normal" in2="effect2_innerShadow_232_821" result="effect3_innerShadow_232_821"/>
</filter>
<filter id="filter3_i_232_821" x="30.7324" y="37.4996" width="13.0176" height="16.1694" filterUnits="userSpaceOnUse" color-interpolation-filters="sRGB">
<feFlood flood-opacity="0" result="BackgroundImageFix"/>
<feBlend mode="normal" in="SourceGraphic" in2="BackgroundImageFix" result="shape"/>
<feColorMatrix in="SourceAlpha" type="matrix" values="0 0 0 0 0 0 0 0 0 0 0 0 0 0 0 0 0 0 127 0" result="hardAlpha"/>
<feOffset dx="-1.5" dy="0.5"/>
<feGaussianBlur stdDeviation="0.5"/>
<feComposite in2="hardAlpha" operator="arithmetic" k2="-1" k3="1"/>
<feColorMatrix type="matrix" values="0 0 0 0 0.196078 0 0 0 0 0.647059 0 0 0 0 0.878431 0 0 0 1 0"/>
<feBlend mode="normal" in2="shape" result="effect1_innerShadow_232_821"/>
</filter>
<linearGradient id="paint0_linear_232_821" x1="8.20312" y1="93.75" x2="75" y2="93.75" gradientUnits="userSpaceOnUse">
<stop stop-color="#EE488D"/>
<stop offset="1" stop-color="#FE7E4C"/>
</linearGradient>
<linearGradient id="paint1_linear_232_821" x1="21.875" y1="80.5531" x2="25" y2="80.5531" gradientUnits="userSpaceOnUse">
<stop stop-color="#A1899D"/>
<stop offset="1" stop-color="#E3CEE2"/>
</linearGradient>
<linearGradient id="paint2_linear_232_821" x1="24.6687" y1="77.5906" x2="23.5562" y2="80.3188" gradientUnits="userSpaceOnUse">
<stop stop-color="#AC75A0"/>
<stop offset="1" stop-color="#AC75A0" stop-opacity="0"/>
</linearGradient>
<linearGradient id="paint3_linear_232_821" x1="-nan" y1="-nan" x2="-nan" y2="-nan" gradientUnits="userSpaceOnUse">
<stop stop-color="#FF9E5B"/>
<stop offset="1" stop-color="#F65487"/>
</linearGradient>
<linearGradient id="paint4_linear_232_821" x1="51.0844" y1="81.7" x2="52.8562" y2="79.8906" gradientUnits="userSpaceOnUse">
<stop stop-color="#B686A7"/>
<stop offset="1" stop-color="#F7EBF3"/>
</linearGradient>
<linearGradient id="paint5_linear_232_821" x1="37.4937" y1="17.1656" x2="40.6187" y2="17.1656" gradientUnits="userSpaceOnUse">
<stop stop-color="#BA6F5D"/>
<stop offset="1" stop-color="#FF9367"/>
</linearGradient>
<linearGradient id="paint6_linear_232_821" x1="38.1281" y1="24.9688" x2="36.7344" y2="24.9688" gradientUnits="userSpaceOnUse">
<stop stop-color="#A2919D"/>
<stop offset="1" stop-color="#A2919D" stop-opacity="0"/>
</linearGradient>
<linearGradient id="paint7_linear_232_821" x1="26.4656" y1="28.0938" x2="26.4656" y2="27.0187" gradientUnits="userSpaceOnUse">
<stop stop-color="#CDBEBE"/>
<stop offset="1" stop-color="#CDBEBE" stop-opacity="0"/>
</linearGradient>
<radialGradient id="paint8_radial_232_821" cx="0" cy="0" r="1" gradientUnits="userSpaceOnUse" gradientTransform="translate(35.5469 24.9688) rotate(180) scale(26.7578 11.3281)">
<stop offset="0.938" stop-color="#B8AFC0" stop-opacity="0"/>
<stop offset="1" stop-color="#B8AFC0"/>
</radialGradient>
<linearGradient id="paint9_linear_232_821" x1="59.6125" y1="28.0938" x2="59.6125" y2="27.0187" gradientUnits="userSpaceOnUse">
<stop stop-color="#CDBEBE"/>
<stop offset="1" stop-color="#CDBEBE" stop-opacity="0"/>
</linearGradient>
<linearGradient id="paint10_linear_232_821" x1="88.6656" y1="40.6031" x2="50.1969" y2="40.6031" gradientUnits="userSpaceOnUse">
<stop stop-color="#FE834B"/>
<stop offset="1" stop-color="#FF8346"/>
</linearGradient>
<radialGradient id="paint11_radial_232_821" cx="0" cy="0" r="1" gradientUnits="userSpaceOnUse" gradientTransform="translate(50.5841 49.5775) rotate(147.362) scale(41.2844 53.08)">
<stop stop-color="#FF8E53"/>
<stop offset="1" stop-color="#DA4B77"/>
</radialGradient>
<radialGradient id="paint12_radial_232_821" cx="0" cy="0" r="1" gradientUnits="userSpaceOnUse" gradientTransform="translate(14.4531 76.725) rotate(-36.1328) scale(54.6528 70.2681)">
<stop offset="0.633" stop-color="#FFA260" stop-opacity="0"/>
<stop offset="1" stop-color="#FFA260"/>
</radialGradient>
<radialGradient id="paint13_radial_232_821" cx="0" cy="0" r="1" gradientUnits="userSpaceOnUse" gradientTransform="translate(49.025 50.5531) rotate(154.547) scale(44.9919 57.8466)">
<stop offset="0.777" stop-color="#A63C67" stop-opacity="0"/>
<stop offset="0.971" stop-color="#A63C67"/>
</radialGradient>
<linearGradient id="paint14_linear_232_821" x1="37.0594" y1="24.9688" x2="39.9406" y2="24.9688" gradientUnits="userSpaceOnUse">
<stop stop-color="#A2919D"/>
<stop offset="1" stop-color="#F5EBF2"/>
</linearGradient>
<linearGradient id="paint15_linear_232_821" x1="33.9844" y1="51.725" x2="18.75" y2="62.6625" gradientUnits="userSpaceOnUse">
<stop offset="0.48" stop-color="#32A2CE"/>
<stop offset="1" stop-color="#32A2CE" stop-opacity="0"/>
</linearGradient>
<radialGradient id="paint16_radial_232_821" cx="0" cy="0" r="1" gradientUnits="userSpaceOnUse" gradientTransform="translate(19.1406 32.1969) rotate(127.049) scale(24.9611 4.45156)">
<stop stop-color="#51CAF2"/>
<stop offset="1" stop-color="#51CAF2" stop-opacity="0"/>
</radialGradient>
<radialGradient id="paint17_radial_232_821" cx="0" cy="0" r="1" gradientUnits="userSpaceOnUse" gradientTransform="translate(55.6652 66.5687) rotate(180) scale(45.6544 90.8953)">
<stop stop-color="#FFBD4D"/>
<stop offset="0.802" stop-color="#EE9C48"/>
<stop offset="0.962" stop-color="#B8753B"/>
</radialGradient>
<linearGradient id="paint18_linear_232_821" x1="34.375" y1="33.2688" x2="43.8469" y2="33.2688" gradientUnits="userSpaceOnUse">
<stop stop-color="#C98C34"/>
<stop offset="0.17" stop-color="#FFC748"/>
<stop offset="0.827" stop-color="#FFC748"/>
<stop offset="1" stop-color="#FEE45D"/>
</linearGradient>
<linearGradient id="paint19_linear_232_821" x1="39.1125" y1="31.0719" x2="39.1125" y2="32.1469" gradientUnits="userSpaceOnUse">
<stop stop-color="#FDD244"/>
<stop offset="1" stop-color="#FDD244" stop-opacity="0"/>
</linearGradient>
</defs>
</svg>
