<svg width="24" height="23" viewBox="0 0 24 23" fill="none" xmlns="http://www.w3.org/2000/svg">
<path d="M2 12.76H9.5C9.83152 12.76 10.1495 12.6283 10.3839 12.3939C10.6183 12.1594 10.75 11.8415 10.75 11.51V1.50998C10.75 1.17846 10.6183 0.860516 10.3839 0.626096C10.1495 0.391675 9.83152 0.259979 9.5 0.259979H2C1.66848 0.259979 1.35054 0.391675 1.11612 0.626096C0.881696 0.860516 0.75 1.17846 0.75 1.50998V11.51C0.75 11.8415 0.881696 12.1594 1.11612 12.3939C1.35054 12.6283 1.66848 12.76 2 12.76ZM0.75 21.51C0.75 21.8415 0.881696 22.1594 1.11612 22.3939C1.35054 22.6283 1.66848 22.76 2 22.76H9.5C9.83152 22.76 10.1495 22.6283 10.3839 22.3939C10.6183 22.1594 10.75 21.8415 10.75 21.51V16.51C10.75 16.1785 10.6183 15.8605 10.3839 15.6261C10.1495 15.3917 9.83152 15.26 9.5 15.26H2C1.66848 15.26 1.35054 15.3917 1.11612 15.6261C0.881696 15.8605 0.75 16.1785 0.75 16.51V21.51ZM13.25 21.51C13.25 21.8415 13.3817 22.1594 13.6161 22.3939C13.8505 22.6283 14.1685 22.76 14.5 22.76H22C22.3315 22.76 22.6495 22.6283 22.8839 22.3939C23.1183 22.1594 23.25 21.8415 23.25 21.51V12.76C23.25 12.4285 23.1183 12.1105 22.8839 11.8761C22.6495 11.6417 22.3315 11.51 22 11.51H14.5C14.1685 11.51 13.8505 11.6417 13.6161 11.8761C13.3817 12.1105 13.25 12.4285 13.25 12.76V21.51ZM14.5 9.00998H22C22.3315 9.00998 22.6495 8.87828 22.8839 8.64386C23.1183 8.40944 23.25 8.0915 23.25 7.75998V1.50998C23.25 1.17846 23.1183 0.860516 22.8839 0.626096C22.6495 0.391675 22.3315 0.259979 22 0.259979H14.5C14.1685 0.259979 13.8505 0.391675 13.6161 0.626096C13.3817 0.860516 13.25 1.17846 13.25 1.50998V7.75998C13.25 8.0915 13.3817 8.40944 13.6161 8.64386C13.8505 8.87828 14.1685 9.00998 14.5 9.00998Z" fill="#111111"/>
</svg>
