<svg width="63" height="25" viewBox="0 0 63 25" fill="none" xmlns="http://www.w3.org/2000/svg">
<g clip-path="url(#clip0_2_55)">
<path d="M13.75 11.25V6.25H11.25V11.25H6.25V13.75H11.25V18.75H13.75V13.75H18.75V11.25H13.75ZM12.5 25C9.18479 25 6.00537 23.683 3.66117 21.3388C1.31696 18.9946 0 15.8152 0 12.5C0 9.18479 1.31696 6.00537 3.66117 3.66117C6.00537 1.31696 9.18479 0 12.5 0C15.8152 0 18.9946 1.31696 21.3388 3.66117C23.683 6.00537 25 9.18479 25 12.5C25 15.8152 23.683 18.9946 21.3388 21.3388C18.9946 23.683 15.8152 25 12.5 25Z" fill="#072AC8"/>
</g>
<path d="M36.2227 9.33691L31.9863 21H30.2549L35.1328 8.20312H36.249L36.2227 9.33691ZM39.7734 21L35.5283 9.33691L35.502 8.20312H36.6182L41.5137 21H39.7734ZM39.5537 16.2627V17.6514H32.3643V16.2627H39.5537ZM48.9756 19.1543V7.5H50.6104V21H49.1162L48.9756 19.1543ZM42.5771 16.3506V16.166C42.5771 15.4395 42.665 14.7803 42.8408 14.1885C43.0225 13.5908 43.2773 13.0781 43.6055 12.6504C43.9395 12.2227 44.335 11.8945 44.792 11.666C45.2549 11.4316 45.7705 11.3145 46.3389 11.3145C46.9365 11.3145 47.458 11.4199 47.9033 11.6309C48.3545 11.8359 48.7354 12.1377 49.0459 12.5361C49.3623 12.9287 49.6113 13.4033 49.793 13.96C49.9746 14.5166 50.1006 15.1465 50.1709 15.8496V16.6582C50.1064 17.3555 49.9805 17.9824 49.793 18.5391C49.6113 19.0957 49.3623 19.5703 49.0459 19.9629C48.7354 20.3555 48.3545 20.6572 47.9033 20.8682C47.4521 21.0732 46.9248 21.1758 46.3213 21.1758C45.7646 21.1758 45.2549 21.0557 44.792 20.8154C44.335 20.5752 43.9395 20.2383 43.6055 19.8047C43.2773 19.3711 43.0225 18.8613 42.8408 18.2754C42.665 17.6836 42.5771 17.042 42.5771 16.3506ZM44.2119 16.166V16.3506C44.2119 16.8252 44.2588 17.2705 44.3525 17.6865C44.4521 18.1025 44.6045 18.4688 44.8096 18.7852C45.0146 19.1016 45.2754 19.3506 45.5918 19.5322C45.9082 19.708 46.2861 19.7959 46.7256 19.7959C47.2646 19.7959 47.707 19.6816 48.0527 19.4531C48.4043 19.2246 48.6855 18.9229 48.8965 18.5479C49.1074 18.1729 49.2715 17.7656 49.3887 17.3262V15.208C49.3184 14.8857 49.2158 14.5752 49.0811 14.2764C48.9521 13.9717 48.7822 13.7021 48.5713 13.4678C48.3662 13.2275 48.1113 13.0371 47.8066 12.8965C47.5078 12.7559 47.1533 12.6855 46.7432 12.6855C46.2979 12.6855 45.9141 12.7793 45.5918 12.9668C45.2754 13.1484 45.0146 13.4004 44.8096 13.7227C44.6045 14.0391 44.4521 14.4082 44.3525 14.8301C44.2588 15.2461 44.2119 15.6914 44.2119 16.166ZM59.1357 19.1543V7.5H60.7705V21H59.2764L59.1357 19.1543ZM52.7373 16.3506V16.166C52.7373 15.4395 52.8252 14.7803 53.001 14.1885C53.1826 13.5908 53.4375 13.0781 53.7656 12.6504C54.0996 12.2227 54.4951 11.8945 54.9521 11.666C55.415 11.4316 55.9307 11.3145 56.499 11.3145C57.0967 11.3145 57.6182 11.4199 58.0635 11.6309C58.5146 11.8359 58.8955 12.1377 59.2061 12.5361C59.5225 12.9287 59.7715 13.4033 59.9531 13.96C60.1348 14.5166 60.2607 15.1465 60.3311 15.8496V16.6582C60.2666 17.3555 60.1406 17.9824 59.9531 18.5391C59.7715 19.0957 59.5225 19.5703 59.2061 19.9629C58.8955 20.3555 58.5146 20.6572 58.0635 20.8682C57.6123 21.0732 57.085 21.1758 56.4814 21.1758C55.9248 21.1758 55.415 21.0557 54.9521 20.8154C54.4951 20.5752 54.0996 20.2383 53.7656 19.8047C53.4375 19.3711 53.1826 18.8613 53.001 18.2754C52.8252 17.6836 52.7373 17.042 52.7373 16.3506ZM54.3721 16.166V16.3506C54.3721 16.8252 54.4189 17.2705 54.5127 17.6865C54.6123 18.1025 54.7646 18.4688 54.9697 18.7852C55.1748 19.1016 55.4355 19.3506 55.752 19.5322C56.0684 19.708 56.4463 19.7959 56.8857 19.7959C57.4248 19.7959 57.8672 19.6816 58.2129 19.4531C58.5645 19.2246 58.8457 18.9229 59.0566 18.5479C59.2676 18.1729 59.4316 17.7656 59.5488 17.3262V15.208C59.4785 14.8857 59.376 14.5752 59.2412 14.2764C59.1123 13.9717 58.9424 13.7021 58.7314 13.4678C58.5264 13.2275 58.2715 13.0371 57.9668 12.8965C57.668 12.7559 57.3135 12.6855 56.9033 12.6855C56.458 12.6855 56.0742 12.7793 55.752 12.9668C55.4355 13.1484 55.1748 13.4004 54.9697 13.7227C54.7646 14.0391 54.6123 14.4082 54.5127 14.8301C54.4189 15.2461 54.3721 15.6914 54.3721 16.166Z" fill="black"/>
<defs>
<clipPath id="clip0_2_55">
<rect width="25" height="25" fill="white"/>
</clipPath>
</defs>
</svg>
