<svg width="100" height="100" viewBox="0 0 100 100" fill="none" xmlns="http://www.w3.org/2000/svg">
<path d="M77.1255 61.125C76.0786 59.2187 77.2271 57.2891 79.2114 54.9219C82.3364 51.1953 85.4302 42.7266 81.7036 34.3594C81.7192 34.3125 80.9927 32.9297 81.0083 32.8828L79.6724 32.8125C79.2427 32.75 64.6255 32.7188 50.0005 32.7188C35.3755 32.7188 20.7583 32.75 20.3286 32.8125C20.3286 32.8125 18.2817 34.3125 18.2974 34.3594C14.5708 42.7266 17.6724 51.1953 20.7895 54.9219C22.7739 57.2891 23.9224 59.2187 22.8755 61.125C21.852 62.9922 19.0317 63.2656 19.0317 63.2656C19.0317 63.2656 19.5864 65.1875 21.1099 66.2266C22.5239 67.1875 24.2974 67.4219 25.5317 67.4531C25.5317 67.4531 30.1333 74.8516 42.8989 74.8516H57.1099C69.8755 74.8516 74.4771 67.4531 74.4771 67.4531C75.7114 67.4219 77.4849 67.1953 78.8989 66.2266C80.4146 65.1875 80.9771 63.2656 80.9771 63.2656C80.9771 63.2656 78.1489 62.9844 77.1255 61.125Z" fill="#543930"/>
<path d="M49.9922 74.8359V66.6406L72.3281 64.7109L74.4687 67.4453C74.4687 67.4453 69.8672 74.8438 57.1016 74.8438L49.9922 74.8359Z" fill="url(#paint0_radial_232_709)"/>
<path d="M74.2737 63.9219C70.7503 58.4531 78.0081 56.4297 78.0081 56.4297L78.0159 56.4375C76.8128 58.1406 76.2971 59.6406 77.1096 61.125C78.1331 62.9922 80.9534 63.2656 80.9534 63.2656C80.9534 63.2656 77.2971 66.9766 74.2737 63.9219Z" fill="url(#paint1_radial_232_709)"/>
<path d="M81.7184 34.3594C85.3434 42.4609 82.4216 51.0234 79.3981 54.7109C78.9762 55.2188 77.1872 57.2031 76.8278 58.7969C76.8278 58.7969 69.1012 47.875 66.7575 41.625C66.2887 40.375 65.8669 39.1016 65.7809 37.7891C65.7184 36.8047 65.8356 35.6484 66.3512 34.8203C66.9841 33.8047 81.3044 33.5078 81.3044 33.5078C81.2966 33.5156 81.7184 34.3594 81.7184 34.3594Z" fill="url(#paint2_radial_232_709)"/>
<path d="M18.2965 34.3594C14.6715 42.4609 17.5933 51.0234 20.6246 54.7109C21.0465 55.2188 22.8355 57.2031 23.1949 58.7969C23.1949 58.7969 30.9215 47.875 33.2652 41.625C33.734 40.375 34.1558 39.1016 34.2418 37.7891C34.3043 36.8047 34.1871 35.6484 33.6715 34.8203C33.0387 33.8047 32.2574 34.0781 31.1324 34.0781C28.9918 34.0781 19.6402 33.5078 18.9137 33.5078C18.9137 33.5156 18.2965 34.3594 18.2965 34.3594Z" fill="url(#paint3_radial_232_709)"/>
<path d="M50.0234 74.8359V66.6406L27.6875 64.7109L25.5469 67.4453C25.5469 67.4453 30.1484 74.8438 42.9141 74.8438L50.0234 74.8359Z" fill="url(#paint4_radial_232_709)"/>
<path d="M25.7422 63.9219C29.2656 58.4531 22.0078 56.4297 22.0078 56.4297L22 56.4375C23.2031 58.1406 23.7188 59.6406 22.9062 61.125C21.8828 62.9922 19.0625 63.2656 19.0625 63.2656C19.0625 63.2656 22.7266 66.9766 25.7422 63.9219Z" fill="url(#paint5_radial_232_709)"/>
<path d="M50.1094 75H50C29.9609 75.0234 9.375 80.5469 9.375 94.5234V96.875H90.625V94.5234C90.625 81.3437 70.2344 75 50.1094 75Z" fill="url(#paint6_linear_232_709)"/>
<path d="M59.625 83.0234C59.625 83.0234 65 83.4844 70.4375 85.1562C80.5938 88.2812 83.6484 82.9219 83.6484 82.9219C83.6484 82.9219 72.5391 75.6406 58.4766 75.5391C58.4766 75.5391 57.5469 82.4531 59.625 83.0234ZM16.0859 82.8125C16.0859 82.8125 19.2109 88.2812 29.3672 85.1562C34.8047 83.4844 40.1797 83.0234 40.1797 83.0234C42.2578 82.4531 41.3281 75.5391 41.3281 75.5391C27.2656 75.6328 16.0859 82.8125 16.0859 82.8125Z" fill="#283593"/>
<path d="M35.7422 93.5234H27.2109C26.2734 93.5234 25.5156 92.7656 25.5156 91.8281C25.5156 90.8906 26.2734 90.1328 27.2109 90.1328H35.7422C36.6797 90.1328 37.4375 90.8906 37.4375 91.8281C37.4375 92.7656 36.6797 93.5234 35.7422 93.5234Z" fill="#E0E0E0"/>
<path d="M88.9687 88.4141L85.0625 88.4766L83.2344 91.8281L87.0078 96.875H90.9062C91.1094 91.1094 88.9687 88.4141 88.9687 88.4141Z" fill="url(#paint7_linear_232_709)"/>
<path d="M14.9062 88.4766L10.9999 88.4141C10.9999 88.4141 8.8593 91.1172 9.06242 96.875H12.9609L16.7343 91.8281L14.9062 88.4766Z" fill="url(#paint8_linear_232_709)"/>
<path d="M85.4141 89.0547L88.9766 88.9922C89.2969 88.9844 89.5547 88.7187 89.5547 88.3984C89.5547 88.0781 89.3047 87.8438 88.9609 87.8203L84.7109 87.8906L82.3516 92.2266L85.6562 96.875H87.0938L83.7266 92.1484L85.4141 89.0547Z" fill="#BDBDBD"/>
<path d="M87.3752 91.1641L90.0158 91.0547C90.2346 91.0469 90.3986 90.8672 90.3908 90.6484C90.383 90.4297 90.1955 90.2813 89.9845 90.2734L86.9611 90.3984L85.7345 92.1797L88.8205 96.875H89.758L86.6799 92.1953L87.3752 91.1641ZM15.258 87.8984L11.008 87.8281H11.0002C10.6799 87.8281 10.422 88.0859 10.4142 88.4063C10.4064 88.7266 10.6642 89 10.9924 89L14.5627 89.0625L16.2424 92.1563L12.8674 96.875H14.3049L17.6095 92.2266L15.258 87.8984Z" fill="#BDBDBD"/>
<path d="M13.0081 90.3984L9.97683 90.2734C9.75808 90.2812 9.57839 90.4297 9.57058 90.6484C9.56277 90.8672 9.72683 91.0469 9.94558 91.0547L12.5862 91.1641L13.2971 92.1875L10.219 96.875H11.1565L14.2425 92.1797L13.0081 90.3984Z" fill="#BDBDBD"/>
<path d="M49.9922 95.2656L57.2734 81.9219H41.7266L49.9922 95.2656Z" fill="#212121"/>
<path d="M42.9062 67.25V78.1719C42.9062 81.6953 45.7969 84.5547 49.3594 84.5547H50.6484C54.2109 84.5547 57.1016 81.6953 57.1016 78.1719V67.25H42.9062Z" fill="#E59600"/>
<path d="M36.7969 75.9219L30.5469 88.5938L39.0391 86.0469L49.9922 95.2656L42.875 75.2109L36.7969 75.9219ZM57.125 75.2109L50.0078 95.2656L61.5703 86.1719L69.4531 88.5938L63.2031 75.9219L57.125 75.2109Z" fill="#3674CE"/>
<path d="M71.3516 39.3984H28.6484C24.0469 39.3984 20.2812 43.4141 20.2812 48.3125C20.2812 53.2109 24.0469 57.2266 28.6484 57.2266H71.3438C75.9453 57.2266 79.7109 53.2109 79.7109 48.3125C79.7109 43.4141 75.9531 39.3984 71.3516 39.3984Z" fill="#E59600"/>
<path d="M50 8.64844C36.4063 8.64844 23.8125 23.1875 23.8125 44.1172C23.8125 64.9297 36.7891 75.2188 50 75.2188C63.2109 75.2188 76.1875 64.9219 76.1875 44.1094C76.1875 23.1875 63.5938 8.64844 50 8.64844Z" fill="#FFCA28"/>
<path d="M56.5772 59.4844C54.0928 60.961 45.9288 60.961 43.4444 59.4844C42.0147 58.6329 40.5538 59.9375 41.1475 61.2344C41.7334 62.5079 46.1788 65.4688 50.0303 65.4688C53.8819 65.4688 58.2725 62.5079 58.8584 61.2344C59.4444 59.9375 58.0069 58.6329 56.5772 59.4844Z" fill="#795548"/>
<path d="M53.0147 53.1719C52.9287 53.1406 52.8506 53.1172 52.7647 53.1094H47.2334C47.1475 53.1172 47.0615 53.1406 46.9834 53.1719C46.4834 53.375 46.21 53.8906 46.4443 54.4453C46.6787 55 47.7803 56.5469 49.999 56.5469C52.2178 56.5469 53.3193 54.9922 53.5537 54.4453C53.7881 53.8906 53.5147 53.375 53.0147 53.1719Z" fill="#E59600"/>
<path d="M37.1563 49.9297C39.2834 49.9297 41.0078 48.1458 41.0078 45.9453C41.0078 43.7448 39.2834 41.9609 37.1563 41.9609C35.0291 41.9609 33.3047 43.7448 33.3047 45.9453C33.3047 48.1458 35.0291 49.9297 37.1563 49.9297Z" fill="#404040"/>
<path d="M62.8438 49.9297C64.9709 49.9297 66.6953 48.1458 66.6953 45.9453C66.6953 43.7448 64.9709 41.9609 62.8438 41.9609C60.7166 41.9609 58.9922 43.7448 58.9922 45.9453C58.9922 48.1458 60.7166 49.9297 62.8438 49.9297Z" fill="#404040"/>
<path d="M42.8132 38.9219C42.0866 37.9609 40.4147 36.5703 37.1647 36.5703C33.9147 36.5703 32.235 37.9687 31.5163 38.9219C31.196 39.3437 31.2741 39.8359 31.5007 40.1328C31.7038 40.4062 32.3132 40.6641 32.985 40.4375C33.6569 40.2109 34.9694 39.5313 37.1647 39.5156C39.36 39.5313 40.6725 40.2109 41.3444 40.4375C42.0163 40.6641 42.6257 40.4141 42.8288 40.1328C43.0475 39.8359 43.1335 39.3437 42.8132 38.9219ZM68.4929 38.9219C67.7663 37.9609 66.0944 36.5703 62.8444 36.5703C59.5944 36.5703 57.9147 37.9687 57.196 38.9219C56.8757 39.3437 56.9538 39.8359 57.1804 40.1328C57.3835 40.4062 57.9928 40.6641 58.6647 40.4375C59.3366 40.2109 60.6491 39.5313 62.8444 39.5156C65.0397 39.5313 66.3522 40.2109 67.0241 40.4375C67.696 40.6641 68.3054 40.4141 68.5085 40.1328C68.7272 39.8359 68.8132 39.3437 68.4929 38.9219Z" fill="#6D4C41"/>
<path d="M79.0229 18.1797C77.1323 15.4922 73.0464 11.9297 69.5229 11.6953C68.8511 8.33593 65.1792 5.53125 61.687 4.44531C52.3198 1.53906 46.2339 4.79687 42.937 6.57031C42.2495 6.9375 37.7886 9.36718 34.7339 7.625C32.8276 6.53906 26.8433 5.87499 28.6714 12.2891C26.5698 12.375 23.773 13.2656 22.1714 16.2344C20.2417 19.8125 20.7183 22.8359 21.1558 24.2969C19.2261 25.8984 16.7105 29.3359 18.0776 33.8516C19.1167 37.2969 23.937 38.8984 23.937 38.8984C23.3198 45.2422 23.4448 49.2109 23.9839 50.8281C24.0776 51.1094 24.4605 51.0859 24.5386 50.7891C25.4214 47.5781 29.1948 36.625 29.0151 34.7578C29.0151 34.7578 37.4995 33.0234 45.5776 26.9609C47.2026 25.7422 48.9526 24.7109 50.812 23.9531C60.6792 19.9453 62.898 26.8125 62.898 26.8125C62.898 26.8125 69.7729 25.4531 72.2261 35.4219C73.1636 39.2422 74.8745 45.4609 75.5073 49.8906C75.5542 50.2031 75.9526 50.2734 76.062 49.9844C76.7183 48.2187 77.0854 44.75 77.2808 41.2422C77.3433 40.0234 80.4058 38.4141 81.4839 33.2422C82.8979 26.4922 80.4058 20.1406 79.0229 18.1797Z" fill="#543930"/>
<path d="M77.2656 41.2734C77.3281 40.0547 80.3906 38.4453 81.4687 33.2734C81.5781 32.7266 81.6719 32.1797 81.7578 31.6172C82.5 25.4922 80.2969 19.9766 79.0313 18.1719C77.2813 15.6875 73.6562 12.4531 70.3359 11.8047C70.0469 11.7656 69.7656 11.7344 69.5 11.7188C69.5 11.7188 69.7891 13.2578 69.2031 14.4922C68.4453 16.1016 66.8047 16.4844 66.8047 16.4844C75.8359 25.3281 75.5312 32.9297 77.2656 41.2734Z" fill="url(#paint9_radial_232_709)"/>
<path d="M60.7196 4.16408C65.9305 5.54689 68.5477 8.16408 69.5165 11.7031C69.8055 12.75 70.4461 22.6875 51.4383 11.4219C44.5555 7.33595 46.4461 4.81252 47.2508 4.52346C50.3758 3.40627 54.9071 2.62502 60.7196 4.16408Z" fill="url(#paint10_radial_232_709)"/>
<path d="M32.1092 12.8359L28.6795 12.2812C28.5467 12.2812 28.0858 12.3203 27.8358 12.3594C25.8827 12.6328 23.5467 13.6328 22.1795 16.2266C20.6952 19.0391 20.617 21.4844 20.8983 23.1172C20.9764 23.6719 21.1639 24.2891 21.1639 24.2891C21.1639 24.2891 22.9842 22.6094 27.1248 22.5L32.1092 12.8359Z" fill="url(#paint11_radial_232_709)"/>
<path d="M20.9919 24.4375C19.1716 26.0156 16.6326 29.5547 18.1404 34.0078C19.2888 37.4063 23.9529 38.8984 23.9529 38.8984C23.9529 38.9141 24.8904 39.2109 25.3748 39.2109L27.1326 22.5078C24.9216 22.5078 22.7732 23.1797 21.3513 24.1563C21.3513 24.1797 20.9841 24.4141 20.9919 24.4375Z" fill="url(#paint12_radial_232_709)"/>
<path d="M49.8359 18.9219C23.5859 18.9219 19.3828 27.7969 19.3828 27.7969C19.3828 27.7969 27.4766 35.5391 49.8359 35.6875C72.2031 35.5391 80.7031 27.3047 80.7031 27.3047C80.7031 27.3047 76.0859 18.9219 49.8359 18.9219Z" fill="url(#paint13_linear_232_709)"/>
<path d="M15.593 26.9531C16.9289 31.7891 18.2101 33.8359 18.2101 33.8359C19.5617 32.2734 27.6164 25 49.9445 25H50.0695C72.3976 25 80.0851 32.3125 81.4445 33.875C81.4445 33.875 83.0617 31.6875 84.3976 26.8516C87.4992 15.6641 72.1476 3.125 50.0461 3.125C27.9914 3.125 12.507 15.7812 15.593 26.9531Z" fill="url(#paint14_linear_232_709)"/>
<path d="M78.1557 27.8203C77.9902 26.9454 77.5058 26.1631 76.7963 25.625C73.8432 23.3594 65.0073 17.7344 50.0463 17.7344C34.6948 17.7344 26.101 23.3516 23.2494 25.625C22.5698 26.1641 22.1088 26.9297 21.9448 27.7734L21.9369 27.8203C21.7416 28.8516 22.0073 29.8203 22.5541 30.5859C27.1088 28.0156 35.5698 25 49.9448 25H50.0698C64.6791 25 73.0229 28.1328 77.4213 30.7344C78.0541 29.9609 78.3666 28.9219 78.1557 27.8203Z" fill="#3B78E7"/>
<path d="M56.0196 9.96094C55.8165 9.96094 55.629 10.0547 55.5196 10.2187C55.0899 10.875 54.4571 11.3125 53.3399 11.3125C52.254 11.3125 51.4649 10.3125 50.9884 9.69531C50.8399 9.5 50.6055 9.375 50.3477 9.375C50.0899 9.375 49.8555 9.5 49.7071 9.69531C49.2384 10.3125 48.4884 11.3125 47.4024 11.3125C46.2852 11.3125 45.6524 10.8672 45.2227 10.2187C45.1672 10.1378 45.0925 10.0719 45.0052 10.0269C44.9179 9.98188 44.8209 9.95922 44.7227 9.96094C44.5352 9.96094 44.3555 10.0469 44.2462 10.1875L44.004 10.5C43.7149 10.875 43.668 11.375 43.8868 11.7891C44.2149 12.4141 44.3868 13.1016 44.3868 13.7969V16.5156C44.3868 18.5 47.6212 22.5469 50.3634 22.5469C53.1055 22.5469 56.3399 18.5 56.3399 16.5156V13.7969C56.3399 13.1016 56.5118 12.4141 56.8399 11.7891C57.0587 11.375 57.0118 10.875 56.7227 10.5L56.4805 10.1875C56.3868 10.0469 56.2071 9.96094 56.0196 9.96094Z" fill="#FFCC00"/>
<defs>
<radialGradient id="paint0_radial_232_709" cx="0" cy="0" r="1" gradientUnits="userSpaceOnUse" gradientTransform="translate(61.4484 63.0361) scale(19.2812 9.47095)">
<stop offset="0.728" stop-color="#6D4C41" stop-opacity="0"/>
<stop offset="1" stop-color="#6D4C41"/>
</radialGradient>
<radialGradient id="paint1_radial_232_709" cx="0" cy="0" r="1" gradientUnits="userSpaceOnUse" gradientTransform="translate(79.3473 60.1601) rotate(154.924) scale(5.59191 4.1484)">
<stop offset="0.663" stop-color="#6D4C41"/>
<stop offset="1" stop-color="#6D4C41" stop-opacity="0"/>
</radialGradient>
<radialGradient id="paint2_radial_232_709" cx="0" cy="0" r="1" gradientUnits="userSpaceOnUse" gradientTransform="translate(64.7321 44.3736) rotate(-94.2783) scale(24.3723 20.3128)">
<stop offset="0.725" stop-color="#6D4C41" stop-opacity="0"/>
<stop offset="1" stop-color="#6D4C41"/>
</radialGradient>
<radialGradient id="paint3_radial_232_709" cx="0" cy="0" r="1" gradientUnits="userSpaceOnUse" gradientTransform="translate(35.2845 44.3732) rotate(-85.7217) scale(24.3723 20.3128)">
<stop offset="0.725" stop-color="#6D4C41" stop-opacity="0"/>
<stop offset="1" stop-color="#6D4C41"/>
</radialGradient>
<radialGradient id="paint4_radial_232_709" cx="0" cy="0" r="1" gradientUnits="userSpaceOnUse" gradientTransform="translate(38.5695 63.0361) rotate(180) scale(19.2812 9.47095)">
<stop offset="0.728" stop-color="#6D4C41" stop-opacity="0"/>
<stop offset="1" stop-color="#6D4C41"/>
</radialGradient>
<radialGradient id="paint5_radial_232_709" cx="0" cy="0" r="1" gradientUnits="userSpaceOnUse" gradientTransform="translate(20.6724 60.1607) rotate(25.0761) scale(5.59191 4.1484)">
<stop offset="0.663" stop-color="#6D4C41"/>
<stop offset="1" stop-color="#6D4C41" stop-opacity="0"/>
</radialGradient>
<linearGradient id="paint6_linear_232_709" x1="50" y1="75.3688" x2="50" y2="98.2148" gradientUnits="userSpaceOnUse">
<stop offset="0.003" stop-color="#3B78E7"/>
<stop offset="0.223" stop-color="#386EDA"/>
<stop offset="0.629" stop-color="#3052B8"/>
<stop offset="1" stop-color="#283593"/>
</linearGradient>
<linearGradient id="paint7_linear_232_709" x1="90.9211" y1="92.6422" x2="83.2344" y2="92.6422" gradientUnits="userSpaceOnUse">
<stop offset="0.004" stop-color="#666666"/>
<stop offset="0.099" stop-color="#606060"/>
<stop offset="0.68" stop-color="#3F3F3F"/>
<stop offset="1" stop-color="#333333"/>
</linearGradient>
<linearGradient id="paint8_linear_232_709" x1="9.04289" y1="92.6422" x2="16.7296" y2="92.6422" gradientUnits="userSpaceOnUse">
<stop offset="0.004" stop-color="#666666"/>
<stop offset="0.099" stop-color="#606060"/>
<stop offset="0.68" stop-color="#3F3F3F"/>
<stop offset="1" stop-color="#333333"/>
</linearGradient>
<radialGradient id="paint9_radial_232_709" cx="0" cy="0" r="1" gradientUnits="userSpaceOnUse" gradientTransform="translate(62.8442 31.9174) rotate(72.0851) scale(26.8574 19.9275)">
<stop offset="0.699" stop-color="#6D4C41" stop-opacity="0"/>
<stop offset="1" stop-color="#6D4C41"/>
</radialGradient>
<radialGradient id="paint10_radial_232_709" cx="0" cy="0" r="1" gradientUnits="userSpaceOnUse" gradientTransform="translate(53.0694 15.3073) rotate(-157.19) scale(20.9385 11.7675)">
<stop offset="0.699" stop-color="#6D4C41" stop-opacity="0"/>
<stop offset="1" stop-color="#6D4C41"/>
</radialGradient>
<radialGradient id="paint11_radial_232_709" cx="0" cy="0" r="1" gradientUnits="userSpaceOnUse" gradientTransform="translate(34.5501 20.2541) rotate(-164.942) scale(11.8207 11.0621)">
<stop offset="0.66" stop-color="#6D4C41" stop-opacity="0"/>
<stop offset="1" stop-color="#6D4C41"/>
</radialGradient>
<radialGradient id="paint12_radial_232_709" cx="0" cy="0" r="1" gradientUnits="userSpaceOnUse" gradientTransform="translate(31.641 31.97) rotate(7.83355) scale(12.9012 18.1283)">
<stop offset="0.598" stop-color="#6D4C41" stop-opacity="0"/>
<stop offset="1" stop-color="#6D4C41"/>
</radialGradient>
<linearGradient id="paint13_linear_232_709" x1="50.0438" y1="19.0102" x2="50.0438" y2="35.2445" gradientUnits="userSpaceOnUse">
<stop offset="0.004" stop-color="#666666"/>
<stop offset="0.099" stop-color="#606060"/>
<stop offset="0.68" stop-color="#3F3F3F"/>
<stop offset="1" stop-color="#333333"/>
</linearGradient>
<linearGradient id="paint14_linear_232_709" x1="49.9992" y1="3.4" x2="49.9992" y2="26.807" gradientUnits="userSpaceOnUse">
<stop offset="0.003" stop-color="#3B78E7"/>
<stop offset="0.011" stop-color="#3B77E6"/>
<stop offset="0.298" stop-color="#335BC2"/>
<stop offset="0.568" stop-color="#2D46A8"/>
<stop offset="0.809" stop-color="#293998"/>
<stop offset="1" stop-color="#283593"/>
</linearGradient>
</defs>
</svg>
