<svg width="30" height="31" viewBox="0 0 30 31" fill="none" xmlns="http://www.w3.org/2000/svg">
<path d="M27.0621 26.2912C26.9798 26.4338 26.8614 26.5521 26.7189 26.6344C26.5763 26.7167 26.4146 26.76 26.25 26.76H3.75002C3.58553 26.7598 3.42399 26.7164 3.2816 26.634C3.13922 26.5517 3.02101 26.4333 2.93884 26.2908C2.85667 26.1483 2.81343 25.9867 2.81348 25.8222C2.81352 25.6578 2.85684 25.4962 2.93908 25.3537C4.72384 22.2682 7.47423 20.0557 10.684 19.0069C9.0963 18.0617 7.86276 16.6215 7.17281 14.9074C6.48286 13.1933 6.37465 11.3001 6.86479 9.5186C7.35493 7.73706 8.41633 6.16567 9.88598 5.04575C11.3556 3.92582 13.1523 3.31929 15 3.31929C16.8477 3.31929 18.6444 3.92582 20.114 5.04575C21.5837 6.16567 22.6451 7.73706 23.1352 9.5186C23.6254 11.3001 23.5172 13.1933 22.8272 14.9074C22.1373 16.6215 20.9037 18.0617 19.316 19.0069C22.5258 20.0557 25.2762 22.2682 27.061 25.3537C27.1434 25.4961 27.1869 25.6578 27.1871 25.8223C27.1873 25.9869 27.1442 26.1486 27.0621 26.2912Z" fill="#111111"/>
</svg>
