<svg width="300" height="261" viewBox="0 0 300 261" fill="none" xmlns="http://www.w3.org/2000/svg">
<path d="M300 228.899H0V229.074H300V228.899Z" fill="#EBEBEB"/>
<path d="M245.802 240.239H235.866V240.414H245.802V240.239Z" fill="#EBEBEB"/>
<path d="M220.2 237.701H197.514V237.876H220.2V237.701Z" fill="#EBEBEB"/>
<path d="M200.448 233.66H159V233.835H200.448V233.66Z" fill="#EBEBEB"/>
<path d="M39.0896 234.835H31.4756V235.01H39.0896V234.835Z" fill="#EBEBEB"/>
<path d="M66.534 234.835H44.436V235.01H66.534V234.835Z" fill="#EBEBEB"/>
<path d="M127.116 237.785H91.3984V237.96H127.116V237.785Z" fill="#EBEBEB"/>
<path d="M142.2 197.717H26.3463C25.4387 197.715 24.5688 197.294 23.9276 196.546C23.2864 195.797 22.9263 194.783 22.9263 193.725V3.95714C22.9342 2.90565 23.2978 1.90025 23.9381 1.15933C24.5785 0.418407 25.4439 0.00180126 26.3463 0H142.2C143.109 0 143.98 0.420595 144.623 1.16926C145.265 1.91792 145.626 2.93333 145.626 3.9921V193.725C145.626 194.784 145.265 195.799 144.623 196.548C143.98 197.297 143.109 197.717 142.2 197.717ZM26.3463 0.139829C25.4785 0.141681 24.6467 0.544677 24.0337 1.26036C23.4206 1.97605 23.0763 2.94594 23.0763 3.95714V193.725C23.0763 194.736 23.4206 195.706 24.0337 196.422C24.6467 197.138 25.4785 197.541 26.3463 197.542H142.2C143.069 197.541 143.901 197.138 144.515 196.422C145.129 195.707 145.475 194.737 145.476 193.725V3.95714C145.475 2.94529 145.129 1.97542 144.515 1.25993C143.901 0.54445 143.069 0.141677 142.2 0.139829H26.3463Z" fill="#EBEBEB"/>
<path d="M271.986 197.717H156.126C155.218 197.715 154.347 197.294 153.705 196.546C153.063 195.798 152.701 194.783 152.7 193.725V3.95714C152.709 2.90501 153.074 1.89962 153.715 1.15889C154.357 0.418163 155.223 0.00178162 156.126 0H271.986C272.887 0.00363868 273.751 0.421057 274.39 1.16178C275.029 1.90251 275.392 2.90686 275.4 3.95714V193.725C275.4 194.781 275.04 195.795 274.401 196.543C273.761 197.291 272.892 197.714 271.986 197.717ZM156.126 0.139829C155.257 0.141677 154.425 0.54445 153.811 1.25993C153.197 1.97542 152.851 2.94529 152.85 3.95714V193.725C152.851 194.737 153.197 195.707 153.811 196.422C154.425 197.138 155.257 197.541 156.126 197.542H271.986C272.854 197.541 273.686 197.138 274.3 196.422C274.914 195.707 275.26 194.737 275.262 193.725V3.95714C275.26 2.94529 274.914 1.97542 274.3 1.25993C273.686 0.54445 272.854 0.141677 271.986 0.139829H156.126Z" fill="#EBEBEB"/>
<path d="M137.958 228.899H153.162V123.51H137.958V228.899Z" fill="#E6E6E6"/>
<path d="M140.85 228.899H137.958V219.328H143.874L140.85 228.899Z" fill="#F0F0F0"/>
<path d="M239.508 228.899H254.712V123.51H239.508V228.899Z" fill="#E6E6E6"/>
<path d="M137.958 223.026L242.028 223.026V123.51L137.958 123.51V223.026Z" fill="#F0F0F0"/>
<path d="M237.144 145.324H142.848C142.067 145.324 141.317 144.962 140.763 144.319C140.21 143.675 139.898 142.802 139.896 141.891V129.208C139.898 128.297 140.21 127.424 140.763 126.781C141.317 126.137 142.067 125.776 142.848 125.776H237.144C237.926 125.776 238.675 126.137 239.228 126.781C239.78 127.425 240.09 128.298 240.09 129.208V141.926C240.083 142.83 239.769 143.694 239.217 144.331C238.665 144.967 237.921 145.324 237.144 145.324ZM142.848 126.447C142.226 126.447 141.63 126.735 141.19 127.247C140.75 127.76 140.502 128.455 140.502 129.18V141.926C140.504 142.65 140.752 143.343 141.192 143.854C141.632 144.365 142.227 144.652 142.848 144.652H237.144C237.765 144.651 238.359 144.363 238.797 143.852C239.236 143.341 239.483 142.648 239.484 141.926V129.208C239.484 128.485 239.238 127.79 238.799 127.278C238.361 126.765 237.766 126.477 237.144 126.475L142.848 126.447Z" fill="#E6E6E6"/>
<path d="M186.378 211.414H142.848C142.067 211.412 141.318 211.05 140.765 210.406C140.212 209.763 139.9 208.891 139.896 207.981V150.218C139.898 149.307 140.21 148.433 140.763 147.79C141.317 147.146 142.067 146.785 142.848 146.785H186.378C187.16 146.785 187.909 147.147 188.462 147.79C189.014 148.434 189.324 149.307 189.324 150.218V207.981C189.323 208.891 189.012 209.763 188.46 210.406C187.908 211.049 187.159 211.412 186.378 211.414ZM142.848 147.519C142.227 147.521 141.631 147.809 141.191 148.322C140.752 148.834 140.504 149.528 140.502 150.253V208.016C140.504 208.74 140.752 209.433 141.192 209.944C141.632 210.455 142.227 210.742 142.848 210.742H186.378C187 210.742 187.595 210.455 188.035 209.944C188.475 209.433 188.723 208.74 188.724 208.016V150.218C188.723 149.493 188.475 148.799 188.036 148.287C187.596 147.774 187 147.486 186.378 147.484L142.848 147.519Z" fill="#E6E6E6"/>
<path d="M237.144 211.414H193.608C192.827 211.412 192.079 211.049 191.527 210.406C190.975 209.763 190.664 208.891 190.662 207.981V150.218C190.662 149.767 190.738 149.32 190.886 148.904C191.034 148.488 191.251 148.109 191.525 147.79C191.799 147.472 192.123 147.219 192.481 147.046C192.838 146.874 193.221 146.785 193.608 146.785H237.144C237.925 146.785 238.675 147.147 239.227 147.79C239.78 148.434 240.09 149.307 240.09 150.218V207.981C240.089 208.891 239.778 209.763 239.226 210.406C238.673 211.049 237.925 211.412 237.144 211.414ZM193.608 147.519C192.987 147.521 192.392 147.81 191.953 148.322C191.514 148.835 191.268 149.529 191.268 150.253V208.016C191.27 208.738 191.517 209.431 191.955 209.942C192.394 210.453 192.988 210.741 193.608 210.742H237.144C237.764 210.741 238.359 210.453 238.797 209.942C239.235 209.431 239.483 208.738 239.484 208.016V150.218C239.484 149.494 239.238 148.8 238.799 148.287C238.36 147.775 237.765 147.486 237.144 147.484L193.608 147.519Z" fill="#E6E6E6"/>
<path d="M196.506 157.237C195.937 157.238 195.381 157.043 194.908 156.676C194.434 156.309 194.065 155.786 193.846 155.174C193.628 154.563 193.57 153.889 193.68 153.239C193.791 152.589 194.064 151.992 194.466 151.523C194.867 151.053 195.379 150.734 195.937 150.604C196.495 150.474 197.073 150.54 197.598 150.793C198.124 151.047 198.573 151.476 198.889 152.027C199.205 152.578 199.374 153.225 199.374 153.888C199.374 154.775 199.072 155.626 198.534 156.254C197.997 156.881 197.267 157.235 196.506 157.237ZM196.506 151.252C196.057 151.252 195.618 151.407 195.245 151.698C194.872 151.989 194.582 152.402 194.41 152.885C194.239 153.369 194.194 153.9 194.282 154.413C194.37 154.926 194.587 155.397 194.904 155.766C195.222 156.136 195.627 156.387 196.067 156.488C196.508 156.589 196.964 156.536 197.378 156.335C197.792 156.134 198.146 155.794 198.395 155.358C198.643 154.923 198.775 154.411 198.774 153.888C198.774 153.541 198.715 153.198 198.601 152.878C198.487 152.558 198.32 152.267 198.109 152.022C197.899 151.777 197.649 151.583 197.373 151.451C197.098 151.319 196.804 151.251 196.506 151.252Z" fill="#FAFAFA"/>
<path d="M183.48 157.237C182.911 157.238 182.355 157.043 181.881 156.676C181.408 156.309 181.039 155.786 180.82 155.174C180.602 154.563 180.544 153.889 180.654 153.239C180.764 152.589 181.038 151.992 181.439 151.523C181.841 151.053 182.353 150.734 182.911 150.604C183.468 150.474 184.047 150.54 184.572 150.793C185.098 151.047 185.547 151.476 185.863 152.027C186.179 152.578 186.348 153.225 186.348 153.888C186.348 154.775 186.046 155.626 185.508 156.254C184.97 156.881 184.241 157.235 183.48 157.237ZM183.48 151.252C183.031 151.252 182.592 151.407 182.219 151.698C181.846 151.989 181.555 152.402 181.384 152.885C181.212 153.369 181.168 153.9 181.256 154.413C181.344 154.926 181.56 155.397 181.878 155.766C182.196 156.136 182.6 156.387 183.041 156.488C183.481 156.589 183.937 156.536 184.352 156.335C184.766 156.134 185.12 155.794 185.368 155.358C185.617 154.923 185.749 154.411 185.748 153.888C185.748 153.541 185.689 153.198 185.575 152.878C185.461 152.558 185.294 152.267 185.083 152.022C184.872 151.777 184.622 151.583 184.347 151.451C184.072 151.319 183.777 151.251 183.48 151.252Z" fill="#FAFAFA"/>
<path d="M239.142 228.899H242.028V219.328H236.112L239.142 228.899Z" fill="#F0F0F0"/>
<path d="M189.654 139.031C189.086 139.033 188.529 138.837 188.056 138.47C187.583 138.103 187.213 137.581 186.995 136.969C186.776 136.357 186.719 135.683 186.829 135.033C186.939 134.383 187.212 133.786 187.614 133.317C188.016 132.848 188.528 132.528 189.086 132.398C189.643 132.269 190.221 132.334 190.747 132.588C191.272 132.841 191.722 133.27 192.038 133.821C192.354 134.372 192.522 135.02 192.522 135.682C192.522 136.569 192.22 137.42 191.683 138.048C191.145 138.676 190.416 139.029 189.654 139.031ZM189.654 133.047C189.206 133.047 188.767 133.202 188.394 133.492C188.021 133.783 187.73 134.196 187.558 134.68C187.387 135.163 187.342 135.695 187.43 136.208C187.518 136.72 187.735 137.191 188.053 137.561C188.371 137.93 188.775 138.181 189.216 138.282C189.656 138.383 190.112 138.33 190.527 138.129C190.941 137.928 191.295 137.588 191.543 137.153C191.792 136.717 191.924 136.205 191.922 135.682C191.922 135.336 191.864 134.992 191.75 134.672C191.636 134.352 191.468 134.061 191.258 133.816C191.047 133.571 190.797 133.377 190.522 133.245C190.247 133.113 189.952 133.046 189.654 133.047Z" fill="#FAFAFA"/>
<path d="M133.236 88.8749L259.308 88.8749V17.4016L133.236 17.4016V88.8749Z" fill="#E6E6E6"/>
<path d="M124.032 13.9829H264.87C265.096 13.9829 265.313 14.0875 265.473 14.2737C265.632 14.4599 265.722 14.7124 265.722 14.9757C265.721 15.2385 265.63 15.4899 265.471 15.6757C265.311 15.8615 265.096 15.9667 264.87 15.9685H124.032C123.806 15.9685 123.59 15.8639 123.43 15.6777C123.27 15.4915 123.18 15.239 123.18 14.9757C123.179 14.8451 123.201 14.7156 123.243 14.5947C123.286 14.4738 123.349 14.364 123.428 14.2716C123.507 14.1793 123.601 14.1062 123.705 14.0566C123.809 14.0071 123.92 13.982 124.032 13.9829Z" fill="#E6E6E6"/>
<path d="M129.594 88.8749L257.61 88.8749V17.4016L129.594 17.4016V88.8749Z" fill="#F0F0F0"/>
<path d="M133.236 88.8749H259.308V91.6924H130.722L133.236 88.8749Z" fill="#E6E6E6"/>
<path d="M123.522 88.8749H251.538L249.024 91.6924H121.008L123.522 88.8749Z" fill="#F0F0F0"/>
<path d="M252.504 82.9322V23.3513L134.694 23.3513V82.9322H252.504Z" fill="#FAFAFA"/>
<path d="M225.295 82.9322L214.531 23.3513H200.395L211.159 82.9322H225.295Z" fill="white"/>
<path d="M197.766 82.9322L187.002 23.3513H172.866L183.63 82.9322H197.766Z" fill="white"/>
<path d="M208.122 82.9322L197.358 23.3513H191.844L202.614 82.9322H208.122Z" fill="white"/>
<path d="M135.342 82.9322V23.3513H134.694V82.9322H135.342Z" fill="#E6E6E6"/>
<g opacity="0.4">
<path d="M240.486 101.585H261.228V12.2072H240.486V101.585Z" fill="#F0F0F0"/>
<path d="M249.024 101.585H255.864V12.2072H249.024V101.585Z" fill="#E6E6E6"/>
<path d="M219.744 101.585H240.486V12.2072H219.744V101.585Z" fill="#F0F0F0"/>
<path d="M240.24 101.585H247.08V12.2072H240.24V101.585Z" fill="#E6E6E6"/>
<path d="M199.002 101.585H219.744V12.2072H199.002V101.585Z" fill="#F0F0F0"/>
</g>
<g opacity="0.4">
<path d="M137.964 101.585H143.022V12.2072H137.964V101.585Z" fill="#F0F0F0"/>
<path d="M135.984 101.585H139.926V12.2072H135.984V101.585Z" fill="#E6E6E6"/>
<path d="M132.901 101.585H137.958V12.2072H132.901V101.585Z" fill="#F0F0F0"/>
<path d="M130.932 101.585H134.874V12.2072H130.932V101.585Z" fill="#E6E6E6"/>
<path d="M127.842 101.585H132.9V12.2072H127.842L127.842 101.585Z" fill="#F0F0F0"/>
</g>
<path d="M42.9899 211.399H98.9399L98.9399 28.8256H42.9899L42.9899 211.399Z" fill="#E6E6E6"/>
<path d="M38.4955 211.399H97.7275L97.7275 28.8256H38.4955L38.4955 211.399Z" fill="#F5F5F5"/>
<path d="M89.1055 201.36L89.1055 38.8722H47.1115L47.1115 201.36H89.1055Z" fill="white"/>
<path d="M68.4845 201.353L81.2045 38.8652H72.4985L59.7725 201.353H68.4845Z" fill="#FAFAFA"/>
<path d="M56.25 201.353L68.97 38.8652H66.54L53.814 201.353H56.25Z" fill="#FAFAFA"/>
<path d="M150 260.472C214.249 260.472 266.334 256.929 266.334 252.558C266.334 248.187 214.249 244.644 150 244.644C85.7505 244.644 33.666 248.187 33.666 252.558C33.666 256.929 85.7505 260.472 150 260.472Z" fill="#F5F5F5"/>
<path d="M82.3917 66.3135L82.9917 63.8665C83.1537 63.1917 83.1717 62.4809 83.0441 61.7961C82.9165 61.1113 82.6473 60.4732 82.2597 59.9373L81.8097 59.3151C81.5674 58.9878 81.2443 58.7558 80.8845 58.6506C80.5247 58.5455 80.1458 58.5725 79.7997 58.7278L77.7597 59.5528C77.3318 59.7271 76.9761 60.0831 76.7636 60.5497C76.5512 61.0163 76.4977 61.5591 76.6137 62.0697L76.8837 63.2513C76.8837 63.2513 77.4117 67.523 79.3317 69.8092L80.0337 69.4597C80.6056 69.1777 81.1151 68.748 81.5236 68.203C81.9321 67.6579 82.2289 67.0118 82.3917 66.3135Z" fill="#CE7A63"/>
<path d="M115.199 78.5066C114.821 77.9251 114.349 77.4361 113.808 77.0676C113.268 76.6991 112.671 76.4583 112.051 76.359C111.43 76.2596 110.799 76.3037 110.194 76.4886C109.588 76.6736 109.02 76.9958 108.521 77.4369L108.413 77.5208L108.221 77.6606L107.807 77.9542C107.525 78.157 107.207 78.3597 106.931 78.5485C106.331 78.9261 105.731 79.3106 105.095 79.6392C103.867 80.3113 102.593 80.8609 101.285 81.2822C100.657 81.4919 100.017 81.6553 99.3713 81.7716C98.743 81.9067 98.1075 81.9908 97.4693 82.0233C96.4074 82.0823 95.3433 82.0073 94.2953 81.7995C93.4516 81.044 92.6499 80.2267 91.8953 79.3525C90.8153 78.1081 89.7353 76.7657 88.7033 75.3464C87.6713 73.9272 86.6273 72.466 85.6073 70.9698C84.5873 69.4737 83.5793 67.9146 82.6073 66.4464L82.5473 66.3555C82.1927 65.8605 81.7023 65.5234 81.159 65.4014C80.6156 65.2793 80.0528 65.3798 79.5658 65.6858C79.0787 65.9918 78.6973 66.4844 78.4862 67.0804C78.2751 67.6764 78.2472 68.3391 78.4073 68.9563C78.986 70.9047 79.6529 72.8161 80.4053 74.6823C81.1433 76.542 81.9593 78.3667 82.8593 80.1705C83.7679 82.0027 84.7697 83.77 85.8593 85.463C87.0407 87.2997 88.3907 88.9806 89.8853 90.4759C90.2056 90.7838 90.5717 91.0207 90.9653 91.175L91.2893 91.3009C93.2596 92.0818 95.3174 92.5223 97.3973 92.6083C99.4304 92.7013 101.465 92.4874 103.451 91.972C106.33 91.2403 109.095 89.9951 111.647 88.2806C112.073 88.0009 112.493 87.7073 112.913 87.3857L113.543 86.8893L113.867 86.6166L114.263 86.274C115.27 85.3878 115.935 84.0722 116.11 82.6159C116.286 81.1596 115.958 79.6817 115.199 78.5066Z" fill="#CF7A64"/>
<path d="M119.531 247.259C119.531 247.259 120.347 245.357 120.005 239.68C120.005 239.68 123.227 238.079 125.501 238.918C125.543 242.868 125.501 246.706 125.501 246.706L119.531 247.259Z" fill="#CE7A63"/>
<path d="M124.451 120.113C124.451 120.113 128.123 125.755 128.969 136.745C129.641 145.435 127.991 163.138 125.699 180.791C131.333 204.24 125.867 240.624 125.867 240.624C124.199 240.099 121.265 239.987 119.723 240.624C119.771 239.225 113.783 197.731 112.277 179.099C111.287 166.808 106.277 121.77 106.277 121.77L124.451 120.113Z" fill="#263238"/>
<path opacity="0.2" d="M120.383 142.499C120.833 146.827 123.689 160.523 126.947 170.611C127.547 165.515 128.027 160.572 128.399 155.999L120.383 142.499Z" fill="black"/>
<path d="M163.445 238.407C162.81 235.855 162.046 233.347 161.159 230.898C161.159 230.898 163.949 228.801 166.433 229.228C167.07 231.471 167.9 233.633 168.911 235.681L163.445 238.407Z" fill="#CE7A63"/>
<path d="M168.258 234.268L163.35 238.309C163.247 238.392 163.171 238.513 163.134 238.652C162.733 241.458 161.65 244.071 160.014 246.182C159.802 246.481 159.661 246.84 159.604 247.222C159.547 247.605 159.577 247.998 159.69 248.363C162.192 248.741 166.554 243.763 170.748 239.274C170.908 239.143 171.041 238.971 171.137 238.773C171.233 238.574 171.29 238.353 171.304 238.125C171.318 237.898 171.288 237.67 171.217 237.457C171.146 237.245 171.035 237.053 170.892 236.897C170.212 236.141 169.588 235.32 169.026 234.443C168.986 234.373 168.934 234.312 168.873 234.265C168.813 234.219 168.745 234.186 168.673 234.17C168.602 234.154 168.528 234.154 168.457 234.171C168.386 234.188 168.318 234.221 168.258 234.268Z" fill="#407BFF"/>
<path d="M131.249 119.462C131.249 119.462 136.199 123.049 139.415 133.389C141.953 141.597 144.425 158.663 146.717 176.359C158.663 191.215 167.213 230.633 167.213 230.633C165.737 230.752 162.695 232.423 161.567 233.464C161.147 232.185 140.357 196.41 133.475 179.379C126.917 163.145 111.563 124.937 111.563 124.937L131.249 119.462Z" fill="#263238"/>
<path opacity="0.2" d="M156.977 196.095C154.783 202.248 152.915 208.552 151.385 214.972C152.981 217.888 154.493 220.628 155.843 223.054L162.371 212.099C160.865 207.044 159.047 201.465 156.977 196.095Z" fill="black"/>
<path d="M125.562 245.308H119.562C119.437 245.307 119.316 245.356 119.22 245.448C117.5 247.469 115.32 248.876 112.938 249.503C112.617 249.603 112.325 249.8 112.09 250.074C111.855 250.347 111.686 250.688 111.6 251.062H125.136C125.332 251.062 125.525 251.012 125.702 250.914C125.88 250.817 126.036 250.674 126.16 250.498C126.284 250.321 126.373 250.114 126.42 249.892C126.467 249.671 126.471 249.44 126.432 249.216C126.254 248.141 126.152 247.052 126.126 245.958C126.126 245.872 126.111 245.787 126.083 245.708C126.054 245.628 126.013 245.556 125.96 245.496C125.908 245.435 125.845 245.388 125.777 245.355C125.709 245.323 125.635 245.307 125.562 245.308Z" fill="#407BFF"/>
<path d="M113.465 49.1847C109.619 51.7715 111.065 62.6432 102.665 68.0126C107.237 74.6125 116.831 75.1648 119.567 73.9413C122.303 72.7178 122.153 53.2887 122.153 53.2887C122.153 53.2887 116.909 47.6745 113.465 49.1847Z" fill="#263238"/>
<path d="M129.126 79.4295C128.634 79.2128 129.636 79.6393 129.126 79.4295V79.4295Z" fill="#407BFF"/>
<path d="M114.809 75.2557C116.009 75.4305 117.299 75.6472 118.523 75.8919C122.201 76.64 124.391 76.6819 129.125 79.4296C133.667 82.0723 134.315 90.5459 133.559 96.4047C132.485 104.718 133.163 114.037 135.629 123.259C124.229 127.027 110.429 127.586 105.197 125.356C104.873 122.175 103.295 98.7049 103.319 96.3069C99.5273 91.1122 104.789 85.8617 105.329 83.0232C105.801 80.589 107.033 78.4461 108.785 77.0107C110.537 75.5753 112.684 74.9498 114.809 75.2557Z" fill="#407BFF"/>
<path opacity="0.7" d="M114.809 75.2557C116.009 75.4305 117.299 75.6472 118.523 75.8919C122.201 76.64 124.391 76.6819 129.125 79.4296C133.667 82.0723 134.315 90.5459 133.559 96.4047C132.485 104.718 133.163 114.037 135.629 123.259C124.229 127.027 110.429 127.586 105.197 125.356C104.873 122.175 103.295 98.7049 103.319 96.3069C99.5273 91.1122 104.789 85.8617 105.329 83.0232C105.801 80.589 107.033 78.4461 108.785 77.0107C110.537 75.5753 112.684 74.9498 114.809 75.2557Z" fill="white"/>
<path d="M166.8 94.2933C166.748 93.5546 166.446 92.8701 165.961 92.3902C165.476 91.9104 164.848 91.6746 164.214 91.7345C160.932 92.0421 157.68 92.5735 154.488 93.0559L152.088 93.4124C151.308 93.5383 150.528 93.6501 149.784 93.734C149.412 93.776 149.058 93.8039 148.722 93.8249H148.278H148.098H148.026C148.071 93.8155 148.118 93.8155 148.164 93.8249L147.936 93.776L147.474 93.6781C147.162 93.5872 146.874 93.5243 146.544 93.4194C143.921 92.5275 141.441 91.1437 139.2 89.3224C138.006 88.3845 136.855 87.3765 135.75 86.3022C135.192 85.7568 134.646 85.1975 134.112 84.6382L133.326 83.7852L132.654 83.0162L132.384 82.7086C131.489 81.7605 130.319 81.2447 129.11 81.266C127.901 81.2873 126.744 81.8441 125.875 82.8233C125.006 83.8024 124.489 85.1305 124.43 86.5376C124.37 87.9447 124.773 89.3254 125.556 90.3991L126.096 91.0983L126.588 91.6995C126.912 92.0911 127.242 92.4616 127.578 92.8252C128.238 93.5592 128.928 94.2584 129.63 94.9226C131.05 96.2768 132.547 97.5172 134.112 98.635C137.372 101.022 140.992 102.664 144.78 103.473C145.272 103.571 145.776 103.634 146.268 103.704L147.024 103.774H147.402C147.654 103.774 147.954 103.774 148.158 103.774L148.698 103.725L149.13 103.662C149.412 103.613 149.652 103.557 149.904 103.508C150.378 103.396 150.828 103.263 151.26 103.137C152.13 102.879 152.952 102.599 153.768 102.319C154.584 102.04 155.382 101.711 156.168 101.397C159.332 100.142 162.431 98.6764 165.45 97.006C165.882 96.7628 166.241 96.3744 166.482 95.8909C166.722 95.4074 166.833 94.8509 166.8 94.2933Z" fill="#CF7A64"/>
<path d="M163.553 92.2867L164.447 89.9655C164.696 89.328 165.074 88.7704 165.548 88.3406C166.023 87.9107 166.58 87.6214 167.171 87.4976L167.855 87.3577C168.214 87.283 168.585 87.3372 168.917 87.5133C169.249 87.6893 169.527 87.9789 169.715 88.3435L170.825 90.5039C171.061 90.9571 171.14 91.4974 171.048 92.0162C170.955 92.535 170.698 92.9938 170.327 93.3004L169.469 93.9996C169.469 93.9996 166.715 96.88 163.979 97.2086L163.631 96.4116C163.355 95.7743 163.205 95.0732 163.191 94.3594C163.178 93.6457 163.302 92.9376 163.553 92.2867Z" fill="#CE7A63"/>
<path d="M123.696 67.9775C123.544 71.5224 123.986 75.0678 124.998 78.4157C125.091 78.6987 125.127 79.0028 125.104 79.3048C125.081 79.6067 124.999 79.8984 124.864 80.1576C124.729 80.4168 124.545 80.6365 124.325 80.7999C124.106 80.9633 123.858 81.0661 123.6 81.1004C119.261 81.7225 115.041 83.1828 111.114 85.4211C111.041 83.8288 111.242 82.2357 111.705 80.7351C112.167 79.2344 112.882 77.8564 113.808 76.6818C116.844 76.3113 114.678 69.6275 114.342 68.39L123.696 67.9775Z" fill="#CE7A63"/>
<path opacity="0.2" d="M121.368 68.0754L114.354 68.3831C114.57 69.2011 115.554 72.3402 115.392 74.5215C116.434 74.1874 117.409 73.6146 118.26 72.8366C119.677 71.6417 120.761 69.9853 121.374 68.0754H121.368Z" fill="black"/>
<path d="M127.199 60.6086C125.333 66.789 124.655 69.4458 121.199 71.7949C115.997 75.2906 110.021 71.3264 110.297 64.6357C110.543 58.616 113.555 49.5272 119.339 48.7442C125.123 47.9611 129.077 54.4352 127.199 60.6086Z" fill="#CE7A63"/>
<path d="M118.074 60.1263C117.906 60.6157 117.546 60.9163 117.27 60.7835C116.994 60.6507 116.904 60.1543 117.072 59.6579C117.24 59.1615 117.6 58.8678 117.876 58.9937C118.152 59.1195 118.242 59.6159 118.074 60.1263Z" fill="#263238"/>
<path d="M112.8 57.784C112.632 58.2804 112.272 58.5741 111.996 58.4482C111.72 58.3224 111.63 57.812 111.798 57.3156C111.966 56.8192 112.326 56.5256 112.602 56.6584C112.878 56.7912 112.992 57.2876 112.8 57.784Z" fill="#263238"/>
<path d="M112.74 56.7424L111.84 55.9314C111.84 55.9314 112.044 57.099 112.74 56.7424Z" fill="#263238"/>
<path d="M113.999 59.2662C113.236 60.2209 112.364 61.0489 111.407 61.7272C111.563 62.0072 111.769 62.2443 112.012 62.4218C112.254 62.5993 112.527 62.713 112.811 62.7549L113.999 59.2662Z" fill="#BA4D3C"/>
<path d="M114.162 65.7683C113.92 65.6647 113.688 65.536 113.466 65.3838C113.45 65.3744 113.435 65.3613 113.424 65.3452C113.412 65.3292 113.403 65.3105 113.398 65.2904C113.393 65.2702 113.391 65.2491 113.393 65.2282C113.396 65.2073 113.401 65.1871 113.41 65.1689C113.419 65.1507 113.432 65.1349 113.446 65.1224C113.461 65.1098 113.477 65.1009 113.495 65.0962C113.512 65.0914 113.53 65.0909 113.548 65.0947C113.566 65.0984 113.583 65.1064 113.598 65.1181C114.083 65.463 114.63 65.6694 115.197 65.7205C115.763 65.7715 116.331 65.6657 116.856 65.4117C116.888 65.3944 116.924 65.3919 116.958 65.4049C116.991 65.4179 117.019 65.4454 117.036 65.4817C117.044 65.4995 117.05 65.5192 117.051 65.5394C117.053 65.5597 117.052 65.5802 117.047 65.5997C117.042 65.6192 117.033 65.6373 117.022 65.6531C117.011 65.6688 116.997 65.6819 116.982 65.6914C116.087 66.1452 115.074 66.1728 114.162 65.7683Z" fill="#263238"/>
<path d="M126.984 65.9991C126.658 66.4592 126.252 66.8331 125.793 67.0959C125.333 67.3587 124.831 67.5044 124.32 67.5232C123.03 67.5232 122.802 65.7893 123.516 64.3491C124.158 63.0417 125.604 61.4756 126.732 62.1748C127.86 62.8739 127.866 64.8035 126.984 65.9991Z" fill="#CE7A63"/>
<path d="M121.8 59.7557C121.392 69.7744 118.008 75.1788 115.956 77.3321C122.796 79.2618 130.05 76.7798 132.198 74.3678C135.534 70.6134 135.438 64.1533 134.382 59.2663C133.104 53.4075 130.698 49.8419 125.844 50.3383C120.99 50.8347 121.908 56.5397 121.8 59.7557Z" fill="#263238"/>
<path d="M119.285 57.868C119.254 57.8467 119.226 57.8175 119.206 57.7824C119.185 57.7473 119.171 57.7073 119.165 57.6652C119.108 57.2786 118.973 56.9131 118.772 56.5985C118.571 56.2839 118.309 56.029 118.007 55.8545C117.942 55.8234 117.889 55.7634 117.861 55.6875C117.833 55.6117 117.832 55.526 117.857 55.449C117.885 55.3719 117.938 55.3106 118.004 55.2779C118.07 55.2453 118.144 55.244 118.211 55.2742C118.596 55.4871 118.931 55.8047 119.187 56.2002C119.444 56.5957 119.616 57.0574 119.687 57.5464C119.698 57.6059 119.693 57.6677 119.674 57.7242C119.655 57.7806 119.621 57.8291 119.578 57.8635C119.535 57.8979 119.485 57.9167 119.432 57.9175C119.38 57.9183 119.329 57.9011 119.285 57.868Z" fill="#263238"/>
<path d="M112.2 54.7429C112.13 54.7372 112.064 54.7025 112.014 54.645C111.964 54.5862 111.937 54.5072 111.937 54.4248C111.937 54.3425 111.964 54.2634 112.014 54.2046C112.317 53.8544 112.687 53.5942 113.094 53.4458C113.502 53.2973 113.934 53.265 114.354 53.3516C114.391 53.3574 114.427 53.3723 114.46 53.3954C114.492 53.4184 114.52 53.4492 114.541 53.4855C114.562 53.5219 114.577 53.5631 114.584 53.6065C114.591 53.6499 114.59 53.6945 114.581 53.7374C114.572 53.7802 114.555 53.8205 114.532 53.8554C114.509 53.8904 114.48 53.9193 114.447 53.9403C114.413 53.9613 114.377 53.9738 114.339 53.9772C114.301 53.9806 114.263 53.9747 114.228 53.9599C113.895 53.8973 113.554 53.9281 113.234 54.0497C112.914 54.1713 112.623 54.3802 112.386 54.659C112.333 54.7091 112.268 54.7384 112.2 54.7429Z" fill="#263238"/>
<path d="M117.99 59.0636L117.09 58.2526C117.09 58.2526 117.294 59.4271 117.99 59.0636Z" fill="#263238"/>
<path d="M110.304 51.1562C110.838 52.0302 113.676 51.7995 115.818 53.009C117.402 52.4814 118.926 51.7301 120.354 50.7717C119.619 52.0923 118.628 53.1937 117.462 53.9878C122.1 56.7843 127.884 60.6506 130.92 57.5534C136.266 52.0931 127.68 45.0597 120.822 44.5004C115.95 44.1019 111.414 46.2063 110.304 51.1562Z" fill="#263238"/>
<path d="M183.167 247.224C183.167 247.224 182.279 245.399 182.399 239.68C182.399 239.68 179.117 238.24 176.879 239.191C176.981 243.141 177.173 246.972 177.173 246.972L183.167 247.224Z" fill="#CE7A63"/>
<path d="M164.364 127.44C164.364 127.44 161.568 133.033 163.602 144.065C165.21 152.777 173.658 164.718 177.624 182.518C171.624 200.311 176.55 240.652 176.55 240.652H182.694C182.454 239.253 190.458 200.185 190.986 181.7C191.484 164.103 184.134 130.516 184.134 130.516L164.364 127.44Z" fill="#263238"/>
<path opacity="0.2" d="M176.934 154.783C174.002 154.687 171.153 155.929 168.996 158.244C171.888 164.669 175.242 172.318 177.396 181.574C179.4 177.072 179.166 164.298 176.934 154.783Z" fill="black"/>
<path d="M158.682 247.224C158.682 247.224 158.082 245.364 158.988 239.68C158.988 239.68 155.916 238.24 153.54 239.191C153.09 243.141 152.742 246.972 152.742 246.972L158.682 247.224Z" fill="#CE7A63"/>
<path d="M156.738 127.44C156.738 127.44 153.138 133.033 153.642 144.065C154.02 152.777 160.782 164.718 162.246 182.518C153.75 200.318 153 240.659 153 240.659H159.15C159.102 239.26 172.614 200.192 175.74 181.707C178.74 164.11 177.018 130.523 177.018 130.523L156.738 127.44Z" fill="#263238"/>
<path d="M152.598 245.308H158.598C158.722 245.307 158.843 245.357 158.94 245.448C160.659 247.469 162.839 248.876 165.222 249.503C165.543 249.602 165.836 249.798 166.072 250.072C166.307 250.346 166.475 250.687 166.56 251.062H153.042C152.846 251.062 152.652 251.012 152.474 250.914C152.297 250.817 152.141 250.675 152.016 250.498C151.891 250.322 151.802 250.115 151.754 249.893C151.707 249.672 151.702 249.44 151.74 249.216C151.923 248.143 152.025 247.053 152.046 245.958C152.046 245.787 152.104 245.623 152.207 245.501C152.31 245.379 152.451 245.31 152.598 245.308Z" fill="#407BFF"/>
<path d="M176.856 245.308H182.856C182.98 245.307 183.101 245.357 183.198 245.448C184.917 247.469 187.097 248.876 189.48 249.503C189.801 249.602 190.094 249.798 190.329 250.072C190.564 250.346 190.733 250.687 190.818 251.062H177.3C177.103 251.062 176.91 251.012 176.732 250.914C176.555 250.817 176.398 250.675 176.274 250.498C176.149 250.322 176.06 250.115 176.012 249.893C175.964 249.672 175.959 249.44 175.998 249.216C176.181 248.143 176.283 247.053 176.304 245.958C176.304 245.787 176.361 245.623 176.465 245.501C176.568 245.379 176.709 245.31 176.856 245.308Z" fill="#407BFF"/>
<path d="M206.358 77.4721C206.61 80.9678 204.102 90.4132 203.67 96.1322C196.362 96.4048 192.87 89.735 191.232 86.8406C189.594 83.9461 198.108 72.2775 198.108 72.2775C198.108 72.2775 205.2 73.2912 206.358 77.4721Z" fill="#263238"/>
<path d="M211.127 106.228C211.066 105.533 210.956 104.846 210.797 104.172C210.549 103.142 210.25 102.129 209.903 101.138C209.579 100.208 209.231 99.3273 208.883 98.4604C207.484 95.0486 205.848 91.7752 203.993 88.6724C203.673 88.1433 203.205 87.76 202.67 87.5879C202.134 87.4158 201.564 87.4656 201.056 87.7288C200.548 87.9919 200.135 88.4522 199.886 89.031C199.637 89.6098 199.568 90.2713 199.691 90.9027V90.9656C200.381 94.4613 201.227 97.957 201.923 101.348C201.925 101.385 201.925 101.422 201.923 101.46C200.634 100.815 199.405 100.016 198.257 99.0756C197.187 98.2054 196.169 97.2525 195.209 96.2231C194.717 95.6988 194.249 95.1535 193.787 94.6081L193.121 93.7831L192.575 93.084L192.287 92.7065C191.471 91.6284 190.326 90.9627 189.096 90.8501C187.866 90.7376 186.647 91.187 185.696 92.1034C184.745 93.0197 184.137 94.3312 184.001 95.7603C183.865 97.1893 184.212 98.624 184.967 99.7608L185.237 100.18L185.465 100.516L185.909 101.145C186.209 101.558 186.509 101.942 186.821 102.327C187.421 103.096 188.075 103.823 188.741 104.522C190.084 105.939 191.53 107.218 193.061 108.346C196.272 110.761 199.923 112.265 203.723 112.737C204.209 112.786 204.707 112.807 205.193 112.828H206.531H206.855C207.082 112.801 207.306 112.754 207.527 112.688C208.05 112.53 208.546 112.268 208.991 111.912C209.207 111.744 209.408 111.552 209.591 111.339C209.77 111.14 209.936 110.928 210.089 110.702C210.206 110.516 210.314 110.322 210.413 110.122L210.599 109.766L210.695 109.528C210.755 109.367 210.809 109.206 210.863 109.038C210.917 108.871 210.935 108.773 210.965 108.64L211.043 108.255L211.085 107.948C211.157 107.378 211.171 106.801 211.127 106.228Z" fill="#CF7A64"/>
<path d="M203.928 89.9168L204.57 87.4838C204.745 86.8147 204.778 86.1058 204.665 85.4187C204.552 84.7315 204.297 84.0869 203.922 83.5406L203.484 82.9044C203.257 82.5703 202.948 82.3244 202.599 82.1995C202.25 82.0746 201.876 82.0766 201.528 82.2053L199.476 82.9743C199.045 83.136 198.683 83.4803 198.461 83.9388C198.239 84.3973 198.172 84.9365 198.276 85.4493L198.516 86.6448C198.516 86.6448 198.954 90.9236 200.82 93.2727L201.534 92.9371C202.102 92.6754 202.612 92.268 203.026 91.7451C203.441 91.2223 203.749 90.5974 203.928 89.9168Z" fill="#CE7A63"/>
<path opacity="0.2" d="M203.49 82.9043C203.263 82.5688 202.953 82.3221 202.603 82.1972C202.252 82.0722 201.877 82.075 201.528 82.2052L199.47 82.9673C199.04 83.1289 198.677 83.4732 198.455 83.9317C198.233 84.3903 198.167 84.9295 198.27 85.4422L198.51 86.6447C198.691 88.1358 199.044 89.5915 199.56 90.9724L199.638 90.8816C201.389 88.6424 202.757 86.0346 203.67 83.198L203.49 82.9043Z" fill="black"/>
<path d="M179.274 84.1839C178.764 83.9671 179.766 84.3796 179.274 84.1839V84.1839Z" fill="#407BFF"/>
<path d="M192.534 91.7206C191.502 90.9446 190.416 90.1475 189.342 89.4274C186.114 87.2391 184.416 85.6311 179.274 84.1839C174.33 82.7856 169.164 88.8052 166.506 93.853C162.906 100.733 156.804 117.211 154.992 128.635C154.927 129.032 154.989 129.443 155.164 129.791C155.339 130.139 155.617 130.402 155.946 130.53C166.314 134.438 178.5 135.794 184.146 134.375C184.41 134.305 184.652 134.147 184.842 133.922C185.033 133.696 185.164 133.412 185.22 133.103C186 128.866 188.502 118.134 189.696 116.435C195.468 115.303 194.34 107.346 195.48 104.781C196.469 102.566 196.715 100.002 196.171 97.5878C195.626 95.1735 194.329 93.082 192.534 91.7206Z" fill="#407BFF"/>
<path opacity="0.4" d="M192.534 91.7206C191.502 90.9446 190.416 90.1475 189.342 89.4274C186.114 87.2391 184.416 85.6311 179.274 84.1839C174.33 82.7856 169.164 88.8052 166.506 93.853C162.906 100.733 156.804 117.211 154.992 128.635C154.927 129.032 154.989 129.443 155.164 129.791C155.339 130.139 155.617 130.402 155.946 130.53C166.314 134.438 178.5 135.794 184.146 134.375C184.41 134.305 184.652 134.147 184.842 133.922C185.033 133.696 185.164 133.412 185.22 133.103C186 128.866 188.502 118.134 189.696 116.435C195.468 115.303 194.34 107.346 195.48 104.781C196.469 102.566 196.715 100.002 196.171 97.5878C195.626 95.1735 194.329 93.082 192.534 91.7206Z" fill="black"/>
<path d="M187.986 78.1713C186.143 80.9917 183.846 83.3665 181.224 85.1627C180.997 85.3083 180.802 85.5122 180.653 85.759C180.504 86.0057 180.405 86.2888 180.364 86.5867C180.323 86.8846 180.341 87.1895 180.416 87.4782C180.491 87.7669 180.622 88.0318 180.798 88.2529C183.786 91.9842 186.22 96.2706 187.998 100.935C188.934 99.7698 189.66 98.3983 190.135 96.9012C190.61 95.4041 190.824 93.8116 190.764 92.217C188.646 89.6582 193.992 86.1625 194.964 85.4633L187.986 78.1713Z" fill="#CE7A63"/>
<path opacity="0.2" d="M189.371 79.6255L194.909 85.4843C194.039 86.1345 189.413 89.1618 190.379 91.6297C188.998 89.9744 188.214 87.7649 188.189 85.4563C188.085 83.4198 188.496 81.3924 189.371 79.6255Z" fill="black"/>
<path d="M192.599 70.1661C189.071 75.2628 187.487 77.3323 187.601 81.9885C187.769 88.98 193.817 92.8252 198.557 89.0359C202.823 85.6241 207.875 77.8496 205.403 71.7182C202.931 65.5867 196.103 65.0763 192.599 70.1661Z" fill="#CE7A63"/>
<path d="M196.59 80.6602C196.314 81.0936 196.29 81.604 196.53 81.8137C196.77 82.0235 197.184 81.8137 197.454 81.4152C197.724 81.0167 197.754 80.4714 197.514 80.2686C197.274 80.0659 196.86 80.2337 196.59 80.6602Z" fill="#263238"/>
<path d="M201.042 84.6453C200.772 85.0717 200.742 85.5891 200.982 85.7919C201.222 85.9946 201.636 85.7919 201.912 85.3933C202.188 84.9948 202.212 84.4565 201.972 84.2468C201.732 84.037 201.318 84.2188 201.042 84.6453Z" fill="#263238"/>
<path d="M201.852 84.1768L202.92 84.6452C202.92 84.6452 201.954 85.0577 201.852 84.1768Z" fill="#263238"/>
<path d="M199.343 84.2537C199.048 85.5109 198.9 86.8093 198.905 88.1129C198.62 88.1059 198.339 88.0266 198.082 87.8805C197.825 87.7345 197.598 87.5251 197.417 87.267L199.343 84.2537Z" fill="#BA4D3C"/>
<path d="M193.602 85.2955C193.377 85.152 193.142 85.0326 192.9 84.9389C192.883 84.9313 192.865 84.9278 192.848 84.9287C192.83 84.9296 192.813 84.9348 192.797 84.9441C192.781 84.9533 192.767 84.9664 192.756 84.9823C192.745 84.9983 192.736 85.0169 192.732 85.0368C192.726 85.0561 192.724 85.0765 192.725 85.0968C192.726 85.1171 192.731 85.1369 192.739 85.1551C192.746 85.1733 192.757 85.1896 192.77 85.2029C192.784 85.2161 192.799 85.2262 192.816 85.2326C193.358 85.4299 193.853 85.7723 194.261 86.2324C194.67 86.6925 194.98 87.2575 195.168 87.8823C195.172 87.902 195.18 87.9206 195.19 87.9369C195.201 87.9532 195.214 87.9669 195.229 87.9773C195.244 87.9877 195.26 87.9946 195.278 87.9974C195.295 88.0003 195.313 87.9992 195.33 87.9942C195.347 87.9891 195.363 87.9802 195.376 87.968C195.39 87.9558 195.402 87.9405 195.411 87.9229C195.42 87.9054 195.426 87.886 195.428 87.8659C195.431 87.8457 195.43 87.8251 195.426 87.8054C195.122 86.7235 194.467 85.8228 193.602 85.2955Z" fill="#263238"/>
<path d="M188.543 72.8647C188.38 73.428 188.321 74.0254 188.371 74.6172C188.42 75.209 188.577 75.7818 188.831 76.2975C189.509 77.5839 190.889 76.8988 191.573 75.4306C192.173 74.1092 192.569 71.851 191.465 71.1029C190.361 70.3548 188.951 71.3546 188.543 72.8647Z" fill="#CE7A63"/>
<path d="M195.15 75.137C192.276 80.3247 193.428 89.5603 193.194 93.8531C186.378 91.7976 181.284 83.8833 180.852 81.4223C180.102 77.1506 182.004 72.4803 185.358 68.3134C188.91 63.9088 190.68 63.1398 195.39 64.6149C200.1 66.0901 196.65 72.4314 195.15 75.137Z" fill="#263238"/>
<path d="M200.021 78.2552C199.993 78.228 199.961 78.2078 199.925 78.1958C199.89 78.1838 199.854 78.1802 199.817 78.1853C199.485 78.2456 199.145 78.2137 198.825 78.0922C198.505 77.9707 198.214 77.7631 197.975 77.4861C197.929 77.4236 197.863 77.3848 197.792 77.3783C197.722 77.3718 197.652 77.3979 197.597 77.4512C197.57 77.4774 197.548 77.5098 197.531 77.5463C197.515 77.5829 197.505 77.6229 197.502 77.664C197.499 77.7051 197.504 77.7464 197.515 77.7855C197.526 77.8246 197.544 77.8607 197.567 77.8916C197.863 78.2478 198.228 78.5166 198.63 78.6759C199.033 78.8352 199.463 78.8803 199.883 78.8075C199.954 78.797 200.018 78.7544 200.062 78.6889C200.106 78.6234 200.126 78.5404 200.117 78.4579C200.106 78.3794 200.073 78.3077 200.021 78.2552Z" fill="#263238"/>
<path d="M203.4 80.8769C203.379 80.8452 203.353 80.8189 203.323 80.7996C203.293 80.7803 203.26 80.7686 203.226 80.7651C203.191 80.7592 203.155 80.7617 203.121 80.7723C203.086 80.783 203.054 80.8016 203.026 80.827C202.998 80.8525 202.975 80.8843 202.958 80.9205C202.94 80.9567 202.93 80.9966 202.926 81.0377C202.868 81.5291 202.911 82.0295 203.052 82.4975C203.193 82.9656 203.427 83.3878 203.736 83.7294C203.791 83.7818 203.862 83.8068 203.932 83.799C204.003 83.7911 204.068 83.751 204.114 83.6875C204.163 83.6287 204.191 83.5496 204.191 83.4672C204.191 83.3849 204.163 83.3058 204.114 83.247C203.874 82.9727 203.694 82.6351 203.59 82.2628C203.485 81.8904 203.459 81.4942 203.514 81.1076C203.513 81.0612 203.502 81.0157 203.482 80.9755C203.462 80.9352 203.434 80.9013 203.4 80.8769Z" fill="#263238"/>
<path d="M197.4 80.1987L198.468 80.6672C198.468 80.6672 197.502 81.1006 197.4 80.1987Z" fill="#263238"/>
<path d="M186.792 88.148L185.592 86.0506C185.262 85.4657 185.059 84.7957 185.001 84.0987C184.944 83.4018 185.033 82.699 185.262 82.0515L185.526 81.2964C185.664 80.9033 185.902 80.5685 186.207 80.3363C186.513 80.1041 186.871 79.9854 187.236 79.996L189.396 80.0589C189.848 80.074 190.278 80.2866 190.602 80.6545C190.925 81.0223 191.118 81.5185 191.142 82.0445L191.202 83.268C191.202 83.268 191.802 87.5188 190.602 90.3853L189.84 90.3014C189.225 90.2341 188.632 90.0053 188.104 89.6324C187.576 89.2594 187.127 88.7519 186.792 88.148Z" fill="#CE7A63"/>
<path d="M191.922 94.5032C191.769 92.5382 191.522 90.5846 191.184 88.6514C191.055 88.0259 190.745 87.4714 190.306 87.0814C189.867 86.6913 189.326 86.4896 188.774 86.5101C188.222 86.5306 187.693 86.7722 187.276 87.1941C186.86 87.616 186.58 88.1924 186.486 88.8262V88.931C186.264 90.6929 186.066 92.5526 185.826 94.3354C185.586 96.1182 185.334 97.901 185.022 99.6069C184.812 100.816 184.566 101.991 184.284 103.103C183.642 102.314 183.062 101.46 182.55 100.551C181.926 99.4034 181.4 98.1882 180.978 96.9222C180.756 96.286 180.576 95.6288 180.408 94.9786C180.324 94.65 180.258 94.3284 180.192 94.0138L180.102 93.5594L180.066 93.3566C180.066 93.3146 180.066 93.1958 180.066 93.2867C180.012 92.5513 179.833 91.8359 179.538 91.1823C179.244 90.5286 178.841 89.9499 178.353 89.4799C177.865 89.0099 177.301 88.6581 176.694 88.4451C176.088 88.232 175.451 88.1621 174.821 88.2392C174.191 88.3164 173.581 88.5391 173.026 88.8945C172.47 89.2498 171.982 89.7305 171.588 90.3086C171.194 90.8866 170.903 91.5504 170.732 92.261C170.561 92.9717 170.513 93.7149 170.592 94.4473L170.652 95.0415L170.706 95.496L170.838 96.3559C170.934 96.9082 171.048 97.4466 171.168 97.9779C171.417 99.035 171.719 100.074 172.074 101.089C172.79 103.136 173.719 105.073 174.84 106.857C175.413 107.756 176.03 108.615 176.688 109.43C177.366 110.231 178.085 110.983 178.842 111.681C180.345 113.062 182.002 114.198 183.768 115.058L184.068 115.205C184.782 115.556 185.567 115.665 186.331 115.517C187.096 115.37 187.809 114.973 188.388 114.373C188.978 113.759 189.493 113.053 189.918 112.275C190.255 111.653 190.543 110.995 190.776 110.311C191.159 109.179 191.452 108.009 191.652 106.815C191.985 104.74 192.158 102.634 192.168 100.523C192.179 98.5126 192.096 96.5031 191.922 94.5032ZM182.826 106.682H182.898C182.808 106.78 182.76 106.794 182.826 106.682Z" fill="#CF7A64"/>
<path d="M206.034 83.0653C205.854 81.667 204.834 79.9681 202.746 78.6397C202.179 76.7801 201.804 74.8486 201.63 72.8858C201.144 74.4051 200.964 76.0337 201.102 77.6469C196.446 74.8503 190.758 71.7182 191.55 66.957C192.84 59.1197 202.464 62.3427 206.382 67.8729C209.538 72.3334 209.562 79.1571 206.034 83.0653Z" fill="#263238"/>
<path d="M92.7597 223.656L92.2317 223.243C95.2737 217.972 94.9617 209.792 93.5637 204.681C91.1637 203.555 89.0037 201.968 88.9917 200.612C88.9917 200.227 89.1537 199.689 89.9517 199.339C90.5517 199.067 91.5237 199.067 92.5677 200.605C93.2482 201.675 93.7732 202.867 94.1217 204.135C94.2957 204.219 94.4757 204.296 94.6557 204.366C97.5297 205.562 101.34 206.317 102.606 204.534C103.398 203.429 103.062 201.346 101.646 198.507C100.11 195.431 97.7697 193.404 95.7057 191.614C92.5317 188.873 89.7957 186.503 90.9057 181.476L91.5057 181.665C90.4857 186.203 92.9457 188.328 96.0537 191.02C98.1657 192.851 100.56 194.928 102.162 198.137C103.764 201.346 104.052 203.625 103.068 205.009C101.592 207.107 97.6257 206.408 94.4157 205.065H94.3377C95.7477 210.519 95.7057 218.552 92.7597 223.656ZM90.5997 199.955C90.4605 199.955 90.3225 199.983 90.1917 200.039C89.8257 200.199 89.6457 200.395 89.6457 200.612C89.6457 201.311 91.0197 202.59 93.3057 203.751C93.021 202.794 92.6166 201.892 92.1057 201.073C91.9446 200.765 91.7251 200.504 91.4641 200.31C91.203 200.116 90.9073 199.995 90.5997 199.955Z" fill="#407BFF"/>
<path d="M89.5014 200.08C90.5274 198.584 88.5114 195.354 84.7314 196.095C81.4614 196.739 79.7214 195.48 79.5474 194.823C80.6034 200.493 86.1894 204.925 89.5014 200.08Z" fill="#407BFF"/>
<path d="M96.5039 191.649C95.8259 190.656 97.1639 188.517 99.6659 189.006C101.832 189.432 102.984 188.6 103.104 188.16C102.402 191.921 98.6999 194.858 96.5039 191.649Z" fill="#407BFF"/>
<path d="M92.8137 180.819C93.0777 178.785 95.1657 176.275 94.8657 174.135C94.5657 171.996 91.9557 172.227 91.4637 174.653C91.1446 176.662 91.0078 178.706 91.0557 180.749L92.8137 180.819Z" fill="#407BFF"/>
<path opacity="0.3" d="M92.8137 180.819C93.0777 178.785 95.1657 176.275 94.8657 174.135C94.5657 171.996 91.9557 172.227 91.4637 174.653C91.1446 176.662 91.0078 178.706 91.0557 180.749L92.8137 180.819Z" fill="white"/>
<path d="M92.3997 179.679C91.1097 178.281 90.5277 174.841 88.8477 173.912C87.1677 172.982 85.8477 175.61 87.2757 177.47C88.5145 178.919 89.8799 180.212 91.3497 181.329L92.3997 179.679Z" fill="#407BFF"/>
<path opacity="0.3" d="M92.3997 179.679C91.1097 178.281 90.5277 174.841 88.8477 173.912C87.1677 172.982 85.8477 175.61 87.2757 177.47C88.5145 178.919 89.8799 180.212 91.3497 181.329L92.3997 179.679Z" fill="white"/>
<path d="M90.5994 181.525C89.1534 180.127 86.3634 179.001 85.1634 177.33C83.9634 175.659 85.5954 174.911 87.4314 176.526C88.88 177.88 90.2584 179.332 91.5594 180.875L90.5994 181.525Z" fill="#407BFF"/>
<path opacity="0.5" d="M90.5994 181.525C89.1534 180.127 86.3634 179.001 85.1634 177.33C83.9634 175.659 85.5954 174.911 87.4314 176.526C88.88 177.88 90.2584 179.332 91.5594 180.875L90.5994 181.525Z" fill="white"/>
<path d="M93.0296 180.476C93.9656 178.568 96.2456 176.386 96.8636 174.324C97.4816 172.262 95.7356 172.227 94.4996 174.485C93.5478 176.343 92.6903 178.264 91.9316 180.239L93.0296 180.476Z" fill="#407BFF"/>
<path opacity="0.5" d="M93.0296 180.476C93.9656 178.568 96.2456 176.386 96.8636 174.324C97.4816 172.262 95.7356 172.227 94.4996 174.485C93.5478 176.343 92.6903 178.264 91.9316 180.239L93.0296 180.476Z" fill="white"/>
<path d="M90.7492 180.805C90.4312 178.862 88.3912 176.526 88.5892 174.471C88.7872 172.415 91.2352 172.548 91.7872 174.855C92.1573 176.77 92.3584 178.724 92.3872 180.686L90.7492 180.805Z" fill="#407BFF"/>
<path opacity="0.7" d="M90.7492 180.805C90.4312 178.862 88.3912 176.526 88.5892 174.471C88.7872 172.415 91.2352 172.548 91.7872 174.855C92.1573 176.77 92.3584 178.724 92.3872 180.686L90.7492 180.805Z" fill="white"/>
<path d="M89.9995 180.455C90.1875 180.914 90.5198 181.271 90.9276 181.452C91.3353 181.633 91.7872 181.624 92.1895 181.427C93.2395 180.994 93.1915 180.176 93.1915 180.176C93.1915 180.176 90.8515 180.071 89.9995 180.455Z" fill="#407BFF"/>
<path d="M89.2013 181.015C89.4241 181.517 89.7616 181.939 90.1765 182.232C90.5915 182.526 91.0678 182.68 91.5533 182.679C92.0364 182.688 92.5129 182.548 92.9345 182.273C93.356 181.998 93.7075 181.597 93.9533 181.113C94.0858 180.824 94.1558 180.503 94.1573 180.176C94.1512 179.883 94.0487 179.605 93.8711 179.398C93.6935 179.191 93.4544 179.071 93.2033 179.064C92.7713 179.064 92.3333 179.064 91.9013 179.064C91.5504 179.069 91.1999 179.094 90.8513 179.141C90.48 179.17 90.1132 179.252 89.7593 179.386C89.5111 179.461 89.2967 179.644 89.1593 179.896C89.0329 180.155 88.9984 180.461 89.0633 180.749C89.0971 180.893 89.1552 181.027 89.2342 181.144C89.3132 181.261 89.4114 181.359 89.5232 181.431C89.635 181.504 89.758 181.549 89.8851 181.565C90.0122 181.581 90.1408 181.568 90.2633 181.525C90.4884 181.433 90.722 181.372 90.9593 181.343L90.7073 181.378C91.5357 181.268 92.3706 181.237 93.2033 181.287L92.2493 180.176C92.2553 180.21 92.2553 180.246 92.2493 180.281L92.2853 179.98C92.2745 180.071 92.2543 180.16 92.2253 180.246L92.3213 179.98C92.2969 180.041 92.2688 180.099 92.2373 180.155C92.1473 180.344 92.3993 179.952 92.3033 180.071C92.2742 180.1 92.2481 180.133 92.2253 180.169L92.1293 180.267C92.3453 180.022 92.2613 180.155 92.1833 180.211C92.0838 180.283 91.9794 180.346 91.8713 180.4L92.0993 180.288C91.9191 180.379 91.7295 180.442 91.5353 180.476L91.7933 180.442C91.6358 180.462 91.4768 180.462 91.3193 180.442H91.5713C91.4291 180.421 91.2899 180.379 91.1573 180.316L91.3853 180.428C91.2952 180.386 91.2088 180.335 91.1273 180.274C91.0433 180.211 90.9473 180.064 91.1573 180.274L91.0493 180.162L90.9533 180.05C90.8153 179.868 91.0313 180.183 90.9893 180.106L90.8393 179.819C90.7105 179.567 90.5018 179.384 90.2583 179.31C90.0147 179.235 89.7558 179.275 89.5373 179.421C89.4223 179.496 89.3217 179.598 89.2419 179.721C89.1621 179.843 89.1047 179.984 89.0732 180.133C89.0417 180.282 89.0368 180.438 89.0589 180.589C89.0809 180.741 89.1294 180.886 89.2013 181.015Z" fill="#407BFF"/>
<path d="M103.385 219.901H84.2931C83.8685 219.902 83.4495 220.013 83.0664 220.226C82.6834 220.44 82.346 220.75 82.0787 221.134C81.8115 221.518 81.6211 221.967 81.5216 222.448C81.422 222.929 81.4157 223.43 81.5031 223.914L85.9731 248.433C86.1102 249.177 86.4619 249.843 86.9696 250.322C87.4773 250.8 88.1102 251.061 88.7631 251.062H98.9151C99.5682 251.062 100.202 250.802 100.71 250.323C101.218 249.845 101.569 249.177 101.705 248.433L106.199 223.914C106.287 223.428 106.28 222.924 106.179 222.441C106.078 221.959 105.886 221.508 105.616 221.123C105.346 220.738 105.006 220.429 104.619 220.217C104.233 220.006 103.812 219.898 103.385 219.901Z" fill="#407BFF"/>
<path opacity="0.7" d="M103.385 219.901H84.2931C83.8685 219.902 83.4495 220.013 83.0664 220.226C82.6834 220.44 82.346 220.75 82.0787 221.134C81.8115 221.518 81.6211 221.967 81.5216 222.448C81.422 222.929 81.4157 223.43 81.5031 223.914L85.9731 248.433C86.1102 249.177 86.4619 249.843 86.9696 250.322C87.4773 250.8 88.1102 251.061 88.7631 251.062H98.9151C99.5682 251.062 100.202 250.802 100.71 250.323C101.218 249.845 101.569 249.177 101.705 248.433L106.199 223.914C106.287 223.428 106.28 222.924 106.179 222.441C106.078 221.959 105.886 221.508 105.616 221.123C105.346 220.738 105.006 220.429 104.619 220.217C104.233 220.006 103.812 219.898 103.385 219.901Z" fill="white"/>
<path d="M204.547 223.816C204.277 222.509 203.947 221.068 203.629 219.544C201.289 208.757 198.085 193.984 201.073 188.516C201.351 187.975 201.723 187.507 202.167 187.146C202.611 186.784 203.115 186.537 203.647 186.419C204.295 186.239 204.97 186.24 205.617 186.421C206.264 186.602 206.866 186.958 207.373 187.461C210.457 190.565 210.169 198.843 210.157 199.192L209.521 199.157C209.521 199.08 209.809 190.894 206.959 188.02C206.525 187.59 206.008 187.287 205.454 187.135C204.899 186.983 204.321 186.987 203.767 187.146C203.321 187.242 202.899 187.449 202.527 187.752C202.155 188.054 201.844 188.446 201.613 188.901C198.769 194.103 202.069 209.295 204.247 219.349C204.577 220.88 204.889 222.32 205.165 223.627L204.547 223.816Z" fill="#263238"/>
<path d="M214.255 219.901H195.157C194.732 219.901 194.313 220.012 193.93 220.226C193.548 220.439 193.21 220.75 192.944 221.134C192.677 221.519 192.487 221.968 192.388 222.449C192.29 222.93 192.284 223.43 192.373 223.914L196.843 248.433C196.978 249.177 197.328 249.844 197.835 250.322C198.342 250.801 198.974 251.062 199.627 251.062H209.785C210.437 251.062 211.07 250.801 211.577 250.322C212.084 249.844 212.434 249.177 212.569 248.433L217.039 223.914C217.127 223.43 217.122 222.93 217.023 222.449C216.924 221.968 216.734 221.519 216.468 221.134C216.201 220.75 215.864 220.439 215.481 220.226C215.098 220.012 214.679 219.901 214.255 219.901Z" fill="#407BFF"/>
<path opacity="0.4" d="M214.255 219.901H195.157C194.732 219.901 194.313 220.012 193.93 220.226C193.548 220.439 193.21 220.75 192.944 221.134C192.677 221.519 192.487 221.968 192.388 222.449C192.29 222.93 192.284 223.43 192.373 223.914L196.843 248.433C196.978 249.177 197.328 249.844 197.835 250.322C198.342 250.801 198.974 251.062 199.627 251.062H209.785C210.437 251.062 211.07 250.801 211.577 250.322C212.084 249.844 212.434 249.177 212.569 248.433L217.039 223.914C217.127 223.43 217.122 222.93 217.023 222.449C216.924 221.968 216.734 221.519 216.468 221.134C216.201 220.75 215.864 220.439 215.481 220.226C215.098 220.012 214.679 219.901 214.255 219.901Z" fill="black"/>
<path d="M211.153 199.821C212.233 199.395 212.689 200.835 212.911 203.821C212.947 204.31 212.977 204.757 213.013 205.163C213.109 206.379 212.191 206.96 211.591 206.065C210.091 203.842 209.329 200.549 211.153 199.821Z" fill="#407BFF"/>
<path d="M211.075 199.954C210.709 199.059 209.995 198.325 209.185 198.71C208.963 198.799 208.775 198.974 208.65 199.205C208.526 199.437 208.473 199.711 208.501 199.982C208.501 199.982 210.439 200.318 211.075 199.954Z" fill="#263238"/>
<path d="M211.898 199.409C211.706 198.897 211.403 198.453 211.017 198.122C210.631 197.79 210.178 197.583 209.702 197.521C209.146 197.499 208.605 197.727 208.19 198.158C207.893 198.456 207.684 198.854 207.59 199.297C207.533 199.627 207.533 199.967 207.59 200.297C207.63 200.484 207.713 200.655 207.831 200.792C207.948 200.929 208.095 201.026 208.256 201.073C208.694 201.143 209.132 201.199 209.57 201.227C209.857 201.248 210.146 201.248 210.434 201.227C210.822 201.204 211.204 201.102 211.562 200.926C211.67 200.852 211.765 200.754 211.841 200.638C211.917 200.521 211.972 200.388 212.004 200.247C212.036 200.105 212.043 199.958 212.026 199.813C212.009 199.668 211.967 199.528 211.904 199.402C211.766 199.15 211.552 198.967 211.304 198.892C211.056 198.831 210.797 198.87 210.572 199.003H210.536L210.764 198.892C210.644 198.944 210.519 198.979 210.392 198.996L210.644 198.955C209.925 199.036 209.201 199.006 208.49 198.864L208.742 198.906L209.408 199.682L209.444 199.982C209.435 199.882 209.435 199.782 209.444 199.682V199.975C209.456 199.869 209.48 199.766 209.516 199.668C209.486 199.752 209.45 199.842 209.42 199.933C209.453 199.84 209.497 199.753 209.552 199.675L209.402 199.898C209.453 199.828 209.509 199.763 209.57 199.703L209.378 199.877C209.462 199.804 209.552 199.741 209.648 199.689L209.42 199.801C209.524 199.752 209.633 199.717 209.744 199.696L209.492 199.731C209.595 199.713 209.7 199.713 209.804 199.731L209.552 199.689C209.652 199.711 209.75 199.743 209.846 199.787L209.618 199.675C209.735 199.736 209.846 199.814 209.948 199.905L209.756 199.731C209.89 199.857 210.011 200.003 210.116 200.164L209.966 199.94C210.086 200.118 210.188 200.31 210.272 200.514C210.397 200.764 210.602 200.947 210.842 201.024C211.089 201.097 211.351 201.057 211.574 200.912C211.787 200.765 211.944 200.527 212.012 200.248C212.058 199.961 212.017 199.665 211.898 199.409Z" fill="#263238"/>
<path d="M208.958 209.973C209.924 209.644 210.026 210.868 209.66 213.378C209.6 213.79 209.54 214.168 209.492 214.503C209.348 215.531 208.49 215.993 208.16 215.203C207.344 213.315 207.332 210.532 208.958 209.973Z" fill="#407BFF"/>
<path opacity="0.4" d="M208.958 209.973C209.924 209.644 210.026 210.868 209.66 213.378C209.6 213.79 209.54 214.168 209.492 214.503C209.348 215.531 208.49 215.993 208.16 215.203C207.344 213.315 207.332 210.532 208.958 209.973Z" fill="black"/>
<path d="M102.886 25.8489C103.784 19.4 100.026 13.3236 94.4914 12.2768C88.957 11.2301 83.7422 15.6093 82.8439 22.0581C81.9455 28.5069 85.7038 34.5833 91.2381 35.6301C96.7725 36.6769 101.987 32.2977 102.886 25.8489Z" fill="#407BFF"/>
<path d="M93.1737 8.97H92.5737C92.4736 8.96929 92.3768 8.92867 92.2993 8.85489C92.2218 8.78111 92.1683 8.67862 92.1477 8.56449L91.6437 5.53022C91.6324 5.45717 91.6348 5.38212 91.6509 5.3103C91.667 5.23848 91.6964 5.17161 91.737 5.11437C91.7775 5.05712 91.8283 5.01087 91.8858 4.97885C91.9432 4.94683 92.006 4.9298 92.0697 4.92896H93.7077C93.7714 4.9298 93.8342 4.94683 93.8917 4.97885C93.9491 5.01087 93.9999 5.05712 94.0405 5.11437C94.0811 5.17161 94.1104 5.23848 94.1265 5.3103C94.1426 5.38212 94.1451 5.45717 94.1337 5.53022L93.5997 8.56449C93.5802 8.67923 93.527 8.78246 93.4493 8.85646C93.3715 8.93046 93.2741 8.9706 93.1737 8.97Z" fill="#407BFF"/>
<path d="M93.1737 39.1031H92.5737C92.4731 39.1054 92.3762 39.1475 92.2988 39.2224C92.2214 39.2974 92.1681 39.4007 92.1477 39.5156L91.6437 42.5498C91.6324 42.6229 91.6348 42.6979 91.6509 42.7698C91.667 42.8416 91.6964 42.9084 91.737 42.9657C91.7775 43.0229 91.8283 43.0692 91.8858 43.1012C91.9432 43.1332 92.006 43.1503 92.0697 43.1511H93.7077C93.7714 43.1503 93.8342 43.1332 93.8917 43.1012C93.9491 43.0692 93.9999 43.0229 94.0405 42.9657C94.0811 42.9084 94.1104 42.8416 94.1265 42.7698C94.1426 42.6979 94.1451 42.6229 94.1337 42.5498L93.6297 39.5156C93.6095 39.3941 93.5522 39.2853 93.4683 39.2094C93.3844 39.1335 93.2797 39.0957 93.1737 39.1031Z" fill="#407BFF"/>
<path d="M105.792 24.4001V23.7009C105.79 23.5836 105.824 23.4694 105.888 23.3785C105.951 23.2877 106.041 23.226 106.14 23.2046L108.744 22.6173C108.806 22.6028 108.871 22.6047 108.933 22.623C108.995 22.6412 109.053 22.6754 109.103 22.7229C109.152 22.7704 109.192 22.8301 109.219 22.8977C109.246 22.9653 109.26 23.039 109.26 23.1137V25.0153C109.26 25.09 109.246 25.1637 109.219 25.2313C109.192 25.2989 109.152 25.3586 109.103 25.4061C109.053 25.4536 108.995 25.4878 108.933 25.506C108.871 25.5243 108.806 25.5262 108.744 25.5117L106.14 24.9244C106.036 24.9024 105.944 24.8366 105.88 24.7399C105.815 24.6431 105.784 24.5221 105.792 24.4001Z" fill="#407BFF"/>
<path d="M79.932 24.4001V23.7009C79.9323 23.583 79.897 23.4687 79.8323 23.3779C79.7676 23.2872 79.6776 23.2259 79.578 23.2046L76.974 22.6173C76.9112 22.6028 76.8464 22.6047 76.7843 22.623C76.7222 22.6412 76.6644 22.6754 76.615 22.7229C76.5656 22.7704 76.5259 22.8301 76.4987 22.8977C76.4716 22.9653 76.4577 23.039 76.458 23.1137V25.0153C76.4577 25.09 76.4716 25.1637 76.4987 25.2313C76.5259 25.2989 76.5656 25.3586 76.615 25.4061C76.6644 25.4536 76.7222 25.4878 76.7843 25.506C76.8464 25.5243 76.9112 25.5262 76.974 25.5117L79.578 24.9244C79.6818 24.9025 79.7751 24.837 79.8403 24.7404C79.9055 24.6438 79.9381 24.5228 79.932 24.4001Z" fill="#407BFF"/>
<path d="M83.9393 13.1229L83.4953 13.6403C83.4237 13.7234 83.3296 13.775 83.229 13.7865C83.1283 13.798 83.0274 13.7685 82.9433 13.7032L80.7473 11.9763C80.6939 11.935 80.6491 11.8804 80.6161 11.8165C80.583 11.7525 80.5626 11.6808 80.5563 11.6065C80.55 11.5322 80.5579 11.4573 80.5796 11.387C80.6012 11.3167 80.6359 11.2529 80.6813 11.2003L81.8393 9.85091C81.8846 9.79882 81.9391 9.75887 81.999 9.73383C82.059 9.70879 82.1228 9.69926 82.1862 9.70592C82.2496 9.71257 82.311 9.73525 82.3661 9.77236C82.4212 9.80948 82.4687 9.86014 82.5053 9.92083L83.9993 12.4867C84.0531 12.5848 84.0765 12.7014 84.0655 12.8171C84.0546 12.9328 84.0101 13.0407 83.9393 13.1229Z" fill="#407BFF"/>
<path d="M102.221 34.4326L101.777 34.95C101.706 35.0325 101.663 35.1415 101.654 35.2579C101.645 35.3743 101.672 35.4905 101.729 35.5862L103.211 38.152C103.248 38.2127 103.296 38.2634 103.351 38.3005C103.406 38.3376 103.467 38.3603 103.531 38.3669C103.594 38.3736 103.658 38.3641 103.718 38.339C103.778 38.314 103.832 38.274 103.877 38.2219L105.035 36.8796C105.081 36.8269 105.116 36.7631 105.137 36.6929C105.159 36.6226 105.167 36.5476 105.16 36.4733C105.154 36.399 105.134 36.3273 105.101 36.2634C105.068 36.1994 105.023 36.1448 104.969 36.1036L102.773 34.3697C102.689 34.3043 102.588 34.2749 102.488 34.2864C102.387 34.2978 102.293 34.3495 102.221 34.4326Z" fill="#407BFF"/>
<path d="M102.221 13.6403L101.777 13.1229C101.706 13.0404 101.663 12.9313 101.654 12.815C101.645 12.6986 101.672 12.5824 101.729 12.4867L103.199 9.92083C103.236 9.86014 103.284 9.80948 103.339 9.77236C103.394 9.73525 103.455 9.71257 103.519 9.70592C103.582 9.69926 103.646 9.70879 103.706 9.73383C103.766 9.75887 103.82 9.79882 103.865 9.85091L105.035 11.1863C105.081 11.239 105.116 11.3027 105.137 11.373C105.159 11.4433 105.167 11.5183 105.16 11.5925C105.154 11.6668 105.134 11.7385 105.101 11.8025C105.068 11.8665 105.023 11.921 104.969 11.9623L102.773 13.6892C102.691 13.7563 102.591 13.7882 102.49 13.7792C102.389 13.7703 102.295 13.7212 102.221 13.6403Z" fill="#407BFF"/>
<path d="M83.9393 34.9572L83.4953 34.4398C83.4237 34.3567 83.3296 34.305 83.229 34.2936C83.1283 34.2821 83.0274 34.3115 82.9433 34.3769L80.7473 36.1108C80.6939 36.152 80.6491 36.2066 80.6161 36.2706C80.583 36.3345 80.5626 36.4062 80.5563 36.4805C80.55 36.5548 80.5579 36.6298 80.5796 36.7001C80.6012 36.7703 80.6359 36.8341 80.6813 36.8868L81.8393 38.2292C81.8846 38.2812 81.9391 38.3212 81.999 38.3462C82.059 38.3713 82.1228 38.3808 82.1862 38.3741C82.2496 38.3675 82.311 38.3448 82.3661 38.3077C82.4212 38.2706 82.4687 38.2199 82.5053 38.1592L83.9993 35.5864C84.0516 35.489 84.0741 35.3738 84.0632 35.2596C84.0523 35.1454 84.0086 35.0389 83.9393 34.9572Z" fill="#407BFF"/>
<path d="M87.5997 9.08893L87.3117 9.22876C87.2655 9.25175 87.2139 9.25526 87.1657 9.23867C87.1175 9.22208 87.0758 9.18644 87.0477 9.13787L86.3157 7.85145C86.2982 7.82008 86.2867 7.78463 86.2821 7.74758C86.2775 7.71054 86.2798 7.67276 86.2889 7.63686C86.2981 7.60096 86.3138 7.56781 86.335 7.53968C86.3562 7.51154 86.3824 7.48911 86.4117 7.47392L87.1677 7.11036C87.1975 7.09625 87.2296 7.08984 87.2617 7.09159C87.2938 7.09334 87.3252 7.1032 87.3538 7.12048C87.3823 7.13777 87.4073 7.16208 87.4269 7.19172C87.4466 7.22135 87.4605 7.25562 87.4677 7.29214L87.7317 8.80927C87.7409 8.86648 87.7327 8.92562 87.7086 8.9766C87.6846 9.02759 87.6461 9.06728 87.5997 9.08893Z" fill="#407BFF"/>
<path d="M98.3997 38.8792L98.1117 39.0191C98.0654 39.0407 98.0269 39.0804 98.0028 39.1314C97.9787 39.1824 97.9706 39.2415 97.9797 39.2987L98.2437 40.8159C98.2509 40.8524 98.2648 40.8866 98.2845 40.9163C98.3042 40.9459 98.3291 40.9702 98.3577 40.9875C98.3862 41.0048 98.4176 41.0147 98.4497 41.0164C98.4819 41.0181 98.5139 41.0117 98.5437 40.9976L99.2997 40.6341C99.3289 40.6197 99.355 40.598 99.3762 40.5705C99.3974 40.543 99.4131 40.5104 99.4223 40.475C99.4315 40.4397 99.4338 40.4024 99.4292 40.3658C99.4246 40.3293 99.4132 40.2944 99.3957 40.2635L98.6637 38.9701C98.6357 38.9216 98.5939 38.8859 98.5458 38.8693C98.4976 38.8527 98.4459 38.8562 98.3997 38.8792Z" fill="#407BFF"/>
<path d="M105.714 17.919L105.594 17.5764C105.576 17.5217 105.574 17.4614 105.59 17.4055C105.605 17.3496 105.636 17.3014 105.678 17.2688L106.8 16.4229C106.826 16.4012 106.856 16.3867 106.888 16.3807C106.919 16.3746 106.952 16.3771 106.982 16.3879C107.013 16.3987 107.041 16.4175 107.065 16.443C107.088 16.4684 107.106 16.4998 107.118 16.5347L107.43 17.4156C107.443 17.4497 107.45 17.487 107.449 17.5244C107.448 17.5619 107.439 17.5986 107.424 17.6317C107.409 17.6648 107.388 17.6934 107.362 17.7153C107.336 17.7373 107.305 17.7519 107.274 17.7582L105.978 18.0658C105.926 18.0844 105.87 18.0796 105.821 18.0524C105.772 18.0252 105.734 17.9776 105.714 17.919Z" fill="#407BFF"/>
<path d="M80.1234 30.4965L80.0034 30.1539C79.9836 30.0998 79.9482 30.0555 79.9032 30.0287C79.8583 30.0018 79.8067 29.9942 79.7574 30.0071L78.4614 30.3147C78.4303 30.3222 78.4009 30.3376 78.3755 30.3598C78.3501 30.382 78.3292 30.4105 78.3143 30.4432C78.2994 30.476 78.2908 30.5121 78.2893 30.5491C78.2878 30.5861 78.2933 30.6231 78.3054 30.6573L78.6174 31.5382C78.6289 31.5731 78.647 31.6045 78.6705 31.6299C78.694 31.6554 78.7222 31.6742 78.7529 31.685C78.7836 31.6958 78.816 31.6983 78.8476 31.6922C78.8793 31.6862 78.9093 31.6718 78.9354 31.6501L80.0394 30.8041C80.0831 30.7735 80.1157 30.7253 80.1311 30.6687C80.1466 30.6121 80.1438 30.5509 80.1234 30.4965Z" fill="#407BFF"/>
<path d="M80.1234 17.5764L80.0034 17.919C79.9836 17.9731 79.9482 18.0175 79.9032 18.0443C79.8583 18.0711 79.8067 18.0787 79.7574 18.0658L78.4614 17.7582C78.4303 17.7507 78.4009 17.7353 78.3755 17.7131C78.3501 17.6909 78.3292 17.6624 78.3143 17.6297C78.2994 17.597 78.2908 17.5608 78.2893 17.5238C78.2878 17.4868 78.2933 17.4499 78.3054 17.4156L78.6174 16.5347C78.6289 16.4998 78.647 16.4684 78.6705 16.443C78.694 16.4175 78.7222 16.3987 78.7529 16.3879C78.7836 16.3771 78.816 16.3746 78.8476 16.3807C78.8793 16.3867 78.9093 16.4012 78.9354 16.4229L80.0394 17.2688C80.0831 17.2995 80.1157 17.3476 80.1311 17.4042C80.1466 17.4608 80.1438 17.522 80.1234 17.5764Z" fill="#407BFF"/>
<path d="M105.714 30.1539L105.594 30.4965C105.576 30.5513 105.574 30.6115 105.59 30.6674C105.605 30.7233 105.636 30.7715 105.678 30.8041L106.782 31.6501C106.808 31.6718 106.838 31.6862 106.87 31.6922C106.901 31.6983 106.934 31.6958 106.964 31.685C106.995 31.6742 107.023 31.6554 107.047 31.6299C107.07 31.6045 107.088 31.5731 107.1 31.5382L107.412 30.6573C107.425 30.6232 107.432 30.586 107.431 30.5485C107.43 30.5111 107.421 30.4744 107.406 30.4413C107.391 30.4082 107.37 30.3795 107.344 30.3576C107.318 30.3357 107.287 30.321 107.256 30.3147L105.96 30.0071C105.911 29.9942 105.859 30.0018 105.814 30.0287C105.769 30.0555 105.734 30.0998 105.714 30.1539Z" fill="#407BFF"/>
<path d="M98.3997 9.19373L98.1117 9.0539C98.0654 9.03225 98.0269 8.99256 98.0028 8.94157C97.9787 8.89058 97.9706 8.83145 97.9797 8.77425L98.2437 7.2571C98.2509 7.22058 98.2648 7.18632 98.2845 7.15668C98.3042 7.12704 98.3291 7.10274 98.3577 7.08545C98.3862 7.06816 98.4176 7.0583 98.4497 7.05656C98.4819 7.05481 98.5139 7.06122 98.5437 7.07533L99.2997 7.43888C99.3291 7.45407 99.3553 7.47651 99.3765 7.50464C99.3977 7.53277 99.4134 7.56594 99.4225 7.60183C99.4316 7.63773 99.434 7.67551 99.4293 7.71256C99.4247 7.7496 99.4132 7.78504 99.3957 7.81642L98.6637 9.08886C98.6375 9.13988 98.5965 9.1784 98.5482 9.1976C98.4999 9.2168 98.4473 9.21543 98.3997 9.19373Z" fill="#407BFF"/>
<path d="M87.5996 39.0191L87.3116 38.8792C87.2654 38.8562 87.2137 38.8527 87.1655 38.8693C87.1174 38.8859 87.0756 38.9216 87.0476 38.9701L86.3156 40.2635C86.2981 40.2944 86.2867 40.3293 86.2821 40.3658C86.2775 40.4024 86.2798 40.4397 86.289 40.475C86.2982 40.5104 86.3139 40.543 86.3351 40.5705C86.3563 40.598 86.3824 40.6197 86.4116 40.6341L87.1676 40.9976C87.1974 41.0117 87.2294 41.0181 87.2616 41.0164C87.2937 41.0147 87.3251 41.0048 87.3536 40.9875C87.3822 40.9702 87.4071 40.9459 87.4268 40.9163C87.4465 40.8866 87.4604 40.8524 87.4676 40.8159L87.7316 39.2987C87.7407 39.2415 87.7325 39.1824 87.7085 39.1314C87.6844 39.0804 87.6459 39.0407 87.5996 39.0191Z" fill="#407BFF"/>
<path d="M137.67 38.25H117.474C117.295 38.2614 117.117 38.2085 116.965 38.0984C116.812 37.9884 116.693 37.8266 116.622 37.6348C116.254 36.7974 116.13 35.8437 116.267 34.9167C116.404 33.9898 116.795 33.1396 117.382 32.4937C117.968 31.8478 118.719 31.441 119.521 31.3343C120.323 31.2275 121.133 31.4267 121.83 31.9018L121.866 31.783C123.198 27.5322 126.708 24.5958 129.702 25.225C132.024 25.7074 133.35 28.1894 133.218 31.2586C133.669 31.0486 134.158 30.9726 134.641 31.0372C135.124 31.1019 135.585 31.3053 135.984 31.6292C136.226 31.8861 136.418 32.2009 136.546 32.5519C136.674 32.903 136.736 33.2822 136.728 33.6637C137.73 33.5169 138.576 33.8035 138.99 34.5726C139.176 35.0032 139.265 35.4817 139.249 35.9634C139.233 36.4451 139.113 36.9143 138.9 37.3272C138.786 37.5969 138.612 37.8254 138.395 37.988C138.178 38.1507 137.927 38.2413 137.67 38.25Z" fill="#407BFF"/>
<path opacity="0.6" d="M137.67 38.25H117.474C117.295 38.2614 117.117 38.2085 116.965 38.0984C116.812 37.9884 116.693 37.8266 116.622 37.6348C116.254 36.7974 116.13 35.8437 116.267 34.9167C116.404 33.9898 116.795 33.1396 117.382 32.4937C117.968 31.8478 118.719 31.441 119.521 31.3343C120.323 31.2275 121.133 31.4267 121.83 31.9018L121.866 31.783C123.198 27.5322 126.708 24.5958 129.702 25.225C132.024 25.7074 133.35 28.1894 133.218 31.2586C133.669 31.0486 134.158 30.9726 134.641 31.0372C135.124 31.1019 135.585 31.3053 135.984 31.6292C136.226 31.8861 136.418 32.2009 136.546 32.5519C136.674 32.903 136.736 33.2822 136.728 33.6637C137.73 33.5169 138.576 33.8035 138.99 34.5726C139.176 35.0032 139.265 35.4817 139.249 35.9634C139.233 36.4451 139.113 36.9143 138.9 37.3272C138.786 37.5969 138.612 37.8254 138.395 37.988C138.178 38.1507 137.927 38.2413 137.67 38.25Z" fill="white"/>
<path d="M59.0879 47.6815H69.1859C69.2879 47.6789 69.3882 47.65 69.4795 47.5968C69.5708 47.5436 69.6509 47.4675 69.7139 47.3739C70.3139 46.451 70.5539 45.4302 70.1699 44.794C69.7859 44.1578 68.9699 44.0949 68.0579 44.5074V44.4445C68.0939 42.347 66.8219 40.8509 65.2199 41.1655C64.574 41.3419 63.9796 41.7142 63.497 42.2446C63.0144 42.775 62.6607 43.4447 62.4719 44.1858C62.2346 44.0858 61.9807 44.0509 61.73 44.0836C61.4792 44.1163 61.2383 44.2159 61.0259 44.3745C60.7032 44.616 60.4552 44.9711 60.3179 45.3883C60.0883 45.3438 59.853 45.3616 59.6302 45.4404C59.4075 45.5193 59.2034 45.6569 59.0339 45.8427C58.8796 46.0247 58.7627 46.2451 58.692 46.4873C58.6214 46.7295 58.5987 46.9872 58.6259 47.241C58.6408 47.3689 58.6968 47.4854 58.7825 47.5672C58.8682 47.6489 58.9774 47.6897 59.0879 47.6815Z" fill="#407BFF"/>
<path opacity="0.6" d="M59.0879 47.6815H69.1859C69.2879 47.6789 69.3882 47.65 69.4795 47.5968C69.5708 47.5436 69.6509 47.4675 69.7139 47.3739C70.3139 46.451 70.5539 45.4302 70.1699 44.794C69.7859 44.1578 68.9699 44.0949 68.0579 44.5074V44.4445C68.0939 42.347 66.8219 40.8509 65.2199 41.1655C64.574 41.3419 63.9796 41.7142 63.497 42.2446C63.0144 42.775 62.6607 43.4447 62.4719 44.1858C62.2346 44.0858 61.9807 44.0509 61.73 44.0836C61.4792 44.1163 61.2383 44.2159 61.0259 44.3745C60.7032 44.616 60.4552 44.9711 60.3179 45.3883C60.0883 45.3438 59.853 45.3616 59.6302 45.4404C59.4075 45.5193 59.2034 45.6569 59.0339 45.8427C58.8796 46.0247 58.7627 46.2451 58.692 46.4873C58.6214 46.7295 58.5987 46.9872 58.6259 47.241C58.6408 47.3689 58.6968 47.4854 58.7825 47.5672C58.8682 47.6489 58.9774 47.6897 59.0879 47.6815Z" fill="white"/>
<path d="M225.702 22.5543C224.676 21.114 222.996 20.5617 221.154 20.8484C220.91 19.3203 220.184 17.9537 219.12 17.0171C217.656 15.7726 215.736 15.6188 213.786 16.3179C213.09 10.543 209.826 5.86575 205.302 4.94987C199.458 3.76832 193.764 9.30552 192.57 17.3107C192.57 17.3876 192.57 17.4645 192.57 17.5414C189.438 15.9683 186.216 16.255 184.422 18.6041C181.95 21.8411 183.114 27.7559 187.02 31.8039C188.663 33.5598 190.7 34.7357 192.894 35.1947C194.352 38.1731 198.102 40.8368 203.904 40.8508C210.456 40.8508 216.99 39.0051 217.926 35.5933C219.918 35.4411 221.813 34.5381 223.326 33.0204C226.524 29.9022 227.598 25.225 225.702 22.5543Z" fill="#263238"/>
<path d="M181.477 35.8939C180.277 37.0195 176.077 45.2345 178.345 43.6404C180.613 42.0464 181.477 35.8939 181.477 35.8939Z" fill="#407BFF"/>
<path d="M183.846 51.9741C183.09 52.6733 180.48 57.8259 181.884 56.8192C183.288 55.8124 183.846 51.9741 183.846 51.9741Z" fill="#407BFF"/>
<path d="M176.4 72.473C175.644 73.1722 173.028 78.3248 174.438 77.3181C175.848 76.3113 176.4 72.473 176.4 72.473Z" fill="#407BFF"/>
<path d="M211.422 52.6803C210.666 53.3794 208.056 58.5251 209.466 57.5253C210.876 56.5256 211.422 52.6803 211.422 52.6803Z" fill="#407BFF"/>
<path d="M198 50.4921C196.8 51.6107 192.6 59.8326 194.868 58.2316C197.136 56.6305 198 50.4921 198 50.4921Z" fill="#407BFF"/>
<path d="M219.666 41.3262C218.466 42.4448 214.266 50.6597 216.534 49.0657C218.802 47.4716 219.666 41.3262 219.666 41.3262Z" fill="#407BFF"/>
<path d="M218.436 58.7628C217.236 59.8814 213.036 68.1033 215.31 66.5023C217.584 64.9013 218.436 58.7628 218.436 58.7628Z" fill="#407BFF"/>
<path d="M209.052 45.2764C208.14 46.1153 204.996 52.3237 206.694 51.1142C208.392 49.9047 209.052 45.2764 209.052 45.2764Z" fill="#407BFF"/>
<path d="M194.202 41.3262C193.002 42.4448 188.802 50.6597 191.07 49.0657C193.338 47.4716 194.202 41.3262 194.202 41.3262Z" fill="#407BFF"/>
<path d="M173.592 57.6582C172.392 58.7768 168.192 66.9917 170.466 65.3977C172.74 63.8037 173.592 57.6582 173.592 57.6582Z" fill="#407BFF"/>
</svg>
