<svg xmlns="http://www.w3.org/2000/svg" width="30" height="30" viewBox="0 0 20 20" fill="none">
  <path fill-rule="evenodd" clip-rule="evenodd" d="M11.8393 4.02484C12.2171 4.1415 12.5782 4.2915 12.9227 4.47484L14.4502 3.55817C14.6095 3.46264 14.7961 3.42305 14.9804 3.4457C15.1648 3.46835 15.3363 3.55193 15.4677 3.68317L16.316 4.5315C16.4473 4.66292 16.5308 4.83442 16.5535 5.01876C16.5761 5.2031 16.5365 5.38973 16.441 5.549L15.5243 7.0765C15.7077 7.42095 15.8577 7.78206 15.9743 8.15984L17.7018 8.59234C17.8821 8.63748 18.042 8.74154 18.1563 8.888C18.2706 9.03445 18.3327 9.2149 18.3327 9.40067V10.599C18.3327 10.7848 18.2706 10.9652 18.1563 11.1117C18.042 11.2581 17.8821 11.3622 17.7018 11.4073L15.9743 11.8398C15.8577 12.2176 15.7077 12.5787 15.5243 12.9232L16.441 14.4507C16.5365 14.6099 16.5761 14.7966 16.5535 14.9809C16.5308 15.1653 16.4473 15.3368 16.316 15.4682L15.4677 16.3165C15.3363 16.4477 15.1648 16.5313 14.9804 16.554C14.7961 16.5766 14.6095 16.537 14.4502 16.4415L12.9227 15.5248C12.5782 15.7082 12.2171 15.8582 11.8393 15.9748L11.4068 17.7023C11.3617 17.8825 11.2576 18.0425 11.1112 18.1568C10.9647 18.2711 10.7843 18.3332 10.5985 18.3332H9.40018C9.21441 18.3332 9.03396 18.2711 8.88751 18.1568C8.74106 18.0425 8.63699 17.8825 8.59185 17.7023L8.15935 15.9748C7.78493 15.8591 7.42222 15.7085 7.07601 15.5248L5.54852 16.4415C5.38924 16.537 5.20261 16.5766 5.01827 16.554C4.83393 16.5313 4.66243 16.4477 4.53102 16.3165L3.68268 15.4682C3.55144 15.3368 3.46786 15.1653 3.44521 14.9809C3.42257 14.7966 3.46215 14.6099 3.55768 14.4507L4.47435 12.9232C4.29072 12.577 4.14005 12.2143 4.02435 11.8398L2.29685 11.4073C2.11678 11.3622 1.95693 11.2583 1.84265 11.112C1.72837 10.9657 1.66621 10.7855 1.66602 10.5998V9.4015C1.66602 9.21573 1.7281 9.03528 1.8424 8.88883C1.95669 8.74238 2.11664 8.63831 2.29685 8.59317L4.02435 8.16067C4.14102 7.78289 4.29102 7.42178 4.47435 7.07734L3.55768 5.54984C3.46215 5.39056 3.42257 5.20394 3.44521 5.01959C3.46786 4.83525 3.55144 4.66375 3.68268 4.53234L4.53102 3.68317C4.66243 3.55193 4.83393 3.46835 5.01827 3.4457C5.20261 3.42305 5.38924 3.46264 5.54852 3.55817L7.07601 4.47484C7.42046 4.2915 7.78157 4.1415 8.15935 4.02484L8.59185 2.29734C8.63696 2.11727 8.7409 1.95742 8.88718 1.84314C9.03346 1.72886 9.21372 1.66669 9.39935 1.6665H10.5977C10.7835 1.66651 10.9639 1.72859 11.1104 1.84288C11.2568 1.95718 11.3609 2.11713 11.406 2.29734L11.8393 4.02484ZM9.99935 13.3332C10.8834 13.3332 11.7312 12.982 12.3564 12.3569C12.9815 11.7317 13.3327 10.8839 13.3327 9.99984C13.3327 9.11578 12.9815 8.26794 12.3564 7.64281C11.7312 7.01769 10.8834 6.6665 9.99935 6.6665C9.11529 6.6665 8.26745 7.01769 7.64233 7.64281C7.0172 8.26794 6.66602 9.11578 6.66602 9.99984C6.66602 10.8839 7.0172 11.7317 7.64233 12.3569C8.26745 12.982 9.11529 13.3332 9.99935 13.3332Z" fill="#072ACB"/>
</svg>