<svg width="498" height="500" viewBox="0 0 498 500" fill="none" xmlns="http://www.w3.org/2000/svg">
<path d="M249 420C155 420 79 344 79 250C79 156 155 80 249 80C343 80 419 156 419 250C419 344 342 420 249 420ZM249 100C166 100 99 167 99 250C99 333 166 400 249 400C332 400 399 333 399 250C399 167 331 100 249 100Z" fill="#282727"/>
<path d="M152.388 373L134.46 365C139.44 353 155.376 346 172.308 338C189.24 330 210.156 321 210.156 310V295C204.18 290 194.22 279 192.228 263C187.248 258 179.28 249 179.28 237C179.28 230 182.268 224 184.26 220C182.268 212 180.276 197 180.276 185C180.276 146 207.168 120 249.996 120C261.948 120 276.888 123 284.856 132C303.78 136 319.716 158 319.716 185C319.716 202 316.728 216 314.736 223C316.728 226 318.72 231 318.72 237C318.72 250 311.748 259 305.772 263C303.78 279 294.816 289 288.84 294V310C288.84 319 306.768 326 322.704 332C341.628 339 361.548 347 368.52 363L349.596 370C346.608 362 330.672 356 315.732 351C293.82 343 268.92 334 268.92 311V285L273.9 282C273.9 282 285.852 274 285.852 258V251L291.828 248C292.824 248 297.804 245 297.804 237C297.804 235 295.812 232 294.816 231L290.832 227L292.824 222C292.824 222 297.804 206 297.804 186C297.804 167 286.848 153 277.884 153H271.908L268.92 148C268.92 144 261.948 140 249.996 140C219.12 140 200.196 157 200.196 185C200.196 198 205.176 220 205.176 220L206.172 225L202.188 230C201.192 230 199.2 233 199.2 237C199.2 242 205.176 248 208.164 250L212.148 253V258C212.148 273 225.096 281 225.096 282L230.076 285V311C230.076 335 204.18 347 180.276 357C169.32 361 154.38 368 152.388 373Z" fill="#111111"/>
<rect x="339" y="331" width="60" height="60" rx="30" fill="#072ACB"/>
<path d="M369 365.688C371.071 365.688 372.75 364.009 372.75 361.938C372.75 359.866 371.071 358.188 369 358.188C366.929 358.188 365.25 359.866 365.25 361.938C365.25 364.009 366.929 365.688 369 365.688Z" fill="white"/>
<path d="M380.719 354.438H375.855C375.68 354.438 375.462 354.324 375.292 354.145L373.693 351.637C373.043 350.687 372.75 350.688 371.695 350.688H366.305C365.25 350.688 364.898 350.688 364.308 351.637L362.708 354.145C362.578 354.286 362.395 354.438 362.203 354.438V353.5C362.203 353.376 362.154 353.256 362.066 353.169C361.978 353.081 361.859 353.031 361.734 353.031H359.391C359.266 353.031 359.147 353.081 359.059 353.169C358.971 353.256 358.922 353.376 358.922 353.5V354.438H357.281C356.908 354.438 356.551 354.586 356.287 354.849C356.023 355.113 355.875 355.471 355.875 355.844V369.906C355.875 370.279 356.023 370.637 356.287 370.901C356.551 371.164 356.908 371.312 357.281 371.312H380.719C381.092 371.312 381.449 371.164 381.713 370.901C381.977 370.637 382.125 370.279 382.125 369.906V355.844C382.125 355.471 381.977 355.113 381.713 354.849C381.449 354.586 381.092 354.438 380.719 354.438ZM369.264 367.557C368.13 367.61 367.007 367.319 366.042 366.722C365.076 366.125 364.314 365.25 363.855 364.212C363.397 363.174 363.263 362.021 363.471 360.905C363.679 359.79 364.22 358.763 365.023 357.96C365.825 357.158 366.852 356.617 367.968 356.408C369.083 356.2 370.236 356.334 371.274 356.793C372.312 357.252 373.187 358.014 373.784 358.979C374.381 359.945 374.672 361.068 374.619 362.202C374.552 363.6 373.966 364.924 372.976 365.914C371.986 366.904 370.663 367.489 369.264 367.557Z" fill="white"/>
</svg>
