<svg width="45" height="45" viewBox="0 0 45 45" fill="none" xmlns="http://www.w3.org/2000/svg">
<g clip-path="url(#clip0_3_177)">
<path d="M30 26.25C32.4864 26.25 34.871 27.2377 36.6291 28.9959C38.3873 30.754 39.375 33.1386 39.375 35.625V37.5C39.375 38.4946 38.9799 39.4484 38.2766 40.1516C37.5734 40.8549 36.6196 41.25 35.625 41.25H9.375C8.38044 41.25 7.42661 40.8549 6.72335 40.1516C6.02009 39.4484 5.625 38.4946 5.625 37.5V35.625C5.625 33.1386 6.61272 30.754 8.37087 28.9959C10.129 27.2377 12.5136 26.25 15 26.25H30ZM40.1512 17.0269C40.4879 16.687 40.9417 16.4887 41.4198 16.4725C41.8979 16.4562 42.3641 16.6234 42.723 16.9396C43.0819 17.2559 43.3063 17.6973 43.3504 18.1737C43.3944 18.65 43.2548 19.1251 42.96 19.5019L42.8025 19.68L37.5 24.9825C37.1771 25.3053 36.7476 25.4993 36.2919 25.5279C35.8362 25.5566 35.3858 25.418 35.025 25.1381L34.8488 24.9825L32.1975 22.3312C31.8577 21.9946 31.6593 21.5408 31.6431 21.0627C31.6269 20.5846 31.794 20.1184 32.1102 19.7595C32.4265 19.4006 32.868 19.1762 33.3443 19.1321C33.8206 19.0881 34.2958 19.2277 34.6725 19.5225L34.8488 19.68L36.1744 21.0056L40.1512 17.0269ZM22.5 3.75C24.9864 3.75 27.371 4.73772 29.1291 6.49587C30.8873 8.25403 31.875 10.6386 31.875 13.125C31.875 15.6114 30.8873 17.996 29.1291 19.7541C27.371 21.5123 24.9864 22.5 22.5 22.5C20.0136 22.5 17.629 21.5123 15.8709 19.7541C14.1127 17.996 13.125 15.6114 13.125 13.125C13.125 10.6386 14.1127 8.25403 15.8709 6.49587C17.629 4.73772 20.0136 3.75 22.5 3.75Z" fill="#072AC8"/>
</g>
<defs>
<clipPath id="clip0_3_177">
<rect width="45" height="45" fill="white"/>
</clipPath>
</defs>
</svg>
