<svg width="45" height="45" viewBox="0 0 45 45" fill="none" xmlns="http://www.w3.org/2000/svg">
<path d="M8.4375 8.4375C8.4375 6.94566 9.03013 5.51492 10.085 4.46002C11.1399 3.40513 12.5707 2.8125 14.0625 2.8125C15.5543 2.8125 16.9851 3.40513 18.04 4.46002C19.0949 5.51492 19.6875 6.94566 19.6875 8.4375C19.6875 9.92934 19.0949 11.3601 18.04 12.415C16.9851 13.4699 15.5543 14.0625 14.0625 14.0625C12.5707 14.0625 11.1399 13.4699 10.085 12.415C9.03013 11.3601 8.4375 9.92934 8.4375 8.4375ZM27.5034 12.8925L27.6216 12.9825C28.8149 13.867 30.3096 14.2437 31.7796 14.0302C33.2496 13.8167 34.5755 13.0304 35.4679 11.843C36.3603 10.6555 36.7468 9.16327 36.543 7.69191C36.3392 6.22054 35.5617 4.88951 34.3802 3.98928C33.1986 3.08906 31.709 2.69273 30.2363 2.8868C28.7636 3.08086 27.4275 3.84956 26.5195 5.02514C25.6115 6.20071 25.2053 7.68772 25.3897 9.16165C25.574 10.6356 26.3339 11.9768 27.5034 12.8925ZM17.6288 16.875C17.982 16.2061 18.4666 15.6153 19.0534 15.138C19.6403 14.6606 20.3174 14.3066 21.0442 14.097C21.7711 13.8874 22.5327 13.8266 23.2836 13.9181C24.0345 14.0097 24.7592 14.2518 25.4144 14.6299C26.0696 15.008 26.6418 15.5144 27.0967 16.1188C27.5517 16.7231 27.8801 17.4131 28.0622 18.1473C28.2444 18.8815 28.2766 19.6449 28.1569 20.3918C28.0372 21.1387 27.7681 21.8539 27.3656 22.4944C26.5914 23.7266 25.3697 24.6108 23.9573 24.9613C22.5448 25.3117 21.0515 25.1011 19.7911 24.3737C18.5306 23.6462 17.6012 22.4586 17.198 21.0603C16.7948 19.662 16.9492 18.1619 17.6288 16.875ZM7.03125 16.875H14.5406C14.0399 18.3024 13.9307 19.8379 14.2245 21.3217C14.5183 22.8056 15.2044 24.1836 16.2113 25.3125H15.4688C14.0186 25.3119 12.6038 25.7596 11.4181 26.5944C10.2323 27.4292 9.33371 28.6102 8.84531 29.9756C7.90067 29.5976 7.01657 29.083 6.22125 28.4484C4.10625 26.7469 2.8125 24.2325 2.8125 21.0938C2.8125 19.9749 3.25697 18.9018 4.04814 18.1106C4.83931 17.3195 5.91237 16.875 7.03125 16.875ZM29.5312 25.3125C32.5828 25.3125 35.1816 27.2559 36.1547 29.9756C37.1109 29.5847 37.9941 29.0756 38.7788 28.4484C40.8937 26.7469 42.1875 24.2325 42.1875 21.0938C42.1875 19.9749 41.743 18.9018 40.9519 18.1106C40.1607 17.3195 39.0876 16.875 37.9688 16.875H30.4594C30.7687 17.7553 30.9375 18.7031 30.9375 19.6875C30.9374 21.763 30.1724 23.7656 28.7887 25.3125H29.5312ZM33.4322 30.735C33.6375 31.23 33.75 31.7756 33.75 32.3438C33.75 35.4825 32.4591 37.9969 30.3412 39.6984C28.2572 41.3719 25.4616 42.1875 22.5 42.1875C19.5384 42.1875 16.7428 41.3719 14.6587 39.6984C12.5437 37.9969 11.25 35.4825 11.25 32.3438C11.2485 31.7893 11.3566 31.2401 11.5681 30.7276C11.7796 30.215 12.0903 29.7494 12.4823 29.3573C12.8744 28.9653 13.34 28.6546 13.8526 28.4431C14.3651 28.2316 14.9143 28.1235 15.4688 28.125H29.5312C30.3669 28.1248 31.1837 28.3728 31.8782 28.8374C32.5727 29.3021 33.1135 29.9625 33.4322 30.735Z" fill="#072AC8"/>
</svg>
