<svg width="76" height="72" viewBox="0 0 76 72" fill="none" xmlns="http://www.w3.org/2000/svg">
<path d="M39.05 63.1125C41.69 62.925 44.295 62.5037 46.865 61.8487C50.0275 62.7966 53.3643 63.012 56.6225 62.4787C56.7519 62.4619 56.8821 62.4519 57.0125 62.4487C58.175 62.4487 59.7013 63.1162 61.925 64.5225V62.2125C61.9255 61.81 62.034 61.415 62.2392 61.0688C62.4443 60.7225 62.7385 60.4376 63.0913 60.2437C64.0588 59.7075 64.9588 59.0812 65.78 58.3987C69.02 55.6875 70.85 52.0762 70.85 48.2512C70.8488 46.9863 70.6475 45.7295 70.2538 44.5275C71.2288 42.7275 72.0238 40.83 72.605 38.865C74.48 41.64 75.4925 44.9025 75.5 48.2512C75.5 53.4487 73.0475 58.3012 68.8063 61.845C68.0967 62.4352 67.3516 62.9812 66.575 63.48V68.8875C66.575 70.7475 64.4 71.8125 62.8663 70.71C61.4152 69.6384 59.9135 68.6372 58.3662 67.71C57.9214 67.4485 57.459 67.218 56.9825 67.02C55.7075 67.21 54.41 67.3062 53.09 67.3087C47.795 67.3087 42.9012 65.7412 39.05 63.1125ZM11.0525 52.29C4.3625 46.7025 0.5 39.0675 0.5 30.9C0.5 14.1975 16.4675 0.847473 35.9638 0.847473C55.46 0.847473 71.4313 14.1975 71.4313 30.9C71.4313 47.6025 55.46 60.9487 35.9638 60.9487C33.7713 60.9487 31.6113 60.7825 29.4838 60.45C28.565 60.6637 24.8937 62.8162 19.6025 66.63C17.69 68.0137 14.9675 66.6787 14.9675 64.35V55.125C13.5967 54.2772 12.2883 53.3322 11.0525 52.2975M29.615 54.765C29.7725 54.765 29.935 54.7775 30.1025 54.8025C32.0397 55.1237 34.0001 55.2843 35.9638 55.2825C52.4338 55.2825 65.615 44.2612 65.615 30.9C65.615 17.5387 52.4338 6.52122 35.9638 6.52122C19.5013 6.52122 6.3125 17.5425 6.3125 30.9C6.3125 37.3612 9.39125 43.4437 14.8363 47.9962C16.2113 49.1412 17.7063 50.1675 19.3213 51.075C20.225 51.5812 20.7838 52.5187 20.7838 53.5312V58.8525C24.9688 56.0775 27.7212 54.765 29.6112 54.765" fill="#072AC8"/>
</svg>
