<svg width="41" height="41" viewBox="0 0 41 41" fill="none" xmlns="http://www.w3.org/2000/svg">
<path d="M6.4375 6.4375C6.4375 4.94566 7.03013 3.51492 8.08502 2.46002C9.13992 1.40513 10.5707 0.8125 12.0625 0.8125C13.5543 0.8125 14.9851 1.40513 16.04 2.46002C17.0949 3.51492 17.6875 4.94566 17.6875 6.4375C17.6875 7.92934 17.0949 9.36008 16.04 10.415C14.9851 11.4699 13.5543 12.0625 12.0625 12.0625C10.5707 12.0625 9.13992 11.4699 8.08502 10.415C7.03013 9.36008 6.4375 7.92934 6.4375 6.4375ZM25.5034 10.8925L25.6216 10.9825C26.8149 11.867 28.3096 12.2437 29.7796 12.0302C31.2496 11.8167 32.5755 11.0304 33.4679 9.84297C34.3603 8.65551 34.7468 7.16327 34.543 5.69191C34.3392 4.22054 33.5617 2.88951 32.3802 1.98928C31.1986 1.08906 29.709 0.692734 28.2363 0.886798C26.7636 1.08086 25.4275 1.84956 24.5195 3.02514C23.6115 4.20071 23.2053 5.68772 23.3897 7.16165C23.574 8.63558 24.3339 9.97676 25.5034 10.8925ZM15.6288 14.875C15.982 14.2061 16.4666 13.6153 17.0534 13.138C17.6403 12.6606 18.3174 12.3066 19.0442 12.097C19.7711 11.8874 20.5327 11.8266 21.2836 11.9181C22.0345 12.0097 22.7592 12.2518 23.4144 12.6299C24.0696 13.008 24.6418 13.5144 25.0967 14.1188C25.5517 14.7231 25.8801 15.4131 26.0622 16.1473C26.2444 16.8815 26.2766 17.6449 26.1569 18.3918C26.0372 19.1387 25.7681 19.8539 25.3656 20.4944C24.5914 21.7266 23.3697 22.6108 21.9573 22.9613C20.5448 23.3117 19.0515 23.1011 17.7911 22.3737C16.5306 21.6462 15.6012 20.4586 15.198 19.0603C14.7948 17.662 14.9492 16.1619 15.6288 14.875ZM5.03125 14.875H12.5406C12.0399 16.3024 11.9307 17.8379 12.2245 19.3217C12.5183 20.8056 13.2044 22.1836 14.2113 23.3125H13.4688C12.0186 23.3119 10.6038 23.7596 9.41806 24.5944C8.23233 25.4292 7.33371 26.6102 6.84531 27.9756C5.90067 27.5976 5.01657 27.083 4.22125 26.4484C2.10625 24.7469 0.8125 22.2325 0.8125 19.0938C0.8125 17.9749 1.25697 16.9018 2.04814 16.1106C2.83931 15.3195 3.91237 14.875 5.03125 14.875ZM27.5312 23.3125C30.5828 23.3125 33.1816 25.2559 34.1547 27.9756C35.1109 27.5847 35.9941 27.0756 36.7788 26.4484C38.8937 24.7469 40.1875 22.2325 40.1875 19.0938C40.1875 17.9749 39.743 16.9018 38.9519 16.1106C38.1607 15.3195 37.0876 14.875 35.9688 14.875H28.4594C28.7687 15.7553 28.9375 16.7031 28.9375 17.6875C28.9374 19.763 28.1724 21.7656 26.7887 23.3125H27.5312ZM31.4322 28.735C31.6375 29.23 31.75 29.7756 31.75 30.3438C31.75 33.4825 30.4591 35.9969 28.3412 37.6984C26.2572 39.3719 23.4616 40.1875 20.5 40.1875C17.5384 40.1875 14.7428 39.3719 12.6587 37.6984C10.5437 35.9969 9.25 33.4825 9.25 30.3438C9.24852 29.7893 9.35662 29.2401 9.56811 28.7276C9.7796 28.215 10.0903 27.7494 10.4823 27.3573C10.8744 26.9653 11.34 26.6546 11.8526 26.4431C12.3651 26.2316 12.9143 26.1235 13.4688 26.125H27.5312C28.3669 26.1248 29.1837 26.3728 29.8782 26.8374C30.5727 27.3021 31.1135 27.9625 31.4322 28.735Z" fill="#072AC8"/>
</svg>
