<svg width="31" height="45" viewBox="0 0 31 45" fill="none" xmlns="http://www.w3.org/2000/svg">
<path d="M14.1201 34.875C14.4102 35.3232 14.9199 35.6221 15.5 35.6221C16.0801 35.6221 16.5898 35.3232 16.8887 34.875L26.5742 19.916C27.875 17.9033 28.6309 15.6885 28.6309 13.1221C28.6221 5.7041 22.7949 0 15.5 0C8.20508 0 2.37793 5.7041 2.37793 13.1221C2.37793 15.6885 3.13379 17.9033 4.43457 19.916L14.1201 34.875ZM15.5 5.625C19.6396 5.625 22.9971 8.98242 22.9971 13.1221C22.9971 17.2617 19.6396 20.6191 15.5 20.6191C11.3604 20.6191 8.00293 17.2617 8.00293 13.1221C8.00293 8.98242 11.3604 5.625 15.5 5.625ZM25.1152 28.4326L15.5 41.2471L5.88477 28.4326C2.59766 30.1553 0.49707 32.7305 0.49707 35.6221C0.49707 40.7988 7.21191 45 15.5 45C23.7881 45 30.5029 40.7988 30.5029 35.6221C30.5029 32.7305 28.4023 30.1553 25.1152 28.4326Z" fill="#072AC8"/>
</svg>
