<svg width="45" height="45" viewBox="0 0 45 45" fill="none" xmlns="http://www.w3.org/2000/svg">
<path d="M31.9875 24.375C28.5 24.375 25.575 26.8687 24.825 30.1875C23.0437 29.4187 21.4125 29.625 20.175 30.1687C19.4062 26.8312 16.4812 24.375 13.0125 24.375C8.94375 24.375 5.625 27.7312 5.625 31.875C5.625 36.0187 8.94375 39.375 13.0125 39.375C16.875 39.375 20.025 36.3375 20.325 32.475C20.9625 32.025 22.6313 31.1812 24.675 32.5125C25.0125 36.3562 28.125 39.375 31.9875 39.375C36.0562 39.375 39.375 36.0187 39.375 31.875C39.375 27.7312 36.0562 24.375 31.9875 24.375ZM13.0125 37.2375C10.0875 37.2375 7.74375 34.8375 7.74375 31.875C7.74375 28.9125 10.1063 26.5125 13.0125 26.5125C15.9375 26.5125 18.2812 28.9125 18.2812 31.875C18.2812 34.8375 15.9375 37.2375 13.0125 37.2375ZM31.9875 37.2375C29.0625 37.2375 26.7188 34.8375 26.7188 31.875C26.7188 28.9125 29.0625 26.5125 31.9875 26.5125C34.9125 26.5125 37.275 28.9125 37.275 31.875C37.275 34.8375 34.8937 37.2375 31.9875 37.2375ZM41.25 19.6875H3.75V22.5H41.25V19.6875ZM29.1187 4.93122C28.7062 4.01247 27.6562 3.52497 26.6625 3.84372L22.5 5.23122L18.3188 3.84372L18.225 3.82497C17.2313 3.54372 16.1813 4.06872 15.8063 5.02497L11.25 16.875H33.75L29.175 5.02497L29.1187 4.93122Z" fill="#072AC8"/>
</svg>
