<svg width="45" height="45" viewBox="0 0 45 45" fill="none" xmlns="http://www.w3.org/2000/svg">
<path d="M24.375 16.875H34.6875L24.375 6.5625V16.875ZM11.25 3.75H26.25L37.5 15V37.5C37.5 38.4946 37.1049 39.4484 36.4016 40.1516C35.6984 40.8549 34.7446 41.25 33.75 41.25H11.25C10.2554 41.25 9.30161 40.8549 8.59835 40.1516C7.89509 39.4484 7.5 38.4946 7.5 37.5V7.5C7.5 5.41875 9.16875 3.75 11.25 3.75ZM13.125 37.5H16.875V26.25H13.125V37.5ZM20.625 37.5H24.375V22.5H20.625V37.5ZM28.125 37.5H31.875V30H28.125V37.5Z" fill="#072AC8"/>
</svg>
