<svg width="39" height="39" viewBox="0 0 39 39" fill="none" xmlns="http://www.w3.org/2000/svg">
<path d="M32.625 5.42063C32.6253 6.11782 32.47 6.80629 32.1706 7.43589C31.8711 8.06549 31.435 8.62036 30.894 9.06008C30.3529 9.4998 29.7206 9.8133 29.0431 9.97774C28.3656 10.1422 27.6599 10.1534 26.9775 10.0106L24.5775 13.9819C25.1869 14.5406 25.7025 15.1988 26.0963 15.9319C23.9722 16.3582 22.0614 17.507 20.6886 19.183C19.3159 20.8589 18.5659 22.9586 18.5662 25.125V26.9438C17.5568 26.8166 16.5837 26.4854 15.7063 25.9703C14.8289 25.4552 14.0655 24.767 13.4625 23.9475L10.0988 25.5375C10.1175 25.71 10.1269 25.885 10.1269 26.0625C10.1266 27.1598 9.74135 28.2222 9.03829 29.0646C8.33524 29.9071 7.35892 30.4762 6.2794 30.6729C5.19988 30.8695 4.08559 30.6812 3.13064 30.1407C2.17568 29.6003 1.44058 28.742 1.0534 27.7153C0.66621 26.6886 0.651474 25.5586 1.01176 24.5221C1.37204 23.4857 2.0845 22.6085 3.02504 22.0433C3.96558 21.4782 5.07458 21.2609 6.15886 21.4293C7.24313 21.5977 8.23397 22.1412 8.95875 22.965L12.2475 21.4125C11.944 20.2611 11.919 19.0539 12.1746 17.8909C12.4303 16.7279 12.9591 15.6424 13.7175 14.7244L11.8594 12.6056C10.8188 13.0195 9.66451 13.0471 8.60533 12.6836C7.54616 12.3201 6.65213 11.5894 6.08504 10.6237C5.51796 9.65812 5.31531 8.52139 5.51375 7.41929C5.7122 6.31719 6.29864 5.32254 7.16693 4.61538C8.03522 3.90822 9.12798 3.53526 10.2474 3.56402C11.3669 3.59278 12.4391 4.02134 13.2699 4.77215C14.1007 5.52296 14.6353 6.5464 14.7769 7.65724C14.9185 8.76807 14.6578 9.8929 14.0419 10.8281L15.885 12.9281C16.9925 12.3191 18.236 11.9998 19.5 12C20.4469 12 21.3563 12.1763 22.1888 12.4969L24.5231 8.63438C23.9991 8.07731 23.6194 7.40048 23.417 6.66295C23.2147 5.92541 23.1959 5.14957 23.3622 4.40309C23.5286 3.65661 23.8751 2.96218 24.3715 2.38036C24.8678 1.79854 25.499 1.34701 26.21 1.06516C26.921 0.783311 27.6901 0.679699 28.4503 0.763363C29.2105 0.847028 29.9387 1.11543 30.5713 1.54515C31.204 1.97487 31.7219 2.55286 32.0798 3.22871C32.4378 3.90455 32.625 4.65584 32.625 5.42063ZM27.9431 17.625C25.954 17.625 24.0463 18.4152 22.6398 19.8217C21.2333 21.2282 20.4431 23.1359 20.4431 25.125V30.75L18.6619 32.25C18.0863 32.7375 17.7994 32.9813 17.7113 33.1706C17.6076 33.3955 17.5972 33.6523 17.6822 33.8848C17.7672 34.1174 17.9408 34.3068 18.165 34.4119C18.3525 34.5 18.7313 34.5 19.485 34.5H36.3975C37.1531 34.5 37.53 34.5 37.7194 34.4119C37.9436 34.3068 38.1172 34.1174 38.2022 33.8848C38.2872 33.6523 38.2767 33.3955 38.1731 33.1706C38.085 32.9813 37.7981 32.7375 37.2206 32.2519L35.4431 30.75V25.125C35.4431 23.1359 34.653 21.2282 33.2464 19.8217C31.8399 18.4152 29.9323 17.625 27.9431 17.625ZM30.7556 36.375C30.345 37.4681 29.2406 38.25 27.9431 38.25C26.6438 38.25 25.5394 37.4681 25.1306 36.375H30.7556Z" fill="#072AC8"/>
</svg>
